G75*
G70*
%OFA0B0*%
%FSLAX24Y24*%
%IPPOS*%
%LPD*%
%AMOC8*
5,1,8,0,0,1.08239X$1,22.5*
%
%ADD10C,0.0000*%
%ADD11C,0.0640*%
%ADD12C,0.0640*%
%ADD13C,0.0820*%
%ADD14C,0.0730*%
%ADD15C,0.0740*%
%ADD16C,0.1380*%
%ADD17R,0.0820X0.0820*%
%ADD18OC8,0.0710*%
%ADD19C,0.0848*%
%ADD20OC8,0.0680*%
%ADD21C,0.0860*%
%ADD22C,0.2380*%
%ADD23R,0.3080X0.3080*%
%ADD24R,0.1175X0.1175*%
%ADD25R,0.0730X0.0730*%
%ADD26C,0.0714*%
D10*
X002939Y001824D02*
X038439Y001824D01*
X038522Y001826D01*
X038605Y001832D01*
X038688Y001842D01*
X038770Y001856D01*
X038852Y001873D01*
X038932Y001895D01*
X039011Y001920D01*
X039089Y001949D01*
X039166Y001982D01*
X039241Y002019D01*
X039314Y002058D01*
X039385Y002102D01*
X039454Y002148D01*
X039521Y002198D01*
X039585Y002251D01*
X039647Y002307D01*
X039706Y002366D01*
X039762Y002428D01*
X039815Y002492D01*
X039865Y002559D01*
X039911Y002628D01*
X039955Y002699D01*
X039994Y002772D01*
X040031Y002847D01*
X040064Y002924D01*
X040093Y003002D01*
X040118Y003081D01*
X040140Y003161D01*
X040157Y003243D01*
X040171Y003325D01*
X040181Y003408D01*
X040187Y003491D01*
X040189Y003574D01*
X040189Y031074D01*
X040187Y031157D01*
X040181Y031240D01*
X040171Y031323D01*
X040157Y031405D01*
X040140Y031487D01*
X040118Y031567D01*
X040093Y031646D01*
X040064Y031724D01*
X040031Y031801D01*
X039994Y031876D01*
X039955Y031949D01*
X039911Y032020D01*
X039865Y032089D01*
X039815Y032156D01*
X039762Y032220D01*
X039706Y032282D01*
X039647Y032341D01*
X039585Y032397D01*
X039521Y032450D01*
X039454Y032500D01*
X039385Y032546D01*
X039314Y032590D01*
X039241Y032629D01*
X039166Y032666D01*
X039089Y032699D01*
X039011Y032728D01*
X038932Y032753D01*
X038852Y032775D01*
X038770Y032792D01*
X038688Y032806D01*
X038605Y032816D01*
X038522Y032822D01*
X038439Y032824D01*
X002939Y032824D01*
X002856Y032822D01*
X002773Y032816D01*
X002690Y032806D01*
X002608Y032792D01*
X002526Y032775D01*
X002446Y032753D01*
X002367Y032728D01*
X002289Y032699D01*
X002212Y032666D01*
X002137Y032629D01*
X002064Y032590D01*
X001993Y032546D01*
X001924Y032500D01*
X001857Y032450D01*
X001793Y032397D01*
X001731Y032341D01*
X001672Y032282D01*
X001616Y032220D01*
X001563Y032156D01*
X001513Y032089D01*
X001467Y032020D01*
X001423Y031949D01*
X001384Y031876D01*
X001347Y031801D01*
X001314Y031724D01*
X001285Y031646D01*
X001260Y031567D01*
X001238Y031487D01*
X001221Y031405D01*
X001207Y031323D01*
X001197Y031240D01*
X001191Y031157D01*
X001189Y031074D01*
X001189Y003574D01*
X001191Y003491D01*
X001197Y003408D01*
X001207Y003325D01*
X001221Y003243D01*
X001238Y003161D01*
X001260Y003081D01*
X001285Y003002D01*
X001314Y002924D01*
X001347Y002847D01*
X001384Y002772D01*
X001423Y002699D01*
X001467Y002628D01*
X001513Y002559D01*
X001563Y002492D01*
X001616Y002428D01*
X001672Y002366D01*
X001731Y002307D01*
X001793Y002251D01*
X001857Y002198D01*
X001924Y002148D01*
X001993Y002102D01*
X002064Y002058D01*
X002137Y002019D01*
X002212Y001982D01*
X002289Y001949D01*
X002367Y001920D01*
X002446Y001895D01*
X002526Y001873D01*
X002608Y001856D01*
X002690Y001842D01*
X002773Y001832D01*
X002856Y001826D01*
X002939Y001824D01*
D11*
X003189Y019044D02*
X003189Y019604D01*
X004189Y019604D02*
X004189Y019044D01*
X005189Y019044D02*
X005189Y019604D01*
X006189Y019604D02*
X006189Y019044D01*
X007189Y019044D02*
X007189Y019604D01*
X008189Y019604D02*
X008189Y019044D01*
X009189Y019044D02*
X009189Y019604D01*
X010189Y019604D02*
X010189Y019044D01*
X011189Y019044D02*
X011189Y019604D01*
X012189Y019604D02*
X012189Y019044D01*
X013189Y019044D02*
X013189Y019604D01*
X014189Y019604D02*
X014189Y019044D01*
X015189Y019044D02*
X015189Y019604D01*
X016189Y019604D02*
X016189Y019044D01*
X017189Y019044D02*
X017189Y019604D01*
X018189Y019604D02*
X018189Y019044D01*
X019189Y019044D02*
X019189Y019604D01*
X020189Y019604D02*
X020189Y019044D01*
X021189Y019044D02*
X021189Y019604D01*
X022189Y019604D02*
X022189Y019044D01*
X022189Y025044D02*
X022189Y025604D01*
X021189Y025604D02*
X021189Y025044D01*
X020189Y025044D02*
X020189Y025604D01*
X019189Y025604D02*
X019189Y025044D01*
X018189Y025044D02*
X018189Y025604D01*
X017189Y025604D02*
X017189Y025044D01*
X016189Y025044D02*
X016189Y025604D01*
X015189Y025604D02*
X015189Y025044D01*
X014189Y025044D02*
X014189Y025604D01*
X013189Y025604D02*
X013189Y025044D01*
X012189Y025044D02*
X012189Y025604D01*
X011189Y025604D02*
X011189Y025044D01*
X010189Y025044D02*
X010189Y025604D01*
X009189Y025604D02*
X009189Y025044D01*
X008189Y025044D02*
X008189Y025604D01*
X007189Y025604D02*
X007189Y025044D01*
X006189Y025044D02*
X006189Y025604D01*
X005189Y025604D02*
X005189Y025044D01*
X004189Y025044D02*
X004189Y025604D01*
X003189Y025604D02*
X003189Y025044D01*
X025189Y007604D02*
X025189Y007044D01*
X027189Y007044D02*
X027189Y007604D01*
X027189Y003604D02*
X027189Y003044D01*
X025189Y003044D02*
X025189Y003604D01*
D12*
X011139Y027824D03*
X009239Y027824D03*
D13*
X010589Y031824D03*
X011589Y031824D03*
X012589Y031824D03*
X013589Y031824D03*
X014589Y031824D03*
X015589Y031824D03*
X016589Y031824D03*
X017589Y031824D03*
X019189Y031824D03*
X020189Y031824D03*
X021189Y031824D03*
X022189Y031824D03*
X023189Y031824D03*
X024189Y031824D03*
X025189Y031824D03*
X026189Y031824D03*
X028189Y031824D03*
X029189Y031824D03*
X030189Y031824D03*
X031189Y031824D03*
X032189Y031824D03*
X033189Y031824D03*
X034189Y031824D03*
X035189Y031824D03*
X027189Y023824D03*
X027189Y022824D03*
X026189Y022824D03*
X026189Y021824D03*
X027189Y021824D03*
X024689Y018824D03*
X023939Y018324D03*
X024689Y017824D03*
X024189Y012824D03*
X023189Y012824D03*
X022189Y012824D03*
X021189Y012824D03*
X019189Y012824D03*
X018189Y012824D03*
X017189Y012824D03*
X016189Y012824D03*
X015189Y012824D03*
X014189Y012824D03*
X012189Y014324D03*
X015689Y015824D03*
X016189Y015074D03*
X016689Y015824D03*
X021189Y010824D03*
X022189Y010824D03*
X023189Y010824D03*
X024689Y010824D03*
X025689Y010824D03*
X026689Y010824D03*
X028689Y010824D03*
X029689Y010824D03*
X030689Y010824D03*
X032189Y010824D03*
X033189Y010824D03*
X033439Y009574D03*
X032189Y008574D03*
X031939Y006324D03*
X030939Y006324D03*
X030159Y004714D03*
X028689Y003324D03*
X030159Y002934D03*
X032719Y002934D03*
X032719Y004714D03*
X033439Y005574D03*
X028689Y007324D03*
X028189Y008574D03*
X026189Y008574D03*
X023189Y007324D03*
X022189Y008574D03*
X019189Y007324D03*
X017189Y007324D03*
X015189Y007324D03*
X015189Y006324D03*
X013939Y006324D03*
X013939Y007324D03*
X014969Y004714D03*
X014969Y002934D03*
X012409Y002934D03*
X012409Y004714D03*
X009689Y006124D03*
X008689Y006024D03*
X007689Y006124D03*
X006689Y006024D03*
X005689Y006124D03*
X004189Y006574D03*
X003189Y006574D03*
X002689Y007824D03*
X002689Y008824D03*
X002689Y010074D03*
X002689Y011074D03*
X003189Y012324D03*
X003189Y014324D03*
X003689Y016074D03*
X003189Y016824D03*
X004189Y016824D03*
X007189Y014324D03*
X008189Y014324D03*
X007189Y012324D03*
X023189Y003324D03*
X025189Y012824D03*
X026189Y012824D03*
X027189Y012824D03*
X028189Y012824D03*
X030189Y012824D03*
X031189Y012824D03*
X032189Y012824D03*
X033189Y012824D03*
X034189Y012824D03*
X035189Y012824D03*
X036189Y012824D03*
X037189Y012824D03*
X036189Y015574D03*
X036189Y017324D03*
X032189Y017324D03*
X032189Y015574D03*
D14*
X018174Y011699D03*
X016205Y011699D03*
X017174Y017324D03*
X015205Y017324D03*
X013689Y017324D03*
X012689Y017324D03*
X012689Y018324D03*
X013689Y018324D03*
X007189Y016324D03*
X013189Y026574D03*
X014189Y026574D03*
X014189Y027824D03*
X013189Y027824D03*
X007189Y027824D03*
X006189Y027824D03*
X004189Y005574D03*
X003189Y005574D03*
D15*
X018697Y005854D03*
X019681Y005854D03*
X019681Y005074D03*
X018697Y005074D03*
X035189Y006824D03*
X036189Y006824D03*
D16*
X021559Y004004D03*
X016819Y004004D03*
D17*
X010689Y006024D03*
X026189Y023824D03*
D18*
X035189Y010824D03*
X036189Y010824D03*
X037189Y010824D03*
X038189Y010824D03*
X038189Y007824D03*
X037189Y007824D03*
X036189Y007824D03*
X035189Y007824D03*
D19*
X031315Y022824D03*
X039189Y022824D03*
D20*
X010189Y009824D03*
X009189Y009824D03*
X008189Y009824D03*
X007189Y009824D03*
X006189Y009824D03*
X006189Y008824D03*
X007189Y008824D03*
X008189Y008824D03*
X009189Y008824D03*
X010189Y008824D03*
D21*
X008189Y012324D03*
X012189Y012324D03*
D22*
X002939Y003574D03*
X029939Y028074D03*
X038439Y031074D03*
X038439Y003574D03*
X002939Y031074D03*
D23*
X035689Y022824D03*
D24*
X035689Y025424D03*
X035689Y020224D03*
D25*
X008189Y016324D03*
D26*
X013189Y010141D02*
X013189Y009507D01*
X014189Y009507D02*
X014189Y010141D01*
X015189Y010141D02*
X015189Y009507D01*
X016189Y009507D02*
X016189Y010141D01*
X017189Y010141D02*
X017189Y009507D01*
X018189Y009507D02*
X018189Y010141D01*
X019189Y010141D02*
X019189Y009507D01*
M02*
