G75*
G70*
%OFA0B0*%
%FSLAX24Y24*%
%IPPOS*%
%LPD*%
%AMOC8*
5,1,8,0,0,1.08239X$1,22.5*
%
%ADD10C,0.0000*%
%ADD11C,0.0040*%
%ADD12C,0.0080*%
%ADD13C,0.0050*%
D10*
X002939Y001824D02*
X038439Y001824D01*
X038522Y001826D01*
X038605Y001832D01*
X038688Y001842D01*
X038770Y001856D01*
X038852Y001873D01*
X038932Y001895D01*
X039011Y001920D01*
X039089Y001949D01*
X039166Y001982D01*
X039241Y002019D01*
X039314Y002058D01*
X039385Y002102D01*
X039454Y002148D01*
X039521Y002198D01*
X039585Y002251D01*
X039647Y002307D01*
X039706Y002366D01*
X039762Y002428D01*
X039815Y002492D01*
X039865Y002559D01*
X039911Y002628D01*
X039955Y002699D01*
X039994Y002772D01*
X040031Y002847D01*
X040064Y002924D01*
X040093Y003002D01*
X040118Y003081D01*
X040140Y003161D01*
X040157Y003243D01*
X040171Y003325D01*
X040181Y003408D01*
X040187Y003491D01*
X040189Y003574D01*
X040189Y031074D01*
X040187Y031157D01*
X040181Y031240D01*
X040171Y031323D01*
X040157Y031405D01*
X040140Y031487D01*
X040118Y031567D01*
X040093Y031646D01*
X040064Y031724D01*
X040031Y031801D01*
X039994Y031876D01*
X039955Y031949D01*
X039911Y032020D01*
X039865Y032089D01*
X039815Y032156D01*
X039762Y032220D01*
X039706Y032282D01*
X039647Y032341D01*
X039585Y032397D01*
X039521Y032450D01*
X039454Y032500D01*
X039385Y032546D01*
X039314Y032590D01*
X039241Y032629D01*
X039166Y032666D01*
X039089Y032699D01*
X039011Y032728D01*
X038932Y032753D01*
X038852Y032775D01*
X038770Y032792D01*
X038688Y032806D01*
X038605Y032816D01*
X038522Y032822D01*
X038439Y032824D01*
X002939Y032824D01*
X002856Y032822D01*
X002773Y032816D01*
X002690Y032806D01*
X002608Y032792D01*
X002526Y032775D01*
X002446Y032753D01*
X002367Y032728D01*
X002289Y032699D01*
X002212Y032666D01*
X002137Y032629D01*
X002064Y032590D01*
X001993Y032546D01*
X001924Y032500D01*
X001857Y032450D01*
X001793Y032397D01*
X001731Y032341D01*
X001672Y032282D01*
X001616Y032220D01*
X001563Y032156D01*
X001513Y032089D01*
X001467Y032020D01*
X001423Y031949D01*
X001384Y031876D01*
X001347Y031801D01*
X001314Y031724D01*
X001285Y031646D01*
X001260Y031567D01*
X001238Y031487D01*
X001221Y031405D01*
X001207Y031323D01*
X001197Y031240D01*
X001191Y031157D01*
X001189Y031074D01*
X001189Y003574D01*
X001191Y003491D01*
X001197Y003408D01*
X001207Y003325D01*
X001221Y003243D01*
X001238Y003161D01*
X001260Y003081D01*
X001285Y003002D01*
X001314Y002924D01*
X001347Y002847D01*
X001384Y002772D01*
X001423Y002699D01*
X001467Y002628D01*
X001513Y002559D01*
X001563Y002492D01*
X001616Y002428D01*
X001672Y002366D01*
X001731Y002307D01*
X001793Y002251D01*
X001857Y002198D01*
X001924Y002148D01*
X001993Y002102D01*
X002064Y002058D01*
X002137Y002019D01*
X002212Y001982D01*
X002289Y001949D01*
X002367Y001920D01*
X002446Y001895D01*
X002526Y001873D01*
X002608Y001856D01*
X002690Y001842D01*
X002773Y001832D01*
X002856Y001826D01*
X002939Y001824D01*
D11*
X002170Y012844D02*
X001709Y012844D01*
X001939Y012844D02*
X002016Y012921D01*
X002016Y013074D01*
X001939Y013151D01*
X001709Y013151D01*
X001786Y013381D02*
X001709Y013458D01*
X001786Y013381D02*
X002093Y013381D01*
X002016Y013305D02*
X002016Y013458D01*
X002016Y013611D02*
X002016Y013765D01*
X002093Y013688D02*
X001786Y013688D01*
X001709Y013765D01*
X001709Y013918D02*
X001709Y014149D01*
X001786Y014225D01*
X001939Y014225D01*
X002016Y014149D01*
X002016Y013918D01*
X001556Y013918D01*
X001709Y014379D02*
X001709Y014609D01*
X001786Y014686D01*
X001863Y014609D01*
X001863Y014455D01*
X001939Y014379D01*
X002016Y014455D01*
X002016Y014686D01*
X002016Y014839D02*
X001939Y014839D01*
X001939Y014916D01*
X002016Y014916D01*
X002016Y014839D01*
X001786Y014839D02*
X001709Y014839D01*
X001709Y014916D01*
X001786Y014916D01*
X001786Y014839D01*
X001709Y015069D02*
X002170Y015376D01*
X002170Y015836D02*
X001709Y015530D01*
X001786Y015990D02*
X001709Y016067D01*
X001709Y016297D01*
X001633Y016297D02*
X002016Y016297D01*
X002016Y016067D01*
X001939Y015990D01*
X001786Y015990D01*
X001556Y016143D02*
X001556Y016220D01*
X001633Y016297D01*
X001709Y016450D02*
X001709Y016604D01*
X001709Y016527D02*
X002016Y016527D01*
X002016Y016450D01*
X002170Y016527D02*
X002246Y016527D01*
X002016Y016757D02*
X002016Y016911D01*
X002093Y016834D02*
X001786Y016834D01*
X001709Y016911D01*
X001709Y017064D02*
X002170Y017064D01*
X002016Y017141D02*
X002016Y017294D01*
X001939Y017371D01*
X001709Y017371D01*
X001786Y017524D02*
X001709Y017601D01*
X001709Y017831D01*
X002016Y017831D01*
X002016Y017985D02*
X002016Y018215D01*
X001939Y018292D01*
X001786Y018292D01*
X001709Y018215D01*
X001709Y017985D01*
X002170Y017985D01*
X002016Y017524D02*
X001786Y017524D01*
X002016Y017141D02*
X001939Y017064D01*
X001786Y018445D02*
X001786Y018522D01*
X001709Y018522D01*
X001709Y018445D01*
X001786Y018445D01*
X001786Y018675D02*
X001709Y018752D01*
X001709Y018982D01*
X001786Y019136D02*
X001709Y019212D01*
X001709Y019366D01*
X001786Y019443D01*
X001939Y019443D01*
X002016Y019366D01*
X002016Y019212D01*
X001939Y019136D01*
X001786Y019136D01*
X002016Y018982D02*
X002016Y018752D01*
X001939Y018675D01*
X001786Y018675D01*
X001709Y019596D02*
X002016Y019596D01*
X002016Y019673D01*
X001939Y019749D01*
X002016Y019826D01*
X001939Y019903D01*
X001709Y019903D01*
X001709Y020056D02*
X002170Y020363D01*
X002016Y020593D02*
X002016Y020824D01*
X002016Y020977D02*
X002016Y021131D01*
X002093Y021054D02*
X001786Y021054D01*
X001709Y021131D01*
X001786Y021284D02*
X001939Y021284D01*
X002016Y021361D01*
X002016Y021514D01*
X001939Y021591D01*
X001863Y021591D01*
X001863Y021284D01*
X001786Y021284D02*
X001709Y021361D01*
X001709Y021514D01*
X002016Y021744D02*
X001709Y021898D01*
X002016Y022051D01*
X001939Y022205D02*
X002016Y022281D01*
X002016Y022435D01*
X001939Y022512D01*
X001863Y022512D01*
X001863Y022205D01*
X001939Y022205D02*
X001786Y022205D01*
X001709Y022281D01*
X001709Y022435D01*
X001709Y022665D02*
X002016Y022665D01*
X002016Y022742D01*
X001939Y022818D01*
X002016Y022895D01*
X001939Y022972D01*
X001709Y022972D01*
X001709Y022818D02*
X001939Y022818D01*
X001786Y023125D02*
X001863Y023202D01*
X001863Y023432D01*
X001939Y023432D02*
X001709Y023432D01*
X001709Y023202D01*
X001786Y023125D01*
X002016Y023202D02*
X002016Y023356D01*
X001939Y023432D01*
X001863Y023586D02*
X002016Y023739D01*
X002016Y023816D01*
X002016Y023969D02*
X002016Y024200D01*
X001939Y024276D01*
X001786Y024276D01*
X001709Y024200D01*
X001709Y023969D01*
X001556Y023969D02*
X002016Y023969D01*
X002016Y023586D02*
X001709Y023586D01*
X001709Y024430D02*
X001709Y024583D01*
X001709Y024506D02*
X002170Y024506D01*
X002170Y024430D01*
X001939Y024737D02*
X002016Y024813D01*
X002016Y024967D01*
X001939Y025044D01*
X001863Y025044D01*
X001863Y024737D01*
X001939Y024737D02*
X001786Y024737D01*
X001709Y024813D01*
X001709Y024967D01*
X001709Y025197D02*
X002170Y025504D01*
X002093Y025657D02*
X001786Y025657D01*
X001709Y025734D01*
X001709Y025887D01*
X001786Y025964D01*
X001786Y026118D02*
X001863Y026194D01*
X001863Y026425D01*
X001939Y026425D02*
X001709Y026425D01*
X001709Y026194D01*
X001786Y026118D01*
X002016Y026194D02*
X002016Y026348D01*
X001939Y026425D01*
X001709Y026578D02*
X001709Y026731D01*
X001709Y026655D02*
X002170Y026655D01*
X002170Y026578D01*
X002016Y026885D02*
X001786Y026885D01*
X001709Y026962D01*
X001709Y027192D01*
X002016Y027192D01*
X002016Y027345D02*
X002016Y027575D01*
X001939Y027652D01*
X001709Y027652D01*
X001709Y027806D02*
X001709Y027959D01*
X001709Y027882D02*
X002016Y027882D01*
X002016Y027806D01*
X002170Y027882D02*
X002246Y027882D01*
X002016Y028113D02*
X001786Y028113D01*
X001709Y028189D01*
X001709Y028419D01*
X002016Y028419D01*
X002016Y028573D02*
X002016Y028650D01*
X001939Y028726D01*
X002016Y028803D01*
X001939Y028880D01*
X001709Y028880D01*
X001709Y028726D02*
X001939Y028726D01*
X002016Y028573D02*
X001709Y028573D01*
X001709Y027345D02*
X002016Y027345D01*
X002093Y025964D02*
X002170Y025887D01*
X002170Y025734D01*
X002093Y025657D01*
X004992Y022151D02*
X004916Y022074D01*
X004916Y021998D01*
X005223Y021998D01*
X005223Y022074D02*
X005146Y022151D01*
X004992Y022151D01*
X005223Y022074D02*
X005223Y021921D01*
X005146Y021844D01*
X004992Y021844D01*
X005376Y021921D02*
X005453Y021998D01*
X005606Y021998D01*
X005683Y022074D01*
X005606Y022151D01*
X005376Y022151D01*
X005376Y021921D02*
X005453Y021844D01*
X005683Y021844D01*
X005836Y021844D02*
X005836Y022074D01*
X005913Y022151D01*
X006143Y022151D01*
X006143Y021844D01*
X006297Y021998D02*
X006604Y021998D01*
X006604Y022074D02*
X006527Y022151D01*
X006373Y022151D01*
X006297Y022074D01*
X006297Y021998D01*
X006373Y021844D02*
X006527Y021844D01*
X006604Y021921D01*
X006604Y022074D01*
X006757Y022151D02*
X006987Y022151D01*
X007064Y022074D01*
X007064Y021921D01*
X006987Y021844D01*
X006757Y021844D01*
X007217Y021844D02*
X007371Y021844D01*
X007294Y021844D02*
X007294Y022151D01*
X007371Y022151D01*
X007294Y022305D02*
X007294Y022381D01*
X007831Y022305D02*
X007831Y021844D01*
X007524Y021844D01*
X008445Y021844D02*
X008675Y021844D01*
X008752Y021921D01*
X008752Y022074D01*
X008675Y022151D01*
X008445Y022151D01*
X008445Y022305D02*
X008445Y021844D01*
X008905Y021998D02*
X009212Y021998D01*
X009212Y022074D02*
X009136Y022151D01*
X008982Y022151D01*
X008905Y022074D01*
X008905Y021998D01*
X008982Y021844D02*
X009136Y021844D01*
X009212Y021921D01*
X009212Y022074D01*
X009366Y022151D02*
X009519Y022151D01*
X009442Y022228D02*
X009442Y021921D01*
X009366Y021844D01*
X009673Y022151D02*
X009749Y022151D01*
X009903Y021998D01*
X009903Y022151D02*
X009903Y021844D01*
X010056Y021921D02*
X010056Y022074D01*
X010133Y022151D01*
X010286Y022151D01*
X010363Y022074D01*
X010363Y021921D01*
X010286Y021844D01*
X010133Y021844D01*
X010056Y021921D01*
X010517Y021921D02*
X010593Y021844D01*
X010824Y021844D01*
X010977Y021844D02*
X010977Y022074D01*
X011054Y022151D01*
X011284Y022151D01*
X011284Y021844D01*
X011437Y021921D02*
X011437Y022305D01*
X011744Y022305D02*
X011744Y021921D01*
X011668Y021844D01*
X011514Y021844D01*
X011437Y021921D01*
X010824Y021691D02*
X010824Y022151D01*
X010593Y022151D01*
X010517Y022074D01*
X010517Y021921D01*
X010661Y022844D02*
X010661Y023151D01*
X010814Y023305D01*
X010967Y023151D01*
X010967Y022844D01*
X010967Y023074D02*
X010661Y023074D01*
X010507Y023151D02*
X010354Y023151D01*
X010430Y023228D02*
X010430Y022921D01*
X010354Y022844D01*
X010123Y022921D02*
X010123Y023228D01*
X010200Y023151D02*
X010047Y023151D01*
X009893Y023151D02*
X009893Y022844D01*
X009893Y022998D02*
X009740Y023151D01*
X009663Y023151D01*
X009510Y023151D02*
X009433Y023151D01*
X009433Y022844D01*
X009510Y022844D02*
X009356Y022844D01*
X009203Y022844D02*
X008973Y022844D01*
X008896Y022921D01*
X008896Y023074D01*
X008973Y023151D01*
X009203Y023151D01*
X009203Y023305D02*
X009203Y022844D01*
X008742Y022921D02*
X008742Y023151D01*
X008742Y022921D02*
X008666Y022844D01*
X008436Y022844D01*
X008436Y023151D01*
X008282Y023151D02*
X008129Y023151D01*
X008205Y023228D02*
X008205Y022921D01*
X008129Y022844D01*
X007975Y022844D02*
X007822Y022844D01*
X007898Y022844D02*
X007898Y023151D01*
X007975Y023151D01*
X007898Y023305D02*
X007898Y023381D01*
X007592Y023151D02*
X007668Y023074D01*
X007668Y022921D01*
X007592Y022844D01*
X007438Y022844D01*
X007361Y022921D01*
X007361Y023074D01*
X007438Y023151D01*
X007592Y023151D01*
X007208Y023151D02*
X007208Y022844D01*
X006901Y022844D02*
X006901Y023074D01*
X006978Y023151D01*
X007208Y023151D01*
X009433Y023305D02*
X009433Y023381D01*
X010047Y022844D02*
X010123Y022921D01*
X010661Y023844D02*
X010967Y023844D01*
X010814Y023844D02*
X010814Y024305D01*
X010967Y024151D01*
X011121Y023844D02*
X011428Y023844D01*
X011274Y023844D02*
X011274Y024305D01*
X011428Y024151D01*
X011581Y024228D02*
X011888Y023921D01*
X011811Y023844D01*
X011658Y023844D01*
X011581Y023921D01*
X011581Y024228D01*
X011658Y024305D01*
X011811Y024305D01*
X011888Y024228D01*
X011888Y023921D01*
X012042Y023844D02*
X012348Y023844D01*
X012042Y024151D01*
X012042Y024228D01*
X012118Y024305D01*
X012272Y024305D01*
X012348Y024228D01*
X012962Y024074D02*
X012962Y023998D01*
X013269Y023998D01*
X013269Y024074D02*
X013192Y024151D01*
X013039Y024151D01*
X012962Y024074D01*
X013039Y023844D02*
X013192Y023844D01*
X013269Y023921D01*
X013269Y024074D01*
X013423Y023844D02*
X013576Y023844D01*
X013499Y023844D02*
X013499Y024305D01*
X013576Y024305D01*
X013806Y024151D02*
X013730Y024074D01*
X013730Y023921D01*
X013806Y023844D01*
X014036Y023844D01*
X014036Y023691D02*
X014036Y024151D01*
X013806Y024151D01*
X014190Y024151D02*
X014267Y024151D01*
X014420Y023998D01*
X014420Y024151D02*
X014420Y023844D01*
X014574Y023844D02*
X014804Y023844D01*
X014880Y023921D01*
X014804Y023998D01*
X014574Y023998D01*
X014574Y024074D02*
X014574Y023844D01*
X014574Y024074D02*
X014650Y024151D01*
X014804Y024151D01*
X015034Y024305D02*
X015034Y023844D01*
X015341Y023844D02*
X015341Y024305D01*
X015187Y024151D01*
X015034Y024305D01*
X015955Y024074D02*
X015955Y023998D01*
X016261Y023998D01*
X016261Y024074D02*
X016185Y024151D01*
X016031Y024151D01*
X015955Y024074D01*
X016031Y023844D02*
X016185Y023844D01*
X016261Y023921D01*
X016261Y024074D01*
X016415Y024151D02*
X016568Y023844D01*
X016722Y024151D01*
X016875Y024074D02*
X016952Y024151D01*
X017105Y024151D01*
X017182Y024074D01*
X017182Y023921D01*
X017105Y023844D01*
X016952Y023844D01*
X016875Y023998D02*
X017182Y023998D01*
X017336Y024151D02*
X017489Y024151D01*
X017412Y024228D02*
X017412Y023921D01*
X017336Y023844D01*
X017643Y023921D02*
X017719Y023844D01*
X017873Y023844D01*
X017949Y023921D01*
X017873Y024074D02*
X017719Y024074D01*
X017643Y023998D01*
X017643Y023921D01*
X017873Y024074D02*
X017949Y024151D01*
X017949Y024228D01*
X017873Y024305D01*
X017719Y024305D01*
X017643Y024228D01*
X016875Y024074D02*
X016875Y023998D01*
X016568Y023228D02*
X016568Y022921D01*
X016492Y022844D01*
X016338Y022844D02*
X016185Y022844D01*
X016261Y022844D02*
X016261Y023151D01*
X016338Y023151D01*
X016492Y023151D02*
X016645Y023151D01*
X016799Y023074D02*
X016875Y023151D01*
X017029Y023151D01*
X017029Y022998D02*
X016799Y022998D01*
X016799Y023074D02*
X016799Y022844D01*
X017029Y022844D01*
X017105Y022921D01*
X017029Y022998D01*
X017259Y022998D02*
X017566Y022998D01*
X017566Y023074D02*
X017489Y023151D01*
X017336Y023151D01*
X017259Y023074D01*
X017259Y022998D01*
X017336Y022844D02*
X017489Y022844D01*
X017566Y022921D01*
X017566Y023074D01*
X017719Y023151D02*
X017796Y023151D01*
X017949Y022998D01*
X017949Y023151D02*
X017949Y022844D01*
X018103Y022921D02*
X018180Y022844D01*
X018333Y022844D01*
X018410Y022921D01*
X018410Y023228D01*
X018333Y023305D01*
X018180Y023305D01*
X018103Y023228D01*
X018563Y023844D02*
X018640Y023921D01*
X018640Y024228D01*
X018717Y024151D02*
X018563Y024151D01*
X018870Y024074D02*
X018870Y023844D01*
X018870Y024074D02*
X018947Y024151D01*
X019100Y024151D01*
X019177Y024074D01*
X019330Y024151D02*
X019330Y023768D01*
X019407Y023691D01*
X019484Y023691D01*
X019561Y023844D02*
X019330Y023844D01*
X019177Y023844D02*
X019177Y024305D01*
X019330Y024151D02*
X019561Y024151D01*
X019637Y024074D01*
X019637Y023921D01*
X019561Y023844D01*
X019791Y023844D02*
X019944Y023844D01*
X019868Y023844D02*
X019868Y024151D01*
X019944Y024151D01*
X020098Y024151D02*
X020174Y024151D01*
X020328Y023998D01*
X020328Y024151D02*
X020328Y023844D01*
X020481Y023844D02*
X020712Y023844D01*
X020788Y023921D01*
X020788Y024151D01*
X020942Y024074D02*
X021018Y024151D01*
X021249Y024151D01*
X021249Y023691D01*
X021249Y023844D02*
X021018Y023844D01*
X020942Y023921D01*
X020942Y024074D01*
X021402Y024074D02*
X021479Y024151D01*
X021632Y024151D01*
X021709Y024074D01*
X021709Y023921D01*
X021632Y023844D01*
X021479Y023844D01*
X021402Y023921D01*
X021402Y024074D01*
X021862Y023921D02*
X021939Y023844D01*
X022093Y023844D01*
X022169Y023921D01*
X022169Y024228D01*
X022093Y024305D01*
X021939Y024305D01*
X021862Y024228D01*
X021632Y023381D02*
X021632Y023305D01*
X021632Y023151D02*
X021632Y022844D01*
X021556Y022844D02*
X021709Y022844D01*
X021862Y022844D02*
X022169Y022844D01*
X022169Y023305D01*
X021709Y023151D02*
X021632Y023151D01*
X021402Y023074D02*
X021402Y022921D01*
X021325Y022844D01*
X021095Y022844D01*
X020942Y022921D02*
X020942Y023074D01*
X020865Y023151D01*
X020712Y023151D01*
X020635Y023074D01*
X020635Y022998D01*
X020942Y022998D01*
X020942Y022921D02*
X020865Y022844D01*
X020712Y022844D01*
X020481Y022844D02*
X020481Y023151D01*
X020251Y023151D01*
X020174Y023074D01*
X020174Y022844D01*
X020021Y022844D02*
X019791Y022844D01*
X019714Y022921D01*
X019791Y022998D01*
X019944Y022998D01*
X020021Y023074D01*
X019944Y023151D01*
X019714Y023151D01*
X019561Y023074D02*
X019484Y023151D01*
X019330Y023151D01*
X019254Y023074D01*
X019254Y022998D01*
X019561Y022998D01*
X019561Y023074D02*
X019561Y022921D01*
X019484Y022844D01*
X019330Y022844D01*
X019100Y022844D02*
X019100Y022921D01*
X019024Y022921D01*
X019024Y022844D01*
X019100Y022844D01*
X019100Y023074D02*
X019100Y023151D01*
X019024Y023151D01*
X019024Y023074D01*
X019100Y023074D01*
X018419Y022074D02*
X018112Y022074D01*
X017959Y022151D02*
X017882Y022074D01*
X017729Y022074D01*
X017652Y021998D01*
X017652Y021921D01*
X017729Y021844D01*
X017882Y021844D01*
X017959Y021921D01*
X017959Y022151D02*
X017959Y022228D01*
X017882Y022305D01*
X017729Y022305D01*
X017652Y022228D01*
X017499Y022305D02*
X017499Y021844D01*
X017499Y022074D02*
X017422Y022151D01*
X017268Y022151D01*
X017192Y022074D01*
X017192Y021844D01*
X017038Y021921D02*
X016962Y021998D01*
X016731Y021998D01*
X016731Y022074D02*
X016731Y021844D01*
X016962Y021844D01*
X017038Y021921D01*
X016962Y022151D02*
X016808Y022151D01*
X016731Y022074D01*
X016578Y021998D02*
X016424Y022151D01*
X016348Y022151D01*
X016194Y022074D02*
X016118Y022151D01*
X015964Y022151D01*
X015887Y022074D01*
X015887Y021998D01*
X016194Y021998D01*
X016194Y022074D02*
X016194Y021921D01*
X016118Y021844D01*
X015964Y021844D01*
X015734Y021844D02*
X015734Y022151D01*
X015580Y022305D01*
X015427Y022151D01*
X015427Y021844D01*
X015274Y021844D02*
X015120Y021844D01*
X015197Y021844D02*
X015197Y022305D01*
X015274Y022305D01*
X015427Y022074D02*
X015734Y022074D01*
X014967Y022151D02*
X014890Y022151D01*
X014890Y021844D01*
X014967Y021844D02*
X014813Y021844D01*
X014660Y021844D02*
X014660Y022305D01*
X014890Y022305D02*
X014890Y022381D01*
X014660Y021998D02*
X014430Y021844D01*
X014276Y021921D02*
X014276Y022074D01*
X014199Y022151D01*
X014046Y022151D01*
X013969Y022074D01*
X013969Y021998D01*
X014276Y021998D01*
X014276Y021921D02*
X014199Y021844D01*
X014046Y021844D01*
X014430Y022151D02*
X014660Y021998D01*
X014574Y022844D02*
X014420Y022844D01*
X014343Y022921D01*
X014190Y022921D02*
X014113Y022844D01*
X013960Y022844D01*
X013883Y022921D01*
X013883Y023074D01*
X013960Y023151D01*
X014113Y023151D01*
X014190Y023074D01*
X014190Y022921D01*
X014343Y023228D02*
X014420Y023305D01*
X014574Y023305D01*
X014650Y023228D01*
X014650Y022921D01*
X014574Y022844D01*
X015264Y022998D02*
X015571Y022998D01*
X015571Y023074D02*
X015494Y023151D01*
X015341Y023151D01*
X015264Y023074D01*
X015264Y022998D01*
X015341Y022844D02*
X015494Y022844D01*
X015571Y022921D01*
X015571Y023074D01*
X015724Y023151D02*
X015878Y022844D01*
X016031Y023151D01*
X016261Y023305D02*
X016261Y023381D01*
X016578Y022151D02*
X016578Y021844D01*
X013730Y022844D02*
X013730Y023151D01*
X013653Y023151D01*
X013576Y023074D01*
X013499Y023151D01*
X013423Y023074D01*
X013423Y022844D01*
X013576Y022844D02*
X013576Y023074D01*
X013269Y023151D02*
X013269Y022844D01*
X013116Y022844D02*
X013116Y023074D01*
X013039Y023151D01*
X012962Y023074D01*
X012962Y022844D01*
X012809Y022921D02*
X012732Y022844D01*
X012579Y022844D01*
X012502Y022921D01*
X012502Y023074D01*
X012579Y023151D01*
X012732Y023151D01*
X012809Y023074D01*
X012809Y022921D01*
X013116Y023074D02*
X013192Y023151D01*
X013269Y023151D01*
X013279Y022305D02*
X013125Y022305D01*
X013049Y022228D01*
X013049Y022151D01*
X013125Y022074D01*
X013049Y021998D01*
X013049Y021921D01*
X013125Y021844D01*
X013279Y021844D01*
X013355Y021921D01*
X013202Y022074D02*
X013125Y022074D01*
X012895Y021921D02*
X012818Y021921D01*
X012818Y021844D01*
X012895Y021844D01*
X012895Y021921D01*
X012665Y021921D02*
X012665Y022228D01*
X012588Y022305D01*
X012435Y022305D01*
X012358Y022228D01*
X012665Y021921D01*
X012588Y021844D01*
X012435Y021844D01*
X012358Y021921D01*
X012358Y022228D01*
X012348Y022844D02*
X012348Y023151D01*
X012118Y023151D01*
X012042Y023074D01*
X012042Y022844D01*
X011888Y022844D02*
X011658Y022844D01*
X011581Y022921D01*
X011658Y022998D01*
X011811Y022998D01*
X011888Y023074D01*
X011811Y023151D01*
X011581Y023151D01*
X013279Y022305D02*
X013355Y022228D01*
X019566Y026844D02*
X019873Y026844D01*
X019719Y026844D02*
X019719Y027305D01*
X019873Y027151D01*
X020026Y027151D02*
X020180Y026844D01*
X020333Y027151D01*
X020486Y026768D02*
X020793Y026768D01*
X020947Y026844D02*
X020947Y027074D01*
X021024Y027151D01*
X021100Y027074D01*
X021100Y026844D01*
X021254Y026844D02*
X021254Y027151D01*
X021177Y027151D01*
X021100Y027074D01*
X021407Y027151D02*
X021407Y026844D01*
X021637Y026844D01*
X021714Y026921D01*
X021714Y027151D01*
X021944Y027151D02*
X021944Y026844D01*
X021868Y026844D02*
X022021Y026844D01*
X022174Y026844D02*
X022174Y027074D01*
X022251Y027151D01*
X022481Y027151D01*
X022481Y026844D01*
X022635Y026844D02*
X022635Y027151D01*
X022942Y027151D02*
X022942Y026921D01*
X022865Y026844D01*
X022635Y026844D01*
X023095Y026844D02*
X023249Y026844D01*
X023172Y026844D02*
X023172Y027305D01*
X023249Y027305D01*
X023479Y027151D02*
X023402Y027074D01*
X023402Y026844D01*
X023632Y026844D01*
X023709Y026921D01*
X023632Y026998D01*
X023402Y026998D01*
X023479Y027151D02*
X023632Y027151D01*
X023862Y027228D02*
X023939Y027305D01*
X024093Y027305D01*
X024169Y027228D01*
X024169Y026921D01*
X024093Y026844D01*
X023939Y026844D01*
X023862Y026921D01*
X023862Y027844D02*
X024169Y027844D01*
X023862Y028151D01*
X023862Y028228D01*
X023939Y028305D01*
X024093Y028305D01*
X024169Y028228D01*
X023709Y028228D02*
X023709Y027921D01*
X023402Y028228D01*
X023402Y027921D01*
X023479Y027844D01*
X023632Y027844D01*
X023709Y027921D01*
X023709Y028228D02*
X023632Y028305D01*
X023479Y028305D01*
X023402Y028228D01*
X023249Y028151D02*
X023095Y028305D01*
X023095Y027844D01*
X022942Y027844D02*
X023249Y027844D01*
X022788Y027844D02*
X022481Y027844D01*
X022635Y027844D02*
X022635Y028305D01*
X022788Y028151D01*
X022328Y028074D02*
X022021Y028074D01*
X021868Y028151D02*
X021714Y028305D01*
X021714Y027844D01*
X021561Y027844D02*
X021868Y027844D01*
X021407Y027921D02*
X021100Y028228D01*
X021100Y027921D01*
X021177Y027844D01*
X021330Y027844D01*
X021407Y027921D01*
X021407Y028228D01*
X021330Y028305D01*
X021177Y028305D01*
X021100Y028228D01*
X020947Y028074D02*
X020640Y028074D01*
X020486Y027921D02*
X020180Y028228D01*
X020180Y027921D01*
X020256Y027844D01*
X020410Y027844D01*
X020486Y027921D01*
X020486Y028228D01*
X020410Y028305D01*
X020256Y028305D01*
X020180Y028228D01*
X020026Y028228D02*
X020026Y028151D01*
X019949Y028074D01*
X019719Y028074D01*
X019719Y027921D02*
X019719Y028228D01*
X019796Y028305D01*
X019949Y028305D01*
X020026Y028228D01*
X020026Y027921D02*
X019949Y027844D01*
X019796Y027844D01*
X019719Y027921D01*
X019105Y027844D02*
X018799Y027844D01*
X018952Y027844D02*
X018952Y028305D01*
X019105Y028151D01*
X018645Y028074D02*
X018645Y028305D01*
X018338Y028305D01*
X018415Y028151D02*
X018338Y028074D01*
X018338Y027921D01*
X018415Y027844D01*
X018568Y027844D01*
X018645Y027921D01*
X018645Y028074D02*
X018492Y028151D01*
X018415Y028151D01*
X018185Y028151D02*
X018185Y028074D01*
X018108Y028074D01*
X018108Y028151D01*
X018185Y028151D01*
X018185Y027921D02*
X018185Y027844D01*
X018108Y027844D01*
X018108Y027921D01*
X018185Y027921D01*
X017955Y027921D02*
X017878Y027844D01*
X017724Y027844D01*
X017648Y027921D01*
X017648Y028074D01*
X017724Y028151D01*
X017801Y028151D01*
X017955Y028074D01*
X017955Y028305D01*
X017648Y028305D01*
X017494Y028305D02*
X017494Y028074D01*
X017341Y028151D01*
X017264Y028151D01*
X017187Y028074D01*
X017187Y027921D01*
X017264Y027844D01*
X017417Y027844D01*
X017494Y027921D01*
X017494Y028305D02*
X017187Y028305D01*
X017034Y028151D02*
X016957Y028151D01*
X016957Y028074D01*
X017034Y028074D01*
X017034Y028151D01*
X017034Y027921D02*
X017034Y027844D01*
X016957Y027844D01*
X016957Y027921D01*
X017034Y027921D01*
X016804Y027921D02*
X016727Y027844D01*
X016574Y027844D01*
X016497Y027921D01*
X016497Y028074D01*
X016574Y028151D01*
X016650Y028151D01*
X016804Y028074D01*
X016804Y028305D01*
X016497Y028305D01*
X016343Y028305D02*
X016036Y028305D01*
X016036Y028228D01*
X016343Y027921D01*
X016343Y027844D01*
X019868Y024381D02*
X019868Y024305D01*
X020481Y024151D02*
X020481Y023768D01*
X020558Y023691D01*
X020635Y023691D01*
X021095Y023151D02*
X021325Y023151D01*
X021402Y023074D01*
X021944Y027151D02*
X022021Y027151D01*
X021944Y027305D02*
X021944Y027381D01*
X002016Y020593D02*
X001939Y020517D01*
X001863Y020593D01*
X001863Y020747D01*
X001786Y020824D01*
X001709Y020747D01*
X001709Y020517D01*
X001709Y019749D02*
X001939Y019749D01*
D12*
X013561Y029018D02*
X013714Y028864D01*
X014021Y028864D01*
X014175Y029018D01*
X013561Y029632D01*
X013561Y029018D01*
X013561Y029632D02*
X013714Y029785D01*
X014021Y029785D01*
X014175Y029632D01*
X014175Y029018D01*
X014481Y029018D02*
X014481Y028864D01*
X014635Y028864D01*
X014635Y029018D01*
X014481Y029018D01*
X014942Y028864D02*
X015556Y028864D01*
X015249Y028864D02*
X015249Y029785D01*
X015556Y029478D01*
X015863Y029478D02*
X016170Y028864D01*
X016476Y029478D01*
X017704Y029325D02*
X017704Y028864D01*
X018011Y028864D02*
X018011Y029325D01*
X017858Y029478D01*
X017704Y029325D01*
X018011Y029325D02*
X018164Y029478D01*
X018318Y029478D01*
X018318Y028864D01*
X018625Y028864D02*
X018625Y029478D01*
X019239Y029478D02*
X019239Y029018D01*
X019085Y028864D01*
X018625Y028864D01*
X019546Y028864D02*
X019852Y028864D01*
X019699Y028864D02*
X019699Y029478D01*
X019852Y029478D01*
X019699Y029785D02*
X019699Y029938D01*
X020159Y029325D02*
X020159Y028864D01*
X020159Y029325D02*
X020313Y029478D01*
X020773Y029478D01*
X020773Y028864D01*
X021080Y028864D02*
X021080Y029478D01*
X021080Y028864D02*
X021541Y028864D01*
X021694Y029018D01*
X021694Y029478D01*
X022154Y029785D02*
X022154Y028864D01*
X022001Y028864D02*
X022308Y028864D01*
X022615Y028864D02*
X023075Y028864D01*
X023229Y029018D01*
X023075Y029171D01*
X022615Y029171D01*
X022615Y029325D02*
X022615Y028864D01*
X022615Y029325D02*
X022768Y029478D01*
X023075Y029478D01*
X023535Y029632D02*
X023689Y029785D01*
X023996Y029785D01*
X024149Y029632D01*
X024149Y029018D01*
X023996Y028864D01*
X023689Y028864D01*
X023535Y029018D01*
X022308Y029785D02*
X022154Y029785D01*
D13*
X039257Y019198D02*
X039257Y018892D01*
X039257Y018590D02*
X039257Y018386D01*
X039359Y018285D01*
X039664Y018285D01*
X039664Y018590D01*
X039563Y018692D01*
X039461Y018590D01*
X039461Y018285D01*
X039664Y018084D02*
X039664Y017880D01*
X039664Y017982D02*
X039054Y017982D01*
X039054Y018084D01*
X039257Y017679D02*
X039563Y017679D01*
X039664Y017577D01*
X039664Y017272D01*
X039257Y017272D01*
X039257Y017071D02*
X039257Y016766D01*
X039359Y016664D01*
X039664Y016664D01*
X039664Y016463D02*
X039664Y016260D01*
X039664Y016362D02*
X039257Y016362D01*
X039257Y016463D01*
X039054Y016362D02*
X038952Y016362D01*
X039257Y016058D02*
X039563Y016058D01*
X039664Y015956D01*
X039664Y015651D01*
X039257Y015651D01*
X039257Y015450D02*
X039257Y015349D01*
X039359Y015247D01*
X039257Y015145D01*
X039359Y015043D01*
X039664Y015043D01*
X039664Y015247D02*
X039359Y015247D01*
X039257Y015450D02*
X039664Y015450D01*
X039563Y014843D02*
X039156Y014843D01*
X039054Y014741D01*
X039054Y014537D01*
X039156Y014436D01*
X039359Y014436D01*
X039461Y014537D01*
X039257Y014537D01*
X039257Y014741D01*
X039461Y014741D01*
X039461Y014537D01*
X039563Y014436D02*
X039664Y014537D01*
X039664Y014741D01*
X039563Y014843D01*
X039664Y014235D02*
X039664Y013930D01*
X039563Y013828D01*
X039461Y013930D01*
X039461Y014133D01*
X039359Y014235D01*
X039257Y014133D01*
X039257Y013828D01*
X039257Y013627D02*
X039257Y013424D01*
X039156Y013526D02*
X039563Y013526D01*
X039664Y013424D01*
X039563Y013222D02*
X039359Y013222D01*
X039257Y013120D01*
X039257Y012917D01*
X039359Y012815D01*
X039461Y012815D01*
X039461Y013222D01*
X039563Y013222D02*
X039664Y013120D01*
X039664Y012917D01*
X039664Y012411D02*
X039257Y012207D01*
X039359Y012007D02*
X039257Y011905D01*
X039257Y011701D01*
X039359Y011600D01*
X039461Y011600D01*
X039461Y012007D01*
X039563Y012007D02*
X039359Y012007D01*
X039563Y012007D02*
X039664Y011905D01*
X039664Y011701D01*
X039664Y011399D02*
X039257Y011399D01*
X039257Y011297D01*
X039359Y011196D01*
X039257Y011094D01*
X039359Y010992D01*
X039664Y010992D01*
X039664Y011196D02*
X039359Y011196D01*
X039563Y010791D02*
X039461Y010690D01*
X039461Y010384D01*
X039359Y010384D02*
X039664Y010384D01*
X039664Y010690D01*
X039563Y010791D01*
X039257Y010690D02*
X039257Y010486D01*
X039359Y010384D01*
X039461Y010184D02*
X039257Y009980D01*
X039257Y009878D01*
X039257Y009677D02*
X039257Y009372D01*
X039359Y009270D01*
X039563Y009270D01*
X039664Y009372D01*
X039664Y009677D01*
X039868Y009677D02*
X039257Y009677D01*
X039257Y010184D02*
X039664Y010184D01*
X039664Y009069D02*
X039664Y008866D01*
X039664Y008968D02*
X039054Y008968D01*
X039054Y009069D01*
X039359Y008664D02*
X039257Y008563D01*
X039257Y008359D01*
X039359Y008257D01*
X039461Y008257D01*
X039461Y008664D01*
X039563Y008664D02*
X039359Y008664D01*
X039563Y008664D02*
X039664Y008563D01*
X039664Y008359D01*
X039664Y008057D02*
X039664Y007955D01*
X039563Y007955D01*
X039563Y008057D01*
X039664Y008057D01*
X039563Y007753D02*
X039664Y007651D01*
X039664Y007346D01*
X039563Y007145D02*
X039664Y007043D01*
X039664Y006840D01*
X039563Y006738D01*
X039359Y006738D01*
X039257Y006840D01*
X039257Y007043D01*
X039359Y007145D01*
X039563Y007145D01*
X039257Y007346D02*
X039257Y007651D01*
X039359Y007753D01*
X039563Y007753D01*
X039563Y006537D02*
X039563Y006436D01*
X039664Y006436D01*
X039664Y006537D01*
X039563Y006537D01*
X039563Y006233D02*
X039257Y006233D01*
X039563Y006233D02*
X039664Y006132D01*
X039664Y005826D01*
X039257Y005826D01*
X039054Y005626D02*
X039664Y005626D01*
X039461Y005626D02*
X039257Y005321D01*
X039461Y005626D02*
X039664Y005321D01*
X039664Y012411D02*
X039257Y012614D01*
X039257Y017071D02*
X039664Y017071D01*
X039664Y018892D02*
X039664Y019198D01*
X039563Y019299D01*
X039359Y019299D01*
X039257Y019198D01*
M02*
