G75*
G70*
%OFA0B0*%
%FSLAX24Y24*%
%IPPOS*%
%LPD*%
%AMOC8*
5,1,8,0,0,1.08239X$1,22.5*
%
%ADD10C,0.0000*%
%ADD11C,0.0560*%
%ADD12C,0.0560*%
%ADD13C,0.0740*%
%ADD14C,0.0650*%
%ADD15C,0.0660*%
%ADD16C,0.1300*%
%ADD17R,0.0740X0.0740*%
%ADD18OC8,0.0630*%
%ADD19C,0.0768*%
%ADD20OC8,0.0600*%
%ADD21C,0.0780*%
%ADD22C,0.2300*%
%ADD23R,0.1095X0.1095*%
%ADD24R,0.0650X0.0650*%
%ADD25C,0.0634*%
%ADD26C,0.0120*%
%ADD27C,0.0440*%
%ADD28C,0.0150*%
%ADD29C,0.0160*%
D10*
X002939Y001824D02*
X038439Y001824D01*
X038522Y001826D01*
X038605Y001832D01*
X038688Y001842D01*
X038770Y001856D01*
X038852Y001873D01*
X038932Y001895D01*
X039011Y001920D01*
X039089Y001949D01*
X039166Y001982D01*
X039241Y002019D01*
X039314Y002058D01*
X039385Y002102D01*
X039454Y002148D01*
X039521Y002198D01*
X039585Y002251D01*
X039647Y002307D01*
X039706Y002366D01*
X039762Y002428D01*
X039815Y002492D01*
X039865Y002559D01*
X039911Y002628D01*
X039955Y002699D01*
X039994Y002772D01*
X040031Y002847D01*
X040064Y002924D01*
X040093Y003002D01*
X040118Y003081D01*
X040140Y003161D01*
X040157Y003243D01*
X040171Y003325D01*
X040181Y003408D01*
X040187Y003491D01*
X040189Y003574D01*
X040189Y031074D01*
X040187Y031157D01*
X040181Y031240D01*
X040171Y031323D01*
X040157Y031405D01*
X040140Y031487D01*
X040118Y031567D01*
X040093Y031646D01*
X040064Y031724D01*
X040031Y031801D01*
X039994Y031876D01*
X039955Y031949D01*
X039911Y032020D01*
X039865Y032089D01*
X039815Y032156D01*
X039762Y032220D01*
X039706Y032282D01*
X039647Y032341D01*
X039585Y032397D01*
X039521Y032450D01*
X039454Y032500D01*
X039385Y032546D01*
X039314Y032590D01*
X039241Y032629D01*
X039166Y032666D01*
X039089Y032699D01*
X039011Y032728D01*
X038932Y032753D01*
X038852Y032775D01*
X038770Y032792D01*
X038688Y032806D01*
X038605Y032816D01*
X038522Y032822D01*
X038439Y032824D01*
X002939Y032824D01*
X002856Y032822D01*
X002773Y032816D01*
X002690Y032806D01*
X002608Y032792D01*
X002526Y032775D01*
X002446Y032753D01*
X002367Y032728D01*
X002289Y032699D01*
X002212Y032666D01*
X002137Y032629D01*
X002064Y032590D01*
X001993Y032546D01*
X001924Y032500D01*
X001857Y032450D01*
X001793Y032397D01*
X001731Y032341D01*
X001672Y032282D01*
X001616Y032220D01*
X001563Y032156D01*
X001513Y032089D01*
X001467Y032020D01*
X001423Y031949D01*
X001384Y031876D01*
X001347Y031801D01*
X001314Y031724D01*
X001285Y031646D01*
X001260Y031567D01*
X001238Y031487D01*
X001221Y031405D01*
X001207Y031323D01*
X001197Y031240D01*
X001191Y031157D01*
X001189Y031074D01*
X001189Y003574D01*
X001191Y003491D01*
X001197Y003408D01*
X001207Y003325D01*
X001221Y003243D01*
X001238Y003161D01*
X001260Y003081D01*
X001285Y003002D01*
X001314Y002924D01*
X001347Y002847D01*
X001384Y002772D01*
X001423Y002699D01*
X001467Y002628D01*
X001513Y002559D01*
X001563Y002492D01*
X001616Y002428D01*
X001672Y002366D01*
X001731Y002307D01*
X001793Y002251D01*
X001857Y002198D01*
X001924Y002148D01*
X001993Y002102D01*
X002064Y002058D01*
X002137Y002019D01*
X002212Y001982D01*
X002289Y001949D01*
X002367Y001920D01*
X002446Y001895D01*
X002526Y001873D01*
X002608Y001856D01*
X002690Y001842D01*
X002773Y001832D01*
X002856Y001826D01*
X002939Y001824D01*
D11*
X003189Y019044D02*
X003189Y019604D01*
X004189Y019604D02*
X004189Y019044D01*
X005189Y019044D02*
X005189Y019604D01*
X006189Y019604D02*
X006189Y019044D01*
X007189Y019044D02*
X007189Y019604D01*
X008189Y019604D02*
X008189Y019044D01*
X009189Y019044D02*
X009189Y019604D01*
X010189Y019604D02*
X010189Y019044D01*
X011189Y019044D02*
X011189Y019604D01*
X012189Y019604D02*
X012189Y019044D01*
X013189Y019044D02*
X013189Y019604D01*
X014189Y019604D02*
X014189Y019044D01*
X015189Y019044D02*
X015189Y019604D01*
X016189Y019604D02*
X016189Y019044D01*
X017189Y019044D02*
X017189Y019604D01*
X018189Y019604D02*
X018189Y019044D01*
X019189Y019044D02*
X019189Y019604D01*
X020189Y019604D02*
X020189Y019044D01*
X021189Y019044D02*
X021189Y019604D01*
X022189Y019604D02*
X022189Y019044D01*
X022189Y025044D02*
X022189Y025604D01*
X021189Y025604D02*
X021189Y025044D01*
X020189Y025044D02*
X020189Y025604D01*
X019189Y025604D02*
X019189Y025044D01*
X018189Y025044D02*
X018189Y025604D01*
X017189Y025604D02*
X017189Y025044D01*
X016189Y025044D02*
X016189Y025604D01*
X015189Y025604D02*
X015189Y025044D01*
X014189Y025044D02*
X014189Y025604D01*
X013189Y025604D02*
X013189Y025044D01*
X012189Y025044D02*
X012189Y025604D01*
X011189Y025604D02*
X011189Y025044D01*
X010189Y025044D02*
X010189Y025604D01*
X009189Y025604D02*
X009189Y025044D01*
X008189Y025044D02*
X008189Y025604D01*
X007189Y025604D02*
X007189Y025044D01*
X006189Y025044D02*
X006189Y025604D01*
X005189Y025604D02*
X005189Y025044D01*
X004189Y025044D02*
X004189Y025604D01*
X003189Y025604D02*
X003189Y025044D01*
X025189Y007604D02*
X025189Y007044D01*
X027189Y007044D02*
X027189Y007604D01*
X027189Y003604D02*
X027189Y003044D01*
X025189Y003044D02*
X025189Y003604D01*
D12*
X011139Y027824D03*
X009239Y027824D03*
D13*
X010589Y031824D03*
X011589Y031824D03*
X012589Y031824D03*
X013589Y031824D03*
X014589Y031824D03*
X015589Y031824D03*
X016589Y031824D03*
X017589Y031824D03*
X019189Y031824D03*
X020189Y031824D03*
X021189Y031824D03*
X022189Y031824D03*
X023189Y031824D03*
X024189Y031824D03*
X025189Y031824D03*
X026189Y031824D03*
X028189Y031824D03*
X029189Y031824D03*
X030189Y031824D03*
X031189Y031824D03*
X032189Y031824D03*
X033189Y031824D03*
X034189Y031824D03*
X035189Y031824D03*
X027189Y023824D03*
X027189Y022824D03*
X026189Y022824D03*
X026189Y021824D03*
X027189Y021824D03*
X024689Y018824D03*
X023939Y018324D03*
X024689Y017824D03*
X024189Y012824D03*
X023189Y012824D03*
X022189Y012824D03*
X021189Y012824D03*
X019189Y012824D03*
X018189Y012824D03*
X017189Y012824D03*
X016189Y012824D03*
X015189Y012824D03*
X014189Y012824D03*
X012189Y014324D03*
X015689Y015824D03*
X016189Y015074D03*
X016689Y015824D03*
X021189Y010824D03*
X022189Y010824D03*
X023189Y010824D03*
X024689Y010824D03*
X025689Y010824D03*
X026689Y010824D03*
X028689Y010824D03*
X029689Y010824D03*
X030689Y010824D03*
X032189Y010824D03*
X033189Y010824D03*
X033439Y009574D03*
X032189Y008574D03*
X031939Y006324D03*
X030939Y006324D03*
X030159Y004714D03*
X028689Y003324D03*
X030159Y002934D03*
X032719Y002934D03*
X032719Y004714D03*
X033439Y005574D03*
X028689Y007324D03*
X028189Y008574D03*
X026189Y008574D03*
X023189Y007324D03*
X022189Y008574D03*
X019189Y007324D03*
X017189Y007324D03*
X015189Y007324D03*
X015189Y006324D03*
X013939Y006324D03*
X013939Y007324D03*
X014969Y004714D03*
X014969Y002934D03*
X012409Y002934D03*
X012409Y004714D03*
X009689Y006124D03*
X008689Y006024D03*
X007689Y006124D03*
X006689Y006024D03*
X005689Y006124D03*
X004189Y006574D03*
X003189Y006574D03*
X002689Y007824D03*
X002689Y008824D03*
X002689Y010074D03*
X002689Y011074D03*
X003189Y012324D03*
X003189Y014324D03*
X003689Y016074D03*
X003189Y016824D03*
X004189Y016824D03*
X007189Y014324D03*
X008189Y014324D03*
X007189Y012324D03*
X023189Y003324D03*
X025189Y012824D03*
X026189Y012824D03*
X027189Y012824D03*
X028189Y012824D03*
X030189Y012824D03*
X031189Y012824D03*
X032189Y012824D03*
X033189Y012824D03*
X034189Y012824D03*
X035189Y012824D03*
X036189Y012824D03*
X037189Y012824D03*
X036189Y015574D03*
X036189Y017324D03*
X032189Y017324D03*
X032189Y015574D03*
D14*
X018174Y011699D03*
X016205Y011699D03*
X017174Y017324D03*
X015205Y017324D03*
X013689Y017324D03*
X012689Y017324D03*
X012689Y018324D03*
X013689Y018324D03*
X007189Y016324D03*
X013189Y026574D03*
X014189Y026574D03*
X014189Y027824D03*
X013189Y027824D03*
X007189Y027824D03*
X006189Y027824D03*
X004189Y005574D03*
X003189Y005574D03*
D15*
X018697Y005854D03*
X019681Y005854D03*
X019681Y005074D03*
X018697Y005074D03*
X035189Y006824D03*
X036189Y006824D03*
D16*
X021559Y004004D03*
X016819Y004004D03*
D17*
X010689Y006024D03*
X026189Y023824D03*
D18*
X035189Y010824D03*
X036189Y010824D03*
X037189Y010824D03*
X038189Y010824D03*
X038189Y007824D03*
X037189Y007824D03*
X036189Y007824D03*
X035189Y007824D03*
D19*
X031315Y022824D03*
X039189Y022824D03*
D20*
X010189Y009824D03*
X009189Y009824D03*
X008189Y009824D03*
X007189Y009824D03*
X006189Y009824D03*
X006189Y008824D03*
X007189Y008824D03*
X008189Y008824D03*
X009189Y008824D03*
X010189Y008824D03*
D21*
X008189Y012324D03*
X012189Y012324D03*
D22*
X002939Y003574D03*
X029939Y028074D03*
X038439Y031074D03*
X038439Y003574D03*
X002939Y031074D03*
D23*
X035689Y025424D03*
X035689Y020224D03*
D24*
X008189Y016324D03*
D25*
X013189Y010141D02*
X013189Y009507D01*
X014189Y009507D02*
X014189Y010141D01*
X015189Y010141D02*
X015189Y009507D01*
X016189Y009507D02*
X016189Y010141D01*
X017189Y010141D02*
X017189Y009507D01*
X018189Y009507D02*
X018189Y010141D01*
X019189Y010141D02*
X019189Y009507D01*
D26*
X019439Y008824D02*
X010939Y008824D01*
X010439Y008324D01*
X006689Y008324D01*
X006189Y008824D01*
X005939Y009324D02*
X011439Y009324D01*
X012939Y010824D01*
X020189Y010824D01*
X020939Y010074D01*
X023439Y010074D01*
X023939Y010574D01*
X023939Y011574D01*
X025939Y011574D01*
X036439Y011574D01*
X037189Y010824D01*
X036189Y010824D02*
X034939Y009574D01*
X033439Y009574D01*
X032939Y008824D02*
X032439Y009324D01*
X027939Y009324D01*
X026439Y007824D01*
X025689Y007824D01*
X024189Y009324D01*
X019939Y009324D01*
X019439Y008824D01*
X017189Y008574D02*
X022189Y008574D01*
X023189Y010824D02*
X022939Y011074D01*
X023689Y011824D01*
X035189Y011824D01*
X036189Y012824D01*
X038189Y010824D01*
X038689Y012324D02*
X038689Y008824D01*
X032939Y008824D01*
X031939Y006324D02*
X031939Y004824D01*
X030189Y004824D01*
X030159Y004714D01*
X031939Y004824D02*
X032689Y004824D01*
X032719Y004714D01*
X027189Y002324D02*
X014189Y002324D01*
X014189Y004824D01*
X014689Y005324D01*
X015189Y005324D01*
X015939Y006074D01*
X018689Y006074D01*
X018697Y005854D01*
X018939Y006574D02*
X019439Y006074D01*
X019681Y005854D01*
X018939Y006574D02*
X015439Y006574D01*
X015189Y006324D01*
X013939Y006324D02*
X013439Y006824D01*
X009439Y006824D01*
X008689Y006074D01*
X008689Y006024D01*
X007689Y006124D02*
X007689Y006324D01*
X006689Y007324D01*
X004439Y007324D01*
X004439Y012074D01*
X003439Y013074D01*
X002189Y013074D01*
X002189Y024074D01*
X007939Y024074D01*
X008439Y024574D01*
X016189Y024574D01*
X016689Y024074D01*
X016439Y023574D02*
X025439Y023574D01*
X026189Y022824D01*
X027189Y022824D02*
X027939Y023574D01*
X027939Y024574D01*
X022939Y024574D01*
X022689Y024324D01*
X018189Y024324D01*
X017189Y025324D01*
X016189Y025324D02*
X017689Y023824D01*
X026189Y023824D01*
X027189Y024824D02*
X022689Y024824D01*
X022439Y024574D01*
X020939Y024574D01*
X020189Y025324D01*
X019939Y026074D02*
X019189Y025324D01*
X019939Y026074D02*
X028439Y026074D01*
X028439Y023324D01*
X027189Y024824D02*
X027439Y025074D01*
X026189Y021824D02*
X014689Y021824D01*
X013689Y022074D02*
X006939Y022074D01*
X004689Y019824D01*
X004689Y018574D01*
X006439Y018574D01*
X007189Y019324D01*
X008189Y019324D02*
X007189Y018324D01*
X003689Y018324D01*
X003689Y019824D01*
X006189Y022324D01*
X021939Y022324D01*
X022689Y023074D01*
X020939Y023074D02*
X020689Y023324D01*
X010189Y023324D01*
X011189Y022824D02*
X019689Y022824D01*
X020439Y020074D02*
X016939Y020074D01*
X016189Y019324D01*
X015689Y018824D02*
X015939Y018574D01*
X019439Y018574D01*
X020189Y019324D01*
X020689Y019824D02*
X020689Y015574D01*
X021189Y015574D01*
X022439Y013574D02*
X018939Y013574D01*
X018689Y013824D01*
X018189Y014074D02*
X018439Y014324D01*
X030689Y014324D01*
X030939Y014074D01*
X031689Y014074D01*
X032939Y015324D01*
X032939Y022824D01*
X033189Y022824D01*
X035689Y025324D01*
X035689Y025424D01*
X036439Y024824D02*
X036439Y026324D01*
X033689Y026324D01*
X028189Y020824D01*
X014939Y020824D01*
X013689Y022074D01*
X013439Y021824D02*
X014689Y020574D01*
X030439Y020574D01*
X031315Y022824D02*
X032939Y022824D01*
X034189Y023324D02*
X034939Y023324D01*
X036439Y024824D01*
X034189Y023324D02*
X034189Y012824D01*
X035189Y012824D02*
X035939Y013574D01*
X037439Y013574D01*
X038689Y012324D01*
X032189Y012824D02*
X031189Y013824D01*
X027439Y013824D01*
X025939Y011574D02*
X026689Y010824D01*
X026939Y010074D02*
X025439Y010074D01*
X024689Y010824D01*
X022939Y011074D02*
X022439Y011574D01*
X020939Y011574D01*
X020439Y011074D01*
X011439Y011074D01*
X010689Y011824D01*
X011439Y013574D02*
X012189Y014324D01*
X011939Y015074D02*
X015189Y015074D01*
X015939Y014324D01*
X017939Y014324D01*
X018189Y014574D01*
X031189Y014574D01*
X027939Y017824D02*
X025439Y020324D01*
X015689Y020324D01*
X015689Y018824D01*
X014189Y019324D02*
X014189Y020574D01*
X013939Y020824D01*
X012189Y020824D01*
X011689Y021324D01*
X011189Y021824D02*
X013439Y021824D01*
X011189Y021824D02*
X011189Y019324D01*
X010689Y020074D02*
X005939Y020074D01*
X005189Y019324D01*
X002439Y016574D02*
X002439Y023824D01*
X015189Y023824D01*
X016189Y023824D01*
X016439Y023574D01*
X020439Y020074D02*
X020689Y019824D01*
X022189Y019324D02*
X023189Y018324D01*
X024439Y017074D01*
X024939Y017074D01*
X023939Y018324D02*
X023189Y018324D01*
X018189Y014074D02*
X014439Y014074D01*
X013439Y013074D01*
X011439Y013574D02*
X006439Y013574D01*
X006439Y011574D01*
X008189Y009824D01*
X005939Y009324D02*
X004939Y010324D01*
X004189Y006574D02*
X004439Y006324D01*
X005689Y006324D01*
X005689Y006124D01*
X004189Y005574D02*
X006689Y003074D01*
X012189Y003074D01*
X012409Y002934D01*
X016439Y005574D02*
X018189Y005574D01*
X018689Y005074D01*
X018697Y005074D01*
X016439Y007824D02*
X017189Y008574D01*
X022439Y013574D02*
X023189Y012824D01*
X026939Y010074D02*
X027939Y011074D01*
X028439Y010824D02*
X028689Y010824D01*
X028439Y010824D02*
X026189Y008574D01*
X011939Y015074D02*
X010189Y016824D01*
X003689Y016074D02*
X002939Y016074D01*
X002439Y016574D01*
X008439Y024574D02*
X009189Y025324D01*
X009689Y027074D02*
X011189Y028574D01*
X024939Y028574D01*
X026939Y029074D02*
X006689Y029074D01*
X003689Y026074D01*
X003189Y025324D02*
X003189Y029574D01*
X008689Y029574D01*
X010189Y031074D01*
X016689Y031074D01*
X017439Y031824D01*
X017589Y031824D01*
X022189Y030824D02*
X023189Y031824D01*
X023939Y032574D01*
X031439Y032574D01*
X032189Y031824D01*
X032439Y031074D02*
X023439Y031074D01*
X022939Y030574D01*
X011189Y030574D01*
X010939Y030324D01*
X010689Y030824D02*
X022189Y030824D01*
X023439Y031074D02*
X024189Y031824D01*
X032439Y031074D02*
X033189Y031824D01*
X013189Y027824D02*
X011139Y027824D01*
X009689Y027074D02*
X006939Y027074D01*
X005189Y025324D01*
X007189Y027824D02*
X009239Y027824D01*
X010189Y030324D02*
X010689Y030824D01*
D27*
X010939Y030324D03*
X010189Y030324D03*
X006689Y030074D03*
X003689Y026074D03*
X010189Y023324D03*
X011189Y022824D03*
X011689Y021324D03*
X010689Y020074D03*
X013189Y020324D03*
X014689Y021824D03*
X015189Y023824D03*
X016689Y024074D03*
X019689Y022824D03*
X020939Y023074D03*
X022689Y023074D03*
X027439Y025074D03*
X028439Y023324D03*
X030439Y020574D03*
X027939Y017824D03*
X024939Y017074D03*
X021189Y015574D03*
X018689Y013824D03*
X013439Y013074D03*
X010689Y011824D03*
X004939Y010324D03*
X010189Y016824D03*
X008189Y017824D03*
X016439Y007824D03*
X016439Y005574D03*
X027189Y002324D03*
X027939Y011074D03*
X027439Y013824D03*
X031189Y014574D03*
X024939Y028574D03*
X026939Y029074D03*
D28*
X029939Y028074D02*
X029939Y027824D01*
X014189Y027824D01*
X011589Y031824D02*
X011439Y031824D01*
X010689Y032574D01*
X009189Y032574D01*
X006689Y030074D01*
X005689Y031074D01*
X002939Y031074D01*
X013189Y020324D02*
X012189Y019324D01*
X010689Y017824D01*
X008189Y017824D01*
X008189Y017324D02*
X012689Y017324D01*
X013689Y017324D02*
X014439Y016574D01*
X015939Y016574D01*
X016689Y015824D01*
X016189Y015074D02*
X025439Y015074D01*
X025439Y017574D01*
X024939Y017574D01*
X024689Y017824D01*
X025439Y017574D02*
X027439Y017574D01*
X027689Y017324D01*
X032189Y017324D01*
X027189Y021824D02*
X028189Y022824D01*
X028689Y022824D01*
X029939Y024074D01*
X029939Y027824D01*
X029939Y028074D02*
X035439Y028074D01*
X038439Y031074D01*
X016205Y011699D02*
X016189Y011574D01*
X011689Y011574D01*
X010939Y012324D01*
X008189Y012324D01*
X006189Y011324D02*
X005939Y011574D01*
X005939Y016324D01*
X004689Y016324D01*
X004189Y016824D01*
X005939Y016324D02*
X007189Y016324D01*
X008189Y017324D01*
X006189Y011324D02*
X006189Y009824D01*
X010689Y006024D02*
X010689Y005824D01*
X011689Y004824D01*
X012189Y004824D01*
X012409Y004714D01*
X014969Y004714D02*
X015189Y004824D01*
X015439Y005074D01*
X017939Y005074D01*
X018689Y004324D01*
X019689Y004324D01*
X019689Y005074D01*
X019681Y005074D01*
X019689Y004324D02*
X019689Y003074D01*
X022939Y003074D01*
X023189Y003324D01*
X025689Y006324D02*
X020189Y006324D01*
X019189Y007324D01*
X017189Y007324D02*
X015189Y007324D01*
X025689Y006324D02*
X028689Y003324D01*
X027939Y002574D02*
X029689Y002574D01*
X029939Y002824D01*
X030159Y002934D01*
X027939Y002574D02*
X027189Y003324D01*
X032719Y002934D02*
X032939Y003074D01*
X033439Y003574D01*
X038439Y003574D01*
D29*
X002392Y002253D02*
X002069Y002440D01*
X001805Y002704D01*
X001618Y003027D01*
X001521Y003388D01*
X001509Y003574D01*
X001509Y003638D01*
X001509Y031011D01*
X001509Y031074D01*
X001521Y031261D01*
X001618Y031621D01*
X001805Y031945D01*
X002069Y032209D01*
X002392Y032395D01*
X002753Y032492D01*
X002939Y032504D01*
X010428Y032504D01*
X010198Y032409D01*
X010004Y032215D01*
X009899Y031961D01*
X009899Y031687D01*
X010004Y031433D01*
X010022Y031416D01*
X009974Y031396D01*
X009867Y031289D01*
X008532Y029954D01*
X003657Y029954D01*
X003733Y030005D01*
X003834Y030088D01*
X003926Y030180D01*
X004009Y030281D01*
X004081Y030390D01*
X004143Y030505D01*
X004193Y030626D01*
X004231Y030751D01*
X004256Y030879D01*
X004268Y030994D01*
X003019Y030994D01*
X003019Y031154D01*
X002859Y031154D01*
X002859Y030994D01*
X001611Y030994D01*
X001622Y030879D01*
X001648Y030751D01*
X001686Y030626D01*
X001736Y030505D01*
X001797Y030390D01*
X001870Y030281D01*
X001953Y030180D01*
X002045Y030088D01*
X002146Y030005D01*
X002255Y029932D01*
X002370Y029871D01*
X002491Y029820D01*
X002616Y029783D01*
X002744Y029757D01*
X002849Y029747D01*
X002809Y029650D01*
X002809Y029499D01*
X002809Y026073D01*
X002681Y025944D01*
X002589Y025724D01*
X002589Y024925D01*
X002681Y024704D01*
X002849Y024536D01*
X003046Y024454D01*
X002265Y024454D01*
X002114Y024454D01*
X001974Y024396D01*
X001867Y024289D01*
X001809Y024150D01*
X001809Y013150D01*
X001809Y012999D01*
X001867Y012859D01*
X001974Y012752D01*
X002114Y012694D01*
X002596Y012694D01*
X002499Y012461D01*
X002499Y012187D01*
X002604Y011933D01*
X002774Y011764D01*
X002552Y011764D01*
X002298Y011659D01*
X002104Y011465D01*
X001999Y011211D01*
X001999Y010937D01*
X002104Y010683D01*
X002214Y010574D01*
X002104Y010465D01*
X001999Y010211D01*
X001999Y009937D01*
X002104Y009683D01*
X002298Y009489D01*
X002395Y009449D01*
X002298Y009409D01*
X002104Y009215D01*
X001999Y008961D01*
X001999Y008687D01*
X002104Y008433D01*
X002298Y008239D01*
X002318Y008231D01*
X002270Y008183D01*
X002219Y008112D01*
X002180Y008035D01*
X002153Y007953D01*
X002139Y007868D01*
X002139Y007824D01*
X002139Y007781D01*
X002153Y007695D01*
X002180Y007613D01*
X002219Y007536D01*
X002270Y007466D01*
X002331Y007405D01*
X002401Y007354D01*
X002478Y007315D01*
X002560Y007288D01*
X002646Y007274D01*
X002689Y007274D01*
X002689Y007824D01*
X002139Y007824D01*
X002689Y007824D01*
X002689Y007824D01*
X002689Y007824D01*
X002689Y007274D01*
X002733Y007274D01*
X002818Y007288D01*
X002900Y007315D01*
X002978Y007354D01*
X003048Y007405D01*
X003109Y007466D01*
X003160Y007536D01*
X003199Y007613D01*
X003226Y007695D01*
X003239Y007781D01*
X003239Y007824D01*
X002690Y007824D01*
X002690Y007824D01*
X003239Y007824D01*
X003239Y007868D01*
X003226Y007953D01*
X003199Y008035D01*
X003160Y008112D01*
X003109Y008183D01*
X003060Y008231D01*
X003080Y008239D01*
X003274Y008433D01*
X003379Y008687D01*
X003379Y008961D01*
X003274Y009215D01*
X003080Y009409D01*
X002983Y009449D01*
X003080Y009489D01*
X003274Y009683D01*
X003379Y009937D01*
X003379Y010211D01*
X003274Y010465D01*
X003165Y010574D01*
X003274Y010683D01*
X003379Y010937D01*
X003379Y011211D01*
X003274Y011465D01*
X003105Y011634D01*
X003327Y011634D01*
X003580Y011739D01*
X003774Y011933D01*
X003853Y012123D01*
X004059Y011917D01*
X004059Y007400D01*
X004059Y007264D01*
X004052Y007264D01*
X003798Y007159D01*
X003689Y007050D01*
X003580Y007159D01*
X003327Y007264D01*
X003052Y007264D01*
X002798Y007159D01*
X002604Y006965D01*
X002499Y006711D01*
X002499Y006437D01*
X002604Y006183D01*
X002745Y006042D01*
X002642Y005940D01*
X002544Y005703D01*
X002544Y005446D01*
X002642Y005209D01*
X002824Y005027D01*
X003061Y004929D01*
X003318Y004929D01*
X003555Y005027D01*
X003689Y005162D01*
X003824Y005027D01*
X004061Y004929D01*
X004297Y004929D01*
X006367Y002859D01*
X006474Y002752D01*
X006614Y002694D01*
X011762Y002694D01*
X011824Y002543D01*
X012018Y002349D01*
X012272Y002244D01*
X012547Y002244D01*
X012800Y002349D01*
X012994Y002543D01*
X013099Y002797D01*
X013099Y003071D01*
X012994Y003325D01*
X012800Y003519D01*
X012547Y003624D01*
X012272Y003624D01*
X012018Y003519D01*
X011953Y003454D01*
X006847Y003454D01*
X004834Y005467D01*
X004834Y005703D01*
X004736Y005940D01*
X004731Y005944D01*
X005017Y005944D01*
X005104Y005733D01*
X005298Y005539D01*
X005552Y005434D01*
X005827Y005434D01*
X006080Y005539D01*
X006139Y005598D01*
X006298Y005439D01*
X006552Y005334D01*
X006827Y005334D01*
X007080Y005439D01*
X007239Y005598D01*
X007298Y005539D01*
X007552Y005434D01*
X007827Y005434D01*
X008080Y005539D01*
X008139Y005598D01*
X008298Y005439D01*
X008552Y005334D01*
X008827Y005334D01*
X009080Y005439D01*
X009239Y005598D01*
X009298Y005539D01*
X009552Y005434D01*
X009827Y005434D01*
X010080Y005539D01*
X010146Y005605D01*
X010152Y005585D01*
X010175Y005544D01*
X010209Y005510D01*
X010250Y005487D01*
X010296Y005474D01*
X010669Y005474D01*
X010669Y006004D01*
X010709Y006004D01*
X010709Y005474D01*
X011083Y005474D01*
X011129Y005487D01*
X011170Y005510D01*
X011203Y005544D01*
X011227Y005585D01*
X011239Y005631D01*
X011239Y006004D01*
X010710Y006004D01*
X010710Y006044D01*
X011239Y006044D01*
X011239Y006418D01*
X011232Y006444D01*
X013249Y006444D01*
X013249Y006187D01*
X013354Y005933D01*
X013548Y005739D01*
X013802Y005634D01*
X014077Y005634D01*
X014330Y005739D01*
X014524Y005933D01*
X014564Y006030D01*
X014604Y005933D01*
X014798Y005739D01*
X014883Y005704D01*
X014765Y005704D01*
X014614Y005704D01*
X014474Y005646D01*
X013974Y005146D01*
X013867Y005039D01*
X013809Y004900D01*
X013809Y002400D01*
X013809Y002249D01*
X013853Y002144D01*
X002939Y002144D01*
X002753Y002156D01*
X002753Y002156D01*
X002392Y002253D01*
X002311Y002300D02*
X002559Y002300D01*
X002616Y002283D02*
X002744Y002257D01*
X002859Y002246D01*
X002859Y003494D01*
X001611Y003494D01*
X001622Y003379D01*
X001648Y003251D01*
X001686Y003126D01*
X001736Y003005D01*
X001797Y002890D01*
X001870Y002781D01*
X001953Y002680D01*
X002045Y002588D01*
X002146Y002505D01*
X002255Y002432D01*
X002370Y002371D01*
X002491Y002320D01*
X002616Y002283D01*
X002859Y002300D02*
X003019Y002300D01*
X003019Y002246D02*
X003135Y002257D01*
X003263Y002283D01*
X003388Y002320D01*
X003509Y002371D01*
X003624Y002432D01*
X003733Y002505D01*
X003834Y002588D01*
X003926Y002680D01*
X004009Y002781D01*
X004081Y002890D01*
X004143Y003005D01*
X004193Y003126D01*
X004231Y003251D01*
X005975Y003251D01*
X006134Y003093D02*
X004179Y003093D01*
X004231Y003251D02*
X004256Y003379D01*
X004268Y003494D01*
X003019Y003494D01*
X003019Y002246D01*
X003019Y002458D02*
X002859Y002458D01*
X002859Y002617D02*
X003019Y002617D01*
X003019Y002776D02*
X002859Y002776D01*
X002859Y002934D02*
X003019Y002934D01*
X003019Y003093D02*
X002859Y003093D01*
X002859Y003251D02*
X003019Y003251D01*
X003019Y003410D02*
X002859Y003410D01*
X002859Y003494D02*
X003019Y003494D01*
X003019Y003654D01*
X004268Y003654D01*
X004256Y003770D01*
X004231Y003898D01*
X004193Y004023D01*
X004143Y004144D01*
X004081Y004259D01*
X004009Y004367D01*
X003926Y004468D01*
X003834Y004561D01*
X003733Y004644D01*
X003624Y004716D01*
X003509Y004778D01*
X003388Y004828D01*
X003263Y004866D01*
X003135Y004891D01*
X003019Y004903D01*
X003019Y003654D01*
X002859Y003654D01*
X002859Y003494D01*
X002859Y003568D02*
X001510Y003568D01*
X001611Y003654D02*
X002859Y003654D01*
X002859Y004903D01*
X002744Y004891D01*
X002616Y004866D01*
X002491Y004828D01*
X002370Y004778D01*
X002255Y004716D01*
X002146Y004644D01*
X002045Y004561D01*
X001953Y004468D01*
X001870Y004367D01*
X001797Y004259D01*
X001736Y004144D01*
X001686Y004023D01*
X001648Y003898D01*
X001622Y003770D01*
X001611Y003654D01*
X001618Y003727D02*
X001509Y003727D01*
X001509Y003885D02*
X001645Y003885D01*
X001694Y004044D02*
X001509Y004044D01*
X001509Y004202D02*
X001767Y004202D01*
X001865Y004361D02*
X001509Y004361D01*
X001509Y004519D02*
X002004Y004519D01*
X002197Y004678D02*
X001509Y004678D01*
X001509Y004837D02*
X002519Y004837D01*
X002859Y004837D02*
X003019Y004837D01*
X003019Y004678D02*
X002859Y004678D01*
X002859Y004519D02*
X003019Y004519D01*
X003019Y004361D02*
X002859Y004361D01*
X002859Y004202D02*
X003019Y004202D01*
X003019Y004044D02*
X002859Y004044D01*
X002859Y003885D02*
X003019Y003885D01*
X003019Y003727D02*
X002859Y003727D01*
X003019Y003568D02*
X005658Y003568D01*
X005816Y003410D02*
X004259Y003410D01*
X004261Y003727D02*
X005499Y003727D01*
X005341Y003885D02*
X004233Y003885D01*
X004184Y004044D02*
X005182Y004044D01*
X005024Y004202D02*
X004112Y004202D01*
X004013Y004361D02*
X004865Y004361D01*
X004707Y004519D02*
X003875Y004519D01*
X003681Y004678D02*
X004548Y004678D01*
X004390Y004837D02*
X003360Y004837D01*
X003477Y004995D02*
X003902Y004995D01*
X003698Y005154D02*
X003681Y005154D01*
X002902Y004995D02*
X001509Y004995D01*
X001509Y005154D02*
X002698Y005154D01*
X002600Y005312D02*
X001509Y005312D01*
X001509Y005471D02*
X002544Y005471D01*
X002544Y005629D02*
X001509Y005629D01*
X001509Y005788D02*
X002580Y005788D01*
X002649Y005946D02*
X001509Y005946D01*
X001509Y006105D02*
X002683Y006105D01*
X002571Y006263D02*
X001509Y006263D01*
X001509Y006422D02*
X002505Y006422D01*
X002499Y006581D02*
X001509Y006581D01*
X001509Y006739D02*
X002511Y006739D01*
X002576Y006898D02*
X001509Y006898D01*
X001509Y007056D02*
X002695Y007056D01*
X002933Y007215D02*
X001509Y007215D01*
X001509Y007373D02*
X002374Y007373D01*
X002222Y007532D02*
X001509Y007532D01*
X001509Y007690D02*
X002154Y007690D01*
X002139Y007849D02*
X001509Y007849D01*
X001509Y008007D02*
X002171Y008007D01*
X002258Y008166D02*
X001509Y008166D01*
X001509Y008325D02*
X002213Y008325D01*
X002084Y008483D02*
X001509Y008483D01*
X001509Y008642D02*
X002018Y008642D01*
X001999Y008800D02*
X001509Y008800D01*
X001509Y008959D02*
X001999Y008959D01*
X002064Y009117D02*
X001509Y009117D01*
X001509Y009276D02*
X002165Y009276D01*
X002359Y009434D02*
X001509Y009434D01*
X001509Y009593D02*
X002195Y009593D01*
X002076Y009751D02*
X001509Y009751D01*
X001509Y009910D02*
X002010Y009910D01*
X001999Y010069D02*
X001509Y010069D01*
X001509Y010227D02*
X002006Y010227D01*
X002071Y010386D02*
X001509Y010386D01*
X001509Y010544D02*
X002183Y010544D01*
X002096Y010703D02*
X001509Y010703D01*
X001509Y010861D02*
X002031Y010861D01*
X001999Y011020D02*
X001509Y011020D01*
X001509Y011178D02*
X001999Y011178D01*
X002051Y011337D02*
X001509Y011337D01*
X001509Y011495D02*
X002135Y011495D01*
X002293Y011654D02*
X001509Y011654D01*
X001509Y011812D02*
X002725Y011812D01*
X002589Y011971D02*
X001509Y011971D01*
X001509Y012130D02*
X002523Y012130D01*
X002499Y012288D02*
X001509Y012288D01*
X001509Y012447D02*
X002499Y012447D01*
X002559Y012605D02*
X001509Y012605D01*
X001509Y012764D02*
X001962Y012764D01*
X001841Y012922D02*
X001509Y012922D01*
X001509Y013081D02*
X001809Y013081D01*
X001809Y013239D02*
X001509Y013239D01*
X001509Y013398D02*
X001809Y013398D01*
X001809Y013556D02*
X001509Y013556D01*
X001509Y013715D02*
X001809Y013715D01*
X001809Y013874D02*
X001509Y013874D01*
X001509Y014032D02*
X001809Y014032D01*
X001809Y014191D02*
X001509Y014191D01*
X001509Y014349D02*
X001809Y014349D01*
X001809Y014508D02*
X001509Y014508D01*
X001509Y014666D02*
X001809Y014666D01*
X001809Y014825D02*
X001509Y014825D01*
X001509Y014983D02*
X001809Y014983D01*
X001809Y015142D02*
X001509Y015142D01*
X001509Y015300D02*
X001809Y015300D01*
X001809Y015459D02*
X001509Y015459D01*
X001509Y015618D02*
X001809Y015618D01*
X001809Y015776D02*
X001509Y015776D01*
X001509Y015935D02*
X001809Y015935D01*
X001809Y016093D02*
X001509Y016093D01*
X001509Y016252D02*
X001809Y016252D01*
X001809Y016410D02*
X001509Y016410D01*
X001509Y016569D02*
X001809Y016569D01*
X001809Y016727D02*
X001509Y016727D01*
X001509Y016886D02*
X001809Y016886D01*
X001809Y017044D02*
X001509Y017044D01*
X001509Y017203D02*
X001809Y017203D01*
X001809Y017361D02*
X001509Y017361D01*
X001509Y017520D02*
X001809Y017520D01*
X001809Y017679D02*
X001509Y017679D01*
X001509Y017837D02*
X001809Y017837D01*
X001809Y017996D02*
X001509Y017996D01*
X001509Y018154D02*
X001809Y018154D01*
X001809Y018313D02*
X001509Y018313D01*
X001509Y018471D02*
X001809Y018471D01*
X001809Y018630D02*
X001509Y018630D01*
X001509Y018788D02*
X001809Y018788D01*
X001809Y018947D02*
X001509Y018947D01*
X001509Y019105D02*
X001809Y019105D01*
X001809Y019264D02*
X001509Y019264D01*
X001509Y019423D02*
X001809Y019423D01*
X001809Y019581D02*
X001509Y019581D01*
X001509Y019740D02*
X001809Y019740D01*
X001809Y019898D02*
X001509Y019898D01*
X001509Y020057D02*
X001809Y020057D01*
X001809Y020215D02*
X001509Y020215D01*
X001509Y020374D02*
X001809Y020374D01*
X001809Y020532D02*
X001509Y020532D01*
X001509Y020691D02*
X001809Y020691D01*
X001809Y020849D02*
X001509Y020849D01*
X001509Y021008D02*
X001809Y021008D01*
X001809Y021167D02*
X001509Y021167D01*
X001509Y021325D02*
X001809Y021325D01*
X001809Y021484D02*
X001509Y021484D01*
X001509Y021642D02*
X001809Y021642D01*
X001809Y021801D02*
X001509Y021801D01*
X001509Y021959D02*
X001809Y021959D01*
X001809Y022118D02*
X001509Y022118D01*
X001509Y022276D02*
X001809Y022276D01*
X001809Y022435D02*
X001509Y022435D01*
X001509Y022593D02*
X001809Y022593D01*
X001809Y022752D02*
X001509Y022752D01*
X001509Y022911D02*
X001809Y022911D01*
X001809Y023069D02*
X001509Y023069D01*
X001509Y023228D02*
X001809Y023228D01*
X001809Y023386D02*
X001509Y023386D01*
X001509Y023545D02*
X001809Y023545D01*
X001809Y023703D02*
X001509Y023703D01*
X001509Y023862D02*
X001809Y023862D01*
X001809Y024020D02*
X001509Y024020D01*
X001509Y024179D02*
X001821Y024179D01*
X001915Y024337D02*
X001509Y024337D01*
X001509Y024496D02*
X002945Y024496D01*
X002731Y024654D02*
X001509Y024654D01*
X001509Y024813D02*
X002636Y024813D01*
X002589Y024972D02*
X001509Y024972D01*
X001509Y025130D02*
X002589Y025130D01*
X002589Y025289D02*
X001509Y025289D01*
X001509Y025447D02*
X002589Y025447D01*
X002589Y025606D02*
X001509Y025606D01*
X001509Y025764D02*
X002606Y025764D01*
X002672Y025923D02*
X001509Y025923D01*
X001509Y026081D02*
X002809Y026081D01*
X002809Y026240D02*
X001509Y026240D01*
X001509Y026398D02*
X002809Y026398D01*
X002809Y026557D02*
X001509Y026557D01*
X001509Y026716D02*
X002809Y026716D01*
X002809Y026874D02*
X001509Y026874D01*
X001509Y027033D02*
X002809Y027033D01*
X002809Y027191D02*
X001509Y027191D01*
X001509Y027350D02*
X002809Y027350D01*
X002809Y027508D02*
X001509Y027508D01*
X001509Y027667D02*
X002809Y027667D01*
X002809Y027825D02*
X001509Y027825D01*
X001509Y027984D02*
X002809Y027984D01*
X002809Y028142D02*
X001509Y028142D01*
X001509Y028301D02*
X002809Y028301D01*
X002809Y028460D02*
X001509Y028460D01*
X001509Y028618D02*
X002809Y028618D01*
X002809Y028777D02*
X001509Y028777D01*
X001509Y028935D02*
X002809Y028935D01*
X002809Y029094D02*
X001509Y029094D01*
X001509Y029252D02*
X002809Y029252D01*
X002809Y029411D02*
X001509Y029411D01*
X001509Y029569D02*
X002809Y029569D01*
X002842Y029728D02*
X001509Y029728D01*
X001509Y029886D02*
X002340Y029886D01*
X002097Y030045D02*
X001509Y030045D01*
X001509Y030204D02*
X001933Y030204D01*
X001816Y030362D02*
X001509Y030362D01*
X001509Y030521D02*
X001729Y030521D01*
X001669Y030679D02*
X001509Y030679D01*
X001509Y030838D02*
X001630Y030838D01*
X001509Y030996D02*
X002859Y030996D01*
X002859Y031154D02*
X001611Y031154D01*
X001622Y031270D01*
X001648Y031398D01*
X001686Y031523D01*
X001736Y031644D01*
X001797Y031759D01*
X001870Y031867D01*
X001953Y031968D01*
X002045Y032061D01*
X002146Y032144D01*
X002255Y032216D01*
X002370Y032278D01*
X002491Y032328D01*
X002616Y032366D01*
X002744Y032391D01*
X002859Y032403D01*
X002859Y031154D01*
X002859Y031155D02*
X003019Y031155D01*
X003019Y031154D02*
X003019Y032403D01*
X003135Y032391D01*
X003263Y032366D01*
X003388Y032328D01*
X003509Y032278D01*
X003624Y032216D01*
X003733Y032144D01*
X003834Y032061D01*
X003926Y031968D01*
X004009Y031867D01*
X004081Y031759D01*
X004143Y031644D01*
X004193Y031523D01*
X004231Y031398D01*
X004256Y031270D01*
X004268Y031154D01*
X003019Y031154D01*
X003019Y030996D02*
X009574Y030996D01*
X009415Y030838D02*
X004248Y030838D01*
X004209Y030679D02*
X009257Y030679D01*
X009098Y030521D02*
X004149Y030521D01*
X004063Y030362D02*
X008940Y030362D01*
X008781Y030204D02*
X003945Y030204D01*
X003782Y030045D02*
X008623Y030045D01*
X009107Y029454D02*
X009714Y030061D01*
X009731Y030018D01*
X009883Y029866D01*
X010082Y029784D01*
X010297Y029784D01*
X010495Y029866D01*
X010564Y029936D01*
X010633Y029866D01*
X010832Y029784D01*
X011047Y029784D01*
X011245Y029866D01*
X011397Y030018D01*
X011470Y030194D01*
X022864Y030194D01*
X023015Y030194D01*
X023155Y030252D01*
X023597Y030694D01*
X032515Y030694D01*
X032655Y030752D01*
X032761Y030859D01*
X033041Y031139D01*
X033052Y031134D01*
X033327Y031134D01*
X033580Y031239D01*
X033689Y031348D01*
X033798Y031239D01*
X034052Y031134D01*
X034327Y031134D01*
X034580Y031239D01*
X034689Y031348D01*
X034798Y031239D01*
X035052Y031134D01*
X035327Y031134D01*
X035580Y031239D01*
X035774Y031433D01*
X035879Y031687D01*
X035879Y031961D01*
X035774Y032215D01*
X035580Y032409D01*
X035350Y032504D01*
X038376Y032504D01*
X038439Y032504D01*
X038626Y032492D01*
X038986Y032395D01*
X039310Y032209D01*
X039574Y031945D01*
X039760Y031621D01*
X039857Y031261D01*
X039869Y031074D01*
X039869Y003638D01*
X039869Y003574D01*
X039857Y003388D01*
X039760Y003027D01*
X039574Y002704D01*
X039310Y002440D01*
X038986Y002253D01*
X038626Y002156D01*
X038439Y002144D01*
X027699Y002144D01*
X027729Y002217D01*
X027729Y002432D01*
X027647Y002630D01*
X027536Y002741D01*
X027540Y002745D01*
X027583Y002803D01*
X027616Y002868D01*
X027638Y002936D01*
X027649Y003008D01*
X027649Y003324D01*
X027190Y003324D01*
X027190Y003324D01*
X027649Y003324D01*
X027649Y003640D01*
X027638Y003712D01*
X027616Y003781D01*
X027583Y003845D01*
X027540Y003904D01*
X027489Y003955D01*
X027430Y003998D01*
X027366Y004031D01*
X027297Y004053D01*
X027225Y004064D01*
X027189Y004064D01*
X027153Y004064D01*
X027082Y004053D01*
X027013Y004031D01*
X026948Y003998D01*
X026890Y003955D01*
X026838Y003904D01*
X026796Y003845D01*
X026763Y003781D01*
X026741Y003712D01*
X026729Y003640D01*
X026729Y003324D01*
X026729Y003008D01*
X026741Y002936D01*
X026763Y002868D01*
X026796Y002803D01*
X026838Y002745D01*
X026842Y002741D01*
X026806Y002704D01*
X025500Y002704D01*
X025540Y002745D01*
X025583Y002803D01*
X025616Y002868D01*
X025638Y002936D01*
X025649Y003008D01*
X025649Y003324D01*
X025190Y003324D01*
X025190Y003324D01*
X025649Y003324D01*
X025649Y003640D01*
X025638Y003712D01*
X025616Y003781D01*
X025583Y003845D01*
X025540Y003904D01*
X025489Y003955D01*
X025430Y003998D01*
X025366Y004031D01*
X025297Y004053D01*
X025225Y004064D01*
X025189Y004064D01*
X025153Y004064D01*
X025082Y004053D01*
X025013Y004031D01*
X024948Y003998D01*
X024890Y003955D01*
X024838Y003904D01*
X024796Y003845D01*
X024763Y003781D01*
X024741Y003712D01*
X024729Y003640D01*
X024729Y003324D01*
X024729Y003008D01*
X024741Y002936D01*
X024763Y002868D01*
X024796Y002803D01*
X024838Y002745D01*
X024879Y002704D01*
X015621Y002704D01*
X015659Y002797D01*
X015659Y003071D01*
X015554Y003325D01*
X015360Y003519D01*
X015107Y003624D01*
X014832Y003624D01*
X014578Y003519D01*
X014569Y003510D01*
X014569Y004336D01*
X014611Y004295D01*
X014681Y004244D01*
X014758Y004205D01*
X014840Y004178D01*
X014926Y004164D01*
X014949Y004164D01*
X014949Y004694D01*
X014989Y004694D01*
X014989Y004164D01*
X015013Y004164D01*
X015098Y004178D01*
X015180Y004205D01*
X015258Y004244D01*
X015328Y004295D01*
X015389Y004356D01*
X015440Y004426D01*
X015479Y004503D01*
X015506Y004585D01*
X015519Y004671D01*
X015519Y004694D01*
X014990Y004694D01*
X014990Y004734D01*
X015519Y004734D01*
X015519Y004758D01*
X015506Y004843D01*
X015479Y004925D01*
X015440Y005002D01*
X015425Y005023D01*
X015511Y005109D01*
X015899Y005497D01*
X015899Y005467D01*
X015981Y005268D01*
X016133Y005116D01*
X016332Y005034D01*
X016547Y005034D01*
X016745Y005116D01*
X016823Y005194D01*
X018032Y005194D01*
X018047Y005179D01*
X018047Y004945D01*
X018146Y004706D01*
X018329Y004523D01*
X018568Y004424D01*
X018826Y004424D01*
X019065Y004523D01*
X019248Y004706D01*
X019274Y004768D01*
X019292Y004742D01*
X019349Y004685D01*
X019414Y004638D01*
X019486Y004602D01*
X019562Y004577D01*
X019641Y004564D01*
X019671Y004564D01*
X019671Y005064D01*
X019691Y005064D01*
X019691Y004564D01*
X019722Y004564D01*
X019801Y004577D01*
X019877Y004602D01*
X019949Y004638D01*
X020014Y004685D01*
X020070Y004742D01*
X020118Y004807D01*
X020154Y004878D01*
X020179Y004955D01*
X020191Y005034D01*
X020191Y005064D01*
X019692Y005064D01*
X019692Y005084D01*
X020191Y005084D01*
X020191Y005114D01*
X020179Y005194D01*
X020154Y005270D01*
X020118Y005342D01*
X020105Y005359D01*
X020232Y005486D01*
X020331Y005725D01*
X020331Y005929D01*
X025526Y005929D01*
X027999Y003456D01*
X027999Y003187D01*
X028104Y002933D01*
X028298Y002739D01*
X028552Y002634D01*
X028827Y002634D01*
X029080Y002739D01*
X029274Y002933D01*
X029379Y003187D01*
X029379Y003461D01*
X029274Y003715D01*
X029080Y003909D01*
X028827Y004014D01*
X028558Y004014D01*
X026024Y006548D01*
X025913Y006659D01*
X025768Y006719D01*
X025704Y006719D01*
X025789Y006925D01*
X025789Y007444D01*
X026515Y007444D01*
X026589Y007475D01*
X026589Y006925D01*
X026681Y006704D01*
X026849Y006536D01*
X027070Y006444D01*
X027309Y006444D01*
X027529Y006536D01*
X027698Y006704D01*
X027789Y006925D01*
X027789Y007724D01*
X027698Y007944D01*
X027529Y008113D01*
X027343Y008190D01*
X027526Y008373D01*
X027604Y008183D01*
X027798Y007989D01*
X028052Y007884D01*
X028274Y007884D01*
X028104Y007715D01*
X027999Y007461D01*
X027999Y007187D01*
X028104Y006933D01*
X028298Y006739D01*
X028552Y006634D01*
X028827Y006634D01*
X029080Y006739D01*
X029274Y006933D01*
X029379Y007187D01*
X029379Y007461D01*
X029274Y007715D01*
X029080Y007909D01*
X028827Y008014D01*
X028605Y008014D01*
X028774Y008183D01*
X028879Y008437D01*
X028879Y008711D01*
X028783Y008944D01*
X031596Y008944D01*
X031499Y008711D01*
X031499Y008437D01*
X031604Y008183D01*
X031798Y007989D01*
X032052Y007884D01*
X032327Y007884D01*
X032580Y007989D01*
X032774Y008183D01*
X032879Y008437D01*
X032879Y008444D01*
X033015Y008444D01*
X034911Y008444D01*
X034554Y008087D01*
X034554Y007561D01*
X034781Y007335D01*
X034638Y007192D01*
X034539Y006954D01*
X034539Y006695D01*
X034638Y006456D01*
X034821Y006273D01*
X035060Y006174D01*
X035319Y006174D01*
X035557Y006273D01*
X035689Y006405D01*
X035821Y006273D01*
X036060Y006174D01*
X036319Y006174D01*
X036557Y006273D01*
X036740Y006456D01*
X036839Y006695D01*
X036839Y006954D01*
X036740Y007192D01*
X036598Y007335D01*
X036689Y007426D01*
X036926Y007189D01*
X037452Y007189D01*
X037788Y007525D01*
X037984Y007329D01*
X038189Y007329D01*
X038189Y007824D01*
X038189Y007824D01*
X038189Y007329D01*
X038394Y007329D01*
X038684Y007619D01*
X038684Y007824D01*
X038190Y007824D01*
X038190Y007824D01*
X038684Y007824D01*
X038684Y008029D01*
X038394Y008319D01*
X038189Y008319D01*
X037984Y008319D01*
X037788Y008123D01*
X037467Y008444D01*
X038765Y008444D01*
X038905Y008502D01*
X039011Y008609D01*
X039069Y008749D01*
X039069Y008900D01*
X039069Y012400D01*
X039011Y012539D01*
X038905Y012646D01*
X037655Y013896D01*
X037515Y013954D01*
X037364Y013954D01*
X035864Y013954D01*
X035724Y013896D01*
X035617Y013789D01*
X035337Y013510D01*
X035327Y013514D01*
X035052Y013514D01*
X034798Y013409D01*
X034689Y013300D01*
X034580Y013409D01*
X034569Y013414D01*
X034569Y022944D01*
X034864Y022944D01*
X035015Y022944D01*
X035155Y023002D01*
X036655Y024502D01*
X036761Y024609D01*
X036819Y024749D01*
X036819Y026249D01*
X036819Y026400D01*
X036761Y026539D01*
X036655Y026646D01*
X036515Y026704D01*
X033765Y026704D01*
X033614Y026704D01*
X033474Y026646D01*
X028032Y021204D01*
X026495Y021204D01*
X026580Y021239D01*
X026774Y021433D01*
X026782Y021453D01*
X026831Y021405D01*
X026901Y021354D01*
X026978Y021315D01*
X027060Y021288D01*
X027146Y021274D01*
X027169Y021274D01*
X027169Y021804D01*
X027209Y021804D01*
X027209Y021274D01*
X027233Y021274D01*
X027318Y021288D01*
X027400Y021315D01*
X027478Y021354D01*
X027548Y021405D01*
X027609Y021466D01*
X027660Y021536D01*
X027699Y021613D01*
X027726Y021695D01*
X027739Y021781D01*
X027739Y021804D01*
X027210Y021804D01*
X027210Y021844D01*
X027739Y021844D01*
X027739Y021868D01*
X027726Y021953D01*
X027699Y022035D01*
X027660Y022112D01*
X027609Y022183D01*
X027560Y022231D01*
X027580Y022239D01*
X027774Y022433D01*
X027879Y022687D01*
X027879Y022961D01*
X027875Y022972D01*
X027964Y023061D01*
X027981Y023018D01*
X028133Y022866D01*
X028332Y022784D01*
X028547Y022784D01*
X028745Y022866D01*
X028897Y023018D01*
X028979Y023217D01*
X028979Y023432D01*
X028897Y023630D01*
X028819Y023708D01*
X028819Y025999D01*
X028819Y026150D01*
X028761Y026289D01*
X028655Y026396D01*
X028515Y026454D01*
X020015Y026454D01*
X019864Y026454D01*
X019724Y026396D01*
X019466Y026139D01*
X019309Y026204D01*
X019070Y026204D01*
X018849Y026113D01*
X018689Y025953D01*
X018529Y026113D01*
X018309Y026204D01*
X018070Y026204D01*
X017849Y026113D01*
X017689Y025953D01*
X017529Y026113D01*
X017309Y026204D01*
X017070Y026204D01*
X016849Y026113D01*
X016689Y025953D01*
X016529Y026113D01*
X016309Y026204D01*
X016070Y026204D01*
X015849Y026113D01*
X015689Y025953D01*
X015529Y026113D01*
X015309Y026204D01*
X015070Y026204D01*
X014849Y026113D01*
X014689Y025953D01*
X014585Y026057D01*
X014736Y026209D01*
X014834Y026446D01*
X014834Y026703D01*
X014736Y026940D01*
X014555Y027121D01*
X014318Y027219D01*
X014061Y027219D01*
X013824Y027121D01*
X013642Y026940D01*
X013608Y026857D01*
X013574Y026903D01*
X013518Y026959D01*
X013454Y027006D01*
X013383Y027042D01*
X013308Y027067D01*
X013229Y027079D01*
X013189Y027079D01*
X013150Y027079D01*
X013071Y027067D01*
X012995Y027042D01*
X012925Y027006D01*
X012860Y026959D01*
X012804Y026903D01*
X012757Y026839D01*
X012721Y026768D01*
X012697Y026692D01*
X012684Y026614D01*
X012684Y026574D01*
X012684Y026534D01*
X012697Y026456D01*
X012721Y026380D01*
X012757Y026310D01*
X012804Y026245D01*
X012860Y026189D01*
X012923Y026143D01*
X012849Y026113D01*
X012681Y025944D01*
X012614Y025784D01*
X012583Y025845D01*
X012540Y025904D01*
X012489Y025955D01*
X012430Y025998D01*
X012366Y026031D01*
X012297Y026053D01*
X012225Y026064D01*
X012189Y026064D01*
X012153Y026064D01*
X012082Y026053D01*
X012013Y026031D01*
X011948Y025998D01*
X011890Y025955D01*
X011838Y025904D01*
X011796Y025845D01*
X011764Y025784D01*
X011698Y025944D01*
X011529Y026113D01*
X011309Y026204D01*
X011070Y026204D01*
X010849Y026113D01*
X010689Y025953D01*
X010529Y026113D01*
X010309Y026204D01*
X010070Y026204D01*
X009849Y026113D01*
X009689Y025953D01*
X009529Y026113D01*
X009309Y026204D01*
X009070Y026204D01*
X008849Y026113D01*
X008689Y025953D01*
X008529Y026113D01*
X008309Y026204D01*
X008070Y026204D01*
X007849Y026113D01*
X007689Y025953D01*
X007529Y026113D01*
X007309Y026204D01*
X007070Y026204D01*
X006849Y026113D01*
X006689Y025953D01*
X006529Y026113D01*
X006519Y026117D01*
X007097Y026694D01*
X009614Y026694D01*
X009765Y026694D01*
X009905Y026752D01*
X010634Y027481D01*
X010799Y027316D01*
X011020Y027224D01*
X011259Y027224D01*
X011479Y027316D01*
X011608Y027444D01*
X012657Y027444D01*
X012824Y027277D01*
X013061Y027179D01*
X013318Y027179D01*
X013555Y027277D01*
X013736Y027459D01*
X013770Y027542D01*
X013804Y027495D01*
X013860Y027439D01*
X013925Y027392D01*
X013995Y027356D01*
X014071Y027332D01*
X014150Y027319D01*
X014189Y027319D01*
X014189Y027824D01*
X014189Y027824D01*
X014189Y027319D01*
X014229Y027319D01*
X014308Y027332D01*
X014383Y027356D01*
X014454Y027392D01*
X014518Y027439D01*
X014574Y027495D01*
X014621Y027560D01*
X014657Y027630D01*
X014682Y027706D01*
X014694Y027784D01*
X014694Y027824D01*
X014190Y027824D01*
X014190Y027824D01*
X014694Y027824D01*
X014694Y027864D01*
X014682Y027942D01*
X014657Y028018D01*
X014621Y028089D01*
X014574Y028153D01*
X014533Y028194D01*
X024556Y028194D01*
X024633Y028116D01*
X024832Y028034D01*
X025047Y028034D01*
X025245Y028116D01*
X025397Y028268D01*
X025479Y028467D01*
X025479Y028682D01*
X025474Y028694D01*
X026556Y028694D01*
X026633Y028616D01*
X026832Y028534D01*
X027047Y028534D01*
X027245Y028616D01*
X027397Y028768D01*
X027479Y028967D01*
X027479Y029182D01*
X027397Y029380D01*
X027245Y029532D01*
X027047Y029614D01*
X026832Y029614D01*
X026633Y029532D01*
X026556Y029454D01*
X009107Y029454D01*
X009222Y029569D02*
X026724Y029569D01*
X027155Y029569D02*
X039869Y029569D01*
X039869Y029411D02*
X027366Y029411D01*
X027450Y029252D02*
X029322Y029252D01*
X029370Y029278D02*
X029255Y029216D01*
X029146Y029144D01*
X029045Y029061D01*
X028953Y028968D01*
X028870Y028867D01*
X028797Y028759D01*
X028736Y028644D01*
X028686Y028523D01*
X028648Y028398D01*
X028622Y028270D01*
X028611Y028154D01*
X029859Y028154D01*
X029859Y027994D01*
X028611Y027994D01*
X028622Y027879D01*
X028648Y027751D01*
X028686Y027626D01*
X028736Y027505D01*
X028797Y027390D01*
X028870Y027281D01*
X028953Y027180D01*
X029045Y027088D01*
X029146Y027005D01*
X029255Y026932D01*
X029370Y026871D01*
X029491Y026820D01*
X029616Y026783D01*
X029744Y026757D01*
X029859Y026746D01*
X029859Y027994D01*
X030019Y027994D01*
X030019Y026746D01*
X030135Y026757D01*
X030263Y026783D01*
X030388Y026820D01*
X030509Y026871D01*
X030624Y026932D01*
X030733Y027005D01*
X030834Y027088D01*
X030926Y027180D01*
X031009Y027281D01*
X031081Y027390D01*
X031143Y027505D01*
X031193Y027626D01*
X031231Y027751D01*
X031256Y027879D01*
X031268Y027994D01*
X030019Y027994D01*
X030019Y028154D01*
X031268Y028154D01*
X031256Y028270D01*
X031231Y028398D01*
X031193Y028523D01*
X031143Y028644D01*
X031081Y028759D01*
X031009Y028867D01*
X030926Y028968D01*
X030834Y029061D01*
X030733Y029144D01*
X030624Y029216D01*
X030509Y029278D01*
X030388Y029328D01*
X030263Y029366D01*
X030135Y029391D01*
X030019Y029403D01*
X030019Y028154D01*
X029859Y028154D01*
X029859Y029403D01*
X029744Y029391D01*
X029616Y029366D01*
X029491Y029328D01*
X029370Y029278D01*
X029085Y029094D02*
X027479Y029094D01*
X027466Y028935D02*
X028925Y028935D01*
X028809Y028777D02*
X027400Y028777D01*
X027247Y028618D02*
X028725Y028618D01*
X028666Y028460D02*
X025476Y028460D01*
X025479Y028618D02*
X026632Y028618D01*
X025411Y028301D02*
X028628Y028301D01*
X028612Y027984D02*
X014668Y027984D01*
X014694Y027825D02*
X028633Y027825D01*
X028673Y027667D02*
X014669Y027667D01*
X014584Y027508D02*
X028734Y027508D01*
X028824Y027350D02*
X014363Y027350D01*
X014385Y027191D02*
X028943Y027191D01*
X029112Y027033D02*
X014643Y027033D01*
X014763Y026874D02*
X029363Y026874D01*
X029859Y026874D02*
X030019Y026874D01*
X030019Y027033D02*
X029859Y027033D01*
X029859Y027191D02*
X030019Y027191D01*
X030019Y027350D02*
X029859Y027350D01*
X029859Y027508D02*
X030019Y027508D01*
X030019Y027667D02*
X029859Y027667D01*
X029859Y027825D02*
X030019Y027825D01*
X030019Y027984D02*
X029859Y027984D01*
X029859Y028142D02*
X025271Y028142D01*
X024607Y028142D02*
X014582Y028142D01*
X014189Y027667D02*
X014189Y027667D01*
X014189Y027508D02*
X014189Y027508D01*
X014189Y027350D02*
X014189Y027350D01*
X014016Y027350D02*
X013627Y027350D01*
X013756Y027508D02*
X013795Y027508D01*
X013993Y027191D02*
X013346Y027191D01*
X013402Y027033D02*
X013736Y027033D01*
X013615Y026874D02*
X013596Y026874D01*
X013189Y026874D02*
X013189Y026874D01*
X013189Y026716D02*
X013189Y026716D01*
X013189Y026575D02*
X013189Y027079D01*
X013189Y026575D01*
X013189Y026575D01*
X013189Y026574D02*
X013189Y026574D01*
X012684Y026574D01*
X013189Y026574D01*
X013189Y027033D02*
X013189Y027033D01*
X012977Y027033D02*
X010185Y027033D01*
X010344Y027191D02*
X013032Y027191D01*
X012752Y027350D02*
X011513Y027350D01*
X010765Y027350D02*
X010502Y027350D01*
X010027Y026874D02*
X012783Y026874D01*
X012704Y026716D02*
X009816Y026716D01*
X009818Y026081D02*
X009561Y026081D01*
X008818Y026081D02*
X008561Y026081D01*
X007818Y026081D02*
X007561Y026081D01*
X006818Y026081D02*
X006561Y026081D01*
X006642Y026240D02*
X012809Y026240D01*
X012818Y026081D02*
X011561Y026081D01*
X011707Y025923D02*
X011857Y025923D01*
X012189Y025923D02*
X012189Y025923D01*
X012189Y026064D02*
X012189Y025325D01*
X012189Y025325D01*
X012189Y026064D01*
X012189Y025764D02*
X012189Y025764D01*
X012189Y025606D02*
X012189Y025606D01*
X012189Y025447D02*
X012189Y025447D01*
X012521Y025923D02*
X012672Y025923D01*
X012715Y026398D02*
X006801Y026398D01*
X006959Y026557D02*
X012684Y026557D01*
X010818Y026081D02*
X010561Y026081D01*
X006714Y027387D02*
X006617Y027289D01*
X005466Y026139D01*
X005309Y026204D01*
X005070Y026204D01*
X004849Y026113D01*
X004689Y025953D01*
X004529Y026113D01*
X004343Y026190D01*
X005742Y027590D01*
X005757Y027560D01*
X005804Y027495D01*
X005860Y027439D01*
X005925Y027392D01*
X005995Y027356D01*
X006071Y027332D01*
X006150Y027319D01*
X006189Y027319D01*
X006189Y027824D01*
X006189Y027824D01*
X006189Y027319D01*
X006229Y027319D01*
X006308Y027332D01*
X006383Y027356D01*
X006454Y027392D01*
X006518Y027439D01*
X006574Y027495D01*
X006608Y027542D01*
X006642Y027459D01*
X006714Y027387D01*
X006677Y027350D02*
X006363Y027350D01*
X006189Y027350D02*
X006189Y027350D01*
X006189Y027508D02*
X006189Y027508D01*
X006189Y027667D02*
X006189Y027667D01*
X006016Y027350D02*
X005502Y027350D01*
X005661Y027508D02*
X005795Y027508D01*
X005344Y027191D02*
X006519Y027191D01*
X006360Y027033D02*
X005185Y027033D01*
X005026Y026874D02*
X006202Y026874D01*
X006043Y026716D02*
X004868Y026716D01*
X004709Y026557D02*
X005885Y026557D01*
X005726Y026398D02*
X004551Y026398D01*
X004392Y026240D02*
X005568Y026240D01*
X004818Y026081D02*
X004561Y026081D01*
X006584Y027508D02*
X006622Y027508D01*
X009380Y029728D02*
X039869Y029728D01*
X039869Y029886D02*
X039038Y029886D01*
X039009Y029871D02*
X039124Y029932D01*
X039233Y030005D01*
X039334Y030088D01*
X039426Y030180D01*
X039509Y030281D01*
X039581Y030390D01*
X039643Y030505D01*
X039693Y030626D01*
X039731Y030751D01*
X039756Y030879D01*
X039768Y030994D01*
X038519Y030994D01*
X038519Y029746D01*
X038635Y029757D01*
X038763Y029783D01*
X038888Y029820D01*
X039009Y029871D01*
X039282Y030045D02*
X039869Y030045D01*
X039869Y030204D02*
X039445Y030204D01*
X039563Y030362D02*
X039869Y030362D01*
X039869Y030521D02*
X039649Y030521D01*
X039709Y030679D02*
X039869Y030679D01*
X039869Y030838D02*
X039748Y030838D01*
X039869Y030996D02*
X038519Y030996D01*
X038519Y030994D02*
X038519Y031154D01*
X039768Y031154D01*
X039756Y031270D01*
X039731Y031398D01*
X039693Y031523D01*
X039643Y031644D01*
X039581Y031759D01*
X039509Y031867D01*
X039426Y031968D01*
X039334Y032061D01*
X039233Y032144D01*
X039124Y032216D01*
X039009Y032278D01*
X038888Y032328D01*
X038763Y032366D01*
X038635Y032391D01*
X038519Y032403D01*
X038519Y031154D01*
X038359Y031154D01*
X038359Y030994D01*
X037111Y030994D01*
X037122Y030879D01*
X037148Y030751D01*
X037186Y030626D01*
X037236Y030505D01*
X037297Y030390D01*
X037370Y030281D01*
X037453Y030180D01*
X037545Y030088D01*
X037646Y030005D01*
X037755Y029932D01*
X037870Y029871D01*
X037991Y029820D01*
X038116Y029783D01*
X038244Y029757D01*
X038359Y029746D01*
X038359Y030994D01*
X038519Y030994D01*
X038519Y030838D02*
X038359Y030838D01*
X038359Y030996D02*
X032899Y030996D01*
X032740Y030838D02*
X037130Y030838D01*
X037169Y030679D02*
X023582Y030679D01*
X023423Y030521D02*
X037229Y030521D01*
X037316Y030362D02*
X023264Y030362D01*
X023037Y030204D02*
X037433Y030204D01*
X037597Y030045D02*
X011408Y030045D01*
X011265Y029886D02*
X037840Y029886D01*
X038359Y029886D02*
X038519Y029886D01*
X038519Y030045D02*
X038359Y030045D01*
X038359Y030204D02*
X038519Y030204D01*
X038519Y030362D02*
X038359Y030362D01*
X038359Y030521D02*
X038519Y030521D01*
X038519Y030679D02*
X038359Y030679D01*
X038359Y031154D02*
X037111Y031154D01*
X037122Y031270D01*
X037148Y031398D01*
X037186Y031523D01*
X037236Y031644D01*
X037297Y031759D01*
X037370Y031867D01*
X037453Y031968D01*
X037545Y032061D01*
X037646Y032144D01*
X037755Y032216D01*
X037870Y032278D01*
X037991Y032328D01*
X038116Y032366D01*
X038244Y032391D01*
X038359Y032403D01*
X038359Y031154D01*
X038359Y031155D02*
X038519Y031155D01*
X038519Y031313D02*
X038359Y031313D01*
X038359Y031472D02*
X038519Y031472D01*
X038519Y031630D02*
X038359Y031630D01*
X038359Y031789D02*
X038519Y031789D01*
X038519Y031947D02*
X038359Y031947D01*
X038359Y032106D02*
X038519Y032106D01*
X038519Y032265D02*
X038359Y032265D01*
X037845Y032265D02*
X035725Y032265D01*
X035819Y032106D02*
X037600Y032106D01*
X037435Y031947D02*
X035879Y031947D01*
X035879Y031789D02*
X037317Y031789D01*
X037230Y031630D02*
X035856Y031630D01*
X035790Y031472D02*
X037170Y031472D01*
X037131Y031313D02*
X035654Y031313D01*
X035376Y031155D02*
X037111Y031155D01*
X035546Y032423D02*
X038883Y032423D01*
X039034Y032265D02*
X039213Y032265D01*
X039279Y032106D02*
X039413Y032106D01*
X039443Y031947D02*
X039571Y031947D01*
X039561Y031789D02*
X039664Y031789D01*
X039648Y031630D02*
X039755Y031630D01*
X039709Y031472D02*
X039801Y031472D01*
X039843Y031313D02*
X039748Y031313D01*
X039768Y031155D02*
X039864Y031155D01*
X039869Y029252D02*
X030557Y029252D01*
X030794Y029094D02*
X039869Y029094D01*
X039869Y028935D02*
X030953Y028935D01*
X031070Y028777D02*
X039869Y028777D01*
X039869Y028618D02*
X031154Y028618D01*
X031212Y028460D02*
X039869Y028460D01*
X039869Y028301D02*
X031250Y028301D01*
X031267Y027984D02*
X039869Y027984D01*
X039869Y028142D02*
X030019Y028142D01*
X030019Y028301D02*
X029859Y028301D01*
X029859Y028460D02*
X030019Y028460D01*
X030019Y028618D02*
X029859Y028618D01*
X029859Y028777D02*
X030019Y028777D01*
X030019Y028935D02*
X029859Y028935D01*
X029859Y029094D02*
X030019Y029094D01*
X030019Y029252D02*
X029859Y029252D01*
X031246Y027825D02*
X039869Y027825D01*
X039869Y027667D02*
X031206Y027667D01*
X031144Y027508D02*
X039869Y027508D01*
X039869Y027350D02*
X031055Y027350D01*
X030935Y027191D02*
X039869Y027191D01*
X039869Y027033D02*
X030767Y027033D01*
X030515Y026874D02*
X039869Y026874D01*
X039869Y026716D02*
X014829Y026716D01*
X014834Y026557D02*
X033385Y026557D01*
X033226Y026398D02*
X028650Y026398D01*
X028782Y026240D02*
X033068Y026240D01*
X032909Y026081D02*
X028819Y026081D01*
X028819Y025923D02*
X032750Y025923D01*
X032592Y025764D02*
X028819Y025764D01*
X028819Y025606D02*
X032433Y025606D01*
X032275Y025447D02*
X028819Y025447D01*
X028819Y025289D02*
X032116Y025289D01*
X031958Y025130D02*
X028819Y025130D01*
X028819Y024972D02*
X031799Y024972D01*
X031641Y024813D02*
X028819Y024813D01*
X028819Y024654D02*
X031482Y024654D01*
X031324Y024496D02*
X028819Y024496D01*
X028819Y024337D02*
X031165Y024337D01*
X031006Y024179D02*
X028819Y024179D01*
X028819Y024020D02*
X030848Y024020D01*
X030689Y023862D02*
X028819Y023862D01*
X028824Y023703D02*
X030531Y023703D01*
X030372Y023545D02*
X028932Y023545D01*
X028979Y023386D02*
X030214Y023386D01*
X030055Y023228D02*
X028979Y023228D01*
X028918Y023069D02*
X029897Y023069D01*
X029738Y022911D02*
X028789Y022911D01*
X029263Y022435D02*
X027775Y022435D01*
X027840Y022593D02*
X029421Y022593D01*
X029580Y022752D02*
X027879Y022752D01*
X027879Y022911D02*
X028089Y022911D01*
X027617Y022276D02*
X029104Y022276D01*
X028945Y022118D02*
X027656Y022118D01*
X027724Y021959D02*
X028787Y021959D01*
X028628Y021801D02*
X027739Y021801D01*
X027708Y021642D02*
X028470Y021642D01*
X028311Y021484D02*
X027622Y021484D01*
X027421Y021325D02*
X028153Y021325D01*
X027209Y021325D02*
X027169Y021325D01*
X027169Y021484D02*
X027209Y021484D01*
X027209Y021642D02*
X027169Y021642D01*
X027169Y021801D02*
X027209Y021801D01*
X026957Y021325D02*
X026666Y021325D01*
X025282Y019944D02*
X027257Y017969D01*
X025518Y017969D01*
X025376Y017969D01*
X025274Y018215D01*
X025080Y018409D01*
X025060Y018417D01*
X025109Y018466D01*
X025160Y018536D01*
X025199Y018613D01*
X025226Y018695D01*
X025239Y018781D01*
X025239Y018824D01*
X024690Y018824D01*
X024690Y018824D01*
X025239Y018824D01*
X025239Y018868D01*
X025226Y018953D01*
X025199Y019035D01*
X025160Y019112D01*
X025109Y019183D01*
X025048Y019244D01*
X024978Y019295D01*
X024900Y019334D01*
X024818Y019361D01*
X024733Y019374D01*
X024689Y019374D01*
X024646Y019374D01*
X024560Y019361D01*
X024478Y019334D01*
X024401Y019295D01*
X024331Y019244D01*
X024270Y019183D01*
X024219Y019112D01*
X024180Y019035D01*
X024161Y018979D01*
X024077Y019014D01*
X023802Y019014D01*
X023548Y018909D01*
X023354Y018715D01*
X023350Y018704D01*
X023347Y018704D01*
X022789Y019262D01*
X022789Y019724D01*
X022698Y019944D01*
X022698Y019944D01*
X025282Y019944D01*
X025328Y019898D02*
X022717Y019898D01*
X022783Y019740D02*
X025486Y019740D01*
X025645Y019581D02*
X022789Y019581D01*
X022789Y019423D02*
X025804Y019423D01*
X025962Y019264D02*
X025020Y019264D01*
X025163Y019105D02*
X026121Y019105D01*
X026279Y018947D02*
X025227Y018947D01*
X025239Y018788D02*
X026438Y018788D01*
X026596Y018630D02*
X025204Y018630D01*
X025113Y018471D02*
X026755Y018471D01*
X026913Y018313D02*
X025177Y018313D01*
X025299Y018154D02*
X027072Y018154D01*
X027230Y017996D02*
X025365Y017996D01*
X024689Y018825D02*
X024689Y018825D01*
X024689Y019374D01*
X024689Y018825D01*
X024689Y018947D02*
X024689Y018947D01*
X024689Y019105D02*
X024689Y019105D01*
X024689Y019264D02*
X024689Y019264D01*
X024359Y019264D02*
X022789Y019264D01*
X022945Y019105D02*
X024215Y019105D01*
X023640Y018947D02*
X023104Y018947D01*
X023263Y018788D02*
X023428Y018788D01*
X020309Y018445D02*
X020309Y015650D01*
X020309Y015499D01*
X020321Y015469D01*
X017111Y015469D01*
X017160Y015536D01*
X017199Y015613D01*
X017226Y015695D01*
X017239Y015781D01*
X017239Y015824D01*
X016690Y015824D01*
X016690Y015824D01*
X017239Y015824D01*
X017239Y015868D01*
X017226Y015953D01*
X017199Y016035D01*
X017160Y016112D01*
X017109Y016183D01*
X017048Y016244D01*
X016978Y016295D01*
X016900Y016334D01*
X016818Y016361D01*
X016733Y016374D01*
X016689Y016374D01*
X016646Y016374D01*
X016560Y016361D01*
X016478Y016334D01*
X016401Y016295D01*
X016331Y016244D01*
X016282Y016195D01*
X016274Y016215D01*
X016080Y016409D01*
X015827Y016514D01*
X015552Y016514D01*
X015298Y016409D01*
X015104Y016215D01*
X014999Y015961D01*
X014999Y015687D01*
X015096Y015454D01*
X012097Y015454D01*
X010729Y016822D01*
X010729Y016932D01*
X010647Y017130D01*
X010495Y017282D01*
X010297Y017364D01*
X010082Y017364D01*
X009883Y017282D01*
X009731Y017130D01*
X009649Y016932D01*
X009649Y016717D01*
X009731Y016518D01*
X009883Y016366D01*
X010082Y016284D01*
X010192Y016284D01*
X011617Y014859D01*
X011683Y014793D01*
X011604Y014715D01*
X011499Y014461D01*
X011499Y014187D01*
X011504Y014176D01*
X011282Y013954D01*
X008783Y013954D01*
X008879Y014187D01*
X008879Y014461D01*
X008774Y014715D01*
X008580Y014909D01*
X008327Y015014D01*
X008052Y015014D01*
X007798Y014909D01*
X007689Y014800D01*
X007580Y014909D01*
X007327Y015014D01*
X007052Y015014D01*
X006798Y014909D01*
X006604Y014715D01*
X006499Y014461D01*
X006499Y014187D01*
X006596Y013954D01*
X006364Y013954D01*
X006224Y013896D01*
X006117Y013789D01*
X006059Y013650D01*
X006059Y013499D01*
X006059Y011499D01*
X006117Y011359D01*
X006224Y011252D01*
X007032Y010444D01*
X006932Y010444D01*
X006590Y010102D01*
X006388Y010304D01*
X006199Y010304D01*
X006199Y009834D01*
X006179Y009834D01*
X006179Y010304D01*
X005990Y010304D01*
X005744Y010057D01*
X005479Y010322D01*
X005479Y010432D01*
X005397Y010630D01*
X005245Y010782D01*
X005047Y010864D01*
X004832Y010864D01*
X004819Y010859D01*
X004819Y012150D01*
X004761Y012289D01*
X004655Y012396D01*
X003655Y013396D01*
X003515Y013454D01*
X003364Y013454D01*
X002569Y013454D01*
X002569Y014018D01*
X002604Y013933D01*
X002798Y013739D01*
X003052Y013634D01*
X003327Y013634D01*
X003580Y013739D01*
X003774Y013933D01*
X003879Y014187D01*
X003879Y014461D01*
X003774Y014715D01*
X003580Y014909D01*
X003327Y015014D01*
X003052Y015014D01*
X002798Y014909D01*
X002604Y014715D01*
X002569Y014630D01*
X002569Y015907D01*
X002724Y015752D01*
X002864Y015694D01*
X003015Y015694D01*
X003100Y015694D01*
X003104Y015683D01*
X003298Y015489D01*
X003552Y015384D01*
X003827Y015384D01*
X004080Y015489D01*
X004274Y015683D01*
X004379Y015937D01*
X004379Y016211D01*
X004344Y016296D01*
X004400Y016315D01*
X004478Y016354D01*
X004548Y016405D01*
X004609Y016466D01*
X004660Y016536D01*
X004699Y016613D01*
X004726Y016695D01*
X004739Y016781D01*
X004739Y016824D01*
X004190Y016824D01*
X004190Y016824D01*
X004739Y016824D01*
X004739Y016868D01*
X004726Y016953D01*
X004699Y017035D01*
X004660Y017112D01*
X004609Y017183D01*
X004548Y017244D01*
X004478Y017295D01*
X004400Y017334D01*
X004318Y017361D01*
X004233Y017374D01*
X004189Y017374D01*
X004146Y017374D01*
X004060Y017361D01*
X003978Y017334D01*
X003901Y017295D01*
X003831Y017244D01*
X003782Y017195D01*
X003774Y017215D01*
X003580Y017409D01*
X003327Y017514D01*
X003052Y017514D01*
X002819Y017418D01*
X002819Y018566D01*
X002849Y018536D01*
X003070Y018444D01*
X003309Y018444D01*
X003309Y018445D01*
X003309Y018400D01*
X003309Y018249D01*
X003367Y018109D01*
X003474Y018002D01*
X003614Y017944D01*
X007114Y017944D01*
X007265Y017944D01*
X007405Y018002D01*
X007912Y018510D01*
X008070Y018444D01*
X008309Y018444D01*
X008529Y018536D01*
X008689Y018696D01*
X008849Y018536D01*
X009070Y018444D01*
X009309Y018444D01*
X009529Y018536D01*
X009689Y018696D01*
X009849Y018536D01*
X010070Y018444D01*
X010309Y018444D01*
X010529Y018536D01*
X010689Y018696D01*
X010846Y018539D01*
X010526Y018219D01*
X008558Y018219D01*
X008495Y018282D01*
X008297Y018364D01*
X008082Y018364D01*
X007883Y018282D01*
X007731Y018130D01*
X007649Y017932D01*
X007649Y017717D01*
X007731Y017518D01*
X007883Y017366D01*
X008082Y017284D01*
X008297Y017284D01*
X008495Y017366D01*
X008558Y017429D01*
X010768Y017429D01*
X010913Y017489D01*
X011024Y017600D01*
X011927Y018503D01*
X012045Y018455D01*
X012044Y018453D01*
X012044Y018196D01*
X012142Y017959D01*
X012324Y017777D01*
X012407Y017743D01*
X012360Y017709D01*
X012304Y017653D01*
X012257Y017589D01*
X012221Y017518D01*
X012197Y017442D01*
X012184Y017364D01*
X012184Y017324D01*
X012184Y017284D01*
X012197Y017206D01*
X012221Y017130D01*
X012257Y017060D01*
X012304Y016995D01*
X012360Y016939D01*
X012425Y016892D01*
X012495Y016856D01*
X012571Y016832D01*
X012650Y016819D01*
X012689Y016819D01*
X012689Y017324D01*
X012184Y017324D01*
X012689Y017324D01*
X012689Y017324D01*
X012689Y017324D01*
X012689Y016819D01*
X012729Y016819D01*
X012808Y016832D01*
X012883Y016856D01*
X012954Y016892D01*
X013018Y016939D01*
X013074Y016995D01*
X013121Y017060D01*
X013157Y017130D01*
X013182Y017206D01*
X013189Y017253D01*
X013197Y017206D01*
X013221Y017130D01*
X013257Y017060D01*
X013304Y016995D01*
X013360Y016939D01*
X013425Y016892D01*
X013495Y016856D01*
X013571Y016832D01*
X013650Y016819D01*
X013689Y016819D01*
X013689Y017324D01*
X013184Y017324D01*
X012690Y017324D01*
X012690Y017324D01*
X013184Y017324D01*
X013689Y017324D01*
X013689Y017324D01*
X013689Y017324D01*
X013689Y016819D01*
X013729Y016819D01*
X013808Y016832D01*
X013883Y016856D01*
X013954Y016892D01*
X014018Y016939D01*
X014074Y016995D01*
X014121Y017060D01*
X014157Y017130D01*
X014182Y017206D01*
X014194Y017284D01*
X014194Y017324D01*
X013690Y017324D01*
X013690Y017324D01*
X014194Y017324D01*
X014194Y017364D01*
X014182Y017442D01*
X014157Y017518D01*
X014121Y017589D01*
X014074Y017653D01*
X014018Y017709D01*
X013972Y017743D01*
X014055Y017777D01*
X014236Y017959D01*
X014334Y018196D01*
X014334Y018453D01*
X014333Y018455D01*
X014529Y018536D01*
X014689Y018696D01*
X014849Y018536D01*
X015070Y018444D01*
X015309Y018444D01*
X015466Y018510D01*
X015474Y018502D01*
X015617Y018359D01*
X015724Y018252D01*
X015864Y018194D01*
X019515Y018194D01*
X019655Y018252D01*
X019761Y018359D01*
X019912Y018510D01*
X020070Y018444D01*
X020309Y018444D01*
X020309Y018445D01*
X020309Y018313D02*
X019715Y018313D01*
X019874Y018471D02*
X020005Y018471D01*
X020309Y018154D02*
X014317Y018154D01*
X014334Y018313D02*
X015663Y018313D01*
X015617Y018359D02*
X015617Y018359D01*
X015505Y018471D02*
X015374Y018471D01*
X015474Y018502D02*
X015474Y018502D01*
X015005Y018471D02*
X014374Y018471D01*
X014623Y018630D02*
X014755Y018630D01*
X015077Y017969D02*
X014840Y017871D01*
X014658Y017690D01*
X014560Y017453D01*
X014560Y017196D01*
X014658Y016959D01*
X014840Y016777D01*
X015077Y016679D01*
X015333Y016679D01*
X015570Y016777D01*
X015752Y016959D01*
X015850Y017196D01*
X015850Y017453D01*
X015752Y017690D01*
X015570Y017871D01*
X015333Y017969D01*
X015077Y017969D01*
X014806Y017837D02*
X014114Y017837D01*
X014049Y017679D02*
X014654Y017679D01*
X014588Y017520D02*
X014156Y017520D01*
X014194Y017361D02*
X014560Y017361D01*
X014560Y017203D02*
X014181Y017203D01*
X014110Y017044D02*
X014623Y017044D01*
X014731Y016886D02*
X013941Y016886D01*
X013689Y016886D02*
X013689Y016886D01*
X013689Y017044D02*
X013689Y017044D01*
X013689Y017203D02*
X013689Y017203D01*
X013437Y016886D02*
X012941Y016886D01*
X013110Y017044D02*
X013268Y017044D01*
X013198Y017203D02*
X013181Y017203D01*
X012689Y017203D02*
X012689Y017203D01*
X012689Y017044D02*
X012689Y017044D01*
X012689Y016886D02*
X012689Y016886D01*
X012437Y016886D02*
X010729Y016886D01*
X010683Y017044D02*
X012268Y017044D01*
X012198Y017203D02*
X010574Y017203D01*
X010303Y017361D02*
X012184Y017361D01*
X012222Y017520D02*
X010944Y017520D01*
X011102Y017679D02*
X012329Y017679D01*
X012264Y017837D02*
X011261Y017837D01*
X011419Y017996D02*
X012127Y017996D01*
X012062Y018154D02*
X011578Y018154D01*
X011736Y018313D02*
X012044Y018313D01*
X012005Y018471D02*
X011895Y018471D01*
X010778Y018471D02*
X010374Y018471D01*
X010619Y018313D02*
X008421Y018313D01*
X008374Y018471D02*
X009005Y018471D01*
X008755Y018630D02*
X008623Y018630D01*
X008005Y018471D02*
X007874Y018471D01*
X007958Y018313D02*
X007715Y018313D01*
X007756Y018154D02*
X007557Y018154D01*
X007676Y017996D02*
X007389Y017996D01*
X007649Y017837D02*
X002819Y017837D01*
X002819Y017679D02*
X007665Y017679D01*
X007731Y017520D02*
X002819Y017520D01*
X002819Y017996D02*
X003489Y017996D01*
X003348Y018154D02*
X002819Y018154D01*
X002819Y018313D02*
X003309Y018313D01*
X003005Y018471D02*
X002819Y018471D01*
X003628Y017361D02*
X004066Y017361D01*
X004189Y017361D02*
X004189Y017361D01*
X004189Y017374D02*
X004189Y016825D01*
X004189Y016825D01*
X004189Y017374D01*
X004313Y017361D02*
X007895Y017361D01*
X008483Y017361D02*
X010075Y017361D01*
X009804Y017203D02*
X004588Y017203D01*
X004694Y017044D02*
X009696Y017044D01*
X009649Y016886D02*
X008730Y016886D01*
X008696Y016921D02*
X008578Y016969D01*
X007801Y016969D01*
X007683Y016921D01*
X007593Y016831D01*
X007544Y016713D01*
X007544Y016683D01*
X007518Y016709D01*
X007454Y016756D01*
X007383Y016792D01*
X007308Y016817D01*
X007229Y016829D01*
X007189Y016829D01*
X007150Y016829D01*
X007071Y016817D01*
X006995Y016792D01*
X006925Y016756D01*
X006860Y016709D01*
X006804Y016653D01*
X006757Y016589D01*
X006721Y016518D01*
X006697Y016442D01*
X006684Y016364D01*
X006684Y016324D01*
X006684Y016284D01*
X006697Y016206D01*
X006721Y016130D01*
X006757Y016060D01*
X006804Y015995D01*
X006860Y015939D01*
X006925Y015892D01*
X006995Y015856D01*
X007071Y015832D01*
X007150Y015819D01*
X007189Y015819D01*
X007189Y016324D01*
X006684Y016324D01*
X007189Y016324D01*
X007189Y016324D01*
X007189Y016324D01*
X007189Y015819D01*
X007229Y015819D01*
X007308Y015832D01*
X007383Y015856D01*
X007454Y015892D01*
X007518Y015939D01*
X007544Y015965D01*
X007544Y015936D01*
X007593Y015818D01*
X007683Y015728D01*
X007801Y015679D01*
X008578Y015679D01*
X008696Y015728D01*
X008786Y015818D01*
X008834Y015936D01*
X008834Y016713D01*
X008786Y016831D01*
X008696Y016921D01*
X008828Y016727D02*
X009649Y016727D01*
X009711Y016569D02*
X008834Y016569D01*
X008834Y016410D02*
X009840Y016410D01*
X010224Y016252D02*
X008834Y016252D01*
X008834Y016093D02*
X010383Y016093D01*
X010541Y015935D02*
X008834Y015935D01*
X008744Y015776D02*
X010700Y015776D01*
X010859Y015618D02*
X004208Y015618D01*
X004313Y015776D02*
X007635Y015776D01*
X007545Y015935D02*
X007512Y015935D01*
X007189Y015935D02*
X007189Y015935D01*
X007189Y016093D02*
X007189Y016093D01*
X007189Y016252D02*
X007189Y016252D01*
X007189Y016325D02*
X007189Y016829D01*
X007189Y016325D01*
X007189Y016325D01*
X007189Y016410D02*
X007189Y016410D01*
X007189Y016569D02*
X007189Y016569D01*
X007189Y016727D02*
X007189Y016727D01*
X006885Y016727D02*
X004731Y016727D01*
X004736Y016886D02*
X007648Y016886D01*
X007550Y016727D02*
X007494Y016727D01*
X006747Y016569D02*
X004676Y016569D01*
X004553Y016410D02*
X006692Y016410D01*
X006689Y016252D02*
X004363Y016252D01*
X004379Y016093D02*
X006740Y016093D01*
X006866Y015935D02*
X004378Y015935D01*
X004007Y015459D02*
X011017Y015459D01*
X011176Y015300D02*
X002569Y015300D01*
X002569Y015142D02*
X011334Y015142D01*
X011493Y014983D02*
X008401Y014983D01*
X008664Y014825D02*
X011651Y014825D01*
X011584Y014666D02*
X008794Y014666D01*
X008860Y014508D02*
X011518Y014508D01*
X011499Y014349D02*
X008879Y014349D01*
X008879Y014191D02*
X011499Y014191D01*
X011360Y014032D02*
X008815Y014032D01*
X008331Y013034D02*
X008048Y013034D01*
X007787Y012926D01*
X007675Y012814D01*
X007580Y012909D01*
X007327Y013014D01*
X007052Y013014D01*
X006819Y012918D01*
X006819Y013194D01*
X011364Y013194D01*
X011515Y013194D01*
X011655Y013252D01*
X012041Y013639D01*
X012052Y013634D01*
X012327Y013634D01*
X012580Y013739D01*
X012774Y013933D01*
X012879Y014187D01*
X012879Y014461D01*
X012783Y014694D01*
X015032Y014694D01*
X015272Y014454D01*
X014364Y014454D01*
X014224Y014396D01*
X014117Y014289D01*
X013442Y013614D01*
X013332Y013614D01*
X013133Y013532D01*
X012981Y013380D01*
X012899Y013182D01*
X012899Y012967D01*
X012981Y012768D01*
X013133Y012616D01*
X013332Y012534D01*
X013547Y012534D01*
X013560Y012540D01*
X013604Y012433D01*
X013798Y012239D01*
X014052Y012134D01*
X014327Y012134D01*
X014580Y012239D01*
X014689Y012348D01*
X014798Y012239D01*
X015052Y012134D01*
X015327Y012134D01*
X015580Y012239D01*
X015689Y012348D01*
X015798Y012239D01*
X015823Y012229D01*
X015658Y012065D01*
X015619Y011969D01*
X012636Y011969D01*
X012677Y012025D01*
X012717Y012105D01*
X012745Y012191D01*
X012759Y012279D01*
X012759Y012306D01*
X012208Y012306D01*
X012208Y012343D01*
X012171Y012343D01*
X012171Y012894D01*
X012144Y012894D01*
X012056Y012880D01*
X011970Y012852D01*
X011891Y012812D01*
X011818Y012759D01*
X011755Y012696D01*
X011702Y012623D01*
X011661Y012543D01*
X011633Y012458D01*
X011619Y012369D01*
X011619Y012343D01*
X012171Y012343D01*
X012171Y012306D01*
X011619Y012306D01*
X011619Y012279D01*
X011633Y012191D01*
X011634Y012188D01*
X011274Y012548D01*
X011163Y012659D01*
X011018Y012719D01*
X008794Y012719D01*
X008791Y012726D01*
X008591Y012926D01*
X008331Y013034D01*
X008595Y012922D02*
X012918Y012922D01*
X012899Y013081D02*
X006819Y013081D01*
X006819Y012922D02*
X006830Y012922D01*
X007549Y012922D02*
X007783Y012922D01*
X008754Y012764D02*
X011825Y012764D01*
X011693Y012605D02*
X011217Y012605D01*
X011375Y012447D02*
X011632Y012447D01*
X011619Y012288D02*
X011534Y012288D01*
X012171Y012447D02*
X012208Y012447D01*
X012208Y012343D02*
X012208Y012894D01*
X012234Y012894D01*
X012323Y012880D01*
X012408Y012852D01*
X012488Y012812D01*
X012561Y012759D01*
X012624Y012696D01*
X012677Y012623D01*
X012717Y012543D01*
X012745Y012458D01*
X012759Y012369D01*
X012759Y012343D01*
X012208Y012343D01*
X012208Y012605D02*
X012171Y012605D01*
X012171Y012764D02*
X012208Y012764D01*
X012554Y012764D02*
X012986Y012764D01*
X013161Y012605D02*
X012686Y012605D01*
X012747Y012447D02*
X013599Y012447D01*
X013750Y012288D02*
X012759Y012288D01*
X012725Y012130D02*
X015723Y012130D01*
X015750Y012288D02*
X015629Y012288D01*
X015620Y011971D02*
X012637Y011971D01*
X012923Y013239D02*
X011624Y013239D01*
X011800Y013398D02*
X012999Y013398D01*
X013192Y013556D02*
X011959Y013556D01*
X012521Y013715D02*
X013543Y013715D01*
X013701Y013874D02*
X012714Y013874D01*
X012815Y014032D02*
X013860Y014032D01*
X014018Y014191D02*
X012879Y014191D01*
X012879Y014349D02*
X014177Y014349D01*
X014597Y013694D02*
X018114Y013694D01*
X018159Y013694D01*
X018231Y013518D01*
X018383Y013366D01*
X018582Y013284D01*
X018674Y013284D01*
X018604Y013215D01*
X018596Y013195D01*
X018548Y013244D01*
X018478Y013295D01*
X018400Y013334D01*
X018318Y013361D01*
X018233Y013374D01*
X018209Y013374D01*
X018209Y012844D01*
X018169Y012844D01*
X018169Y012804D01*
X017639Y012804D01*
X017210Y012804D01*
X017210Y012844D01*
X017639Y012844D01*
X018169Y012844D01*
X018169Y013374D01*
X018146Y013374D01*
X018060Y013361D01*
X017978Y013334D01*
X017901Y013295D01*
X017831Y013244D01*
X017770Y013183D01*
X017719Y013112D01*
X017689Y013054D01*
X017660Y013112D01*
X017609Y013183D01*
X017548Y013244D01*
X017478Y013295D01*
X017400Y013334D01*
X017318Y013361D01*
X017233Y013374D01*
X017209Y013374D01*
X017209Y012844D01*
X017169Y012844D01*
X017169Y013374D01*
X017146Y013374D01*
X017060Y013361D01*
X016978Y013334D01*
X016901Y013295D01*
X016831Y013244D01*
X016782Y013195D01*
X016774Y013215D01*
X016580Y013409D01*
X016327Y013514D01*
X016052Y013514D01*
X015798Y013409D01*
X015689Y013300D01*
X015580Y013409D01*
X015327Y013514D01*
X015052Y013514D01*
X014798Y013409D01*
X014689Y013300D01*
X014580Y013409D01*
X014390Y013488D01*
X014597Y013694D01*
X014459Y013556D02*
X018216Y013556D01*
X018352Y013398D02*
X016591Y013398D01*
X016750Y013239D02*
X016827Y013239D01*
X017169Y013239D02*
X017209Y013239D01*
X017209Y013081D02*
X017169Y013081D01*
X017169Y012922D02*
X017209Y012922D01*
X017209Y012804D02*
X017209Y012274D01*
X017233Y012274D01*
X017318Y012288D01*
X017400Y012315D01*
X017478Y012354D01*
X017548Y012405D01*
X017609Y012466D01*
X017660Y012536D01*
X017689Y012594D01*
X017719Y012536D01*
X017770Y012466D01*
X017831Y012405D01*
X017901Y012354D01*
X017978Y012315D01*
X018060Y012288D01*
X018059Y012288D02*
X017319Y012288D01*
X017209Y012288D02*
X017169Y012288D01*
X017169Y012274D02*
X017169Y012804D01*
X017209Y012804D01*
X017209Y012764D02*
X017169Y012764D01*
X017169Y012605D02*
X017209Y012605D01*
X017209Y012447D02*
X017169Y012447D01*
X017169Y012274D02*
X017146Y012274D01*
X017060Y012288D01*
X017059Y012288D02*
X016629Y012288D01*
X016580Y012239D02*
X016774Y012433D01*
X016782Y012453D01*
X016831Y012405D01*
X016901Y012354D01*
X016978Y012315D01*
X017060Y012288D01*
X016789Y012447D02*
X016780Y012447D01*
X016580Y012239D02*
X016578Y012238D01*
X016752Y012065D01*
X016850Y011828D01*
X016850Y011571D01*
X016802Y011454D01*
X017732Y011454D01*
X017706Y011505D01*
X017681Y011581D01*
X017669Y011659D01*
X017669Y011699D01*
X018173Y011699D01*
X018173Y011699D01*
X017669Y011699D01*
X017669Y011739D01*
X017681Y011817D01*
X017706Y011893D01*
X017742Y011964D01*
X017788Y012028D01*
X017845Y012084D01*
X017909Y012131D01*
X017980Y012167D01*
X018055Y012192D01*
X018134Y012204D01*
X018173Y012204D01*
X018173Y011700D01*
X018174Y011700D01*
X018174Y012204D01*
X018213Y012204D01*
X018292Y012192D01*
X018367Y012167D01*
X018438Y012131D01*
X018503Y012084D01*
X018559Y012028D01*
X018605Y011964D01*
X018641Y011893D01*
X018666Y011817D01*
X018679Y011739D01*
X018679Y011699D01*
X018174Y011699D01*
X018174Y011699D01*
X018679Y011699D01*
X018679Y011659D01*
X018666Y011581D01*
X018641Y011505D01*
X018615Y011454D01*
X020282Y011454D01*
X020617Y011789D01*
X020724Y011896D01*
X020864Y011954D01*
X022364Y011954D01*
X022515Y011954D01*
X022655Y011896D01*
X022939Y011612D01*
X023474Y012146D01*
X023614Y012204D01*
X023765Y012204D01*
X023883Y012204D01*
X023798Y012239D01*
X023689Y012348D01*
X023580Y012239D01*
X023327Y012134D01*
X023052Y012134D01*
X022798Y012239D01*
X022689Y012348D01*
X022580Y012239D01*
X022327Y012134D01*
X022052Y012134D01*
X021798Y012239D01*
X021689Y012348D01*
X021580Y012239D01*
X021327Y012134D01*
X021052Y012134D01*
X020798Y012239D01*
X020604Y012433D01*
X020499Y012687D01*
X020499Y012961D01*
X020596Y013194D01*
X019783Y013194D01*
X019879Y012961D01*
X019879Y012687D01*
X019774Y012433D01*
X019580Y012239D01*
X019327Y012134D01*
X019052Y012134D01*
X018798Y012239D01*
X018604Y012433D01*
X018596Y012453D01*
X018548Y012405D01*
X018478Y012354D01*
X018400Y012315D01*
X018318Y012288D01*
X018233Y012274D01*
X018209Y012274D01*
X018209Y012804D01*
X018169Y012804D01*
X018169Y012274D01*
X018146Y012274D01*
X018060Y012288D01*
X018169Y012288D02*
X018209Y012288D01*
X018319Y012288D02*
X018750Y012288D01*
X018599Y012447D02*
X018589Y012447D01*
X018440Y012130D02*
X023457Y012130D01*
X023299Y011971D02*
X018600Y011971D01*
X018667Y011812D02*
X020640Y011812D01*
X020482Y011654D02*
X018678Y011654D01*
X018636Y011495D02*
X020323Y011495D01*
X020750Y012288D02*
X019629Y012288D01*
X019780Y012447D02*
X020599Y012447D01*
X020533Y012605D02*
X019845Y012605D01*
X019879Y012764D02*
X020499Y012764D01*
X020499Y012922D02*
X019879Y012922D01*
X019830Y013081D02*
X020549Y013081D01*
X021629Y012288D02*
X021750Y012288D01*
X022629Y012288D02*
X022750Y012288D01*
X022738Y011812D02*
X023140Y011812D01*
X022982Y011654D02*
X022897Y011654D01*
X023629Y012288D02*
X023750Y012288D01*
X020309Y015618D02*
X017200Y015618D01*
X017238Y015776D02*
X020309Y015776D01*
X020309Y015935D02*
X017229Y015935D01*
X017170Y016093D02*
X020309Y016093D01*
X020309Y016252D02*
X017037Y016252D01*
X016689Y016252D02*
X016689Y016252D01*
X016689Y016374D02*
X016689Y015825D01*
X016689Y015825D01*
X016689Y016374D01*
X016689Y016093D02*
X016689Y016093D01*
X016689Y015935D02*
X016689Y015935D01*
X016342Y016252D02*
X016238Y016252D01*
X016078Y016410D02*
X020309Y016410D01*
X020309Y016569D02*
X010982Y016569D01*
X010824Y016727D02*
X014961Y016727D01*
X015301Y016410D02*
X011141Y016410D01*
X011299Y016252D02*
X015141Y016252D01*
X015054Y016093D02*
X011458Y016093D01*
X011616Y015935D02*
X014999Y015935D01*
X014999Y015776D02*
X011775Y015776D01*
X011933Y015618D02*
X015028Y015618D01*
X015094Y015459D02*
X012092Y015459D01*
X012794Y014666D02*
X015060Y014666D01*
X015218Y014508D02*
X012860Y014508D01*
X014591Y013398D02*
X014787Y013398D01*
X015591Y013398D02*
X015787Y013398D01*
X014750Y012288D02*
X014629Y012288D01*
X016687Y012130D02*
X017907Y012130D01*
X017747Y011971D02*
X016791Y011971D01*
X016850Y011812D02*
X017680Y011812D01*
X017669Y011654D02*
X016850Y011654D01*
X016819Y011495D02*
X017711Y011495D01*
X018173Y011812D02*
X018174Y011812D01*
X018173Y011971D02*
X018174Y011971D01*
X018173Y012130D02*
X018174Y012130D01*
X018169Y012447D02*
X018209Y012447D01*
X018209Y012605D02*
X018169Y012605D01*
X018169Y012764D02*
X018209Y012764D01*
X018209Y012922D02*
X018169Y012922D01*
X018169Y013081D02*
X018209Y013081D01*
X018209Y013239D02*
X018169Y013239D01*
X017827Y013239D02*
X017552Y013239D01*
X017676Y013081D02*
X017703Y013081D01*
X017789Y012447D02*
X017589Y012447D01*
X018552Y013239D02*
X018629Y013239D01*
X017795Y010444D02*
X017764Y010401D01*
X017729Y010332D01*
X017705Y010257D01*
X017692Y010180D01*
X017692Y009843D01*
X018171Y009843D01*
X018171Y009806D01*
X017692Y009806D01*
X017692Y009468D01*
X017705Y009391D01*
X017729Y009317D01*
X017764Y009247D01*
X017795Y009204D01*
X017583Y009204D01*
X017614Y009247D01*
X017650Y009317D01*
X017674Y009391D01*
X017686Y009468D01*
X017686Y009806D01*
X017208Y009806D01*
X017208Y009843D01*
X017686Y009843D01*
X017686Y010180D01*
X017674Y010257D01*
X017650Y010332D01*
X017614Y010401D01*
X017583Y010444D01*
X017795Y010444D01*
X017756Y010386D02*
X017622Y010386D01*
X017679Y010227D02*
X017700Y010227D01*
X017686Y010069D02*
X017692Y010069D01*
X017686Y009910D02*
X017692Y009910D01*
X017686Y009751D02*
X017692Y009751D01*
X017686Y009593D02*
X017692Y009593D01*
X017681Y009434D02*
X017698Y009434D01*
X017750Y009276D02*
X017629Y009276D01*
X020331Y005788D02*
X025667Y005788D01*
X025826Y005629D02*
X020292Y005629D01*
X020217Y005471D02*
X025984Y005471D01*
X026143Y005312D02*
X020133Y005312D01*
X020185Y005154D02*
X026301Y005154D01*
X026460Y004995D02*
X020185Y004995D01*
X020133Y004837D02*
X021034Y004837D01*
X021010Y004827D02*
X020737Y004554D01*
X020589Y004197D01*
X020589Y003811D01*
X020737Y003455D01*
X021010Y003182D01*
X021366Y003034D01*
X021752Y003034D01*
X022109Y003182D01*
X022382Y003455D01*
X022529Y003811D01*
X022529Y004197D01*
X022382Y004554D01*
X022109Y004827D01*
X021752Y004974D01*
X021366Y004974D01*
X021010Y004827D01*
X020861Y004678D02*
X020004Y004678D01*
X019691Y004678D02*
X019671Y004678D01*
X019671Y004837D02*
X019691Y004837D01*
X019691Y004995D02*
X019671Y004995D01*
X019359Y004678D02*
X019220Y004678D01*
X019056Y004519D02*
X020723Y004519D01*
X020657Y004361D02*
X017721Y004361D01*
X017656Y004519D02*
X018338Y004519D01*
X018174Y004678D02*
X017517Y004678D01*
X017642Y004554D02*
X017369Y004827D01*
X017012Y004974D01*
X016626Y004974D01*
X016270Y004827D01*
X015997Y004554D01*
X015849Y004197D01*
X015849Y003811D01*
X015997Y003455D01*
X016270Y003182D01*
X016626Y003034D01*
X017012Y003034D01*
X017369Y003182D01*
X017642Y003455D01*
X017789Y003811D01*
X017789Y004197D01*
X017642Y004554D01*
X017787Y004202D02*
X020591Y004202D01*
X020589Y004044D02*
X017789Y004044D01*
X017789Y003885D02*
X020589Y003885D01*
X020624Y003727D02*
X017754Y003727D01*
X017689Y003568D02*
X020690Y003568D01*
X020782Y003410D02*
X017596Y003410D01*
X017438Y003251D02*
X020941Y003251D01*
X021225Y003093D02*
X017153Y003093D01*
X016485Y003093D02*
X015651Y003093D01*
X015659Y002934D02*
X022802Y002934D01*
X022831Y002905D02*
X022901Y002854D01*
X022978Y002815D01*
X023060Y002788D01*
X023146Y002774D01*
X023181Y002774D01*
X023181Y003315D01*
X023198Y003315D01*
X023198Y002774D01*
X023233Y002774D01*
X023318Y002788D01*
X023400Y002815D01*
X023478Y002854D01*
X023548Y002905D01*
X023609Y002966D01*
X023660Y003036D01*
X023699Y003113D01*
X023726Y003195D01*
X023739Y003281D01*
X023739Y003316D01*
X023198Y003316D01*
X023198Y003333D01*
X023181Y003333D01*
X023181Y003874D01*
X023146Y003874D01*
X023060Y003861D01*
X022978Y003834D01*
X022901Y003795D01*
X022831Y003744D01*
X022770Y003683D01*
X022719Y003612D01*
X022680Y003535D01*
X022653Y003453D01*
X022639Y003368D01*
X022639Y003333D01*
X023180Y003333D01*
X023180Y003316D01*
X022639Y003316D01*
X022639Y003281D01*
X022653Y003195D01*
X022680Y003113D01*
X022719Y003036D01*
X022770Y002966D01*
X022831Y002905D01*
X022690Y003093D02*
X021893Y003093D01*
X022178Y003251D02*
X022644Y003251D01*
X022646Y003410D02*
X022336Y003410D01*
X022429Y003568D02*
X022696Y003568D01*
X022814Y003727D02*
X022494Y003727D01*
X022529Y003885D02*
X024825Y003885D01*
X024745Y003727D02*
X023565Y003727D01*
X023548Y003744D02*
X023478Y003795D01*
X023400Y003834D01*
X023318Y003861D01*
X023233Y003874D01*
X023198Y003874D01*
X023198Y003333D01*
X023739Y003333D01*
X023739Y003368D01*
X023726Y003453D01*
X023699Y003535D01*
X023660Y003612D01*
X023609Y003683D01*
X023548Y003744D01*
X023682Y003568D02*
X024729Y003568D01*
X024729Y003410D02*
X023733Y003410D01*
X023735Y003251D02*
X024729Y003251D01*
X024729Y003324D02*
X025189Y003324D01*
X025189Y003324D01*
X024729Y003324D01*
X024729Y003093D02*
X023689Y003093D01*
X023577Y002934D02*
X024741Y002934D01*
X024816Y002776D02*
X023241Y002776D01*
X023198Y002776D02*
X023181Y002776D01*
X023138Y002776D02*
X015650Y002776D01*
X015585Y003251D02*
X016201Y003251D01*
X016042Y003410D02*
X015470Y003410D01*
X015242Y003568D02*
X015950Y003568D01*
X015884Y003727D02*
X014569Y003727D01*
X014569Y003885D02*
X015849Y003885D01*
X015849Y004044D02*
X014569Y004044D01*
X014569Y004202D02*
X014765Y004202D01*
X014949Y004202D02*
X014989Y004202D01*
X014989Y004361D02*
X014949Y004361D01*
X014949Y004519D02*
X014989Y004519D01*
X014989Y004678D02*
X014949Y004678D01*
X015174Y004202D02*
X015851Y004202D01*
X015917Y004361D02*
X015392Y004361D01*
X015484Y004519D02*
X015983Y004519D01*
X016121Y004678D02*
X015519Y004678D01*
X015507Y004837D02*
X016294Y004837D01*
X016096Y005154D02*
X015556Y005154D01*
X015443Y004995D02*
X018047Y004995D01*
X018047Y005154D02*
X016782Y005154D01*
X017345Y004837D02*
X018092Y004837D01*
X015963Y005312D02*
X015715Y005312D01*
X015873Y005471D02*
X015899Y005471D01*
X014750Y005788D02*
X014379Y005788D01*
X014457Y005629D02*
X011239Y005629D01*
X011239Y005788D02*
X013500Y005788D01*
X013349Y005946D02*
X011239Y005946D01*
X011239Y006105D02*
X013283Y006105D01*
X013249Y006263D02*
X011239Y006263D01*
X011238Y006422D02*
X013249Y006422D01*
X014298Y005471D02*
X009915Y005471D01*
X009464Y005471D02*
X009112Y005471D01*
X008267Y005471D02*
X007915Y005471D01*
X007464Y005471D02*
X007112Y005471D01*
X006267Y005471D02*
X005915Y005471D01*
X005464Y005471D02*
X004834Y005471D01*
X004834Y005629D02*
X005208Y005629D01*
X005082Y005788D02*
X004799Y005788D01*
X004989Y005312D02*
X014140Y005312D01*
X013981Y005154D02*
X012740Y005154D01*
X012768Y005134D02*
X012698Y005185D01*
X012620Y005224D01*
X012538Y005251D01*
X012453Y005264D01*
X012429Y005264D01*
X012429Y004734D01*
X012389Y004734D01*
X012389Y004694D01*
X011859Y004694D01*
X011859Y004671D01*
X011873Y004585D01*
X011900Y004503D01*
X011939Y004426D01*
X011990Y004356D01*
X012051Y004295D01*
X012121Y004244D01*
X012198Y004205D01*
X012280Y004178D01*
X012366Y004164D01*
X012389Y004164D01*
X012389Y004694D01*
X012429Y004694D01*
X012429Y004164D01*
X012453Y004164D01*
X012538Y004178D01*
X012620Y004205D01*
X012698Y004244D01*
X012768Y004295D01*
X012829Y004356D01*
X012880Y004426D01*
X012919Y004503D01*
X012946Y004585D01*
X012959Y004671D01*
X012959Y004694D01*
X012430Y004694D01*
X012430Y004734D01*
X012959Y004734D01*
X012959Y004758D01*
X012946Y004843D01*
X012919Y004925D01*
X012880Y005002D01*
X012829Y005073D01*
X012768Y005134D01*
X012883Y004995D02*
X013849Y004995D01*
X013809Y004837D02*
X012947Y004837D01*
X012959Y004678D02*
X013809Y004678D01*
X013809Y004519D02*
X012924Y004519D01*
X012832Y004361D02*
X013809Y004361D01*
X013809Y004202D02*
X012614Y004202D01*
X012429Y004202D02*
X012389Y004202D01*
X012389Y004361D02*
X012429Y004361D01*
X012429Y004519D02*
X012389Y004519D01*
X012389Y004678D02*
X012429Y004678D01*
X012389Y004734D02*
X011859Y004734D01*
X011859Y004758D01*
X011873Y004843D01*
X011900Y004925D01*
X011939Y005002D01*
X011990Y005073D01*
X012051Y005134D01*
X012121Y005185D01*
X012198Y005224D01*
X012280Y005251D01*
X012366Y005264D01*
X012389Y005264D01*
X012389Y004734D01*
X012389Y004837D02*
X012429Y004837D01*
X012429Y004995D02*
X012389Y004995D01*
X012389Y005154D02*
X012429Y005154D01*
X012078Y005154D02*
X005147Y005154D01*
X005306Y004995D02*
X011935Y004995D01*
X011872Y004837D02*
X005464Y004837D01*
X005623Y004678D02*
X011859Y004678D01*
X011894Y004519D02*
X005781Y004519D01*
X005940Y004361D02*
X011986Y004361D01*
X012205Y004202D02*
X006099Y004202D01*
X006257Y004044D02*
X013809Y004044D01*
X013809Y003885D02*
X006416Y003885D01*
X006574Y003727D02*
X013809Y003727D01*
X013809Y003568D02*
X012682Y003568D01*
X012910Y003410D02*
X013809Y003410D01*
X013809Y003251D02*
X013025Y003251D01*
X013091Y003093D02*
X013809Y003093D01*
X013809Y002934D02*
X013099Y002934D01*
X013090Y002776D02*
X013809Y002776D01*
X013809Y002617D02*
X013025Y002617D01*
X012909Y002458D02*
X013809Y002458D01*
X013809Y002300D02*
X012681Y002300D01*
X012138Y002300D02*
X003320Y002300D01*
X003663Y002458D02*
X011909Y002458D01*
X011794Y002617D02*
X003863Y002617D01*
X004004Y002776D02*
X006451Y002776D01*
X006292Y002934D02*
X004105Y002934D01*
X002215Y002458D02*
X002050Y002458D01*
X002016Y002617D02*
X001891Y002617D01*
X001874Y002776D02*
X001763Y002776D01*
X001773Y002934D02*
X001672Y002934D01*
X001699Y003093D02*
X001601Y003093D01*
X001558Y003251D02*
X001647Y003251D01*
X001619Y003410D02*
X001520Y003410D01*
X003683Y007056D02*
X003695Y007056D01*
X003933Y007215D02*
X003446Y007215D01*
X003157Y007532D02*
X004059Y007532D01*
X004059Y007690D02*
X003224Y007690D01*
X003239Y007849D02*
X004059Y007849D01*
X004059Y008007D02*
X003208Y008007D01*
X003121Y008166D02*
X004059Y008166D01*
X004059Y008325D02*
X003165Y008325D01*
X003295Y008483D02*
X004059Y008483D01*
X004059Y008642D02*
X003360Y008642D01*
X003379Y008800D02*
X004059Y008800D01*
X004059Y008959D02*
X003379Y008959D01*
X003315Y009117D02*
X004059Y009117D01*
X004059Y009276D02*
X003214Y009276D01*
X003019Y009434D02*
X004059Y009434D01*
X004059Y009593D02*
X003184Y009593D01*
X003302Y009751D02*
X004059Y009751D01*
X004059Y009910D02*
X003368Y009910D01*
X003379Y010069D02*
X004059Y010069D01*
X004059Y010227D02*
X003373Y010227D01*
X003307Y010386D02*
X004059Y010386D01*
X004059Y010544D02*
X003195Y010544D01*
X003282Y010703D02*
X004059Y010703D01*
X004059Y010861D02*
X003348Y010861D01*
X003379Y011020D02*
X004059Y011020D01*
X004059Y011178D02*
X003379Y011178D01*
X003327Y011337D02*
X004059Y011337D01*
X004059Y011495D02*
X003244Y011495D01*
X003374Y011654D02*
X004059Y011654D01*
X004059Y011812D02*
X003653Y011812D01*
X003790Y011971D02*
X004005Y011971D01*
X004604Y012447D02*
X006059Y012447D01*
X006059Y012605D02*
X004446Y012605D01*
X004287Y012764D02*
X006059Y012764D01*
X006059Y012922D02*
X004129Y012922D01*
X003970Y013081D02*
X006059Y013081D01*
X006059Y013239D02*
X003812Y013239D01*
X003651Y013398D02*
X006059Y013398D01*
X006059Y013556D02*
X002569Y013556D01*
X002569Y013715D02*
X002857Y013715D01*
X002664Y013874D02*
X002569Y013874D01*
X003521Y013715D02*
X006086Y013715D01*
X006201Y013874D02*
X003714Y013874D01*
X003815Y014032D02*
X006563Y014032D01*
X006499Y014191D02*
X003879Y014191D01*
X003879Y014349D02*
X006499Y014349D01*
X006518Y014508D02*
X003860Y014508D01*
X003794Y014666D02*
X006584Y014666D01*
X006714Y014825D02*
X003664Y014825D01*
X003401Y014983D02*
X006978Y014983D01*
X007401Y014983D02*
X007978Y014983D01*
X007714Y014825D02*
X007664Y014825D01*
X006059Y012288D02*
X004762Y012288D01*
X004819Y012130D02*
X006059Y012130D01*
X006059Y011971D02*
X004819Y011971D01*
X004819Y011812D02*
X006059Y011812D01*
X006059Y011654D02*
X004819Y011654D01*
X004819Y011495D02*
X006061Y011495D01*
X006139Y011337D02*
X004819Y011337D01*
X004819Y011178D02*
X006298Y011178D01*
X006456Y011020D02*
X004819Y011020D01*
X004819Y010861D02*
X004825Y010861D01*
X005054Y010861D02*
X006615Y010861D01*
X006773Y010703D02*
X005324Y010703D01*
X005433Y010544D02*
X006932Y010544D01*
X006874Y010386D02*
X005479Y010386D01*
X005574Y010227D02*
X005913Y010227D01*
X005755Y010069D02*
X005732Y010069D01*
X006179Y010069D02*
X006199Y010069D01*
X006199Y010227D02*
X006179Y010227D01*
X006465Y010227D02*
X006715Y010227D01*
X006199Y009910D02*
X006179Y009910D01*
X007373Y011178D02*
X010798Y011178D01*
X010692Y011284D02*
X011117Y010859D01*
X011224Y010752D01*
X011364Y010694D01*
X012272Y010694D01*
X011282Y009704D01*
X010669Y009704D01*
X010669Y009814D01*
X010200Y009814D01*
X010200Y009834D01*
X010669Y009834D01*
X010669Y010023D01*
X010388Y010304D01*
X010199Y010304D01*
X010199Y009834D01*
X010179Y009834D01*
X010179Y010304D01*
X009990Y010304D01*
X009788Y010102D01*
X009446Y010444D01*
X008932Y010444D01*
X008689Y010201D01*
X008446Y010444D01*
X008107Y010444D01*
X006821Y011730D01*
X007052Y011634D01*
X007327Y011634D01*
X007580Y011739D01*
X007675Y011834D01*
X007787Y011722D01*
X008048Y011614D01*
X008331Y011614D01*
X008591Y011722D01*
X008791Y011922D01*
X008794Y011929D01*
X010149Y011929D01*
X010149Y011717D01*
X010231Y011518D01*
X010383Y011366D01*
X010582Y011284D01*
X010692Y011284D01*
X010455Y011337D02*
X007214Y011337D01*
X007056Y011495D02*
X010254Y011495D01*
X010175Y011654D02*
X008426Y011654D01*
X008682Y011812D02*
X010149Y011812D01*
X010956Y011020D02*
X007531Y011020D01*
X007690Y010861D02*
X011115Y010861D01*
X011343Y010703D02*
X007848Y010703D01*
X008007Y010544D02*
X012122Y010544D01*
X011963Y010386D02*
X009505Y010386D01*
X009663Y010227D02*
X009913Y010227D01*
X010179Y010227D02*
X010199Y010227D01*
X010199Y010069D02*
X010179Y010069D01*
X010179Y009910D02*
X010199Y009910D01*
X010465Y010227D02*
X011805Y010227D01*
X011646Y010069D02*
X010624Y010069D01*
X010669Y009910D02*
X011488Y009910D01*
X011329Y009751D02*
X010669Y009751D01*
X008874Y010386D02*
X008505Y010386D01*
X008663Y010227D02*
X008715Y010227D01*
X007952Y011654D02*
X007374Y011654D01*
X007653Y011812D02*
X007697Y011812D01*
X007004Y011654D02*
X006897Y011654D01*
X002978Y014983D02*
X002569Y014983D01*
X002569Y014825D02*
X002714Y014825D01*
X002584Y014666D02*
X002569Y014666D01*
X002569Y015459D02*
X003372Y015459D01*
X003170Y015618D02*
X002569Y015618D01*
X002569Y015776D02*
X002700Y015776D01*
X003779Y017203D02*
X003790Y017203D01*
X004189Y017203D02*
X004189Y017203D01*
X004189Y017044D02*
X004189Y017044D01*
X004189Y016886D02*
X004189Y016886D01*
X009374Y018471D02*
X010005Y018471D01*
X009755Y018630D02*
X009623Y018630D01*
X010623Y018630D02*
X010755Y018630D01*
X014251Y017996D02*
X020309Y017996D01*
X020309Y017837D02*
X015604Y017837D01*
X015756Y017679D02*
X016814Y017679D01*
X016788Y017653D02*
X016742Y017589D01*
X016706Y017518D01*
X016681Y017442D01*
X016669Y017364D01*
X016669Y017324D01*
X016669Y017284D01*
X016681Y017206D01*
X016706Y017130D01*
X016742Y017060D01*
X016788Y016995D01*
X016845Y016939D01*
X016909Y016892D01*
X016980Y016856D01*
X017055Y016832D01*
X017134Y016819D01*
X017173Y016819D01*
X017173Y017324D01*
X016669Y017324D01*
X017173Y017324D01*
X017173Y017324D01*
X017174Y017324D01*
X017174Y017324D01*
X017679Y017324D01*
X017679Y017284D01*
X017666Y017206D01*
X017641Y017130D01*
X017605Y017060D01*
X017559Y016995D01*
X017503Y016939D01*
X017438Y016892D01*
X017367Y016856D01*
X017292Y016832D01*
X017213Y016819D01*
X017174Y016819D01*
X017174Y017324D01*
X017679Y017324D01*
X017679Y017364D01*
X017666Y017442D01*
X017641Y017518D01*
X017605Y017589D01*
X017559Y017653D01*
X017503Y017709D01*
X017438Y017756D01*
X017367Y017792D01*
X017292Y017817D01*
X017213Y017829D01*
X017174Y017829D01*
X017174Y017325D01*
X017173Y017325D01*
X017173Y017829D01*
X017134Y017829D01*
X017055Y017817D01*
X016980Y017792D01*
X016909Y017756D01*
X016845Y017709D01*
X016788Y017653D01*
X016707Y017520D02*
X015822Y017520D01*
X015850Y017361D02*
X016669Y017361D01*
X016682Y017203D02*
X015850Y017203D01*
X015787Y017044D02*
X016753Y017044D01*
X016922Y016886D02*
X015679Y016886D01*
X015449Y016727D02*
X020309Y016727D01*
X020309Y016886D02*
X017425Y016886D01*
X017594Y017044D02*
X020309Y017044D01*
X020309Y017203D02*
X017665Y017203D01*
X017679Y017361D02*
X020309Y017361D01*
X020309Y017520D02*
X017641Y017520D01*
X017533Y017679D02*
X020309Y017679D01*
X017174Y017679D02*
X017173Y017679D01*
X017173Y017520D02*
X017174Y017520D01*
X017173Y017361D02*
X017174Y017361D01*
X017173Y017203D02*
X017174Y017203D01*
X017173Y017044D02*
X017174Y017044D01*
X017173Y016886D02*
X017174Y016886D01*
X027477Y008325D02*
X027546Y008325D01*
X027622Y008166D02*
X027401Y008166D01*
X027635Y008007D02*
X027780Y008007D01*
X027737Y007849D02*
X028238Y007849D01*
X028094Y007690D02*
X027789Y007690D01*
X027789Y007532D02*
X028028Y007532D01*
X027999Y007373D02*
X027789Y007373D01*
X027789Y007215D02*
X027999Y007215D01*
X028053Y007056D02*
X027789Y007056D01*
X027778Y006898D02*
X028140Y006898D01*
X028299Y006739D02*
X027712Y006739D01*
X027574Y006581D02*
X030299Y006581D01*
X030249Y006461D02*
X030249Y006187D01*
X030354Y005933D01*
X030548Y005739D01*
X030802Y005634D01*
X031077Y005634D01*
X031330Y005739D01*
X031439Y005848D01*
X031548Y005739D01*
X031559Y005735D01*
X031559Y005204D01*
X030645Y005204D01*
X030550Y005299D01*
X030297Y005404D01*
X030022Y005404D01*
X029768Y005299D01*
X029574Y005105D01*
X029469Y004851D01*
X029469Y004577D01*
X029574Y004323D01*
X029768Y004129D01*
X030022Y004024D01*
X030297Y004024D01*
X030550Y004129D01*
X030744Y004323D01*
X030794Y004444D01*
X031864Y004444D01*
X032015Y004444D01*
X032084Y004444D01*
X032134Y004323D01*
X032328Y004129D01*
X032582Y004024D01*
X032857Y004024D01*
X033110Y004129D01*
X033304Y004323D01*
X033409Y004577D01*
X033409Y004851D01*
X033396Y004884D01*
X033577Y004884D01*
X033830Y004989D01*
X034024Y005183D01*
X034129Y005437D01*
X034129Y005711D01*
X034024Y005965D01*
X033830Y006159D01*
X033577Y006264D01*
X033302Y006264D01*
X033048Y006159D01*
X032854Y005965D01*
X032749Y005711D01*
X032749Y005437D01*
X032763Y005404D01*
X032582Y005404D01*
X032328Y005299D01*
X032319Y005290D01*
X032319Y005735D01*
X032330Y005739D01*
X032524Y005933D01*
X032629Y006187D01*
X032629Y006461D01*
X032524Y006715D01*
X032330Y006909D01*
X032077Y007014D01*
X031802Y007014D01*
X031548Y006909D01*
X031439Y006800D01*
X031330Y006909D01*
X031077Y007014D01*
X030802Y007014D01*
X030548Y006909D01*
X030354Y006715D01*
X030249Y006461D01*
X030249Y006422D02*
X026150Y006422D01*
X025992Y006581D02*
X026804Y006581D01*
X026666Y006739D02*
X025712Y006739D01*
X025778Y006898D02*
X026601Y006898D01*
X026589Y007056D02*
X025789Y007056D01*
X025789Y007215D02*
X026589Y007215D01*
X026589Y007373D02*
X025789Y007373D01*
X026309Y006263D02*
X030249Y006263D01*
X030283Y006105D02*
X026467Y006105D01*
X026626Y005946D02*
X030349Y005946D01*
X030500Y005788D02*
X026784Y005788D01*
X026943Y005629D02*
X031559Y005629D01*
X031559Y005471D02*
X027101Y005471D01*
X027260Y005312D02*
X029800Y005312D01*
X029623Y005154D02*
X027418Y005154D01*
X027577Y004995D02*
X029529Y004995D01*
X029469Y004837D02*
X027736Y004837D01*
X027894Y004678D02*
X029469Y004678D01*
X029493Y004519D02*
X028053Y004519D01*
X028211Y004361D02*
X029559Y004361D01*
X029695Y004202D02*
X028370Y004202D01*
X028528Y004044D02*
X029975Y004044D01*
X030344Y004044D02*
X032535Y004044D01*
X032255Y004202D02*
X030623Y004202D01*
X030760Y004361D02*
X032119Y004361D01*
X032904Y004044D02*
X037194Y004044D01*
X037186Y004023D02*
X037148Y003898D01*
X037122Y003770D01*
X037111Y003654D01*
X038359Y003654D01*
X038359Y003494D01*
X037111Y003494D01*
X037122Y003379D01*
X037148Y003251D01*
X037186Y003126D01*
X037236Y003005D01*
X037297Y002890D01*
X037370Y002781D01*
X037453Y002680D01*
X037545Y002588D01*
X037646Y002505D01*
X037755Y002432D01*
X037870Y002371D01*
X037991Y002320D01*
X038116Y002283D01*
X038244Y002257D01*
X038359Y002246D01*
X038359Y003494D01*
X038519Y003494D01*
X038519Y002246D01*
X038635Y002257D01*
X038763Y002283D01*
X038888Y002320D01*
X039009Y002371D01*
X039124Y002432D01*
X039233Y002505D01*
X039334Y002588D01*
X039426Y002680D01*
X039509Y002781D01*
X039581Y002890D01*
X039643Y003005D01*
X039693Y003126D01*
X039731Y003251D01*
X039821Y003251D01*
X039731Y003251D02*
X039756Y003379D01*
X039768Y003494D01*
X038519Y003494D01*
X038519Y003654D01*
X039768Y003654D01*
X039756Y003770D01*
X039731Y003898D01*
X039693Y004023D01*
X039643Y004144D01*
X039581Y004259D01*
X039509Y004367D01*
X039426Y004468D01*
X039334Y004561D01*
X039233Y004644D01*
X039124Y004716D01*
X039009Y004778D01*
X038888Y004828D01*
X038763Y004866D01*
X038635Y004891D01*
X038519Y004903D01*
X038519Y003654D01*
X038359Y003654D01*
X038359Y004903D01*
X038244Y004891D01*
X038116Y004866D01*
X037991Y004828D01*
X037870Y004778D01*
X037755Y004716D01*
X037646Y004644D01*
X037545Y004561D01*
X037453Y004468D01*
X037370Y004367D01*
X037297Y004259D01*
X037236Y004144D01*
X037186Y004023D01*
X037145Y003885D02*
X029104Y003885D01*
X029263Y003727D02*
X037118Y003727D01*
X037119Y003410D02*
X032998Y003410D01*
X033008Y003405D02*
X032930Y003444D01*
X032848Y003471D01*
X032763Y003484D01*
X032739Y003484D01*
X032739Y002954D01*
X032699Y002954D01*
X032699Y002914D01*
X032169Y002914D01*
X032169Y002891D01*
X032183Y002805D01*
X032210Y002723D01*
X032249Y002646D01*
X032300Y002576D01*
X032361Y002515D01*
X032431Y002464D01*
X032508Y002425D01*
X032590Y002398D01*
X032676Y002384D01*
X032699Y002384D01*
X032699Y002914D01*
X032739Y002914D01*
X032739Y002384D01*
X032763Y002384D01*
X032848Y002398D01*
X032930Y002425D01*
X033008Y002464D01*
X033078Y002515D01*
X033139Y002576D01*
X033190Y002646D01*
X033229Y002723D01*
X033256Y002805D01*
X033269Y002891D01*
X033269Y002914D01*
X032740Y002914D01*
X032740Y002954D01*
X033269Y002954D01*
X033269Y002978D01*
X033256Y003063D01*
X033229Y003145D01*
X033190Y003222D01*
X033139Y003293D01*
X033078Y003354D01*
X033008Y003405D01*
X033169Y003251D02*
X037147Y003251D01*
X037199Y003093D02*
X033246Y003093D01*
X033246Y002776D02*
X037374Y002776D01*
X037273Y002934D02*
X032740Y002934D01*
X032699Y002934D02*
X030180Y002934D01*
X030180Y002914D02*
X030180Y002954D01*
X030709Y002954D01*
X030709Y002978D01*
X030696Y003063D01*
X030669Y003145D01*
X030630Y003222D01*
X030579Y003293D01*
X030518Y003354D01*
X030448Y003405D01*
X030370Y003444D01*
X030288Y003471D01*
X030203Y003484D01*
X030179Y003484D01*
X030179Y002954D01*
X030139Y002954D01*
X030139Y002914D01*
X029609Y002914D01*
X029609Y002891D01*
X029623Y002805D01*
X029650Y002723D01*
X029689Y002646D01*
X029740Y002576D01*
X029801Y002515D01*
X029871Y002464D01*
X029948Y002425D01*
X030030Y002398D01*
X030116Y002384D01*
X030139Y002384D01*
X030139Y002914D01*
X030179Y002914D01*
X030179Y002384D01*
X030203Y002384D01*
X030288Y002398D01*
X030370Y002425D01*
X030448Y002464D01*
X030518Y002515D01*
X030579Y002576D01*
X030630Y002646D01*
X030669Y002723D01*
X030696Y002805D01*
X030709Y002891D01*
X030709Y002914D01*
X030180Y002914D01*
X030139Y002934D02*
X029274Y002934D01*
X029340Y003093D02*
X029632Y003093D01*
X029623Y003063D02*
X029609Y002978D01*
X029609Y002954D01*
X030139Y002954D01*
X030139Y003484D01*
X030116Y003484D01*
X030030Y003471D01*
X029948Y003444D01*
X029871Y003405D01*
X029801Y003354D01*
X029740Y003293D01*
X029689Y003222D01*
X029650Y003145D01*
X029623Y003063D01*
X029710Y003251D02*
X029379Y003251D01*
X029379Y003410D02*
X029881Y003410D01*
X030139Y003410D02*
X030179Y003410D01*
X030179Y003251D02*
X030139Y003251D01*
X030139Y003093D02*
X030179Y003093D01*
X030179Y002776D02*
X030139Y002776D01*
X030139Y002617D02*
X030179Y002617D01*
X030179Y002458D02*
X030139Y002458D01*
X029882Y002458D02*
X027718Y002458D01*
X027729Y002300D02*
X038059Y002300D01*
X038359Y002300D02*
X038519Y002300D01*
X038519Y002458D02*
X038359Y002458D01*
X038359Y002617D02*
X038519Y002617D01*
X038519Y002776D02*
X038359Y002776D01*
X038359Y002934D02*
X038519Y002934D01*
X038519Y003093D02*
X038359Y003093D01*
X038359Y003251D02*
X038519Y003251D01*
X038519Y003410D02*
X038359Y003410D01*
X038359Y003568D02*
X029335Y003568D01*
X029116Y002776D02*
X029633Y002776D01*
X029710Y002617D02*
X027653Y002617D01*
X027563Y002776D02*
X028262Y002776D01*
X028104Y002934D02*
X027637Y002934D01*
X027649Y003093D02*
X028038Y003093D01*
X027999Y003251D02*
X027649Y003251D01*
X027649Y003410D02*
X027999Y003410D01*
X027887Y003568D02*
X027649Y003568D01*
X027633Y003727D02*
X027728Y003727D01*
X027570Y003885D02*
X027554Y003885D01*
X027411Y004044D02*
X027325Y004044D01*
X027189Y004044D02*
X027189Y004044D01*
X027189Y004064D02*
X027189Y003325D01*
X027189Y003325D01*
X027189Y004064D01*
X027054Y004044D02*
X025325Y004044D01*
X025189Y004044D02*
X025189Y004044D01*
X025189Y004064D02*
X025189Y003325D01*
X025189Y003325D01*
X025189Y004064D01*
X025054Y004044D02*
X022529Y004044D01*
X022527Y004202D02*
X027252Y004202D01*
X027094Y004361D02*
X022461Y004361D01*
X022396Y004519D02*
X026935Y004519D01*
X026777Y004678D02*
X022257Y004678D01*
X022085Y004837D02*
X026618Y004837D01*
X026825Y003885D02*
X025554Y003885D01*
X025633Y003727D02*
X026745Y003727D01*
X026729Y003568D02*
X025649Y003568D01*
X025649Y003410D02*
X026729Y003410D01*
X026729Y003324D02*
X027189Y003324D01*
X026729Y003324D01*
X026729Y003251D02*
X025649Y003251D01*
X025649Y003093D02*
X026729Y003093D01*
X026741Y002934D02*
X025637Y002934D01*
X025563Y002776D02*
X026816Y002776D01*
X027189Y003324D02*
X027189Y003324D01*
X027189Y003410D02*
X027189Y003410D01*
X027189Y003568D02*
X027189Y003568D01*
X027189Y003727D02*
X027189Y003727D01*
X027189Y003885D02*
X027189Y003885D01*
X025189Y003885D02*
X025189Y003885D01*
X025189Y003727D02*
X025189Y003727D01*
X025189Y003568D02*
X025189Y003568D01*
X025189Y003410D02*
X025189Y003410D01*
X023198Y003410D02*
X023181Y003410D01*
X023181Y003568D02*
X023198Y003568D01*
X023181Y003727D02*
X023198Y003727D01*
X023181Y003251D02*
X023198Y003251D01*
X023181Y003093D02*
X023198Y003093D01*
X023181Y002934D02*
X023198Y002934D01*
X029080Y006739D02*
X030378Y006739D01*
X030537Y006898D02*
X029238Y006898D01*
X029325Y007056D02*
X034582Y007056D01*
X034539Y006898D02*
X032342Y006898D01*
X032500Y006739D02*
X034539Y006739D01*
X034587Y006581D02*
X032580Y006581D01*
X032629Y006422D02*
X034672Y006422D01*
X034845Y006263D02*
X033578Y006263D01*
X033300Y006263D02*
X032629Y006263D01*
X032595Y006105D02*
X032994Y006105D01*
X032847Y005946D02*
X032530Y005946D01*
X032379Y005788D02*
X032781Y005788D01*
X032749Y005629D02*
X032319Y005629D01*
X032319Y005471D02*
X032749Y005471D01*
X032360Y005312D02*
X032319Y005312D01*
X031559Y005312D02*
X030519Y005312D01*
X031379Y005788D02*
X031500Y005788D01*
X031537Y006898D02*
X031342Y006898D01*
X031780Y008007D02*
X028843Y008007D01*
X028757Y008166D02*
X031622Y008166D01*
X031546Y008325D02*
X028833Y008325D01*
X028879Y008483D02*
X031499Y008483D01*
X031499Y008642D02*
X028879Y008642D01*
X028843Y008800D02*
X031536Y008800D01*
X032598Y008007D02*
X034554Y008007D01*
X034554Y007849D02*
X029140Y007849D01*
X029284Y007690D02*
X034554Y007690D01*
X034584Y007532D02*
X029350Y007532D01*
X029379Y007373D02*
X034742Y007373D01*
X034661Y007215D02*
X029379Y007215D01*
X032757Y008166D02*
X034633Y008166D01*
X034792Y008325D02*
X032833Y008325D01*
X035534Y006263D02*
X035845Y006263D01*
X036534Y006263D02*
X039869Y006263D01*
X039869Y006105D02*
X033884Y006105D01*
X034032Y005946D02*
X039869Y005946D01*
X039869Y005788D02*
X034098Y005788D01*
X034129Y005629D02*
X039869Y005629D01*
X039869Y005471D02*
X034129Y005471D01*
X034078Y005312D02*
X039869Y005312D01*
X039869Y005154D02*
X033994Y005154D01*
X033836Y004995D02*
X039869Y004995D01*
X039869Y004837D02*
X038860Y004837D01*
X038519Y004837D02*
X038359Y004837D01*
X038359Y004678D02*
X038519Y004678D01*
X038519Y004519D02*
X038359Y004519D01*
X038359Y004361D02*
X038519Y004361D01*
X038519Y004202D02*
X038359Y004202D01*
X038359Y004044D02*
X038519Y004044D01*
X038519Y003885D02*
X038359Y003885D01*
X038359Y003727D02*
X038519Y003727D01*
X038519Y003568D02*
X039869Y003568D01*
X039859Y003410D02*
X039759Y003410D01*
X039761Y003727D02*
X039869Y003727D01*
X039869Y003885D02*
X039733Y003885D01*
X039684Y004044D02*
X039869Y004044D01*
X039869Y004202D02*
X039612Y004202D01*
X039513Y004361D02*
X039869Y004361D01*
X039869Y004519D02*
X039375Y004519D01*
X039181Y004678D02*
X039869Y004678D01*
X039778Y003093D02*
X039679Y003093D01*
X039707Y002934D02*
X039605Y002934D01*
X039615Y002776D02*
X039504Y002776D01*
X039487Y002617D02*
X039363Y002617D01*
X039329Y002458D02*
X039163Y002458D01*
X039068Y002300D02*
X038820Y002300D01*
X037715Y002458D02*
X032997Y002458D01*
X033169Y002617D02*
X037516Y002617D01*
X037267Y004202D02*
X033183Y004202D01*
X033320Y004361D02*
X037365Y004361D01*
X037504Y004519D02*
X033385Y004519D01*
X033409Y004678D02*
X037697Y004678D01*
X038019Y004837D02*
X033409Y004837D01*
X032699Y003484D02*
X032676Y003484D01*
X032590Y003471D01*
X032508Y003444D01*
X032431Y003405D01*
X032361Y003354D01*
X032300Y003293D01*
X032249Y003222D01*
X032210Y003145D01*
X032183Y003063D01*
X032169Y002978D01*
X032169Y002954D01*
X032699Y002954D01*
X032699Y003484D01*
X032699Y003410D02*
X032739Y003410D01*
X032739Y003251D02*
X032699Y003251D01*
X032699Y003093D02*
X032739Y003093D01*
X032739Y002776D02*
X032699Y002776D01*
X032699Y002617D02*
X032739Y002617D01*
X032739Y002458D02*
X032699Y002458D01*
X032442Y002458D02*
X030437Y002458D01*
X030609Y002617D02*
X032270Y002617D01*
X032193Y002776D02*
X030686Y002776D01*
X030686Y003093D02*
X032192Y003093D01*
X032270Y003251D02*
X030609Y003251D01*
X030438Y003410D02*
X032441Y003410D01*
X036706Y006422D02*
X039869Y006422D01*
X039869Y006581D02*
X036792Y006581D01*
X036839Y006739D02*
X039869Y006739D01*
X039869Y006898D02*
X036839Y006898D01*
X036797Y007056D02*
X039869Y007056D01*
X039869Y007215D02*
X037478Y007215D01*
X037636Y007373D02*
X037940Y007373D01*
X038189Y007373D02*
X038189Y007373D01*
X038189Y007532D02*
X038189Y007532D01*
X038189Y007690D02*
X038189Y007690D01*
X038189Y007825D02*
X038189Y008319D01*
X038189Y007825D01*
X038189Y007825D01*
X038189Y007849D02*
X038189Y007849D01*
X038189Y008007D02*
X038189Y008007D01*
X038189Y008166D02*
X038189Y008166D01*
X037831Y008166D02*
X037745Y008166D01*
X037587Y008325D02*
X039869Y008325D01*
X039869Y008483D02*
X038859Y008483D01*
X039025Y008642D02*
X039869Y008642D01*
X039869Y008800D02*
X039069Y008800D01*
X039069Y008959D02*
X039869Y008959D01*
X039869Y009117D02*
X039069Y009117D01*
X039069Y009276D02*
X039869Y009276D01*
X039869Y009434D02*
X039069Y009434D01*
X039069Y009593D02*
X039869Y009593D01*
X039869Y009751D02*
X039069Y009751D01*
X039069Y009910D02*
X039869Y009910D01*
X039869Y010069D02*
X039069Y010069D01*
X039069Y010227D02*
X039869Y010227D01*
X039869Y010386D02*
X039069Y010386D01*
X039069Y010544D02*
X039869Y010544D01*
X039869Y010703D02*
X039069Y010703D01*
X039069Y010861D02*
X039869Y010861D01*
X039869Y011020D02*
X039069Y011020D01*
X039069Y011178D02*
X039869Y011178D01*
X039869Y011337D02*
X039069Y011337D01*
X039069Y011495D02*
X039869Y011495D01*
X039869Y011654D02*
X039069Y011654D01*
X039069Y011812D02*
X039869Y011812D01*
X039869Y011971D02*
X039069Y011971D01*
X039069Y012130D02*
X039869Y012130D01*
X039869Y012288D02*
X039069Y012288D01*
X039050Y012447D02*
X039869Y012447D01*
X039869Y012605D02*
X038946Y012605D01*
X038787Y012764D02*
X039869Y012764D01*
X039869Y012922D02*
X038629Y012922D01*
X038470Y013081D02*
X039869Y013081D01*
X039869Y013239D02*
X038312Y013239D01*
X038153Y013398D02*
X039869Y013398D01*
X039869Y013556D02*
X037994Y013556D01*
X037836Y013715D02*
X039869Y013715D01*
X039869Y013874D02*
X037677Y013874D01*
X036580Y014989D02*
X036774Y015183D01*
X036879Y015437D01*
X036879Y015711D01*
X036774Y015965D01*
X036580Y016159D01*
X036327Y016264D01*
X036052Y016264D01*
X035798Y016159D01*
X035604Y015965D01*
X035499Y015711D01*
X035499Y015437D01*
X035604Y015183D01*
X035798Y014989D01*
X036052Y014884D01*
X036327Y014884D01*
X036580Y014989D01*
X036566Y014983D02*
X039869Y014983D01*
X039869Y014825D02*
X034569Y014825D01*
X034569Y014983D02*
X035813Y014983D01*
X035646Y015142D02*
X034569Y015142D01*
X034569Y015300D02*
X035556Y015300D01*
X035499Y015459D02*
X034569Y015459D01*
X034569Y015618D02*
X035499Y015618D01*
X035526Y015776D02*
X034569Y015776D01*
X034569Y015935D02*
X035592Y015935D01*
X035732Y016093D02*
X034569Y016093D01*
X034569Y016252D02*
X036022Y016252D01*
X036357Y016252D02*
X039869Y016252D01*
X039869Y016410D02*
X034569Y016410D01*
X034569Y016569D02*
X039869Y016569D01*
X039869Y016727D02*
X036551Y016727D01*
X036580Y016739D02*
X036774Y016933D01*
X036879Y017187D01*
X036879Y017461D01*
X036774Y017715D01*
X036580Y017909D01*
X036327Y018014D01*
X036052Y018014D01*
X035798Y017909D01*
X035604Y017715D01*
X035499Y017461D01*
X035499Y017187D01*
X035604Y016933D01*
X035798Y016739D01*
X036052Y016634D01*
X036327Y016634D01*
X036580Y016739D01*
X036727Y016886D02*
X039869Y016886D01*
X039869Y017044D02*
X036820Y017044D01*
X036879Y017203D02*
X039869Y017203D01*
X039869Y017361D02*
X036879Y017361D01*
X036855Y017520D02*
X039869Y017520D01*
X039869Y017679D02*
X036789Y017679D01*
X036652Y017837D02*
X039869Y017837D01*
X039869Y017996D02*
X036371Y017996D01*
X036007Y017996D02*
X034569Y017996D01*
X034569Y018154D02*
X039869Y018154D01*
X039869Y018313D02*
X034569Y018313D01*
X034569Y018471D02*
X039869Y018471D01*
X039869Y018630D02*
X034569Y018630D01*
X034569Y018788D02*
X039869Y018788D01*
X039869Y018947D02*
X034569Y018947D01*
X034569Y019105D02*
X039869Y019105D01*
X039869Y019264D02*
X034569Y019264D01*
X034569Y019423D02*
X034943Y019423D01*
X034960Y019405D02*
X035078Y019357D01*
X036300Y019357D01*
X036418Y019405D01*
X036508Y019495D01*
X036557Y019613D01*
X036557Y020835D01*
X036508Y020953D01*
X036418Y021043D01*
X036300Y021092D01*
X035078Y021092D01*
X034960Y021043D01*
X034870Y020953D01*
X034822Y020835D01*
X034822Y019613D01*
X034870Y019495D01*
X034960Y019405D01*
X034835Y019581D02*
X034569Y019581D01*
X034569Y019740D02*
X034822Y019740D01*
X034822Y019898D02*
X034569Y019898D01*
X034569Y020057D02*
X034822Y020057D01*
X034822Y020215D02*
X034569Y020215D01*
X034569Y020374D02*
X034822Y020374D01*
X034822Y020532D02*
X034569Y020532D01*
X034569Y020691D02*
X034822Y020691D01*
X034828Y020849D02*
X034569Y020849D01*
X034569Y021008D02*
X034925Y021008D01*
X034569Y021167D02*
X039869Y021167D01*
X039869Y021325D02*
X034569Y021325D01*
X034569Y021484D02*
X039869Y021484D01*
X039869Y021642D02*
X034569Y021642D01*
X034569Y021801D02*
X039869Y021801D01*
X039869Y021959D02*
X034569Y021959D01*
X034569Y022118D02*
X039869Y022118D01*
X039869Y022276D02*
X039328Y022276D01*
X039321Y022274D02*
X039406Y022302D01*
X039485Y022342D01*
X039557Y022394D01*
X039619Y022457D01*
X039671Y022529D01*
X039712Y022608D01*
X039739Y022692D01*
X039753Y022776D01*
X039237Y022776D01*
X039237Y022261D01*
X039321Y022274D01*
X039237Y022276D02*
X039141Y022276D01*
X039141Y022261D02*
X039141Y022776D01*
X038626Y022776D01*
X038639Y022692D01*
X038667Y022608D01*
X038707Y022529D01*
X038759Y022457D01*
X038822Y022394D01*
X038894Y022342D01*
X038973Y022302D01*
X039057Y022274D01*
X039141Y022261D01*
X039051Y022276D02*
X034569Y022276D01*
X034569Y022435D02*
X038781Y022435D01*
X038674Y022593D02*
X034569Y022593D01*
X034569Y022752D02*
X038630Y022752D01*
X038626Y022872D02*
X039141Y022872D01*
X039141Y022776D01*
X039237Y022776D01*
X039237Y022872D01*
X039141Y022872D01*
X039141Y023387D01*
X039057Y023374D01*
X038973Y023347D01*
X038894Y023306D01*
X038822Y023254D01*
X038759Y023192D01*
X038707Y023120D01*
X038667Y023041D01*
X038639Y022956D01*
X038626Y022872D01*
X038632Y022911D02*
X034569Y022911D01*
X035221Y023069D02*
X038681Y023069D01*
X038795Y023228D02*
X035380Y023228D01*
X035539Y023386D02*
X039133Y023386D01*
X039141Y023386D02*
X039237Y023386D01*
X039237Y023387D02*
X039237Y022872D01*
X039753Y022872D01*
X039739Y022956D01*
X039712Y023041D01*
X039671Y023120D01*
X039619Y023192D01*
X039557Y023254D01*
X039485Y023306D01*
X039406Y023347D01*
X039321Y023374D01*
X039237Y023387D01*
X039246Y023386D02*
X039869Y023386D01*
X039869Y023228D02*
X039583Y023228D01*
X039697Y023069D02*
X039869Y023069D01*
X039869Y022911D02*
X039746Y022911D01*
X039749Y022752D02*
X039869Y022752D01*
X039869Y022593D02*
X039704Y022593D01*
X039597Y022435D02*
X039869Y022435D01*
X039237Y022435D02*
X039141Y022435D01*
X039141Y022593D02*
X039237Y022593D01*
X039237Y022752D02*
X039141Y022752D01*
X039141Y022911D02*
X039237Y022911D01*
X039237Y023069D02*
X039141Y023069D01*
X039141Y023228D02*
X039237Y023228D01*
X039869Y023545D02*
X035697Y023545D01*
X035856Y023703D02*
X039869Y023703D01*
X039869Y023862D02*
X036014Y023862D01*
X036173Y024020D02*
X039869Y024020D01*
X039869Y024179D02*
X036331Y024179D01*
X036490Y024337D02*
X039869Y024337D01*
X039869Y024496D02*
X036648Y024496D01*
X036780Y024654D02*
X039869Y024654D01*
X039869Y024813D02*
X036819Y024813D01*
X036819Y024972D02*
X039869Y024972D01*
X039869Y025130D02*
X036819Y025130D01*
X036819Y025289D02*
X039869Y025289D01*
X039869Y025447D02*
X036819Y025447D01*
X036819Y025606D02*
X039869Y025606D01*
X039869Y025764D02*
X036819Y025764D01*
X036819Y025923D02*
X039869Y025923D01*
X039869Y026081D02*
X036819Y026081D01*
X036819Y026240D02*
X039869Y026240D01*
X039869Y026398D02*
X036819Y026398D01*
X036744Y026557D02*
X039869Y026557D01*
X035002Y031155D02*
X034376Y031155D01*
X034654Y031313D02*
X034724Y031313D01*
X034002Y031155D02*
X033376Y031155D01*
X033654Y031313D02*
X033724Y031313D01*
X036453Y021008D02*
X039869Y021008D01*
X039869Y020849D02*
X036551Y020849D01*
X036557Y020691D02*
X039869Y020691D01*
X039869Y020532D02*
X036557Y020532D01*
X036557Y020374D02*
X039869Y020374D01*
X039869Y020215D02*
X036557Y020215D01*
X036557Y020057D02*
X039869Y020057D01*
X039869Y019898D02*
X036557Y019898D01*
X036557Y019740D02*
X039869Y019740D01*
X039869Y019581D02*
X036544Y019581D01*
X036435Y019423D02*
X039869Y019423D01*
X039869Y016093D02*
X036646Y016093D01*
X036787Y015935D02*
X039869Y015935D01*
X039869Y015776D02*
X036853Y015776D01*
X036879Y015618D02*
X039869Y015618D01*
X039869Y015459D02*
X036879Y015459D01*
X036823Y015300D02*
X039869Y015300D01*
X039869Y015142D02*
X036733Y015142D01*
X035701Y013874D02*
X034569Y013874D01*
X034569Y014032D02*
X039869Y014032D01*
X039869Y014191D02*
X034569Y014191D01*
X034569Y014349D02*
X039869Y014349D01*
X039869Y014508D02*
X034569Y014508D01*
X034569Y014666D02*
X039869Y014666D01*
X035827Y016727D02*
X034569Y016727D01*
X034569Y016886D02*
X035652Y016886D01*
X035558Y017044D02*
X034569Y017044D01*
X034569Y017203D02*
X035499Y017203D01*
X035499Y017361D02*
X034569Y017361D01*
X034569Y017520D02*
X035524Y017520D01*
X035589Y017679D02*
X034569Y017679D01*
X034569Y017837D02*
X035726Y017837D01*
X035543Y013715D02*
X034569Y013715D01*
X034569Y013556D02*
X035384Y013556D01*
X034787Y013398D02*
X034591Y013398D01*
X038548Y008166D02*
X039869Y008166D01*
X039869Y008007D02*
X038684Y008007D01*
X038684Y007849D02*
X039869Y007849D01*
X039869Y007690D02*
X038684Y007690D01*
X038597Y007532D02*
X039869Y007532D01*
X039869Y007373D02*
X038438Y007373D01*
X036901Y007215D02*
X036718Y007215D01*
X036742Y007373D02*
X036636Y007373D01*
X014599Y005946D02*
X014530Y005946D01*
X014569Y003568D02*
X014697Y003568D01*
X012137Y003568D02*
X006733Y003568D01*
X010669Y005629D02*
X010709Y005629D01*
X010709Y005788D02*
X010669Y005788D01*
X010669Y005946D02*
X010709Y005946D01*
X004059Y007373D02*
X003004Y007373D01*
X002689Y007373D02*
X002689Y007373D01*
X002689Y007532D02*
X002689Y007532D01*
X002689Y007690D02*
X002689Y007690D01*
X014609Y026081D02*
X014818Y026081D01*
X014749Y026240D02*
X019568Y026240D01*
X019729Y026398D02*
X014815Y026398D01*
X015561Y026081D02*
X015818Y026081D01*
X016561Y026081D02*
X016818Y026081D01*
X017561Y026081D02*
X017818Y026081D01*
X018561Y026081D02*
X018818Y026081D01*
X011609Y031844D02*
X011569Y031844D01*
X011279Y031844D01*
X011279Y031804D01*
X011569Y031804D01*
X011569Y031844D01*
X011569Y032374D01*
X011546Y032374D01*
X011460Y032361D01*
X011378Y032334D01*
X011301Y032295D01*
X011231Y032244D01*
X011182Y032195D01*
X011174Y032215D01*
X010980Y032409D01*
X010751Y032504D01*
X012428Y032504D01*
X012198Y032409D01*
X012004Y032215D01*
X011996Y032195D01*
X011948Y032244D01*
X011878Y032295D01*
X011800Y032334D01*
X011718Y032361D01*
X011633Y032374D01*
X011609Y032374D01*
X011609Y031844D01*
X011609Y031947D02*
X011569Y031947D01*
X011569Y032106D02*
X011609Y032106D01*
X011609Y032265D02*
X011569Y032265D01*
X011260Y032265D02*
X011125Y032265D01*
X010946Y032423D02*
X012232Y032423D01*
X012054Y032265D02*
X011919Y032265D01*
X010232Y032423D02*
X002495Y032423D01*
X002345Y032265D02*
X002165Y032265D01*
X002100Y032106D02*
X001966Y032106D01*
X001935Y031947D02*
X001807Y031947D01*
X001817Y031789D02*
X001715Y031789D01*
X001730Y031630D02*
X001623Y031630D01*
X001578Y031472D02*
X001670Y031472D01*
X001631Y031313D02*
X001536Y031313D01*
X001515Y031155D02*
X001611Y031155D01*
X002859Y031313D02*
X003019Y031313D01*
X003019Y031472D02*
X002859Y031472D01*
X002859Y031630D02*
X003019Y031630D01*
X003019Y031789D02*
X002859Y031789D01*
X002859Y031947D02*
X003019Y031947D01*
X003019Y032106D02*
X002859Y032106D01*
X002859Y032265D02*
X003019Y032265D01*
X003534Y032265D02*
X010054Y032265D01*
X009959Y032106D02*
X003779Y032106D01*
X003943Y031947D02*
X009899Y031947D01*
X009899Y031789D02*
X004061Y031789D01*
X004148Y031630D02*
X009923Y031630D01*
X009988Y031472D02*
X004209Y031472D01*
X004248Y031313D02*
X009891Y031313D01*
X009867Y031289D02*
X009867Y031289D01*
X009732Y031155D02*
X004268Y031155D01*
X009539Y029886D02*
X009863Y029886D01*
X009720Y030045D02*
X009697Y030045D01*
X010515Y029886D02*
X010613Y029886D01*
M02*
