G75*
G70*
%OFA0B0*%
%FSLAX24Y24*%
%IPPOS*%
%LPD*%
%AMOC8*
5,1,8,0,0,1.08239X$1,22.5*
%
%ADD10C,0.0000*%
%ADD11C,0.0040*%
%ADD12C,0.0030*%
%ADD13C,0.0120*%
%ADD14C,0.0100*%
%ADD15C,0.0080*%
%ADD16C,0.0060*%
%ADD17R,0.3000X0.1500*%
%ADD18C,0.0050*%
%ADD19C,0.0010*%
%ADD20C,0.0160*%
%ADD21R,0.0160X0.0230*%
%ADD22C,0.0020*%
D10*
X002430Y001811D02*
X037930Y001811D01*
X038013Y001813D01*
X038096Y001819D01*
X038179Y001829D01*
X038261Y001843D01*
X038343Y001860D01*
X038423Y001882D01*
X038502Y001907D01*
X038580Y001936D01*
X038657Y001969D01*
X038732Y002006D01*
X038805Y002045D01*
X038876Y002089D01*
X038945Y002135D01*
X039012Y002185D01*
X039076Y002238D01*
X039138Y002294D01*
X039197Y002353D01*
X039253Y002415D01*
X039306Y002479D01*
X039356Y002546D01*
X039402Y002615D01*
X039446Y002686D01*
X039485Y002759D01*
X039522Y002834D01*
X039555Y002911D01*
X039584Y002989D01*
X039609Y003068D01*
X039631Y003148D01*
X039648Y003230D01*
X039662Y003312D01*
X039672Y003395D01*
X039678Y003478D01*
X039680Y003561D01*
X039680Y031061D01*
X039678Y031144D01*
X039672Y031227D01*
X039662Y031310D01*
X039648Y031392D01*
X039631Y031474D01*
X039609Y031554D01*
X039584Y031633D01*
X039555Y031711D01*
X039522Y031788D01*
X039485Y031863D01*
X039446Y031936D01*
X039402Y032007D01*
X039356Y032076D01*
X039306Y032143D01*
X039253Y032207D01*
X039197Y032269D01*
X039138Y032328D01*
X039076Y032384D01*
X039012Y032437D01*
X038945Y032487D01*
X038876Y032533D01*
X038805Y032577D01*
X038732Y032616D01*
X038657Y032653D01*
X038580Y032686D01*
X038502Y032715D01*
X038423Y032740D01*
X038343Y032762D01*
X038261Y032779D01*
X038179Y032793D01*
X038096Y032803D01*
X038013Y032809D01*
X037930Y032811D01*
X002430Y032811D01*
X002347Y032809D01*
X002264Y032803D01*
X002181Y032793D01*
X002099Y032779D01*
X002017Y032762D01*
X001937Y032740D01*
X001858Y032715D01*
X001780Y032686D01*
X001703Y032653D01*
X001628Y032616D01*
X001555Y032577D01*
X001484Y032533D01*
X001415Y032487D01*
X001348Y032437D01*
X001284Y032384D01*
X001222Y032328D01*
X001163Y032269D01*
X001107Y032207D01*
X001054Y032143D01*
X001004Y032076D01*
X000958Y032007D01*
X000914Y031936D01*
X000875Y031863D01*
X000838Y031788D01*
X000805Y031711D01*
X000776Y031633D01*
X000751Y031554D01*
X000729Y031474D01*
X000712Y031392D01*
X000698Y031310D01*
X000688Y031227D01*
X000682Y031144D01*
X000680Y031061D01*
X000680Y003561D01*
X000682Y003478D01*
X000688Y003395D01*
X000698Y003312D01*
X000712Y003230D01*
X000729Y003148D01*
X000751Y003068D01*
X000776Y002989D01*
X000805Y002911D01*
X000838Y002834D01*
X000875Y002759D01*
X000914Y002686D01*
X000958Y002615D01*
X001004Y002546D01*
X001054Y002479D01*
X001107Y002415D01*
X001163Y002353D01*
X001222Y002294D01*
X001284Y002238D01*
X001348Y002185D01*
X001415Y002135D01*
X001484Y002089D01*
X001555Y002045D01*
X001628Y002006D01*
X001703Y001969D01*
X001780Y001936D01*
X001858Y001907D01*
X001937Y001882D01*
X002017Y001860D01*
X002099Y001843D01*
X002181Y001829D01*
X002264Y001819D01*
X002347Y001813D01*
X002430Y001811D01*
D11*
X006450Y003831D02*
X006570Y003831D01*
X006510Y003831D02*
X006510Y004192D01*
X006450Y004192D02*
X006570Y004192D01*
X006696Y004132D02*
X006696Y003891D01*
X006756Y003831D01*
X006876Y003831D01*
X006936Y003891D01*
X007064Y003891D02*
X007124Y003831D01*
X007244Y003831D01*
X007304Y003891D01*
X007304Y004011D01*
X007244Y004071D01*
X007184Y004071D01*
X007064Y004011D01*
X007064Y004192D01*
X007304Y004192D01*
X006936Y004132D02*
X006876Y004192D01*
X006756Y004192D01*
X006696Y004132D01*
X003450Y007481D02*
X003210Y007481D01*
X003150Y007541D01*
X003150Y007661D01*
X003210Y007721D01*
X003270Y007850D02*
X003150Y007970D01*
X003510Y007970D01*
X003510Y007850D02*
X003510Y008090D01*
X003510Y008218D02*
X003270Y008458D01*
X003210Y008458D01*
X003150Y008398D01*
X003150Y008278D01*
X003210Y008218D01*
X003510Y008218D02*
X003510Y008458D01*
X003450Y007721D02*
X003510Y007661D01*
X003510Y007541D01*
X003450Y007481D01*
X001360Y007541D02*
X001360Y007311D01*
X001284Y007234D01*
X001130Y007234D01*
X001053Y007311D01*
X001053Y007541D01*
X000900Y007541D02*
X001360Y007541D01*
X001360Y007081D02*
X000900Y007081D01*
X001053Y006927D01*
X000900Y006774D01*
X001360Y006774D01*
X001360Y006620D02*
X000900Y006620D01*
X001053Y006620D02*
X001053Y006390D01*
X001130Y006314D01*
X001284Y006314D01*
X001360Y006390D01*
X001360Y006620D01*
X001053Y006467D02*
X000900Y006314D01*
X004963Y011181D02*
X005204Y011542D01*
X005332Y011482D02*
X005392Y011542D01*
X005512Y011542D01*
X005572Y011482D01*
X005572Y011421D01*
X005332Y011181D01*
X005572Y011181D01*
X005204Y011181D02*
X004963Y011542D01*
X004969Y012081D02*
X004738Y012235D01*
X004969Y012388D01*
X004738Y012542D02*
X004738Y012081D01*
X004585Y012081D02*
X004278Y012081D01*
X004431Y012081D02*
X004431Y012542D01*
X004278Y012388D01*
X004278Y013331D02*
X004585Y013331D01*
X004738Y013331D02*
X004738Y013792D01*
X004969Y013638D02*
X004738Y013485D01*
X004969Y013331D01*
X004431Y013331D02*
X004431Y013792D01*
X004278Y013638D01*
X004278Y014581D02*
X004585Y014581D01*
X004738Y014581D02*
X004738Y015042D01*
X004969Y014888D02*
X004738Y014735D01*
X004969Y014581D01*
X004431Y014581D02*
X004431Y015042D01*
X004278Y014888D01*
X001360Y013291D02*
X001360Y013061D01*
X001284Y012984D01*
X000977Y012984D01*
X000900Y013061D01*
X000900Y013291D01*
X001360Y013291D01*
X001207Y012831D02*
X001360Y012677D01*
X000900Y012677D01*
X000900Y012524D02*
X000900Y012831D01*
X000977Y012370D02*
X000900Y012294D01*
X000900Y012140D01*
X000977Y012064D01*
X001053Y012064D01*
X001130Y012140D01*
X001130Y012217D01*
X001130Y012140D02*
X001207Y012064D01*
X001284Y012064D01*
X001360Y012140D01*
X001360Y012294D01*
X001284Y012370D01*
X005977Y011241D02*
X006037Y011181D01*
X006097Y011181D01*
X006157Y011241D01*
X006157Y011542D01*
X006097Y011542D02*
X006217Y011542D01*
X006345Y011542D02*
X006585Y011542D01*
X006465Y011542D02*
X006465Y011181D01*
X006713Y011181D02*
X006713Y011421D01*
X006833Y011542D01*
X006954Y011421D01*
X006954Y011181D01*
X007082Y011241D02*
X007142Y011181D01*
X007262Y011181D01*
X007322Y011241D01*
X007322Y011361D01*
X007202Y011361D01*
X007082Y011241D02*
X007082Y011482D01*
X007142Y011542D01*
X007262Y011542D01*
X007322Y011482D01*
X006954Y011361D02*
X006713Y011361D01*
X007700Y011735D02*
X007853Y011581D01*
X008007Y011735D01*
X008007Y012042D01*
X008160Y012042D02*
X008391Y012042D01*
X008467Y011965D01*
X008467Y011811D01*
X008391Y011735D01*
X008160Y011735D01*
X008160Y011581D02*
X008160Y012042D01*
X008314Y011735D02*
X008467Y011581D01*
X008621Y011581D02*
X008621Y012042D01*
X008928Y012042D01*
X009081Y011965D02*
X009081Y011658D01*
X009158Y011581D01*
X009311Y011581D01*
X009388Y011658D01*
X009388Y011811D01*
X009235Y011811D01*
X009388Y011965D02*
X009311Y012042D01*
X009158Y012042D01*
X009081Y011965D01*
X008774Y011811D02*
X008621Y011811D01*
X008621Y011581D02*
X008928Y011581D01*
X010002Y011581D02*
X010002Y012042D01*
X010232Y012042D01*
X010309Y011965D01*
X010309Y011811D01*
X010232Y011735D01*
X010002Y011735D01*
X010462Y011581D02*
X010616Y011735D01*
X010769Y011581D01*
X010769Y012042D01*
X010923Y012042D02*
X011153Y012042D01*
X011230Y011965D01*
X011230Y011811D01*
X011153Y011735D01*
X010923Y011735D01*
X011076Y011735D02*
X011230Y011581D01*
X010923Y011581D02*
X010923Y012042D01*
X010462Y012042D02*
X010462Y011581D01*
X007700Y011735D02*
X007700Y012042D01*
X011950Y008192D02*
X011950Y008132D01*
X012070Y008011D01*
X012070Y007831D01*
X012070Y008011D02*
X012190Y008132D01*
X012190Y008192D01*
X012318Y008132D02*
X012378Y008192D01*
X012498Y008192D01*
X012559Y008132D01*
X012559Y008071D01*
X012498Y008011D01*
X012559Y007951D01*
X012559Y007891D01*
X012498Y007831D01*
X012378Y007831D01*
X012318Y007891D01*
X012438Y008011D02*
X012498Y008011D01*
X014450Y011181D02*
X014757Y011181D01*
X014603Y011181D02*
X014603Y011642D01*
X014450Y011488D01*
X014910Y011488D02*
X014910Y011258D01*
X014987Y011181D01*
X015217Y011181D01*
X015217Y011488D01*
X019400Y010982D02*
X019476Y011059D01*
X019630Y011059D01*
X019707Y010982D01*
X019707Y010752D01*
X019860Y010752D02*
X019400Y010752D01*
X019400Y010982D01*
X019707Y010906D02*
X019860Y011059D01*
X019860Y010599D02*
X019400Y010599D01*
X019400Y010292D02*
X019860Y010292D01*
X019707Y010445D01*
X019860Y010599D01*
X019630Y010138D02*
X019476Y010138D01*
X019400Y010061D01*
X019400Y009831D01*
X019860Y009831D01*
X019707Y009831D02*
X019707Y010061D01*
X019630Y010138D01*
X021200Y010831D02*
X021507Y010831D01*
X021353Y010831D02*
X021353Y011292D01*
X021200Y011138D01*
X021660Y011138D02*
X021660Y010908D01*
X021737Y010831D01*
X021967Y010831D01*
X021967Y011138D01*
X022200Y009940D02*
X022507Y009940D01*
X022660Y009787D01*
X022507Y009633D01*
X022200Y009633D01*
X022200Y009480D02*
X022200Y009173D01*
X022430Y009173D01*
X022353Y009326D01*
X022353Y009403D01*
X022430Y009480D01*
X022583Y009480D01*
X022660Y009403D01*
X022660Y009250D01*
X022583Y009173D01*
X022200Y009019D02*
X022660Y008712D01*
X022583Y008559D02*
X022660Y008482D01*
X022660Y008329D01*
X022583Y008252D01*
X022507Y008099D02*
X022200Y008099D01*
X022276Y008252D02*
X022200Y008329D01*
X022200Y008482D01*
X022276Y008559D01*
X022353Y008559D01*
X022430Y008482D01*
X022507Y008559D01*
X022583Y008559D01*
X022430Y008482D02*
X022430Y008406D01*
X022507Y008099D02*
X022660Y007945D01*
X022507Y007792D01*
X022200Y007792D01*
X022276Y007638D02*
X022353Y007638D01*
X022430Y007561D01*
X022507Y007638D01*
X022583Y007638D01*
X022660Y007561D01*
X022660Y007408D01*
X022583Y007331D01*
X022430Y007485D02*
X022430Y007561D01*
X022276Y007638D02*
X022200Y007561D01*
X022200Y007408D01*
X022276Y007331D01*
X024200Y007292D02*
X024200Y007599D01*
X024200Y007752D02*
X024353Y007906D01*
X024200Y008059D01*
X024660Y008059D01*
X024660Y008212D02*
X024660Y008519D01*
X024660Y008366D02*
X024200Y008366D01*
X024353Y008212D01*
X024276Y008673D02*
X024200Y008750D01*
X024200Y008903D01*
X024276Y008980D01*
X024353Y008980D01*
X024660Y008673D01*
X024660Y008980D01*
X024660Y009133D02*
X024200Y009133D01*
X024200Y009363D01*
X024276Y009440D01*
X024353Y009440D01*
X024430Y009363D01*
X024430Y009133D01*
X024660Y009133D02*
X024660Y009363D01*
X024583Y009440D01*
X024507Y009440D01*
X024430Y009363D01*
X024660Y007752D02*
X024200Y007752D01*
X024430Y007445D02*
X024430Y007292D01*
X024430Y007138D02*
X024507Y007061D01*
X024507Y006831D01*
X024660Y006831D02*
X024200Y006831D01*
X024200Y007061D01*
X024276Y007138D01*
X024430Y007138D01*
X024507Y006985D02*
X024660Y007138D01*
X024660Y007292D02*
X024200Y007292D01*
X018928Y002715D02*
X018928Y002638D01*
X018851Y002561D01*
X018621Y002561D01*
X018467Y002485D02*
X018467Y002408D01*
X018391Y002331D01*
X018237Y002331D01*
X018160Y002408D01*
X018007Y002408D02*
X018007Y002792D01*
X018160Y002715D02*
X018160Y002638D01*
X018237Y002561D01*
X018391Y002561D01*
X018467Y002485D01*
X018621Y002331D02*
X018851Y002331D01*
X018928Y002408D01*
X018928Y002485D01*
X018851Y002561D01*
X018928Y002715D02*
X018851Y002792D01*
X018621Y002792D01*
X018621Y002331D01*
X018007Y002408D02*
X017930Y002331D01*
X017777Y002331D01*
X017700Y002408D01*
X017700Y002792D01*
X018160Y002715D02*
X018237Y002792D01*
X018391Y002792D01*
X018467Y002715D01*
X015848Y002417D02*
X015542Y002417D01*
X015695Y002417D02*
X015695Y001956D01*
X015388Y001956D02*
X015081Y001956D01*
X015081Y002417D01*
X015388Y002417D01*
X015235Y002186D02*
X015081Y002186D01*
X014928Y002110D02*
X014928Y002033D01*
X014851Y001956D01*
X014698Y001956D01*
X014621Y002033D01*
X014698Y002186D02*
X014851Y002186D01*
X014928Y002110D01*
X014928Y002340D02*
X014851Y002417D01*
X014698Y002417D01*
X014621Y002340D01*
X014621Y002263D01*
X014698Y002186D01*
X014467Y001956D02*
X014160Y001956D01*
X014160Y002417D01*
X014467Y002417D01*
X014314Y002186D02*
X014160Y002186D01*
X014007Y002186D02*
X013930Y002110D01*
X013700Y002110D01*
X013853Y002110D02*
X014007Y001956D01*
X014007Y002186D02*
X014007Y002340D01*
X013930Y002417D01*
X013700Y002417D01*
X013700Y001956D01*
X011910Y002328D02*
X011910Y002421D01*
X011863Y002468D01*
X011910Y002576D02*
X011910Y002763D01*
X011910Y002669D02*
X011630Y002669D01*
X011723Y002576D01*
X011676Y002468D02*
X011630Y002421D01*
X011630Y002328D01*
X011676Y002281D01*
X011863Y002281D01*
X011910Y002328D01*
X011410Y002328D02*
X011410Y002421D01*
X011363Y002468D01*
X011410Y002576D02*
X011410Y002763D01*
X011410Y002669D02*
X011130Y002669D01*
X011223Y002576D01*
X011176Y002468D02*
X011130Y002421D01*
X011130Y002328D01*
X011176Y002281D01*
X011363Y002281D01*
X011410Y002328D01*
X011363Y002871D02*
X011410Y002917D01*
X011410Y003011D01*
X011363Y003057D01*
X011270Y003057D01*
X011223Y003011D01*
X011223Y002964D01*
X011270Y002871D01*
X011130Y002871D01*
X011130Y003057D01*
X011630Y003057D02*
X011676Y002964D01*
X011770Y002871D01*
X011770Y003011D01*
X011817Y003057D01*
X011863Y003057D01*
X011910Y003011D01*
X011910Y002917D01*
X011863Y002871D01*
X011770Y002871D01*
X023576Y015581D02*
X023653Y015581D01*
X023730Y015658D01*
X023730Y015811D01*
X023807Y015888D01*
X023883Y015888D01*
X023960Y015811D01*
X023960Y015658D01*
X023883Y015581D01*
X023576Y015581D02*
X023500Y015658D01*
X023500Y015811D01*
X023576Y015888D01*
X023500Y016042D02*
X023500Y016272D01*
X023576Y016349D01*
X023883Y016349D01*
X023960Y016272D01*
X023960Y016042D01*
X023500Y016042D01*
X023653Y016502D02*
X023500Y016656D01*
X023653Y016809D01*
X023960Y016809D01*
X023960Y016962D02*
X023500Y017269D01*
X023653Y017423D02*
X023500Y017576D01*
X023653Y017730D01*
X023960Y017730D01*
X023730Y017730D02*
X023730Y017423D01*
X023653Y017423D02*
X023960Y017423D01*
X023730Y017883D02*
X023730Y018190D01*
X023960Y018113D02*
X023500Y018113D01*
X023730Y017883D01*
X023730Y016809D02*
X023730Y016502D01*
X023653Y016502D02*
X023960Y016502D01*
X026400Y016502D02*
X026860Y016502D01*
X026860Y016809D01*
X026860Y016962D02*
X026400Y017269D01*
X026553Y017423D02*
X026400Y017576D01*
X026553Y017730D01*
X026860Y017730D01*
X026783Y017883D02*
X026860Y017960D01*
X026860Y018113D01*
X026783Y018190D01*
X026630Y018190D01*
X026553Y018113D01*
X026553Y018037D01*
X026630Y017883D01*
X026400Y017883D01*
X026400Y018190D01*
X026630Y017730D02*
X026630Y017423D01*
X026553Y017423D02*
X026860Y017423D01*
X027500Y017500D02*
X027500Y017653D01*
X027576Y017730D01*
X027883Y017730D01*
X027960Y017653D01*
X027960Y017500D01*
X027883Y017423D01*
X027576Y017423D01*
X027500Y017500D01*
X027576Y017269D02*
X027500Y017193D01*
X027500Y017039D01*
X027576Y016962D01*
X027653Y016962D01*
X027730Y017039D01*
X027730Y017193D01*
X027807Y017269D01*
X027883Y017269D01*
X027960Y017193D01*
X027960Y017039D01*
X027883Y016962D01*
X027883Y016349D02*
X027807Y016349D01*
X027730Y016272D01*
X027730Y016042D01*
X027883Y016042D01*
X027960Y016118D01*
X027960Y016272D01*
X027883Y016349D01*
X027576Y016195D02*
X027730Y016042D01*
X027576Y016195D02*
X027500Y016349D01*
X027576Y015888D02*
X027500Y015811D01*
X027500Y015581D01*
X027960Y015581D01*
X027960Y015811D01*
X027883Y015888D01*
X027576Y015888D01*
X026860Y015811D02*
X026860Y015658D01*
X026783Y015581D01*
X026630Y015658D02*
X026630Y015811D01*
X026707Y015888D01*
X026783Y015888D01*
X026860Y015811D01*
X026783Y016042D02*
X026860Y016118D01*
X026860Y016272D01*
X026783Y016349D01*
X026476Y016349D02*
X026400Y016272D01*
X026400Y016118D01*
X026476Y016042D01*
X026783Y016042D01*
X026476Y015888D02*
X026400Y015811D01*
X026400Y015658D01*
X026476Y015581D01*
X026553Y015581D01*
X026630Y015658D01*
X027807Y017576D02*
X027960Y017730D01*
X027960Y017883D02*
X027500Y017883D01*
X027500Y018190D02*
X027960Y018190D01*
X027807Y018037D01*
X027960Y017883D01*
X027960Y018344D02*
X027500Y018651D01*
X027500Y018804D02*
X027500Y019034D01*
X027576Y019111D01*
X027730Y019111D01*
X027807Y019034D01*
X027807Y018804D01*
X027960Y018804D02*
X027500Y018804D01*
X027807Y018957D02*
X027960Y019111D01*
X027960Y019264D02*
X027500Y019264D01*
X027500Y019571D01*
X027500Y019725D02*
X027653Y019878D01*
X027500Y020032D01*
X027960Y020032D01*
X027960Y020185D02*
X027960Y020492D01*
X027960Y020339D02*
X027500Y020339D01*
X027653Y020185D01*
X027576Y020646D02*
X027500Y020722D01*
X027500Y020876D01*
X027576Y020953D01*
X027653Y020953D01*
X027960Y020646D01*
X027960Y020953D01*
X027960Y021106D02*
X027500Y021106D01*
X027500Y021336D01*
X027576Y021413D01*
X027653Y021413D01*
X027730Y021336D01*
X027730Y021106D01*
X027960Y021106D02*
X027960Y021336D01*
X027883Y021413D01*
X027807Y021413D01*
X027730Y021336D01*
X027960Y019725D02*
X027500Y019725D01*
X027730Y019418D02*
X027730Y019264D01*
X030048Y018638D02*
X030201Y018792D01*
X030201Y018331D01*
X030048Y018331D02*
X030355Y018331D01*
X030508Y018408D02*
X030815Y018715D01*
X030815Y018408D01*
X030738Y018331D01*
X030585Y018331D01*
X030508Y018408D01*
X030508Y018715D01*
X030585Y018792D01*
X030738Y018792D01*
X030815Y018715D01*
X030969Y018792D02*
X030969Y018331D01*
X030969Y018485D02*
X031199Y018638D01*
X030969Y018485D02*
X031199Y018331D01*
X033548Y016811D02*
X033855Y016811D01*
X034008Y016735D02*
X034238Y016888D01*
X034392Y017042D02*
X034699Y017042D01*
X034699Y016965D01*
X034392Y016658D01*
X034392Y016581D01*
X034238Y016581D02*
X034008Y016735D01*
X034008Y016581D02*
X034008Y017042D01*
X033778Y017042D02*
X033778Y016581D01*
X033548Y016811D02*
X033778Y017042D01*
X033778Y015792D02*
X033548Y015561D01*
X033855Y015561D01*
X034008Y015485D02*
X034238Y015331D01*
X034392Y015331D02*
X034392Y015408D01*
X034699Y015715D01*
X034699Y015792D01*
X034392Y015792D01*
X034238Y015638D02*
X034008Y015485D01*
X034008Y015331D02*
X034008Y015792D01*
X033778Y015792D02*
X033778Y015331D01*
X036950Y016063D02*
X037410Y016063D01*
X037410Y016216D02*
X037410Y015909D01*
X037103Y015909D02*
X036950Y016063D01*
X036950Y016370D02*
X037410Y016370D01*
X037257Y016370D02*
X037103Y016600D01*
X037257Y016370D02*
X037410Y016600D01*
X038200Y016638D02*
X038200Y016792D01*
X038276Y016868D01*
X038353Y016868D01*
X038430Y016792D01*
X038430Y016638D01*
X038353Y016561D01*
X038276Y016561D01*
X038200Y016638D01*
X038430Y016638D02*
X038507Y016561D01*
X038583Y016561D01*
X038660Y016638D01*
X038660Y016792D01*
X038583Y016868D01*
X038507Y016868D01*
X038430Y016792D01*
X038430Y017022D02*
X038353Y017175D01*
X038353Y017252D01*
X038430Y017329D01*
X038583Y017329D01*
X038660Y017252D01*
X038660Y017099D01*
X038583Y017022D01*
X038430Y017022D02*
X038200Y017022D01*
X038200Y017329D01*
X038200Y016408D02*
X038200Y016101D01*
X038200Y016255D02*
X038660Y016255D01*
X038660Y015948D02*
X038353Y015948D01*
X038200Y015794D01*
X038353Y015641D01*
X038660Y015641D01*
X038583Y015487D02*
X038660Y015410D01*
X038660Y015180D01*
X038200Y015180D01*
X038200Y015410D01*
X038276Y015487D01*
X038353Y015487D01*
X038430Y015410D01*
X038430Y015180D01*
X038430Y015410D02*
X038507Y015487D01*
X038583Y015487D01*
X038430Y015641D02*
X038430Y015948D01*
X038353Y013849D02*
X038276Y013849D01*
X038200Y013772D01*
X038200Y013618D01*
X038276Y013542D01*
X038276Y013388D02*
X038200Y013311D01*
X038200Y013081D01*
X038660Y013081D01*
X038660Y013311D01*
X038583Y013388D01*
X038276Y013388D01*
X038660Y013542D02*
X038353Y013849D01*
X038660Y013849D02*
X038660Y013542D01*
X033160Y012019D02*
X032930Y012019D01*
X032853Y011943D01*
X032853Y011712D01*
X033160Y011712D01*
X033083Y011559D02*
X033160Y011482D01*
X033160Y011329D01*
X033083Y011252D01*
X032776Y011559D01*
X033083Y011559D01*
X032776Y011559D02*
X032700Y011482D01*
X032700Y011329D01*
X032776Y011252D01*
X033083Y011252D01*
X033083Y011099D02*
X033160Y011022D01*
X033160Y010868D01*
X033083Y010792D01*
X032776Y011099D01*
X033083Y011099D01*
X032776Y011099D02*
X032700Y011022D01*
X032700Y010868D01*
X032776Y010792D01*
X033083Y010792D01*
X033160Y010638D02*
X033160Y010331D01*
X033160Y010485D02*
X032700Y010485D01*
X032853Y010331D01*
X033103Y007560D02*
X033257Y007330D01*
X033410Y007560D01*
X033410Y007330D02*
X032950Y007330D01*
X033026Y007177D02*
X033333Y006870D01*
X033410Y006946D01*
X033410Y007100D01*
X033333Y007177D01*
X033026Y007177D01*
X032950Y007100D01*
X032950Y006946D01*
X033026Y006870D01*
X033333Y006870D01*
X033333Y006716D02*
X033410Y006639D01*
X033410Y006486D01*
X033333Y006409D01*
X033026Y006716D01*
X033333Y006716D01*
X033026Y006716D02*
X032950Y006639D01*
X032950Y006486D01*
X033026Y006409D01*
X033333Y006409D01*
X033410Y006256D02*
X033410Y005949D01*
X033410Y006102D02*
X032950Y006102D01*
X033103Y005949D01*
X030311Y002388D02*
X030081Y002388D01*
X030081Y002081D01*
X029928Y002158D02*
X029851Y002081D01*
X029698Y002081D01*
X029621Y002158D01*
X029928Y002465D01*
X029928Y002158D01*
X029928Y002465D02*
X029851Y002542D01*
X029698Y002542D01*
X029621Y002465D01*
X029621Y002158D01*
X029467Y002158D02*
X029391Y002081D01*
X029237Y002081D01*
X029160Y002158D01*
X029467Y002465D01*
X029467Y002158D01*
X029160Y002158D02*
X029160Y002465D01*
X029237Y002542D01*
X029391Y002542D01*
X029467Y002465D01*
X029007Y002081D02*
X028700Y002081D01*
X028853Y002081D02*
X028853Y002542D01*
X028700Y002388D01*
X030311Y002388D02*
X030388Y002311D01*
X030388Y002081D01*
X037700Y006831D02*
X038007Y006831D01*
X037853Y006831D02*
X037853Y007292D01*
X037700Y007138D01*
X038160Y007215D02*
X038160Y006908D01*
X038467Y007215D01*
X038467Y006908D01*
X038391Y006831D01*
X038237Y006831D01*
X038160Y006908D01*
X038160Y007215D02*
X038237Y007292D01*
X038391Y007292D01*
X038467Y007215D01*
X038621Y007215D02*
X038698Y007292D01*
X038851Y007292D01*
X038928Y007215D01*
X038621Y006908D01*
X038698Y006831D01*
X038851Y006831D01*
X038928Y006908D01*
X038928Y007215D01*
X039081Y007138D02*
X039311Y007138D01*
X039388Y007061D01*
X039388Y006908D01*
X039311Y006831D01*
X039081Y006831D01*
X039081Y006678D02*
X039081Y007138D01*
X038621Y007215D02*
X038621Y006908D01*
X035809Y021081D02*
X035502Y021081D01*
X035809Y021388D01*
X035809Y021465D01*
X035732Y021542D01*
X035579Y021542D01*
X035502Y021465D01*
X035348Y021465D02*
X035348Y021388D01*
X035272Y021311D01*
X035348Y021235D01*
X035348Y021158D01*
X035272Y021081D01*
X035118Y021081D01*
X035042Y021158D01*
X034888Y021158D02*
X034811Y021081D01*
X034658Y021081D01*
X034581Y021158D01*
X034888Y021465D01*
X034888Y021158D01*
X034581Y021158D02*
X034581Y021465D01*
X034658Y021542D01*
X034811Y021542D01*
X034888Y021465D01*
X035042Y021465D02*
X035118Y021542D01*
X035272Y021542D01*
X035348Y021465D01*
X035272Y021311D02*
X035195Y021311D01*
X034428Y021388D02*
X034428Y021465D01*
X034351Y021542D01*
X034198Y021542D01*
X034121Y021465D01*
X033967Y021465D02*
X033967Y021311D01*
X033891Y021235D01*
X033660Y021235D01*
X033660Y021081D02*
X033660Y021542D01*
X033891Y021542D01*
X033967Y021465D01*
X033814Y021235D02*
X033967Y021081D01*
X034121Y021081D02*
X034428Y021388D01*
X034428Y021081D02*
X034121Y021081D01*
X033507Y021158D02*
X033430Y021081D01*
X033277Y021081D01*
X033200Y021158D01*
X033200Y021465D01*
X033277Y021542D01*
X033430Y021542D01*
X033507Y021465D01*
X029660Y025179D02*
X029660Y025486D01*
X029660Y025332D02*
X029200Y025332D01*
X029353Y025179D01*
X029276Y025639D02*
X029200Y025716D01*
X029200Y025870D01*
X029276Y025946D01*
X029583Y025639D01*
X029660Y025716D01*
X029660Y025870D01*
X029583Y025946D01*
X029276Y025946D01*
X029200Y026100D02*
X029660Y026100D01*
X029507Y026100D02*
X029353Y026330D01*
X029507Y026100D02*
X029660Y026330D01*
X029583Y025639D02*
X029276Y025639D01*
X024160Y025205D02*
X023700Y025205D01*
X023930Y024975D01*
X023930Y025282D01*
X024007Y024821D02*
X024083Y024821D01*
X024160Y024745D01*
X024160Y024591D01*
X024083Y024514D01*
X024007Y024514D01*
X023930Y024591D01*
X023930Y024745D01*
X024007Y024821D01*
X023930Y024745D02*
X023853Y024821D01*
X023776Y024821D01*
X023700Y024745D01*
X023700Y024591D01*
X023776Y024514D01*
X023853Y024514D01*
X023930Y024591D01*
X023853Y024361D02*
X023776Y024361D01*
X023700Y024284D01*
X023700Y024131D01*
X023776Y024054D01*
X023700Y023747D02*
X024160Y023747D01*
X024160Y023594D02*
X024160Y023901D01*
X024160Y024054D02*
X023853Y024361D01*
X024160Y024361D02*
X024160Y024054D01*
X023853Y023594D02*
X023700Y023747D01*
X023853Y023440D02*
X024160Y023440D01*
X023930Y023440D02*
X023930Y023133D01*
X023853Y023133D02*
X023700Y023287D01*
X023853Y023440D01*
X023853Y023133D02*
X024160Y023133D01*
X024083Y022980D02*
X023930Y022980D01*
X023930Y022826D01*
X024083Y022673D02*
X024160Y022750D01*
X024160Y022903D01*
X024083Y022980D01*
X023776Y022980D02*
X023700Y022903D01*
X023700Y022750D01*
X023776Y022673D01*
X024083Y022673D01*
X024160Y022519D02*
X024160Y022212D01*
X023700Y022212D01*
X023700Y022519D01*
X023930Y022366D02*
X023930Y022212D01*
X023700Y022059D02*
X024160Y022059D01*
X024160Y021752D02*
X023700Y021752D01*
X023853Y021906D01*
X023700Y022059D01*
X023700Y021599D02*
X023700Y021292D01*
X023700Y021445D02*
X024160Y021445D01*
X024160Y021138D02*
X023853Y021138D01*
X023700Y020985D01*
X023853Y020831D01*
X024160Y020831D01*
X023930Y020831D02*
X023930Y021138D01*
X019955Y021485D02*
X019648Y021485D01*
X019648Y021561D02*
X019725Y021638D01*
X019878Y021638D01*
X019955Y021561D01*
X019955Y021485D01*
X019878Y021331D02*
X019725Y021331D01*
X019648Y021408D01*
X019648Y021561D01*
X019494Y021638D02*
X019264Y021638D01*
X019188Y021561D01*
X019264Y021485D01*
X019418Y021485D01*
X019494Y021408D01*
X019418Y021331D01*
X019188Y021331D01*
X019034Y021331D02*
X019034Y021561D01*
X018957Y021638D01*
X018727Y021638D01*
X018727Y021331D01*
X018574Y021485D02*
X018267Y021485D01*
X018267Y021561D02*
X018343Y021638D01*
X018497Y021638D01*
X018574Y021561D01*
X018574Y021485D01*
X018497Y021331D02*
X018343Y021331D01*
X018267Y021408D01*
X018267Y021561D01*
X018113Y021638D02*
X017883Y021638D01*
X017806Y021561D01*
X017806Y021408D01*
X017883Y021331D01*
X018113Y021331D01*
X017653Y021331D02*
X017499Y021331D01*
X017576Y021331D02*
X017576Y021638D01*
X017499Y021638D01*
X017576Y021792D02*
X017576Y021868D01*
X017039Y021792D02*
X017039Y021331D01*
X017346Y021331D01*
X016425Y021331D02*
X016425Y021792D01*
X016425Y021638D02*
X016195Y021638D01*
X016118Y021561D01*
X016118Y021408D01*
X016195Y021331D01*
X016425Y021331D01*
X015965Y021485D02*
X015658Y021485D01*
X015658Y021561D02*
X015735Y021638D01*
X015888Y021638D01*
X015965Y021561D01*
X015965Y021485D01*
X015888Y021331D02*
X015735Y021331D01*
X015658Y021408D01*
X015658Y021561D01*
X015504Y021638D02*
X015351Y021638D01*
X015428Y021715D02*
X015428Y021408D01*
X015504Y021331D01*
X015197Y021638D02*
X015121Y021638D01*
X014967Y021485D01*
X014967Y021638D02*
X014967Y021331D01*
X014814Y021408D02*
X014814Y021561D01*
X014737Y021638D01*
X014584Y021638D01*
X014507Y021561D01*
X014507Y021408D01*
X014584Y021331D01*
X014737Y021331D01*
X014814Y021408D01*
X014353Y021408D02*
X014353Y021561D01*
X014277Y021638D01*
X014046Y021638D01*
X014046Y021178D01*
X014046Y021331D02*
X014277Y021331D01*
X014353Y021408D01*
X013893Y021331D02*
X013893Y021561D01*
X013816Y021638D01*
X013586Y021638D01*
X013586Y021331D01*
X013433Y021408D02*
X013433Y021792D01*
X013126Y021792D02*
X013126Y021408D01*
X013202Y021331D01*
X013356Y021331D01*
X013433Y021408D01*
X012512Y021408D02*
X012435Y021331D01*
X012282Y021331D01*
X012205Y021408D01*
X012512Y021715D01*
X012512Y021408D01*
X012512Y021715D02*
X012435Y021792D01*
X012282Y021792D01*
X012205Y021715D01*
X012205Y021408D01*
X012051Y021408D02*
X012051Y021331D01*
X011975Y021331D01*
X011975Y021408D01*
X012051Y021408D01*
X011821Y021408D02*
X011821Y021485D01*
X011745Y021561D01*
X011668Y021561D01*
X011745Y021561D02*
X011821Y021638D01*
X011821Y021715D01*
X011745Y021792D01*
X011591Y021792D01*
X011514Y021715D01*
X011514Y021408D02*
X011591Y021331D01*
X011745Y021331D01*
X011821Y021408D01*
X010900Y021485D02*
X010594Y021485D01*
X010594Y021561D02*
X010670Y021638D01*
X010824Y021638D01*
X010900Y021561D01*
X010900Y021485D01*
X010824Y021331D02*
X010670Y021331D01*
X010594Y021408D01*
X010594Y021561D01*
X010440Y021638D02*
X010210Y021485D01*
X010440Y021331D01*
X010210Y021331D02*
X010210Y021792D01*
X009980Y021792D02*
X009980Y021868D01*
X009980Y021638D02*
X009980Y021331D01*
X010056Y021331D02*
X009903Y021331D01*
X009749Y021331D02*
X009596Y021331D01*
X009673Y021331D02*
X009673Y021792D01*
X009596Y021792D01*
X009443Y021638D02*
X009443Y021331D01*
X009443Y021561D02*
X009136Y021561D01*
X009136Y021638D02*
X009289Y021792D01*
X009443Y021638D01*
X009136Y021638D02*
X009136Y021331D01*
X008982Y021485D02*
X008675Y021485D01*
X008675Y021561D02*
X008752Y021638D01*
X008905Y021638D01*
X008982Y021561D01*
X008982Y021485D01*
X008905Y021331D02*
X008752Y021331D01*
X008675Y021408D01*
X008675Y021561D01*
X008522Y021638D02*
X008445Y021638D01*
X008292Y021485D01*
X008292Y021638D02*
X008292Y021331D01*
X008138Y021331D02*
X008138Y021561D01*
X008061Y021638D01*
X007908Y021638D01*
X007908Y021485D02*
X008138Y021485D01*
X008138Y021331D02*
X007908Y021331D01*
X007831Y021408D01*
X007908Y021485D01*
X007678Y021561D02*
X007678Y021331D01*
X007678Y021561D02*
X007601Y021638D01*
X007448Y021638D01*
X007371Y021561D01*
X007217Y021485D02*
X007217Y021408D01*
X007141Y021331D01*
X006987Y021331D01*
X006910Y021408D01*
X006987Y021561D02*
X006910Y021638D01*
X006910Y021715D01*
X006987Y021792D01*
X007141Y021792D01*
X007217Y021715D01*
X007141Y021561D02*
X007217Y021485D01*
X007141Y021561D02*
X006987Y021561D01*
X006757Y021561D02*
X006450Y021561D01*
X007371Y021792D02*
X007371Y021331D01*
X007381Y022581D02*
X007304Y022658D01*
X007304Y022811D01*
X007381Y022888D01*
X007534Y022888D01*
X007611Y022811D01*
X007611Y022735D01*
X007304Y022735D01*
X007381Y022581D02*
X007534Y022581D01*
X007764Y022658D02*
X007841Y022735D01*
X008071Y022735D01*
X008071Y022811D02*
X008071Y022581D01*
X007841Y022581D01*
X007764Y022658D01*
X007841Y022888D02*
X007995Y022888D01*
X008071Y022811D01*
X008225Y022888D02*
X008378Y022888D01*
X008301Y022965D02*
X008301Y022658D01*
X008378Y022581D01*
X008532Y022581D02*
X008685Y022581D01*
X008608Y022581D02*
X008608Y022888D01*
X008532Y022888D01*
X008608Y023042D02*
X008608Y023118D01*
X008839Y022888D02*
X008992Y022581D01*
X009145Y022888D01*
X009299Y022811D02*
X009376Y022888D01*
X009529Y022888D01*
X009606Y022811D01*
X009606Y022735D01*
X009299Y022735D01*
X009299Y022811D02*
X009299Y022658D01*
X009376Y022581D01*
X009529Y022581D01*
X010220Y022658D02*
X010296Y022581D01*
X010450Y022581D01*
X010527Y022658D01*
X010680Y022658D02*
X010680Y022811D01*
X010757Y022888D01*
X010910Y022888D01*
X010987Y022811D01*
X010987Y022658D01*
X010910Y022581D01*
X010757Y022581D01*
X010680Y022658D01*
X010527Y022965D02*
X010450Y023042D01*
X010296Y023042D01*
X010220Y022965D01*
X010220Y022658D01*
X011141Y022581D02*
X011141Y022888D01*
X011217Y022888D01*
X011294Y022811D01*
X011371Y022888D01*
X011447Y022811D01*
X011447Y022581D01*
X011294Y022581D02*
X011294Y022811D01*
X011601Y022888D02*
X011601Y022581D01*
X011754Y022581D02*
X011754Y022811D01*
X011831Y022888D01*
X011908Y022811D01*
X011908Y022581D01*
X012061Y022658D02*
X012138Y022581D01*
X012292Y022581D01*
X012368Y022658D01*
X012368Y022811D01*
X012292Y022888D01*
X012138Y022888D01*
X012061Y022811D01*
X012061Y022658D01*
X011754Y022811D02*
X011678Y022888D01*
X011601Y022888D01*
X012522Y022888D02*
X012522Y022581D01*
X012829Y022581D02*
X012829Y022811D01*
X012752Y022888D01*
X012522Y022888D01*
X012982Y022811D02*
X013059Y022735D01*
X013212Y022735D01*
X013289Y022658D01*
X013212Y022581D01*
X012982Y022581D01*
X012982Y022811D02*
X013059Y022888D01*
X013289Y022888D01*
X013903Y022888D02*
X013903Y022581D01*
X013903Y022811D02*
X014210Y022811D01*
X014210Y022888D02*
X014210Y022581D01*
X014440Y022658D02*
X014440Y022965D01*
X014363Y022888D02*
X014517Y022888D01*
X014670Y022888D02*
X014824Y022888D01*
X014747Y022965D02*
X014747Y022658D01*
X014824Y022581D01*
X014977Y022581D02*
X014977Y022888D01*
X014977Y022735D02*
X015131Y022888D01*
X015207Y022888D01*
X015361Y022888D02*
X015438Y022888D01*
X015438Y022581D01*
X015514Y022581D02*
X015361Y022581D01*
X015668Y022581D02*
X015668Y023042D01*
X015668Y022888D02*
X015898Y022888D01*
X015975Y022811D01*
X015975Y022658D01*
X015898Y022581D01*
X015668Y022581D01*
X016128Y022658D02*
X016128Y022888D01*
X016128Y022658D02*
X016205Y022581D01*
X016435Y022581D01*
X016435Y022888D01*
X016589Y022888D02*
X016742Y022888D01*
X016665Y022965D02*
X016665Y022658D01*
X016742Y022581D01*
X016895Y022581D02*
X017049Y022581D01*
X016972Y022581D02*
X016972Y022888D01*
X016895Y022888D01*
X016972Y023042D02*
X016972Y023118D01*
X017202Y022811D02*
X017202Y022658D01*
X017279Y022581D01*
X017433Y022581D01*
X017509Y022658D01*
X017509Y022811D01*
X017433Y022888D01*
X017279Y022888D01*
X017202Y022811D01*
X017663Y022888D02*
X017663Y022581D01*
X017970Y022581D02*
X017970Y022811D01*
X017893Y022888D01*
X017663Y022888D01*
X015438Y023042D02*
X015438Y023118D01*
X014517Y022581D02*
X014440Y022658D01*
X014210Y022888D02*
X014056Y023042D01*
X013903Y022888D01*
X013903Y023831D02*
X014210Y024138D01*
X014210Y024215D01*
X014133Y024292D01*
X013980Y024292D01*
X013903Y024215D01*
X013596Y024292D02*
X013596Y023831D01*
X013749Y023831D02*
X013442Y023831D01*
X013289Y023908D02*
X013212Y023831D01*
X013059Y023831D01*
X012982Y023908D01*
X013289Y024215D01*
X013289Y023908D01*
X013442Y024138D02*
X013596Y024292D01*
X013289Y024215D02*
X013212Y024292D01*
X013059Y024292D01*
X012982Y024215D01*
X012982Y023908D01*
X012829Y023831D02*
X012522Y023831D01*
X012829Y024138D01*
X012829Y024215D01*
X012752Y024292D01*
X012598Y024292D01*
X012522Y024215D01*
X011908Y024061D02*
X011908Y023985D01*
X011601Y023985D01*
X011601Y024061D02*
X011678Y024138D01*
X011831Y024138D01*
X011908Y024061D01*
X011831Y023831D02*
X011678Y023831D01*
X011601Y023908D01*
X011601Y024061D01*
X011447Y023831D02*
X011294Y023831D01*
X011371Y023831D02*
X011371Y024292D01*
X011294Y024292D01*
X011064Y024138D02*
X011141Y024061D01*
X011141Y023908D01*
X011064Y023831D01*
X010834Y023831D01*
X010834Y023678D02*
X010834Y024138D01*
X011064Y024138D01*
X010680Y024138D02*
X010603Y024138D01*
X010450Y023985D01*
X010450Y024138D02*
X010450Y023831D01*
X010296Y023831D02*
X010066Y023831D01*
X009990Y023908D01*
X010066Y023985D01*
X010296Y023985D01*
X010296Y024061D02*
X010296Y023831D01*
X010296Y024061D02*
X010220Y024138D01*
X010066Y024138D01*
X009836Y024292D02*
X009836Y023831D01*
X009529Y023831D02*
X009529Y024292D01*
X009683Y024138D01*
X009836Y024292D01*
X008915Y024061D02*
X008915Y023985D01*
X008608Y023985D01*
X008608Y024061D02*
X008685Y024138D01*
X008839Y024138D01*
X008915Y024061D01*
X008839Y023831D02*
X008685Y023831D01*
X008608Y023908D01*
X008608Y024061D01*
X008455Y024138D02*
X008301Y023831D01*
X008148Y024138D01*
X007995Y024061D02*
X007918Y024138D01*
X007764Y024138D01*
X007688Y024061D01*
X007688Y023908D01*
X007764Y023831D01*
X007918Y023831D01*
X007995Y023985D02*
X007688Y023985D01*
X007534Y024138D02*
X007381Y024138D01*
X007457Y024215D02*
X007457Y023908D01*
X007534Y023831D01*
X007227Y023908D02*
X007150Y023831D01*
X006997Y023831D01*
X006920Y023908D01*
X006997Y024061D02*
X006920Y024138D01*
X006920Y024215D01*
X006997Y024292D01*
X007150Y024292D01*
X007227Y024215D01*
X007150Y024061D02*
X007227Y023985D01*
X007227Y023908D01*
X007150Y024061D02*
X006997Y024061D01*
X006306Y024138D02*
X006153Y024138D01*
X006230Y024215D02*
X006230Y023908D01*
X006306Y023831D01*
X005999Y023831D02*
X005999Y024061D01*
X005923Y024138D01*
X005769Y024138D01*
X005693Y024061D01*
X005539Y024138D02*
X005309Y024138D01*
X005232Y024061D01*
X005232Y023908D01*
X005309Y023831D01*
X005539Y023831D01*
X005539Y023755D02*
X005539Y024138D01*
X005693Y024292D02*
X005693Y023831D01*
X005539Y023755D02*
X005462Y023678D01*
X005386Y023678D01*
X005079Y023831D02*
X004925Y023831D01*
X005002Y023831D02*
X005002Y024138D01*
X004925Y024138D01*
X004772Y024138D02*
X004695Y024138D01*
X004542Y023985D01*
X004542Y024138D02*
X004542Y023831D01*
X004388Y023831D02*
X004158Y023831D01*
X004081Y023908D01*
X004081Y024138D01*
X003928Y024061D02*
X003851Y024138D01*
X003621Y024138D01*
X003621Y023678D01*
X003621Y023831D02*
X003851Y023831D01*
X003928Y023908D01*
X003928Y024061D01*
X003467Y024061D02*
X003391Y024138D01*
X003237Y024138D01*
X003160Y024061D01*
X003160Y023908D01*
X003237Y023831D01*
X003391Y023831D01*
X003467Y023908D01*
X003467Y024061D01*
X003007Y023908D02*
X002930Y023831D01*
X002777Y023831D01*
X002700Y023908D01*
X002700Y024215D01*
X002777Y024292D01*
X002930Y024292D01*
X003007Y024215D01*
X003237Y023118D02*
X003237Y023042D01*
X003237Y022888D02*
X003237Y022581D01*
X003160Y022581D02*
X003314Y022581D01*
X003467Y022658D02*
X003544Y022581D01*
X003774Y022581D01*
X003928Y022658D02*
X003928Y022811D01*
X004004Y022888D01*
X004158Y022888D01*
X004235Y022811D01*
X004235Y022735D01*
X003928Y022735D01*
X003928Y022658D02*
X004004Y022581D01*
X004158Y022581D01*
X004388Y022581D02*
X004388Y022888D01*
X004618Y022888D01*
X004695Y022811D01*
X004695Y022581D01*
X004848Y022581D02*
X005079Y022581D01*
X005155Y022658D01*
X005079Y022735D01*
X004925Y022735D01*
X004848Y022811D01*
X004925Y022888D01*
X005155Y022888D01*
X005309Y022811D02*
X005386Y022888D01*
X005539Y022888D01*
X005616Y022811D01*
X005616Y022735D01*
X005309Y022735D01*
X005309Y022811D02*
X005309Y022658D01*
X005386Y022581D01*
X005539Y022581D01*
X005769Y022581D02*
X005769Y022658D01*
X005846Y022658D01*
X005846Y022581D01*
X005769Y022581D01*
X005769Y022811D02*
X005769Y022888D01*
X005846Y022888D01*
X005846Y022811D01*
X005769Y022811D01*
X006460Y022658D02*
X006537Y022581D01*
X006690Y022581D01*
X006767Y022658D01*
X006920Y022735D02*
X007074Y022888D01*
X007150Y022888D01*
X006920Y022888D02*
X006920Y022581D01*
X006767Y022965D02*
X006690Y023042D01*
X006537Y023042D01*
X006460Y022965D01*
X006460Y022658D01*
X007995Y023985D02*
X007995Y024061D01*
X007871Y026178D02*
X007871Y026638D01*
X008101Y026638D01*
X008178Y026561D01*
X008178Y026408D01*
X008101Y026331D01*
X007871Y026331D01*
X007717Y026331D02*
X007410Y026331D01*
X007717Y026638D01*
X007717Y026715D01*
X007641Y026792D01*
X007487Y026792D01*
X007410Y026715D01*
X007257Y026715D02*
X007180Y026792D01*
X007027Y026792D01*
X006950Y026715D01*
X007257Y026715D02*
X007257Y026638D01*
X006950Y026331D01*
X007257Y026331D01*
X005002Y024368D02*
X005002Y024292D01*
X004388Y024138D02*
X004388Y023755D01*
X004311Y023678D01*
X004235Y023678D01*
X003774Y022888D02*
X003544Y022888D01*
X003467Y022811D01*
X003467Y022658D01*
X003237Y022888D02*
X003160Y022888D01*
X003007Y022581D02*
X002700Y022581D01*
X002700Y023042D01*
X003121Y026178D02*
X003121Y026638D01*
X003351Y026638D01*
X003428Y026561D01*
X003428Y026408D01*
X003351Y026331D01*
X003121Y026331D01*
X002967Y026331D02*
X002660Y026331D01*
X002967Y026638D01*
X002967Y026715D01*
X002891Y026792D01*
X002737Y026792D01*
X002660Y026715D01*
X002507Y026715D02*
X002430Y026792D01*
X002277Y026792D01*
X002200Y026715D01*
X002507Y026715D02*
X002507Y026638D01*
X002200Y026331D01*
X002507Y026331D01*
X006200Y028831D02*
X006200Y029292D01*
X006353Y029138D01*
X006507Y029292D01*
X006507Y028831D01*
X006660Y028831D02*
X006660Y029292D01*
X006660Y029061D02*
X006967Y029061D01*
X007121Y029138D02*
X007428Y029138D01*
X007121Y028831D01*
X007428Y028831D01*
X006967Y028831D02*
X006967Y029292D01*
X012700Y027388D02*
X012853Y027542D01*
X012853Y027081D01*
X012700Y027081D02*
X013007Y027081D01*
X013160Y027158D02*
X013467Y027465D01*
X013467Y027158D01*
X013391Y027081D01*
X013237Y027081D01*
X013160Y027158D01*
X013160Y027465D01*
X013237Y027542D01*
X013391Y027542D01*
X013467Y027465D01*
X013621Y027465D02*
X013621Y027158D01*
X013928Y027465D01*
X013928Y027158D01*
X013851Y027081D01*
X013698Y027081D01*
X013621Y027158D01*
X013621Y027465D02*
X013698Y027542D01*
X013851Y027542D01*
X013928Y027465D01*
X014081Y027388D02*
X014311Y027388D01*
X014388Y027311D01*
X014388Y027081D01*
X014081Y027081D02*
X014081Y027388D01*
X014210Y023831D02*
X013903Y023831D01*
X009980Y021638D02*
X009903Y021638D01*
X010260Y018592D02*
X010200Y018532D01*
X010200Y018291D01*
X010260Y018231D01*
X010380Y018231D01*
X010440Y018291D01*
X010568Y018291D02*
X010628Y018231D01*
X010748Y018231D01*
X010809Y018291D01*
X010809Y018532D01*
X010748Y018592D01*
X010628Y018592D01*
X010568Y018532D01*
X010568Y018471D01*
X010628Y018411D01*
X010809Y018411D01*
X010440Y018532D02*
X010380Y018592D01*
X010260Y018592D01*
X010160Y017042D02*
X010160Y016581D01*
X010007Y016581D02*
X010007Y016888D01*
X010160Y016811D02*
X010467Y016811D01*
X010467Y016581D02*
X010467Y017042D01*
X010007Y016581D02*
X009777Y016581D01*
X009700Y016658D01*
X009700Y016888D01*
X009547Y016965D02*
X009240Y016658D01*
X009316Y016581D01*
X009470Y016581D01*
X009547Y016658D01*
X009547Y016965D01*
X009470Y017042D01*
X009316Y017042D01*
X009240Y016965D01*
X009240Y016658D01*
X009086Y016581D02*
X008779Y016581D01*
X008933Y016581D02*
X008933Y017042D01*
X008779Y016888D01*
X007621Y018081D02*
X007621Y018158D01*
X007928Y018465D01*
X007928Y018542D01*
X007621Y018542D01*
X007467Y018388D02*
X007467Y018081D01*
X007237Y018081D01*
X007160Y018158D01*
X007160Y018388D01*
X007007Y018311D02*
X006700Y018311D01*
X006930Y018542D01*
X006930Y018081D01*
X012700Y016832D02*
X012700Y016591D01*
X012760Y016531D01*
X012880Y016531D01*
X012940Y016591D01*
X013068Y016591D02*
X013128Y016531D01*
X013248Y016531D01*
X013309Y016591D01*
X013309Y016711D01*
X013248Y016771D01*
X013188Y016771D01*
X013068Y016711D01*
X013068Y016892D01*
X013309Y016892D01*
X012940Y016832D02*
X012880Y016892D01*
X012760Y016892D01*
X012700Y016832D01*
X015950Y017956D02*
X016257Y017956D01*
X016103Y017956D02*
X016103Y018417D01*
X015950Y018263D01*
X016410Y018263D02*
X016410Y018033D01*
X016487Y017956D01*
X016717Y017956D01*
X016717Y018263D01*
D12*
X014047Y016211D02*
X014047Y016026D01*
X014047Y016211D02*
X013985Y016273D01*
X013800Y016273D01*
X013800Y016026D01*
X013679Y016088D02*
X013617Y016026D01*
X013493Y016026D01*
X013432Y016088D01*
X013679Y016335D01*
X013679Y016088D01*
X013679Y016335D02*
X013617Y016397D01*
X013493Y016397D01*
X013432Y016335D01*
X013432Y016088D01*
X013310Y016088D02*
X013248Y016026D01*
X013125Y016026D01*
X013063Y016088D01*
X013310Y016335D01*
X013310Y016088D01*
X013063Y016088D02*
X013063Y016335D01*
X013125Y016397D01*
X013248Y016397D01*
X013310Y016335D01*
X012942Y016026D02*
X012695Y016026D01*
X012818Y016026D02*
X012818Y016397D01*
X012695Y016273D01*
X011297Y017726D02*
X011297Y017911D01*
X011235Y017973D01*
X011050Y017973D01*
X011050Y017726D01*
X010929Y017788D02*
X010867Y017726D01*
X010743Y017726D01*
X010682Y017788D01*
X010929Y018035D01*
X010929Y017788D01*
X010929Y018035D02*
X010867Y018097D01*
X010743Y018097D01*
X010682Y018035D01*
X010682Y017788D01*
X010560Y017788D02*
X010498Y017726D01*
X010375Y017726D01*
X010313Y017788D01*
X010560Y018035D01*
X010560Y017788D01*
X010313Y017788D02*
X010313Y018035D01*
X010375Y018097D01*
X010498Y018097D01*
X010560Y018035D01*
X010192Y017726D02*
X009945Y017726D01*
X010068Y017726D02*
X010068Y018097D01*
X009945Y017973D01*
X017195Y015597D02*
X017195Y015226D01*
X017442Y015226D02*
X017442Y015597D01*
X017318Y015473D01*
X017195Y015597D01*
X017563Y015535D02*
X017563Y015288D01*
X017625Y015226D01*
X017748Y015226D01*
X017810Y015288D01*
X017932Y015350D02*
X018117Y015350D01*
X018179Y015411D01*
X018179Y015535D01*
X018117Y015597D01*
X017932Y015597D01*
X017932Y015226D01*
X017810Y015535D02*
X017748Y015597D01*
X017625Y015597D01*
X017563Y015535D01*
X018300Y015473D02*
X018423Y015597D01*
X018423Y015226D01*
X018300Y015226D02*
X018547Y015226D01*
X018668Y015226D02*
X018668Y015288D01*
X018915Y015535D01*
X018915Y015597D01*
X018668Y015597D01*
X019037Y015535D02*
X019037Y015288D01*
X019283Y015535D01*
X019283Y015288D01*
X019222Y015226D01*
X019098Y015226D01*
X019037Y015288D01*
X019037Y015535D02*
X019098Y015597D01*
X019222Y015597D01*
X019283Y015535D01*
X019405Y015535D02*
X019467Y015597D01*
X019590Y015597D01*
X019652Y015535D01*
X019652Y015473D01*
X019405Y015226D01*
X019652Y015226D01*
X019773Y015411D02*
X020020Y015411D01*
X020142Y015288D02*
X020203Y015226D01*
X020327Y015226D01*
X020388Y015288D01*
X020388Y015350D01*
X020327Y015411D01*
X020265Y015411D01*
X020327Y015411D02*
X020388Y015473D01*
X020388Y015535D01*
X020327Y015597D01*
X020203Y015597D01*
X020142Y015535D01*
X020510Y015288D02*
X020572Y015288D01*
X020572Y015226D01*
X020510Y015226D01*
X020510Y015288D01*
X020694Y015288D02*
X020756Y015226D01*
X020879Y015226D01*
X020941Y015288D01*
X020941Y015350D01*
X020879Y015411D01*
X020817Y015411D01*
X020879Y015411D02*
X020941Y015473D01*
X020941Y015535D01*
X020879Y015597D01*
X020756Y015597D01*
X020694Y015535D01*
X015853Y008029D02*
X015915Y007967D01*
X015915Y007782D01*
X015545Y007782D01*
X015545Y007967D01*
X015606Y008029D01*
X015668Y008029D01*
X015730Y007967D01*
X015730Y007782D01*
X015792Y007660D02*
X015853Y007660D01*
X015915Y007599D01*
X015915Y007475D01*
X015853Y007413D01*
X015853Y007292D02*
X015545Y007292D01*
X015606Y007413D02*
X015668Y007413D01*
X015730Y007475D01*
X015730Y007599D01*
X015792Y007660D01*
X015606Y007660D02*
X015545Y007599D01*
X015545Y007475D01*
X015606Y007413D01*
X015853Y007292D02*
X015915Y007230D01*
X015915Y007107D01*
X015853Y007045D01*
X015545Y007045D01*
X015545Y006924D02*
X015915Y006677D01*
X015915Y006555D02*
X015915Y006431D01*
X015915Y006493D02*
X015545Y006493D01*
X015545Y006431D02*
X015545Y006555D01*
X015606Y006310D02*
X015545Y006248D01*
X015545Y006063D01*
X015915Y006063D01*
X015915Y006248D01*
X015853Y006310D01*
X015606Y006310D01*
X015545Y005941D02*
X015545Y005695D01*
X015545Y005573D02*
X015545Y005326D01*
X015915Y005326D01*
X015730Y005326D02*
X015730Y005450D01*
X015915Y005818D02*
X015545Y005818D01*
X015730Y007967D02*
X015792Y008029D01*
X015853Y008029D01*
X013317Y007620D02*
X013124Y007426D01*
X013317Y007426D01*
X013317Y007620D02*
X013124Y007620D01*
X013022Y007571D02*
X012829Y007571D01*
X012829Y007426D02*
X012829Y007717D01*
X012728Y007717D02*
X012728Y007426D01*
X012534Y007426D02*
X012534Y007717D01*
X012631Y007620D01*
X012728Y007717D01*
X013022Y007717D02*
X013022Y007426D01*
X012433Y007426D02*
X012240Y007426D01*
X012433Y007620D01*
X012433Y007668D01*
X012385Y007717D01*
X012288Y007717D01*
X012240Y007668D01*
X012042Y007717D02*
X012042Y007426D01*
X012138Y007426D02*
X011945Y007426D01*
X011945Y007620D02*
X012042Y007717D01*
X010367Y003197D02*
X010182Y003197D01*
X010182Y002826D01*
X010367Y002826D01*
X010429Y002888D01*
X010429Y003135D01*
X010367Y003197D01*
X010060Y003197D02*
X010060Y002826D01*
X009813Y003197D01*
X009813Y002826D01*
X009692Y002888D02*
X009692Y003011D01*
X009568Y003011D01*
X009445Y002888D02*
X009507Y002826D01*
X009630Y002826D01*
X009692Y002888D01*
X009692Y003135D02*
X009630Y003197D01*
X009507Y003197D01*
X009445Y003135D01*
X009445Y002888D01*
X009445Y002617D02*
X009590Y002617D01*
X009638Y002568D01*
X009638Y002520D01*
X009590Y002471D01*
X009445Y002471D01*
X009445Y002326D02*
X009445Y002617D01*
X009590Y002471D02*
X009638Y002423D01*
X009638Y002375D01*
X009590Y002326D01*
X009445Y002326D01*
X009740Y002326D02*
X009933Y002326D01*
X010034Y002326D02*
X010034Y002520D01*
X010131Y002617D01*
X010228Y002520D01*
X010228Y002326D01*
X010329Y002375D02*
X010377Y002326D01*
X010474Y002326D01*
X010522Y002375D01*
X010624Y002423D02*
X010817Y002617D01*
X010624Y002617D02*
X010624Y002326D01*
X010672Y002471D02*
X010817Y002326D01*
X010522Y002568D02*
X010474Y002617D01*
X010377Y002617D01*
X010329Y002568D01*
X010329Y002375D01*
X010228Y002471D02*
X010034Y002471D01*
X009740Y002326D02*
X009740Y002617D01*
X004344Y002617D02*
X004344Y002326D01*
X004150Y002617D01*
X004150Y002326D01*
X004049Y002326D02*
X003856Y002326D01*
X003856Y002617D01*
X004049Y002617D01*
X003952Y002471D02*
X003856Y002471D01*
X003755Y002326D02*
X003561Y002326D01*
X003561Y002617D01*
X003755Y002617D01*
X003658Y002471D02*
X003561Y002471D01*
X003460Y002471D02*
X003412Y002423D01*
X003266Y002423D01*
X003266Y002326D02*
X003266Y002617D01*
X003412Y002617D01*
X003460Y002568D01*
X003460Y002471D01*
X003363Y002423D02*
X003460Y002326D01*
X003165Y002375D02*
X003165Y002471D01*
X003068Y002471D01*
X002972Y002375D02*
X003020Y002326D01*
X003117Y002326D01*
X003165Y002375D01*
X003165Y002568D02*
X003117Y002617D01*
X003020Y002617D01*
X002972Y002568D01*
X002972Y002375D01*
X003340Y002826D02*
X003525Y002826D01*
X003587Y002888D01*
X003587Y003135D01*
X003525Y003197D01*
X003340Y003197D01*
X003340Y002826D01*
X003832Y002826D02*
X003832Y003197D01*
X003955Y003197D02*
X003708Y003197D01*
X004077Y003197D02*
X004262Y003197D01*
X004324Y003135D01*
X004324Y003011D01*
X004262Y002950D01*
X004077Y002950D01*
X004200Y002950D02*
X004324Y002826D01*
X004077Y002826D02*
X004077Y003197D01*
X003515Y008826D02*
X003515Y009073D01*
X003515Y008950D02*
X003145Y008950D01*
X003268Y008826D01*
X003206Y009195D02*
X003145Y009256D01*
X003145Y009380D01*
X003206Y009441D01*
X003453Y009195D01*
X003515Y009256D01*
X003515Y009380D01*
X003453Y009441D01*
X003206Y009441D01*
X003206Y009563D02*
X003145Y009625D01*
X003145Y009748D01*
X003206Y009810D01*
X003453Y009563D01*
X003515Y009625D01*
X003515Y009748D01*
X003453Y009810D01*
X003206Y009810D01*
X003268Y009931D02*
X003268Y010116D01*
X003330Y010178D01*
X003515Y010178D01*
X003515Y009931D02*
X003268Y009931D01*
X003206Y009563D02*
X003453Y009563D01*
X003453Y009195D02*
X003206Y009195D01*
X001380Y016715D02*
X001195Y016715D01*
X001195Y016839D02*
X001380Y016839D01*
X001442Y016777D01*
X001380Y016715D01*
X001380Y016839D02*
X001442Y016900D01*
X001442Y016962D01*
X001195Y016962D01*
X001195Y017084D02*
X001442Y017084D01*
X001442Y017331D02*
X001257Y017331D01*
X001195Y017269D01*
X001195Y017084D01*
X001195Y017453D02*
X001195Y017576D01*
X001195Y017514D02*
X001442Y017514D01*
X001442Y017576D01*
X001380Y017697D02*
X001195Y017697D01*
X001380Y017697D02*
X001442Y017759D01*
X001442Y017944D01*
X001195Y017944D01*
X001195Y018066D02*
X001442Y018066D01*
X001442Y018313D02*
X001257Y018313D01*
X001195Y018251D01*
X001195Y018066D01*
X001565Y017514D02*
X001627Y017514D01*
X001565Y018496D02*
X001195Y018496D01*
X001195Y018435D02*
X001195Y018558D01*
X001195Y018680D02*
X001195Y018865D01*
X001257Y018927D01*
X001318Y018865D01*
X001318Y018680D01*
X001380Y018680D02*
X001195Y018680D01*
X001380Y018680D02*
X001442Y018741D01*
X001442Y018865D01*
X001504Y019048D02*
X001565Y019110D01*
X001565Y019233D01*
X001504Y019295D01*
X001257Y019295D01*
X001195Y019233D01*
X001195Y019110D01*
X001257Y019048D01*
X001565Y019416D02*
X001195Y019663D01*
X001318Y019785D02*
X001318Y020031D01*
X001257Y020031D02*
X001380Y020031D01*
X001442Y019970D01*
X001442Y019846D01*
X001380Y019785D01*
X001318Y019785D01*
X001195Y019846D02*
X001195Y019970D01*
X001257Y020031D01*
X001195Y020154D02*
X001195Y020277D01*
X001195Y020215D02*
X001565Y020215D01*
X001565Y020277D01*
X001442Y020460D02*
X001380Y020398D01*
X001257Y020398D01*
X001195Y020460D01*
X001195Y020645D01*
X001072Y020645D02*
X001442Y020645D01*
X001442Y020460D01*
X001442Y020767D02*
X001442Y020829D01*
X001318Y020952D01*
X001318Y021074D02*
X001318Y021259D01*
X001257Y021321D01*
X001195Y021259D01*
X001195Y021074D01*
X001380Y021074D01*
X001442Y021135D01*
X001442Y021259D01*
X001380Y021442D02*
X001195Y021442D01*
X001195Y021565D02*
X001380Y021565D01*
X001442Y021504D01*
X001380Y021442D01*
X001380Y021565D02*
X001442Y021627D01*
X001442Y021689D01*
X001195Y021689D01*
X001318Y021810D02*
X001318Y022057D01*
X001257Y022057D02*
X001380Y022057D01*
X001442Y021995D01*
X001442Y021872D01*
X001380Y021810D01*
X001318Y021810D01*
X001195Y021872D02*
X001195Y021995D01*
X001257Y022057D01*
X001442Y022179D02*
X001195Y022302D01*
X001442Y022426D01*
X001380Y022547D02*
X001318Y022547D01*
X001318Y022794D01*
X001257Y022794D02*
X001380Y022794D01*
X001442Y022732D01*
X001442Y022609D01*
X001380Y022547D01*
X001195Y022609D02*
X001195Y022732D01*
X001257Y022794D01*
X001195Y022916D02*
X001257Y022978D01*
X001504Y022978D01*
X001442Y023039D02*
X001442Y022916D01*
X001442Y023161D02*
X001442Y023346D01*
X001380Y023408D01*
X001318Y023346D01*
X001318Y023223D01*
X001257Y023161D01*
X001195Y023223D01*
X001195Y023408D01*
X001195Y023776D02*
X001565Y023529D01*
X001380Y023897D02*
X001195Y023897D01*
X001195Y024021D02*
X001380Y024021D01*
X001442Y023959D01*
X001380Y023897D01*
X001380Y024021D02*
X001442Y024083D01*
X001442Y024144D01*
X001195Y024144D01*
X001257Y024266D02*
X001195Y024327D01*
X001195Y024451D01*
X001257Y024513D01*
X001380Y024513D01*
X001442Y024451D01*
X001442Y024327D01*
X001380Y024266D01*
X001257Y024266D01*
X001195Y024634D02*
X001195Y024819D01*
X001257Y024881D01*
X001380Y024881D01*
X001442Y024819D01*
X001442Y024634D01*
X001257Y025003D02*
X001195Y025003D01*
X001195Y025065D01*
X001257Y025065D01*
X001257Y025003D01*
X001257Y025187D02*
X001195Y025248D01*
X001195Y025433D01*
X001565Y025433D01*
X001442Y025433D02*
X001442Y025248D01*
X001380Y025187D01*
X001257Y025187D01*
X001195Y025555D02*
X001442Y025555D01*
X001442Y025802D02*
X001257Y025802D01*
X001195Y025740D01*
X001195Y025555D01*
X001195Y025923D02*
X001380Y025923D01*
X001442Y025985D01*
X001442Y026108D01*
X001380Y026170D01*
X001442Y026292D02*
X001442Y026416D01*
X001504Y026354D02*
X001257Y026354D01*
X001195Y026292D01*
X001195Y026170D02*
X001565Y026170D01*
X001565Y026599D02*
X001627Y026599D01*
X001442Y026599D02*
X001195Y026599D01*
X001195Y026538D02*
X001195Y026661D01*
X001195Y026783D02*
X001195Y026968D01*
X001257Y027029D01*
X001380Y027029D01*
X001442Y026968D01*
X001442Y026783D01*
X001133Y026783D01*
X001072Y026844D01*
X001072Y026906D01*
X001442Y026661D02*
X001442Y026599D01*
X001565Y027151D02*
X001195Y027398D01*
X001195Y027766D02*
X001565Y027519D01*
X001442Y027889D02*
X001380Y027889D01*
X001380Y027950D01*
X001442Y027950D01*
X001442Y027889D01*
X001442Y028072D02*
X001442Y028257D01*
X001380Y028319D01*
X001318Y028257D01*
X001318Y028133D01*
X001257Y028072D01*
X001195Y028133D01*
X001195Y028319D01*
X001257Y028440D02*
X001195Y028502D01*
X001195Y028687D01*
X001195Y028809D02*
X001257Y028871D01*
X001504Y028871D01*
X001442Y028932D02*
X001442Y028809D01*
X001442Y028687D02*
X001072Y028687D01*
X001257Y028440D02*
X001380Y028440D01*
X001442Y028502D01*
X001442Y028687D01*
X001442Y029055D02*
X001442Y029178D01*
X001504Y029116D02*
X001257Y029116D01*
X001195Y029055D01*
X001195Y029299D02*
X001380Y029299D01*
X001442Y029361D01*
X001442Y029485D01*
X001380Y029546D01*
X001565Y029546D02*
X001195Y029546D01*
X001195Y027950D02*
X001257Y027950D01*
X001257Y027889D01*
X001195Y027889D01*
X001195Y027950D01*
X001195Y020952D02*
X001442Y020952D01*
X001565Y018558D02*
X001565Y018496D01*
X027995Y025155D02*
X027995Y025341D01*
X028056Y025402D01*
X028118Y025402D01*
X028180Y025341D01*
X028180Y025155D01*
X028365Y025155D02*
X027995Y025155D01*
X028180Y025341D02*
X028242Y025402D01*
X028303Y025402D01*
X028365Y025341D01*
X028365Y025155D01*
X028365Y025524D02*
X028118Y025524D01*
X027995Y025647D01*
X028118Y025771D01*
X028365Y025771D01*
X028180Y025771D02*
X028180Y025524D01*
X027995Y025892D02*
X027995Y026139D01*
X027995Y026016D02*
X028365Y026016D01*
X028303Y026260D02*
X028242Y026260D01*
X028180Y026322D01*
X028180Y026446D01*
X028242Y026507D01*
X028303Y026507D01*
X028365Y026446D01*
X028365Y026322D01*
X028303Y026260D01*
X028180Y026322D02*
X028118Y026260D01*
X028056Y026260D01*
X027995Y026322D01*
X027995Y026446D01*
X028056Y026507D01*
X028118Y026507D01*
X028180Y026446D01*
X028180Y026629D02*
X028118Y026752D01*
X028118Y026814D01*
X028180Y026876D01*
X028303Y026876D01*
X028365Y026814D01*
X028365Y026690D01*
X028303Y026629D01*
X028180Y026629D02*
X027995Y026629D01*
X027995Y026876D01*
X032545Y027006D02*
X032545Y027130D01*
X032606Y027191D01*
X032853Y026945D01*
X032915Y027006D01*
X032915Y027130D01*
X032853Y027191D01*
X032606Y027191D01*
X032606Y027313D02*
X032545Y027375D01*
X032545Y027498D01*
X032606Y027560D01*
X032853Y027313D01*
X032915Y027375D01*
X032915Y027498D01*
X032853Y027560D01*
X032606Y027560D01*
X032668Y027681D02*
X032668Y027866D01*
X032730Y027928D01*
X032915Y027928D01*
X032915Y027681D02*
X032668Y027681D01*
X032606Y027313D02*
X032853Y027313D01*
X032853Y026945D02*
X032606Y026945D01*
X032545Y027006D01*
X032545Y026700D02*
X032915Y026700D01*
X032915Y026823D02*
X032915Y026576D01*
X032668Y026576D02*
X032545Y026700D01*
X031603Y017283D02*
X031665Y017221D01*
X031665Y017098D01*
X031603Y017036D01*
X031480Y017036D02*
X031418Y017160D01*
X031418Y017221D01*
X031480Y017283D01*
X031603Y017283D01*
X031480Y017036D02*
X031295Y017036D01*
X031295Y017283D01*
X031295Y016791D02*
X031665Y016791D01*
X031665Y016668D02*
X031665Y016915D01*
X031418Y016668D02*
X031295Y016791D01*
X031356Y016546D02*
X031295Y016485D01*
X031295Y016300D01*
X031665Y016300D01*
X031665Y016485D01*
X031603Y016546D01*
X031356Y016546D01*
X031295Y015810D02*
X031665Y015810D01*
X031542Y015686D01*
X031665Y015563D01*
X031295Y015563D01*
X031356Y015441D02*
X031603Y015441D01*
X031665Y015380D01*
X031665Y015256D01*
X031603Y015195D01*
X031356Y015195D01*
X031295Y015256D01*
X031295Y015380D01*
X031356Y015441D01*
X031542Y015318D02*
X031665Y015441D01*
X031603Y015073D02*
X031665Y015011D01*
X031665Y014888D01*
X031603Y014826D01*
X031480Y014888D02*
X031480Y015011D01*
X031542Y015073D01*
X031603Y015073D01*
X031480Y014888D02*
X031418Y014826D01*
X031356Y014826D01*
X031295Y014888D01*
X031295Y015011D01*
X031356Y015073D01*
D13*
X026802Y027121D02*
X026215Y027121D01*
X026509Y027121D02*
X026509Y028002D01*
X026215Y027708D01*
X025902Y027268D02*
X025902Y027121D01*
X025755Y027121D01*
X025755Y027268D01*
X025902Y027268D01*
X025421Y027121D02*
X024834Y027121D01*
X025421Y027708D01*
X025421Y027855D01*
X025274Y028002D01*
X024981Y028002D01*
X024834Y027855D01*
X024500Y027708D02*
X024207Y027121D01*
X023913Y027708D01*
X022659Y027562D02*
X022659Y027121D01*
X022365Y027121D02*
X022365Y027562D01*
X022512Y027708D01*
X022659Y027562D01*
X022365Y027562D02*
X022218Y027708D01*
X022072Y027708D01*
X022072Y027121D01*
X021738Y027121D02*
X021738Y027708D01*
X021738Y027121D02*
X021298Y027121D01*
X021151Y027268D01*
X021151Y027708D01*
X020684Y027708D02*
X020684Y027121D01*
X020537Y027121D02*
X020831Y027121D01*
X020203Y027121D02*
X020203Y027562D01*
X020057Y027708D01*
X019616Y027708D01*
X019616Y027121D01*
X019283Y027121D02*
X019283Y027708D01*
X019283Y027121D02*
X018842Y027121D01*
X018695Y027268D01*
X018695Y027708D01*
X018228Y028002D02*
X018228Y027121D01*
X018082Y027121D02*
X018375Y027121D01*
X017748Y027121D02*
X017308Y027121D01*
X017161Y027268D01*
X017308Y027415D01*
X017748Y027415D01*
X017748Y027562D02*
X017748Y027121D01*
X017748Y027562D02*
X017601Y027708D01*
X017308Y027708D01*
X016827Y027855D02*
X016680Y028002D01*
X016387Y028002D01*
X016240Y027855D01*
X016240Y027268D01*
X016387Y027121D01*
X016680Y027121D01*
X016827Y027268D01*
X018082Y028002D02*
X018228Y028002D01*
X020537Y027708D02*
X020684Y027708D01*
X020684Y028002D02*
X020684Y028149D01*
D14*
X027680Y027061D02*
X027680Y025061D01*
X028680Y025061D01*
X028680Y027061D01*
X028180Y027061D01*
X028180Y027311D01*
X028180Y027061D02*
X027680Y027061D01*
X027680Y025061D02*
X027680Y024561D01*
X028180Y024561D01*
X028180Y024311D01*
X028180Y024561D02*
X028680Y024561D01*
X028680Y025061D01*
X034980Y018311D02*
X034980Y017561D01*
X035680Y017561D01*
X036280Y017561D01*
X036280Y018311D01*
X034980Y018311D01*
X035680Y017561D02*
X035680Y015561D01*
X035430Y015561D01*
X037930Y015561D02*
X037930Y017561D01*
X038430Y017561D01*
X038430Y017811D01*
X038430Y017561D02*
X038930Y017561D01*
X038930Y015561D01*
X037930Y015561D01*
X037930Y015061D01*
X038430Y015061D01*
X038430Y014811D01*
X038430Y015061D02*
X038930Y015061D01*
X038930Y015561D01*
X037940Y018311D02*
X037645Y018311D01*
X019180Y011061D02*
X019180Y010311D01*
X012180Y010311D01*
X012180Y011061D01*
X019180Y011061D01*
X019180Y010311D02*
X019180Y008561D01*
X012180Y008561D01*
X012180Y010311D01*
X002690Y010191D02*
X002490Y010191D01*
X001850Y010191D02*
X001670Y010191D01*
X001670Y008191D02*
X001850Y008191D01*
X002490Y008191D02*
X002690Y008191D01*
X001930Y026061D02*
X001930Y027811D01*
X003680Y027811D01*
X003680Y026061D01*
X001930Y026061D01*
X003680Y026061D02*
X011180Y026061D01*
X011180Y026436D01*
X011055Y026186D01*
X011305Y026186D02*
X011180Y026436D01*
D15*
X011180Y026311D02*
X011180Y026811D01*
X009180Y026811D02*
X009180Y026311D01*
X010000Y029189D02*
X009840Y029349D01*
X010000Y029509D01*
X010320Y029509D01*
X010320Y029704D02*
X009840Y029704D01*
X009840Y029945D01*
X009920Y030025D01*
X010080Y030025D01*
X010160Y029945D01*
X010160Y029704D01*
X010160Y029864D02*
X010320Y030025D01*
X010320Y030220D02*
X009840Y030220D01*
X009840Y030540D01*
X009840Y030736D02*
X009840Y031056D01*
X009830Y031311D02*
X010330Y031311D01*
X010580Y031561D01*
X010830Y031311D01*
X011330Y031311D01*
X011580Y031561D01*
X011830Y031311D01*
X012330Y031311D01*
X012580Y031561D01*
X012830Y031311D01*
X013330Y031311D01*
X013580Y031561D01*
X013830Y031311D01*
X014330Y031311D01*
X014580Y031561D01*
X014830Y031311D01*
X015330Y031311D01*
X015580Y031561D01*
X015830Y031311D01*
X016330Y031311D01*
X016580Y031561D01*
X016830Y031311D01*
X017330Y031311D01*
X017580Y031561D01*
X017580Y032061D01*
X017330Y032311D01*
X016830Y032311D01*
X016580Y032061D01*
X016330Y032311D01*
X015830Y032311D01*
X015580Y032061D01*
X015330Y032311D01*
X014830Y032311D01*
X014580Y032061D01*
X014330Y032311D01*
X013830Y032311D01*
X013580Y032061D01*
X013330Y032311D01*
X012830Y032311D01*
X012580Y032061D01*
X012330Y032311D01*
X011830Y032311D01*
X011580Y032061D01*
X011330Y032311D01*
X010830Y032311D01*
X010580Y032061D01*
X010330Y032311D01*
X009830Y032311D01*
X009580Y032061D01*
X009330Y032311D01*
X008830Y032311D01*
X008580Y032061D01*
X008330Y032311D01*
X007830Y032311D01*
X007580Y032061D01*
X007580Y031561D01*
X007830Y031311D01*
X008330Y031311D01*
X008580Y031561D01*
X008830Y031311D01*
X009330Y031311D01*
X009580Y031561D01*
X009830Y031311D01*
X010080Y030896D02*
X010080Y030736D01*
X010320Y030736D02*
X009840Y030736D01*
X010080Y030380D02*
X010080Y030220D01*
X010320Y030220D02*
X010320Y030540D01*
X010840Y030586D02*
X010840Y030826D01*
X010920Y030906D01*
X011240Y030906D01*
X011320Y030826D01*
X011320Y030586D01*
X010840Y030586D01*
X010840Y030390D02*
X011320Y030390D01*
X010840Y030070D01*
X011320Y030070D01*
X011240Y029875D02*
X011080Y029875D01*
X011080Y029714D01*
X011240Y029554D02*
X011320Y029634D01*
X011320Y029795D01*
X011240Y029875D01*
X010920Y029875D02*
X010840Y029795D01*
X010840Y029634D01*
X010920Y029554D01*
X011240Y029554D01*
X011840Y030230D02*
X012320Y030230D01*
X012320Y030070D02*
X012320Y030390D01*
X012240Y030586D02*
X012320Y030666D01*
X012320Y030826D01*
X012240Y030906D01*
X012160Y030906D01*
X012080Y030826D01*
X012080Y030746D01*
X012080Y030826D02*
X012000Y030906D01*
X011920Y030906D01*
X011840Y030826D01*
X011840Y030666D01*
X011920Y030586D01*
X011840Y030230D02*
X012000Y030070D01*
X012840Y030230D02*
X013000Y030070D01*
X012840Y030230D02*
X013320Y030230D01*
X013320Y030070D02*
X013320Y030390D01*
X013320Y030586D02*
X013000Y030906D01*
X012920Y030906D01*
X012840Y030826D01*
X012840Y030666D01*
X012920Y030586D01*
X013320Y030586D02*
X013320Y030906D01*
X013840Y030746D02*
X014320Y030746D01*
X014320Y030586D02*
X014320Y030906D01*
X014000Y030586D02*
X013840Y030746D01*
X013840Y030230D02*
X014320Y030230D01*
X014320Y030070D02*
X014320Y030390D01*
X014000Y030070D02*
X013840Y030230D01*
X014840Y030230D02*
X015000Y030070D01*
X014840Y030230D02*
X015320Y030230D01*
X015320Y030070D02*
X015320Y030390D01*
X015240Y030586D02*
X014920Y030586D01*
X014840Y030666D01*
X014840Y030826D01*
X014920Y030906D01*
X015240Y030586D01*
X015320Y030666D01*
X015320Y030826D01*
X015240Y030906D01*
X014920Y030906D01*
X015840Y030826D02*
X015840Y030666D01*
X015920Y030586D01*
X016000Y030586D01*
X016080Y030666D01*
X016080Y030906D01*
X016240Y030906D02*
X015920Y030906D01*
X015840Y030826D01*
X016240Y030906D02*
X016320Y030826D01*
X016320Y030666D01*
X016240Y030586D01*
X016840Y030666D02*
X016840Y030826D01*
X016920Y030906D01*
X017000Y030906D01*
X017080Y030826D01*
X017080Y030666D01*
X017000Y030586D01*
X016920Y030586D01*
X016840Y030666D01*
X017080Y030666D02*
X017160Y030586D01*
X017240Y030586D01*
X017320Y030666D01*
X017320Y030826D01*
X017240Y030906D01*
X017160Y030906D01*
X017080Y030826D01*
X018180Y031561D02*
X018180Y032061D01*
X018430Y032311D01*
X018930Y032311D01*
X019180Y032061D01*
X019430Y032311D01*
X019930Y032311D01*
X020180Y032061D01*
X020430Y032311D01*
X020930Y032311D01*
X021180Y032061D01*
X021430Y032311D01*
X021930Y032311D01*
X022180Y032061D01*
X022430Y032311D01*
X022930Y032311D01*
X023180Y032061D01*
X023430Y032311D01*
X023930Y032311D01*
X024180Y032061D01*
X024430Y032311D01*
X024930Y032311D01*
X025180Y032061D01*
X025430Y032311D01*
X025930Y032311D01*
X026180Y032061D01*
X026180Y031561D01*
X025930Y031311D01*
X025430Y031311D01*
X025180Y031561D01*
X024930Y031311D01*
X024430Y031311D01*
X024180Y031561D01*
X023930Y031311D01*
X023430Y031311D01*
X023180Y031561D01*
X022930Y031311D01*
X022430Y031311D01*
X022180Y031561D01*
X021930Y031311D01*
X021430Y031311D01*
X021180Y031561D01*
X020930Y031311D01*
X020430Y031311D01*
X020180Y031561D01*
X019930Y031311D01*
X019430Y031311D01*
X019180Y031561D01*
X018930Y031311D01*
X018430Y031311D01*
X018180Y031561D01*
X018440Y030906D02*
X018520Y030906D01*
X018840Y030586D01*
X018920Y030586D01*
X018440Y030586D02*
X018440Y030906D01*
X019440Y030906D02*
X019520Y030746D01*
X019680Y030586D01*
X019680Y030826D01*
X019760Y030906D01*
X019840Y030906D01*
X019920Y030826D01*
X019920Y030666D01*
X019840Y030586D01*
X019680Y030586D01*
X020440Y030586D02*
X020680Y030586D01*
X020600Y030746D01*
X020600Y030826D01*
X020680Y030906D01*
X020840Y030906D01*
X020920Y030826D01*
X020920Y030666D01*
X020840Y030586D01*
X020440Y030586D02*
X020440Y030906D01*
X021440Y030826D02*
X021680Y030586D01*
X021680Y030906D01*
X021920Y030826D02*
X021440Y030826D01*
X022440Y030826D02*
X022440Y030666D01*
X022520Y030586D01*
X022680Y030746D02*
X022680Y030826D01*
X022760Y030906D01*
X022840Y030906D01*
X022920Y030826D01*
X022920Y030666D01*
X022840Y030586D01*
X022680Y030826D02*
X022600Y030906D01*
X022520Y030906D01*
X022440Y030826D01*
X022680Y030061D02*
X022880Y029861D01*
X022680Y030061D02*
X022680Y029561D01*
X022480Y029861D02*
X022680Y030061D01*
X023480Y029761D02*
X023680Y029561D01*
X023880Y029761D01*
X023680Y029561D02*
X023680Y030061D01*
X023520Y030586D02*
X023440Y030666D01*
X023440Y030826D01*
X023520Y030906D01*
X023600Y030906D01*
X023920Y030586D01*
X023920Y030906D01*
X024440Y030746D02*
X024920Y030746D01*
X024920Y030586D02*
X024920Y030906D01*
X024600Y030586D02*
X024440Y030746D01*
X024680Y030061D02*
X024480Y029861D01*
X024680Y030061D02*
X024680Y029561D01*
X024880Y029861D02*
X024680Y030061D01*
X025480Y029761D02*
X025680Y029561D01*
X025880Y029761D01*
X025680Y029561D02*
X025680Y030061D01*
X025840Y030586D02*
X025520Y030586D01*
X025440Y030666D01*
X025440Y030826D01*
X025520Y030906D01*
X025840Y030586D01*
X025920Y030666D01*
X025920Y030826D01*
X025840Y030906D01*
X025520Y030906D01*
X027180Y031561D02*
X027430Y031311D01*
X027930Y031311D01*
X028180Y031561D01*
X028430Y031311D01*
X028930Y031311D01*
X029180Y031561D01*
X029430Y031311D01*
X029930Y031311D01*
X030180Y031561D01*
X030430Y031311D01*
X030930Y031311D01*
X031180Y031561D01*
X031430Y031311D01*
X031930Y031311D01*
X032180Y031561D01*
X032430Y031311D01*
X032930Y031311D01*
X033180Y031561D01*
X033430Y031311D01*
X033930Y031311D01*
X034180Y031561D01*
X034430Y031311D01*
X034930Y031311D01*
X035180Y031561D01*
X035180Y032061D01*
X034930Y032311D01*
X034430Y032311D01*
X034180Y032061D01*
X033930Y032311D01*
X033430Y032311D01*
X033180Y032061D01*
X032930Y032311D01*
X032430Y032311D01*
X032180Y032061D01*
X031930Y032311D01*
X031430Y032311D01*
X031180Y032061D01*
X030930Y032311D01*
X030430Y032311D01*
X030180Y032061D01*
X029930Y032311D01*
X029430Y032311D01*
X029180Y032061D01*
X028930Y032311D01*
X028430Y032311D01*
X028180Y032061D01*
X027930Y032311D01*
X027430Y032311D01*
X027180Y032061D01*
X027180Y031561D01*
X027520Y030906D02*
X027440Y030826D01*
X027440Y030666D01*
X027520Y030586D01*
X027520Y030390D02*
X027440Y030310D01*
X027440Y030150D01*
X027520Y030070D01*
X027520Y030390D02*
X027600Y030390D01*
X027920Y030070D01*
X027920Y030390D01*
X027920Y030586D02*
X027600Y030906D01*
X027520Y030906D01*
X027920Y030906D02*
X027920Y030586D01*
X028440Y030666D02*
X028440Y030826D01*
X028520Y030906D01*
X028600Y030906D01*
X028680Y030826D01*
X028760Y030906D01*
X028840Y030906D01*
X028920Y030826D01*
X028920Y030666D01*
X028840Y030586D01*
X028920Y030390D02*
X028920Y030070D01*
X028600Y030390D01*
X028520Y030390D01*
X028440Y030310D01*
X028440Y030150D01*
X028520Y030070D01*
X028520Y030586D02*
X028440Y030666D01*
X028680Y030746D02*
X028680Y030826D01*
X029440Y030826D02*
X029440Y030666D01*
X029520Y030586D01*
X029840Y030586D01*
X029920Y030666D01*
X029920Y030826D01*
X029840Y030906D01*
X029520Y030906D02*
X029440Y030826D01*
X029440Y030390D02*
X029920Y030390D01*
X029440Y030070D01*
X029920Y030070D01*
X030440Y030070D02*
X030920Y030390D01*
X030440Y030390D01*
X030520Y030586D02*
X030840Y030586D01*
X030920Y030666D01*
X030920Y030826D01*
X030840Y030906D01*
X030520Y030906D02*
X030440Y030826D01*
X030440Y030666D01*
X030520Y030586D01*
X030440Y030070D02*
X030920Y030070D01*
X031480Y029861D02*
X031680Y030061D01*
X031880Y029861D01*
X031680Y030061D02*
X031680Y029561D01*
X032480Y029761D02*
X032680Y029561D01*
X032880Y029761D01*
X032680Y029561D02*
X032680Y030061D01*
X032520Y030586D02*
X032440Y030666D01*
X032440Y030826D01*
X032520Y030906D01*
X032600Y030906D01*
X032920Y030586D01*
X032920Y030906D01*
X033440Y030826D02*
X033440Y030666D01*
X033520Y030586D01*
X033840Y030586D01*
X033520Y030906D01*
X033840Y030906D01*
X033920Y030826D01*
X033920Y030666D01*
X033840Y030586D01*
X033920Y030390D02*
X033920Y030070D01*
X033600Y030390D01*
X033520Y030390D01*
X033440Y030310D01*
X033440Y030150D01*
X033520Y030070D01*
X034440Y030150D02*
X034520Y030070D01*
X034440Y030150D02*
X034440Y030310D01*
X034520Y030390D01*
X034600Y030390D01*
X034920Y030070D01*
X034920Y030390D01*
X034920Y030586D02*
X034920Y030906D01*
X034920Y030746D02*
X034440Y030746D01*
X034600Y030586D01*
X033520Y030906D02*
X033440Y030826D01*
X031920Y030826D02*
X031920Y030666D01*
X031840Y030586D01*
X031680Y030746D02*
X031680Y030826D01*
X031760Y030906D01*
X031840Y030906D01*
X031920Y030826D01*
X031680Y030826D02*
X031600Y030906D01*
X031520Y030906D01*
X031440Y030826D01*
X031440Y030666D01*
X031520Y030586D01*
X031680Y026811D02*
X032180Y026811D01*
X029902Y027051D02*
X029902Y024571D01*
X028958Y024571D01*
X028958Y027051D01*
X029902Y027051D01*
X030019Y024386D02*
X031200Y024386D01*
X030019Y024386D02*
X030019Y021236D01*
X031200Y021236D01*
X031920Y019034D02*
X029440Y019034D01*
X029440Y018089D01*
X031920Y018089D01*
X031920Y019034D01*
X032940Y017284D02*
X035420Y017284D01*
X035420Y016339D01*
X032940Y016339D01*
X032940Y017284D01*
X032940Y016034D02*
X035420Y016034D01*
X035420Y015089D01*
X032940Y015089D01*
X032940Y016034D01*
X032520Y014437D02*
X032840Y014117D01*
X032920Y014117D01*
X032920Y013922D02*
X032920Y013601D01*
X032920Y013761D02*
X032440Y013761D01*
X032600Y013601D01*
X032430Y013311D02*
X032180Y013061D01*
X031930Y013311D01*
X031430Y013311D01*
X031180Y013061D01*
X030930Y013311D01*
X030430Y013311D01*
X030180Y013061D01*
X029930Y013311D01*
X029430Y013311D01*
X029180Y013061D01*
X029180Y012561D01*
X029430Y012311D01*
X029930Y012311D01*
X030180Y012561D01*
X030430Y012311D01*
X030930Y012311D01*
X031180Y012561D01*
X031430Y012311D01*
X031930Y012311D01*
X032180Y012561D01*
X032430Y012311D01*
X032930Y012311D01*
X033180Y012561D01*
X033430Y012311D01*
X033930Y012311D01*
X034180Y012561D01*
X034430Y012311D01*
X034930Y012311D01*
X035180Y012561D01*
X035430Y012311D01*
X035930Y012311D01*
X036180Y012561D01*
X036430Y012311D01*
X036930Y012311D01*
X037180Y012561D01*
X037180Y013061D01*
X036930Y013311D01*
X036430Y013311D01*
X036180Y013061D01*
X035930Y013311D01*
X035430Y013311D01*
X035180Y013061D01*
X034930Y013311D01*
X034430Y013311D01*
X034180Y013061D01*
X033930Y013311D01*
X033430Y013311D01*
X033180Y013061D01*
X032930Y013311D01*
X032430Y013311D01*
X031920Y013601D02*
X031920Y013922D01*
X031920Y013761D02*
X031440Y013761D01*
X031600Y013601D01*
X031680Y014117D02*
X031680Y014357D01*
X031760Y014437D01*
X031840Y014437D01*
X031920Y014357D01*
X031920Y014197D01*
X031840Y014117D01*
X031680Y014117D01*
X031520Y014277D01*
X031440Y014437D01*
X030920Y014357D02*
X030920Y014197D01*
X030840Y014117D01*
X030680Y014117D02*
X030600Y014277D01*
X030600Y014357D01*
X030680Y014437D01*
X030840Y014437D01*
X030920Y014357D01*
X030680Y014117D02*
X030440Y014117D01*
X030440Y014437D01*
X030430Y014811D02*
X030180Y015061D01*
X030180Y015561D01*
X030430Y015811D01*
X030180Y016061D01*
X030180Y016561D01*
X030430Y016811D01*
X030930Y016811D01*
X031180Y016561D01*
X031180Y016061D01*
X030930Y015811D01*
X031180Y015561D01*
X031180Y015061D01*
X030930Y014811D01*
X030430Y014811D01*
X029920Y014357D02*
X029440Y014357D01*
X029680Y014117D01*
X029680Y014437D01*
X029180Y015061D02*
X029180Y015561D01*
X028930Y015811D01*
X029180Y016061D01*
X029180Y016561D01*
X028930Y016811D01*
X029180Y017061D01*
X029180Y017561D01*
X028930Y017811D01*
X028430Y017811D01*
X028180Y017561D01*
X028180Y017061D01*
X028430Y016811D01*
X028180Y016561D01*
X028180Y016061D01*
X028430Y015811D01*
X028180Y015561D01*
X028180Y015061D01*
X028430Y014811D01*
X028930Y014811D01*
X029180Y015061D01*
X029440Y013761D02*
X029920Y013761D01*
X029920Y013601D02*
X029920Y013922D01*
X029600Y013601D02*
X029440Y013761D01*
X030440Y013761D02*
X030600Y013601D01*
X030440Y013761D02*
X030920Y013761D01*
X030920Y013601D02*
X030920Y013922D01*
X032440Y014117D02*
X032440Y014437D01*
X032520Y014437D01*
X033440Y014357D02*
X033520Y014437D01*
X033600Y014437D01*
X033680Y014357D01*
X033680Y014197D01*
X033600Y014117D01*
X033520Y014117D01*
X033440Y014197D01*
X033440Y014357D01*
X033680Y014357D02*
X033760Y014437D01*
X033840Y014437D01*
X033920Y014357D01*
X033920Y014197D01*
X033840Y014117D01*
X033760Y014117D01*
X033680Y014197D01*
X033920Y013922D02*
X033920Y013601D01*
X033920Y013761D02*
X033440Y013761D01*
X033600Y013601D01*
X034440Y013761D02*
X034600Y013601D01*
X034440Y013761D02*
X034920Y013761D01*
X034920Y013601D02*
X034920Y013922D01*
X034840Y014117D02*
X034920Y014197D01*
X034920Y014357D01*
X034840Y014437D01*
X034520Y014437D01*
X034440Y014357D01*
X034440Y014197D01*
X034520Y014117D01*
X034600Y014117D01*
X034680Y014197D01*
X034680Y014437D01*
X035440Y014357D02*
X035520Y014437D01*
X035840Y014117D01*
X035920Y014197D01*
X035920Y014357D01*
X035840Y014437D01*
X035520Y014437D01*
X035440Y014357D02*
X035440Y014197D01*
X035520Y014117D01*
X035840Y014117D01*
X035920Y013922D02*
X035920Y013601D01*
X035600Y013922D01*
X035520Y013922D01*
X035440Y013841D01*
X035440Y013681D01*
X035520Y013601D01*
X036190Y013681D02*
X036270Y013601D01*
X036190Y013681D02*
X036190Y013841D01*
X036270Y013922D01*
X036350Y013922D01*
X036670Y013601D01*
X036670Y013922D01*
X036670Y014117D02*
X036670Y014437D01*
X036670Y014277D02*
X036190Y014277D01*
X036350Y014117D01*
X036708Y015071D02*
X036708Y017551D01*
X037652Y017551D01*
X037652Y015071D01*
X036708Y015071D01*
X034180Y010811D02*
X034180Y010211D01*
X033930Y010811D02*
X033430Y010811D01*
X033652Y008051D02*
X032708Y008051D01*
X032708Y005571D01*
X033652Y005571D01*
X033652Y008051D01*
X035023Y007611D02*
X035025Y007626D01*
X035031Y007639D01*
X035040Y007651D01*
X035051Y007660D01*
X035065Y007666D01*
X035080Y007668D01*
X035095Y007666D01*
X035108Y007660D01*
X035120Y007651D01*
X035129Y007640D01*
X035135Y007626D01*
X035137Y007611D01*
X035135Y007596D01*
X035129Y007583D01*
X035120Y007571D01*
X035109Y007562D01*
X035095Y007556D01*
X035080Y007554D01*
X035065Y007556D01*
X035052Y007562D01*
X035040Y007571D01*
X035031Y007582D01*
X035025Y007596D01*
X035023Y007611D01*
X038180Y006561D02*
X038180Y006061D01*
X037300Y003561D02*
X037302Y003611D01*
X037308Y003661D01*
X037318Y003710D01*
X037332Y003758D01*
X037349Y003805D01*
X037370Y003850D01*
X037395Y003894D01*
X037423Y003935D01*
X037455Y003974D01*
X037489Y004011D01*
X037526Y004045D01*
X037566Y004075D01*
X037608Y004102D01*
X037652Y004126D01*
X037698Y004147D01*
X037745Y004163D01*
X037793Y004176D01*
X037843Y004185D01*
X037892Y004190D01*
X037943Y004191D01*
X037993Y004188D01*
X038042Y004181D01*
X038091Y004170D01*
X038139Y004155D01*
X038185Y004137D01*
X038230Y004115D01*
X038273Y004089D01*
X038314Y004060D01*
X038353Y004028D01*
X038389Y003993D01*
X038421Y003955D01*
X038451Y003915D01*
X038478Y003872D01*
X038501Y003828D01*
X038520Y003782D01*
X038536Y003734D01*
X038548Y003685D01*
X038556Y003636D01*
X038560Y003586D01*
X038560Y003536D01*
X038556Y003486D01*
X038548Y003437D01*
X038536Y003388D01*
X038520Y003340D01*
X038501Y003294D01*
X038478Y003250D01*
X038451Y003207D01*
X038421Y003167D01*
X038389Y003129D01*
X038353Y003094D01*
X038314Y003062D01*
X038273Y003033D01*
X038230Y003007D01*
X038185Y002985D01*
X038139Y002967D01*
X038091Y002952D01*
X038042Y002941D01*
X037993Y002934D01*
X037943Y002931D01*
X037892Y002932D01*
X037843Y002937D01*
X037793Y002946D01*
X037745Y002959D01*
X037698Y002975D01*
X037652Y002996D01*
X037608Y003020D01*
X037566Y003047D01*
X037526Y003077D01*
X037489Y003111D01*
X037455Y003148D01*
X037423Y003187D01*
X037395Y003228D01*
X037370Y003272D01*
X037349Y003317D01*
X037332Y003364D01*
X037318Y003412D01*
X037308Y003461D01*
X037302Y003511D01*
X037300Y003561D01*
X027920Y011070D02*
X027600Y011070D01*
X027440Y011230D01*
X027600Y011390D01*
X027920Y011390D01*
X027920Y011586D02*
X027840Y011586D01*
X027520Y011906D01*
X027440Y011906D01*
X027440Y011586D01*
X027680Y011390D02*
X027680Y011070D01*
X026920Y011070D02*
X026600Y011070D01*
X026440Y011230D01*
X026600Y011390D01*
X026920Y011390D01*
X026840Y011586D02*
X026920Y011666D01*
X026920Y011826D01*
X026840Y011906D01*
X026760Y011906D01*
X026680Y011826D01*
X026680Y011586D01*
X026840Y011586D01*
X026680Y011586D02*
X026520Y011746D01*
X026440Y011906D01*
X026430Y012311D02*
X026930Y012311D01*
X027180Y012561D01*
X027430Y012311D01*
X027930Y012311D01*
X028180Y012561D01*
X028180Y013061D01*
X027930Y013311D01*
X027430Y013311D01*
X027180Y013061D01*
X026930Y013311D01*
X026430Y013311D01*
X026180Y013061D01*
X025930Y013311D01*
X025430Y013311D01*
X025180Y013061D01*
X024930Y013311D01*
X024430Y013311D01*
X024180Y013061D01*
X023930Y013311D01*
X023430Y013311D01*
X023180Y013061D01*
X022930Y013311D01*
X022430Y013311D01*
X022180Y013061D01*
X021930Y013311D01*
X021430Y013311D01*
X021180Y013061D01*
X020930Y013311D01*
X020430Y013311D01*
X020180Y013061D01*
X020180Y012561D01*
X020430Y012311D01*
X020930Y012311D01*
X021180Y012561D01*
X021430Y012311D01*
X021930Y012311D01*
X022180Y012561D01*
X022430Y012311D01*
X022930Y012311D01*
X023180Y012561D01*
X023430Y012311D01*
X023930Y012311D01*
X024180Y012561D01*
X024430Y012311D01*
X024930Y012311D01*
X025180Y012561D01*
X025430Y012311D01*
X025930Y012311D01*
X026180Y012561D01*
X026430Y012311D01*
X025920Y011826D02*
X025920Y011666D01*
X025840Y011586D01*
X025680Y011586D02*
X025600Y011746D01*
X025600Y011826D01*
X025680Y011906D01*
X025840Y011906D01*
X025920Y011826D01*
X025680Y011586D02*
X025440Y011586D01*
X025440Y011906D01*
X025600Y011390D02*
X025920Y011390D01*
X025680Y011390D02*
X025680Y011070D01*
X025600Y011070D02*
X025440Y011230D01*
X025600Y011390D01*
X025600Y011070D02*
X025920Y011070D01*
X026680Y011070D02*
X026680Y011390D01*
X024920Y011390D02*
X024600Y011390D01*
X024440Y011230D01*
X024600Y011070D01*
X024920Y011070D01*
X024680Y011070D02*
X024680Y011390D01*
X024680Y011586D02*
X024680Y011906D01*
X024920Y011826D02*
X024440Y011826D01*
X024680Y011586D01*
X023920Y011666D02*
X023840Y011586D01*
X023920Y011666D02*
X023920Y011826D01*
X023840Y011906D01*
X023760Y011906D01*
X023680Y011826D01*
X023680Y011746D01*
X023680Y011826D02*
X023600Y011906D01*
X023520Y011906D01*
X023440Y011826D01*
X023440Y011666D01*
X023520Y011586D01*
X023600Y011390D02*
X023920Y011390D01*
X023680Y011390D02*
X023680Y011070D01*
X023600Y011070D02*
X023440Y011230D01*
X023600Y011390D01*
X023600Y011070D02*
X023920Y011070D01*
X022920Y013601D02*
X022600Y013601D01*
X022440Y013761D01*
X022600Y013922D01*
X022920Y013922D01*
X022920Y014117D02*
X022600Y014437D01*
X022520Y014437D01*
X022440Y014357D01*
X022440Y014197D01*
X022520Y014117D01*
X022680Y013922D02*
X022680Y013601D01*
X022920Y014117D02*
X022920Y014437D01*
X021920Y014437D02*
X021920Y014117D01*
X021920Y014277D02*
X021440Y014277D01*
X021600Y014117D01*
X021600Y013922D02*
X021920Y013922D01*
X021680Y013922D02*
X021680Y013601D01*
X021600Y013601D02*
X021920Y013601D01*
X021600Y013601D02*
X021440Y013761D01*
X021600Y013922D01*
X020920Y013922D02*
X020600Y013922D01*
X020440Y013761D01*
X020600Y013601D01*
X020920Y013601D01*
X020680Y013601D02*
X020680Y013922D01*
X020840Y014117D02*
X020520Y014117D01*
X020440Y014197D01*
X020440Y014357D01*
X020520Y014437D01*
X020840Y014117D01*
X020920Y014197D01*
X020920Y014357D01*
X020840Y014437D01*
X020520Y014437D01*
X018890Y014369D02*
X018610Y014369D01*
X018610Y014579D01*
X018680Y014649D01*
X018890Y014649D01*
X018890Y014202D02*
X018890Y014062D01*
X018890Y014132D02*
X018610Y014132D01*
X018610Y014062D01*
X018470Y014132D02*
X018400Y014132D01*
X018470Y013881D02*
X018750Y013881D01*
X018890Y013741D01*
X018750Y013601D01*
X018470Y013601D01*
X018430Y013311D02*
X018930Y013311D01*
X019180Y013061D01*
X019180Y012561D01*
X018930Y012311D01*
X018430Y012311D01*
X018180Y012561D01*
X017930Y012311D01*
X017430Y012311D01*
X017180Y012561D01*
X016930Y012311D01*
X016430Y012311D01*
X016180Y012561D01*
X015930Y012311D01*
X015430Y012311D01*
X015180Y012561D01*
X014930Y012311D01*
X014430Y012311D01*
X014180Y012561D01*
X013930Y012311D01*
X013430Y012311D01*
X013180Y012561D01*
X012930Y012311D01*
X012430Y012311D01*
X012180Y012561D01*
X011930Y012311D01*
X011430Y012311D01*
X011180Y012561D01*
X011180Y013061D01*
X011430Y013311D01*
X011930Y013311D01*
X012180Y013061D01*
X012430Y013311D01*
X012930Y013311D01*
X013180Y013061D01*
X013430Y013311D01*
X013930Y013311D01*
X014180Y013061D01*
X014430Y013311D01*
X014930Y013311D01*
X015180Y013061D01*
X015430Y013311D01*
X015930Y013311D01*
X016180Y013061D01*
X016430Y013311D01*
X016930Y013311D01*
X017180Y013061D01*
X017430Y013311D01*
X017930Y013311D01*
X018180Y013061D01*
X018430Y013311D01*
X017890Y013671D02*
X017890Y013811D01*
X017820Y013881D01*
X017680Y013881D01*
X017680Y013741D01*
X017540Y013601D02*
X017820Y013601D01*
X017890Y013671D01*
X017540Y013601D02*
X017470Y013671D01*
X017470Y013811D01*
X017540Y013881D01*
X017470Y014062D02*
X017890Y014342D01*
X017470Y014342D01*
X017470Y014522D02*
X017470Y014732D01*
X017540Y014802D01*
X017820Y014802D01*
X017890Y014732D01*
X017890Y014522D01*
X017470Y014522D01*
X016890Y014522D02*
X016890Y014732D01*
X016820Y014802D01*
X016540Y014802D01*
X016470Y014732D01*
X016470Y014522D01*
X016890Y014522D01*
X016890Y014342D02*
X016470Y014342D01*
X016470Y014062D02*
X016890Y014342D01*
X016890Y014062D02*
X016470Y014062D01*
X016540Y013881D02*
X016470Y013811D01*
X016470Y013671D01*
X016540Y013601D01*
X016820Y013601D01*
X016890Y013671D01*
X016890Y013811D01*
X016820Y013881D01*
X016680Y013881D01*
X016680Y013741D01*
X015890Y013671D02*
X015820Y013601D01*
X015890Y013671D02*
X015890Y013811D01*
X015820Y013881D01*
X015680Y013881D01*
X015610Y013811D01*
X015610Y013741D01*
X015680Y013601D01*
X015470Y013601D01*
X015470Y013881D01*
X015470Y014062D02*
X015750Y014062D01*
X015890Y014202D01*
X015750Y014342D01*
X015470Y014342D01*
X014890Y014202D02*
X014750Y014062D01*
X014470Y014062D01*
X014540Y013881D02*
X014610Y013881D01*
X014680Y013811D01*
X014750Y013881D01*
X014820Y013881D01*
X014890Y013811D01*
X014890Y013671D01*
X014820Y013601D01*
X014680Y013741D02*
X014680Y013811D01*
X014540Y013881D02*
X014470Y013811D01*
X014470Y013671D01*
X014540Y013601D01*
X013890Y013601D02*
X013470Y013601D01*
X013470Y013811D01*
X013540Y013881D01*
X013680Y013881D01*
X013750Y013811D01*
X013750Y013601D01*
X013750Y013741D02*
X013890Y013881D01*
X013890Y014062D02*
X013890Y014342D01*
X013820Y014522D02*
X013890Y014592D01*
X013890Y014732D01*
X013820Y014802D01*
X013750Y014802D01*
X013680Y014732D01*
X013680Y014592D01*
X013610Y014522D01*
X013540Y014522D01*
X013470Y014592D01*
X013470Y014732D01*
X013540Y014802D01*
X013470Y014982D02*
X013890Y014982D01*
X013890Y015263D01*
X013680Y015123D02*
X013680Y014982D01*
X013470Y014982D02*
X013470Y015263D01*
X013470Y015443D02*
X013470Y015723D01*
X013470Y015583D02*
X013890Y015583D01*
X013310Y015863D02*
X013310Y013561D01*
X012890Y013601D02*
X012890Y013741D01*
X012890Y013671D02*
X012470Y013671D01*
X012470Y013601D02*
X012470Y013741D01*
X012540Y013908D02*
X012820Y013908D01*
X012890Y013978D01*
X012890Y014118D01*
X012820Y014188D01*
X012540Y014188D01*
X012470Y014118D01*
X012470Y013978D01*
X012540Y013908D01*
X012470Y014369D02*
X012470Y014579D01*
X012540Y014649D01*
X012680Y014649D01*
X012750Y014579D01*
X012750Y014369D01*
X012750Y014509D02*
X012890Y014649D01*
X012890Y014829D02*
X012470Y014829D01*
X012470Y015109D01*
X012470Y015289D02*
X012470Y015570D01*
X012680Y015429D02*
X012680Y015289D01*
X012890Y015289D02*
X012470Y015289D01*
X012680Y014969D02*
X012680Y014829D01*
X012890Y014829D02*
X012890Y015109D01*
X012890Y014369D02*
X012470Y014369D01*
X011890Y014272D02*
X011820Y014342D01*
X011890Y014272D02*
X011890Y014132D01*
X011820Y014062D01*
X011540Y014062D01*
X011470Y014132D01*
X011470Y014272D01*
X011540Y014342D01*
X011470Y013881D02*
X011890Y013881D01*
X011470Y013601D01*
X011890Y013601D01*
X013470Y014062D02*
X013890Y014062D01*
X013680Y014062D02*
X013680Y014202D01*
X013470Y014342D02*
X013470Y014062D01*
X014470Y014342D02*
X014750Y014342D01*
X014890Y014202D01*
X014820Y014522D02*
X014890Y014592D01*
X014890Y014732D01*
X014820Y014802D01*
X014750Y014802D01*
X014680Y014732D01*
X014680Y014662D01*
X014680Y014732D02*
X014610Y014802D01*
X014540Y014802D01*
X014470Y014732D01*
X014470Y014592D01*
X014540Y014522D01*
X014635Y015911D02*
X014730Y015911D01*
X014855Y016461D02*
X016505Y016461D01*
X016630Y015911D02*
X016725Y015911D01*
X015720Y015911D02*
X015640Y015911D01*
X014856Y016461D02*
X014817Y016412D01*
X014780Y016361D01*
X014747Y016308D01*
X014717Y016254D01*
X014691Y016197D01*
X014668Y016139D01*
X014648Y016080D01*
X014632Y016019D01*
X014620Y015958D01*
X014611Y015896D01*
X014606Y015834D01*
X014605Y015771D01*
X014608Y015709D01*
X014614Y015646D01*
X014624Y015585D01*
X014638Y015524D01*
X014655Y015464D01*
X014676Y015405D01*
X014700Y015347D01*
X014728Y015291D01*
X014759Y015237D01*
X014794Y015185D01*
X014831Y015135D01*
X014871Y015087D01*
X014915Y015042D01*
X014960Y014999D01*
X015009Y014959D01*
X015059Y014923D01*
X015112Y014889D01*
X015166Y014858D01*
X015223Y014831D01*
X015280Y014808D01*
X016080Y014808D02*
X016137Y014831D01*
X016194Y014858D01*
X016248Y014889D01*
X016301Y014923D01*
X016351Y014959D01*
X016400Y014999D01*
X016445Y015042D01*
X016489Y015087D01*
X016529Y015135D01*
X016566Y015185D01*
X016601Y015237D01*
X016632Y015291D01*
X016660Y015347D01*
X016684Y015405D01*
X016705Y015464D01*
X016722Y015524D01*
X016736Y015585D01*
X016746Y015646D01*
X016752Y015709D01*
X016755Y015771D01*
X016754Y015834D01*
X016749Y015896D01*
X016740Y015958D01*
X016728Y016019D01*
X016712Y016080D01*
X016692Y016139D01*
X016669Y016197D01*
X016643Y016254D01*
X016613Y016308D01*
X016580Y016361D01*
X016543Y016412D01*
X016504Y016461D01*
X015680Y017061D02*
X015680Y017561D01*
X013180Y017561D02*
X013180Y017061D01*
X012180Y018061D02*
X012180Y018561D01*
X010920Y017284D02*
X008440Y017284D01*
X008440Y016339D01*
X010920Y016339D01*
X010920Y017284D01*
X010505Y015961D02*
X008855Y015961D01*
X008730Y015411D02*
X008635Y015411D01*
X009640Y015411D02*
X009720Y015411D01*
X010504Y015961D02*
X010543Y015912D01*
X010580Y015861D01*
X010613Y015808D01*
X010643Y015754D01*
X010669Y015697D01*
X010692Y015639D01*
X010712Y015580D01*
X010728Y015519D01*
X010740Y015458D01*
X010749Y015396D01*
X010754Y015334D01*
X010755Y015271D01*
X010752Y015209D01*
X010746Y015146D01*
X010736Y015085D01*
X010722Y015024D01*
X010705Y014964D01*
X010684Y014905D01*
X010660Y014847D01*
X010632Y014791D01*
X010601Y014737D01*
X010566Y014685D01*
X010529Y014635D01*
X010489Y014587D01*
X010445Y014542D01*
X010400Y014499D01*
X010351Y014459D01*
X010301Y014423D01*
X010248Y014389D01*
X010194Y014358D01*
X010137Y014331D01*
X010080Y014308D01*
X009930Y013311D02*
X009430Y013311D01*
X009180Y013061D01*
X008930Y013311D01*
X008430Y013311D01*
X008180Y013061D01*
X008180Y012561D01*
X008430Y012311D01*
X008930Y012311D01*
X009180Y012561D01*
X009430Y012311D01*
X009930Y012311D01*
X010180Y012561D01*
X010180Y013061D01*
X009930Y013311D01*
X009280Y014308D02*
X009223Y014331D01*
X009166Y014358D01*
X009112Y014389D01*
X009059Y014423D01*
X009009Y014459D01*
X008960Y014499D01*
X008915Y014542D01*
X008871Y014587D01*
X008831Y014635D01*
X008794Y014685D01*
X008759Y014737D01*
X008728Y014791D01*
X008700Y014847D01*
X008676Y014905D01*
X008655Y014964D01*
X008638Y015024D01*
X008624Y015085D01*
X008614Y015146D01*
X008608Y015209D01*
X008605Y015271D01*
X008606Y015334D01*
X008611Y015396D01*
X008620Y015458D01*
X008632Y015519D01*
X008648Y015580D01*
X008668Y015639D01*
X008691Y015697D01*
X008717Y015754D01*
X008747Y015808D01*
X008780Y015861D01*
X008817Y015912D01*
X008856Y015961D01*
X010630Y015411D02*
X010725Y015411D01*
X005196Y016811D02*
X005198Y016873D01*
X005204Y016936D01*
X005214Y016997D01*
X005228Y017058D01*
X005245Y017118D01*
X005266Y017177D01*
X005292Y017234D01*
X005320Y017289D01*
X005352Y017343D01*
X005388Y017394D01*
X005426Y017444D01*
X005468Y017490D01*
X005512Y017534D01*
X005560Y017575D01*
X005609Y017613D01*
X005661Y017647D01*
X005715Y017678D01*
X005771Y017706D01*
X005829Y017730D01*
X005888Y017751D01*
X005948Y017767D01*
X006009Y017780D01*
X006071Y017789D01*
X006133Y017794D01*
X006196Y017795D01*
X006258Y017792D01*
X006320Y017785D01*
X006382Y017774D01*
X006442Y017759D01*
X006502Y017741D01*
X006560Y017719D01*
X006617Y017693D01*
X006672Y017663D01*
X006725Y017630D01*
X006776Y017594D01*
X006824Y017555D01*
X006870Y017512D01*
X006913Y017467D01*
X006953Y017419D01*
X006990Y017369D01*
X007024Y017316D01*
X007055Y017262D01*
X007081Y017206D01*
X007105Y017148D01*
X007124Y017088D01*
X007140Y017028D01*
X007152Y016966D01*
X007160Y016905D01*
X007164Y016842D01*
X007164Y016780D01*
X007160Y016717D01*
X007152Y016656D01*
X007140Y016594D01*
X007124Y016534D01*
X007105Y016474D01*
X007081Y016416D01*
X007055Y016360D01*
X007024Y016306D01*
X006990Y016253D01*
X006953Y016203D01*
X006913Y016155D01*
X006870Y016110D01*
X006824Y016067D01*
X006776Y016028D01*
X006725Y015992D01*
X006672Y015959D01*
X006617Y015929D01*
X006560Y015903D01*
X006502Y015881D01*
X006442Y015863D01*
X006382Y015848D01*
X006320Y015837D01*
X006258Y015830D01*
X006196Y015827D01*
X006133Y015828D01*
X006071Y015833D01*
X006009Y015842D01*
X005948Y015855D01*
X005888Y015871D01*
X005829Y015892D01*
X005771Y015916D01*
X005715Y015944D01*
X005661Y015975D01*
X005609Y016009D01*
X005560Y016047D01*
X005512Y016088D01*
X005468Y016132D01*
X005426Y016178D01*
X005388Y016228D01*
X005352Y016279D01*
X005320Y016333D01*
X005292Y016388D01*
X005266Y016445D01*
X005245Y016504D01*
X005228Y016564D01*
X005214Y016625D01*
X005204Y016686D01*
X005198Y016749D01*
X005196Y016811D01*
X005480Y017361D02*
X005880Y017361D01*
X004225Y016911D02*
X004130Y016911D01*
X004005Y017461D02*
X002355Y017461D01*
X002230Y016911D02*
X002135Y016911D01*
X003140Y016911D02*
X003220Y016911D01*
X004004Y017461D02*
X004043Y017412D01*
X004080Y017361D01*
X004113Y017308D01*
X004143Y017254D01*
X004169Y017197D01*
X004192Y017139D01*
X004212Y017080D01*
X004228Y017019D01*
X004240Y016958D01*
X004249Y016896D01*
X004254Y016834D01*
X004255Y016771D01*
X004252Y016709D01*
X004246Y016646D01*
X004236Y016585D01*
X004222Y016524D01*
X004205Y016464D01*
X004184Y016405D01*
X004160Y016347D01*
X004132Y016291D01*
X004101Y016237D01*
X004066Y016185D01*
X004029Y016135D01*
X003989Y016087D01*
X003945Y016042D01*
X003900Y015999D01*
X003851Y015959D01*
X003801Y015923D01*
X003748Y015889D01*
X003694Y015858D01*
X003637Y015831D01*
X003580Y015808D01*
X003440Y015284D02*
X005920Y015284D01*
X005920Y014339D01*
X003440Y014339D01*
X003440Y015284D01*
X003440Y014034D02*
X005920Y014034D01*
X005920Y013089D01*
X003440Y013089D01*
X003440Y014034D01*
X003440Y012784D02*
X005920Y012784D01*
X005920Y011839D01*
X003440Y011839D01*
X003440Y012784D01*
X002780Y015808D02*
X002723Y015831D01*
X002666Y015858D01*
X002612Y015889D01*
X002559Y015923D01*
X002509Y015959D01*
X002460Y015999D01*
X002415Y016042D01*
X002371Y016087D01*
X002331Y016135D01*
X002294Y016185D01*
X002259Y016237D01*
X002228Y016291D01*
X002200Y016347D01*
X002176Y016405D01*
X002155Y016464D01*
X002138Y016524D01*
X002124Y016585D01*
X002114Y016646D01*
X002108Y016709D01*
X002105Y016771D01*
X002106Y016834D01*
X002111Y016896D01*
X002120Y016958D01*
X002132Y017019D01*
X002148Y017080D01*
X002168Y017139D01*
X002191Y017197D01*
X002217Y017254D01*
X002247Y017308D01*
X002280Y017361D01*
X002317Y017412D01*
X002356Y017461D01*
X013180Y026311D02*
X013180Y026811D01*
X010320Y029189D02*
X010000Y029189D01*
X010080Y029189D02*
X010080Y029509D01*
X009320Y029634D02*
X009240Y029554D01*
X009320Y029634D02*
X009320Y029795D01*
X009240Y029875D01*
X009160Y029875D01*
X009080Y029795D01*
X009080Y029634D01*
X009000Y029554D01*
X008920Y029554D01*
X008840Y029634D01*
X008840Y029795D01*
X008920Y029875D01*
X008840Y030070D02*
X008840Y030310D01*
X008920Y030390D01*
X009240Y030390D01*
X009320Y030310D01*
X009320Y030070D01*
X008840Y030070D01*
X008320Y030150D02*
X008320Y030310D01*
X008240Y030390D01*
X008320Y030586D02*
X007840Y030586D01*
X007920Y030390D02*
X007840Y030310D01*
X007840Y030150D01*
X007920Y030070D01*
X008240Y030070D01*
X008320Y030150D01*
X008240Y029875D02*
X008160Y029875D01*
X008080Y029795D01*
X008080Y029634D01*
X008000Y029554D01*
X007920Y029554D01*
X007840Y029634D01*
X007840Y029795D01*
X007920Y029875D01*
X008240Y029875D02*
X008320Y029795D01*
X008320Y029634D01*
X008240Y029554D01*
X008320Y030586D02*
X008320Y030906D01*
X008840Y030746D02*
X009000Y030906D01*
X009320Y030906D01*
X009080Y030906D02*
X009080Y030586D01*
X009000Y030586D02*
X008840Y030746D01*
X009000Y030586D02*
X009320Y030586D01*
X008830Y031311D02*
X008580Y031561D01*
X008580Y032061D02*
X008830Y032311D01*
X001800Y031061D02*
X001802Y031111D01*
X001808Y031161D01*
X001818Y031210D01*
X001832Y031258D01*
X001849Y031305D01*
X001870Y031350D01*
X001895Y031394D01*
X001923Y031435D01*
X001955Y031474D01*
X001989Y031511D01*
X002026Y031545D01*
X002066Y031575D01*
X002108Y031602D01*
X002152Y031626D01*
X002198Y031647D01*
X002245Y031663D01*
X002293Y031676D01*
X002343Y031685D01*
X002392Y031690D01*
X002443Y031691D01*
X002493Y031688D01*
X002542Y031681D01*
X002591Y031670D01*
X002639Y031655D01*
X002685Y031637D01*
X002730Y031615D01*
X002773Y031589D01*
X002814Y031560D01*
X002853Y031528D01*
X002889Y031493D01*
X002921Y031455D01*
X002951Y031415D01*
X002978Y031372D01*
X003001Y031328D01*
X003020Y031282D01*
X003036Y031234D01*
X003048Y031185D01*
X003056Y031136D01*
X003060Y031086D01*
X003060Y031036D01*
X003056Y030986D01*
X003048Y030937D01*
X003036Y030888D01*
X003020Y030840D01*
X003001Y030794D01*
X002978Y030750D01*
X002951Y030707D01*
X002921Y030667D01*
X002889Y030629D01*
X002853Y030594D01*
X002814Y030562D01*
X002773Y030533D01*
X002730Y030507D01*
X002685Y030485D01*
X002639Y030467D01*
X002591Y030452D01*
X002542Y030441D01*
X002493Y030434D01*
X002443Y030431D01*
X002392Y030432D01*
X002343Y030437D01*
X002293Y030446D01*
X002245Y030459D01*
X002198Y030475D01*
X002152Y030496D01*
X002108Y030520D01*
X002066Y030547D01*
X002026Y030577D01*
X001989Y030611D01*
X001955Y030648D01*
X001923Y030687D01*
X001895Y030728D01*
X001870Y030772D01*
X001849Y030817D01*
X001832Y030864D01*
X001818Y030912D01*
X001808Y030961D01*
X001802Y031011D01*
X001800Y031061D01*
X017470Y014062D02*
X017890Y014062D01*
X016680Y011936D02*
X016680Y011436D01*
X019680Y011436D02*
X019680Y011936D01*
X020430Y010311D02*
X020180Y010061D01*
X020180Y009561D01*
X020430Y009311D01*
X020180Y009061D01*
X020180Y008561D01*
X020430Y008311D01*
X020180Y008061D01*
X020180Y007561D01*
X020430Y007311D01*
X020930Y007311D01*
X021180Y007561D01*
X021180Y008061D01*
X020930Y008311D01*
X021180Y008561D01*
X021180Y009061D01*
X020930Y009311D01*
X021180Y009561D01*
X021180Y010061D01*
X020930Y010311D01*
X020430Y010311D01*
X019180Y008161D02*
X019180Y006961D01*
X016180Y006961D01*
X016180Y008161D01*
X019180Y008161D01*
X021042Y006360D02*
X016318Y006360D01*
X016318Y004825D01*
X015130Y004204D02*
X015130Y003411D01*
X016318Y003171D02*
X016318Y001675D01*
X014780Y002611D02*
X013080Y002611D01*
X012730Y003411D02*
X012730Y004216D01*
X011930Y004061D02*
X011430Y004061D01*
X010930Y004061D02*
X010430Y004061D01*
X010180Y004561D02*
X009930Y004311D01*
X009430Y004311D01*
X009180Y004561D01*
X008930Y004311D01*
X008430Y004311D01*
X008180Y004561D01*
X007930Y004311D01*
X007430Y004311D01*
X007180Y004561D01*
X006930Y004311D01*
X006430Y004311D01*
X006180Y004561D01*
X005930Y004311D01*
X005430Y004311D01*
X005180Y004561D01*
X004930Y004311D01*
X004430Y004311D01*
X004180Y004561D01*
X004180Y005061D01*
X004430Y005311D01*
X004930Y005311D01*
X005180Y005061D01*
X005430Y005311D01*
X005930Y005311D01*
X006180Y005061D01*
X006430Y005311D01*
X006930Y005311D01*
X007180Y005061D01*
X007430Y005311D01*
X007930Y005311D01*
X008180Y005061D01*
X008430Y005311D01*
X008930Y005311D01*
X009180Y005061D01*
X009430Y005311D01*
X009930Y005311D01*
X010180Y005061D01*
X010180Y004561D01*
X009583Y006201D02*
X009585Y006216D01*
X009591Y006229D01*
X009600Y006241D01*
X009611Y006250D01*
X009625Y006256D01*
X009640Y006258D01*
X009655Y006256D01*
X009668Y006250D01*
X009680Y006241D01*
X009689Y006230D01*
X009695Y006216D01*
X009697Y006201D01*
X009695Y006186D01*
X009689Y006173D01*
X009680Y006161D01*
X009669Y006152D01*
X009655Y006146D01*
X009640Y006144D01*
X009625Y006146D01*
X009612Y006152D01*
X009600Y006161D01*
X009591Y006172D01*
X009585Y006186D01*
X009583Y006201D01*
X013080Y005011D02*
X014780Y005011D01*
X014930Y005311D02*
X014430Y005311D01*
X014180Y005561D01*
X014180Y006061D01*
X014430Y006311D01*
X014180Y006561D01*
X014180Y007061D01*
X014430Y007311D01*
X014180Y007561D01*
X014180Y008061D01*
X014430Y008311D01*
X014930Y008311D01*
X015180Y008061D01*
X015180Y007561D01*
X014930Y007311D01*
X015180Y007061D01*
X015180Y006561D01*
X014930Y006311D01*
X015180Y006061D01*
X015180Y005561D01*
X014930Y005311D01*
X013230Y003811D02*
X013232Y003863D01*
X013238Y003915D01*
X013248Y003967D01*
X013261Y004017D01*
X013278Y004067D01*
X013299Y004115D01*
X013324Y004161D01*
X013352Y004205D01*
X013383Y004247D01*
X013417Y004287D01*
X013454Y004324D01*
X013494Y004358D01*
X013536Y004389D01*
X013580Y004417D01*
X013626Y004442D01*
X013674Y004463D01*
X013724Y004480D01*
X013774Y004493D01*
X013826Y004503D01*
X013878Y004509D01*
X013930Y004511D01*
X013982Y004509D01*
X014034Y004503D01*
X014086Y004493D01*
X014136Y004480D01*
X014186Y004463D01*
X014234Y004442D01*
X014280Y004417D01*
X014324Y004389D01*
X014366Y004358D01*
X014406Y004324D01*
X014443Y004287D01*
X014477Y004247D01*
X014508Y004205D01*
X014536Y004161D01*
X014561Y004115D01*
X014582Y004067D01*
X014599Y004017D01*
X014612Y003967D01*
X014622Y003915D01*
X014628Y003863D01*
X014630Y003811D01*
X014628Y003759D01*
X014622Y003707D01*
X014612Y003655D01*
X014599Y003605D01*
X014582Y003555D01*
X014561Y003507D01*
X014536Y003461D01*
X014508Y003417D01*
X014477Y003375D01*
X014443Y003335D01*
X014406Y003298D01*
X014366Y003264D01*
X014324Y003233D01*
X014280Y003205D01*
X014234Y003180D01*
X014186Y003159D01*
X014136Y003142D01*
X014086Y003129D01*
X014034Y003119D01*
X013982Y003113D01*
X013930Y003111D01*
X013878Y003113D01*
X013826Y003119D01*
X013774Y003129D01*
X013724Y003142D01*
X013674Y003159D01*
X013626Y003180D01*
X013580Y003205D01*
X013536Y003233D01*
X013494Y003264D01*
X013454Y003298D01*
X013417Y003335D01*
X013383Y003375D01*
X013352Y003417D01*
X013324Y003461D01*
X013299Y003507D01*
X013278Y003555D01*
X013261Y003605D01*
X013248Y003655D01*
X013238Y003707D01*
X013232Y003759D01*
X013230Y003811D01*
X021042Y003171D02*
X021042Y001675D01*
X021042Y004825D02*
X021042Y006360D01*
X027430Y003061D02*
X027430Y002561D01*
X025930Y013811D02*
X025430Y013811D01*
X025180Y014061D01*
X025180Y014561D01*
X025430Y014811D01*
X025180Y015061D01*
X025180Y015561D01*
X025430Y015811D01*
X025180Y016061D01*
X025180Y016561D01*
X025430Y016811D01*
X025930Y016811D01*
X026180Y016561D01*
X026180Y016061D01*
X025930Y015811D01*
X026180Y015561D01*
X026180Y015061D01*
X025930Y014811D01*
X026180Y014561D01*
X026180Y014061D01*
X025930Y013811D01*
X025180Y014061D02*
X025180Y014561D01*
X024930Y014811D01*
X025180Y015061D01*
X025180Y015561D01*
X024930Y015811D01*
X025180Y016061D01*
X025180Y016561D01*
X024930Y016811D01*
X024430Y016811D01*
X024180Y016561D01*
X024180Y016061D01*
X024430Y015811D01*
X024180Y015561D01*
X024180Y015061D01*
X024430Y014811D01*
X024180Y014561D01*
X024180Y014061D01*
X024430Y013811D01*
X024930Y013811D01*
X025180Y014061D01*
X024280Y018266D02*
X024280Y018361D01*
X024830Y018487D02*
X024830Y020136D01*
X024280Y020261D02*
X024280Y020356D01*
X024280Y019351D02*
X024280Y019271D01*
X024830Y018487D02*
X024781Y018448D01*
X024730Y018411D01*
X024677Y018378D01*
X024623Y018348D01*
X024566Y018322D01*
X024508Y018299D01*
X024449Y018279D01*
X024388Y018263D01*
X024327Y018251D01*
X024265Y018242D01*
X024203Y018237D01*
X024140Y018236D01*
X024078Y018239D01*
X024015Y018245D01*
X023954Y018255D01*
X023893Y018269D01*
X023833Y018286D01*
X023774Y018307D01*
X023716Y018331D01*
X023660Y018359D01*
X023606Y018390D01*
X023554Y018425D01*
X023504Y018462D01*
X023456Y018502D01*
X023411Y018546D01*
X023368Y018591D01*
X023328Y018640D01*
X023292Y018690D01*
X023258Y018743D01*
X023227Y018797D01*
X023200Y018854D01*
X023177Y018911D01*
X023177Y019712D02*
X023200Y019769D01*
X023227Y019826D01*
X023258Y019880D01*
X023292Y019933D01*
X023328Y019983D01*
X023368Y020032D01*
X023411Y020077D01*
X023456Y020121D01*
X023504Y020161D01*
X023554Y020198D01*
X023606Y020233D01*
X023660Y020264D01*
X023716Y020292D01*
X023774Y020316D01*
X023833Y020337D01*
X023893Y020354D01*
X023954Y020368D01*
X024015Y020378D01*
X024078Y020384D01*
X024140Y020387D01*
X024203Y020386D01*
X024265Y020381D01*
X024327Y020372D01*
X024388Y020360D01*
X024449Y020344D01*
X024508Y020324D01*
X024566Y020301D01*
X024623Y020275D01*
X024677Y020245D01*
X024730Y020212D01*
X024781Y020175D01*
X024830Y020136D01*
X031200Y021236D02*
X031282Y021046D01*
X031373Y020860D01*
X031473Y020678D01*
X031581Y020502D01*
X031698Y020331D01*
X031823Y020166D01*
X031957Y020007D01*
X032097Y019855D01*
X032245Y019710D01*
X032400Y019572D01*
X032562Y019443D01*
X032729Y019321D01*
X032903Y019207D01*
X033081Y019103D01*
X033265Y019007D01*
X033453Y018920D01*
X033645Y018842D01*
X033841Y018774D01*
X034040Y018715D01*
X034241Y018667D01*
X034445Y018628D01*
X034650Y018599D01*
X034856Y018580D01*
X035063Y018572D01*
X035270Y018573D01*
X035477Y018585D01*
X035683Y018606D01*
X035888Y018638D01*
X036091Y018680D01*
X036292Y018731D01*
X036489Y018792D01*
X036684Y018863D01*
X036875Y018944D01*
X037062Y019033D01*
X037244Y019132D01*
X037421Y019239D01*
X037593Y019355D01*
X037759Y019479D01*
X037919Y019611D01*
X038072Y019751D01*
X038218Y019898D01*
X038356Y020052D01*
X038487Y020212D01*
X038610Y020379D01*
X038725Y020552D01*
X038831Y020730D01*
X038928Y020913D01*
X039016Y021100D01*
X039095Y021292D01*
X039165Y021487D01*
X039225Y021685D01*
X039275Y021886D01*
X039315Y022089D01*
X039345Y022294D01*
X039366Y022500D01*
X039376Y022707D01*
X039376Y022915D01*
X039366Y023122D01*
X039345Y023328D01*
X039315Y023533D01*
X039275Y023736D01*
X039225Y023937D01*
X039165Y024135D01*
X039095Y024330D01*
X039016Y024522D01*
X038928Y024709D01*
X038831Y024892D01*
X038725Y025070D01*
X038610Y025243D01*
X038487Y025410D01*
X038356Y025570D01*
X038218Y025724D01*
X038072Y025871D01*
X037919Y026011D01*
X037759Y026143D01*
X037593Y026267D01*
X037421Y026383D01*
X037244Y026490D01*
X037062Y026589D01*
X036875Y026678D01*
X036684Y026759D01*
X036489Y026830D01*
X036292Y026891D01*
X036091Y026942D01*
X035888Y026984D01*
X035683Y027016D01*
X035477Y027037D01*
X035270Y027049D01*
X035063Y027050D01*
X034856Y027042D01*
X034650Y027023D01*
X034445Y026994D01*
X034241Y026955D01*
X034040Y026907D01*
X033841Y026848D01*
X033645Y026780D01*
X033453Y026702D01*
X033265Y026615D01*
X033081Y026519D01*
X032903Y026415D01*
X032729Y026301D01*
X032562Y026179D01*
X032400Y026050D01*
X032245Y025912D01*
X032097Y025767D01*
X031957Y025615D01*
X031823Y025456D01*
X031698Y025291D01*
X031581Y025120D01*
X031473Y024944D01*
X031373Y024762D01*
X031282Y024576D01*
X031200Y024386D01*
X037300Y031061D02*
X037302Y031111D01*
X037308Y031161D01*
X037318Y031210D01*
X037332Y031258D01*
X037349Y031305D01*
X037370Y031350D01*
X037395Y031394D01*
X037423Y031435D01*
X037455Y031474D01*
X037489Y031511D01*
X037526Y031545D01*
X037566Y031575D01*
X037608Y031602D01*
X037652Y031626D01*
X037698Y031647D01*
X037745Y031663D01*
X037793Y031676D01*
X037843Y031685D01*
X037892Y031690D01*
X037943Y031691D01*
X037993Y031688D01*
X038042Y031681D01*
X038091Y031670D01*
X038139Y031655D01*
X038185Y031637D01*
X038230Y031615D01*
X038273Y031589D01*
X038314Y031560D01*
X038353Y031528D01*
X038389Y031493D01*
X038421Y031455D01*
X038451Y031415D01*
X038478Y031372D01*
X038501Y031328D01*
X038520Y031282D01*
X038536Y031234D01*
X038548Y031185D01*
X038556Y031136D01*
X038560Y031086D01*
X038560Y031036D01*
X038556Y030986D01*
X038548Y030937D01*
X038536Y030888D01*
X038520Y030840D01*
X038501Y030794D01*
X038478Y030750D01*
X038451Y030707D01*
X038421Y030667D01*
X038389Y030629D01*
X038353Y030594D01*
X038314Y030562D01*
X038273Y030533D01*
X038230Y030507D01*
X038185Y030485D01*
X038139Y030467D01*
X038091Y030452D01*
X038042Y030441D01*
X037993Y030434D01*
X037943Y030431D01*
X037892Y030432D01*
X037843Y030437D01*
X037793Y030446D01*
X037745Y030459D01*
X037698Y030475D01*
X037652Y030496D01*
X037608Y030520D01*
X037566Y030547D01*
X037526Y030577D01*
X037489Y030611D01*
X037455Y030648D01*
X037423Y030687D01*
X037395Y030728D01*
X037370Y030772D01*
X037349Y030817D01*
X037332Y030864D01*
X037318Y030912D01*
X037308Y030961D01*
X037302Y031011D01*
X037300Y031061D01*
X003430Y006311D02*
X002930Y006311D01*
X002680Y006061D02*
X002680Y005561D01*
X002430Y005311D01*
X001930Y005311D01*
X001680Y005561D01*
X001680Y006061D01*
X001930Y006311D01*
X001680Y006561D01*
X001680Y007061D01*
X001930Y007311D01*
X002430Y007311D01*
X002680Y007061D01*
X002680Y006561D01*
X002430Y006311D01*
X002680Y006061D01*
X001800Y003561D02*
X001802Y003611D01*
X001808Y003661D01*
X001818Y003710D01*
X001832Y003758D01*
X001849Y003805D01*
X001870Y003850D01*
X001895Y003894D01*
X001923Y003935D01*
X001955Y003974D01*
X001989Y004011D01*
X002026Y004045D01*
X002066Y004075D01*
X002108Y004102D01*
X002152Y004126D01*
X002198Y004147D01*
X002245Y004163D01*
X002293Y004176D01*
X002343Y004185D01*
X002392Y004190D01*
X002443Y004191D01*
X002493Y004188D01*
X002542Y004181D01*
X002591Y004170D01*
X002639Y004155D01*
X002685Y004137D01*
X002730Y004115D01*
X002773Y004089D01*
X002814Y004060D01*
X002853Y004028D01*
X002889Y003993D01*
X002921Y003955D01*
X002951Y003915D01*
X002978Y003872D01*
X003001Y003828D01*
X003020Y003782D01*
X003036Y003734D01*
X003048Y003685D01*
X003056Y003636D01*
X003060Y003586D01*
X003060Y003536D01*
X003056Y003486D01*
X003048Y003437D01*
X003036Y003388D01*
X003020Y003340D01*
X003001Y003294D01*
X002978Y003250D01*
X002951Y003207D01*
X002921Y003167D01*
X002889Y003129D01*
X002853Y003094D01*
X002814Y003062D01*
X002773Y003033D01*
X002730Y003007D01*
X002685Y002985D01*
X002639Y002967D01*
X002591Y002952D01*
X002542Y002941D01*
X002493Y002934D01*
X002443Y002931D01*
X002392Y002932D01*
X002343Y002937D01*
X002293Y002946D01*
X002245Y002959D01*
X002198Y002975D01*
X002152Y002996D01*
X002108Y003020D01*
X002066Y003047D01*
X002026Y003077D01*
X001989Y003111D01*
X001955Y003148D01*
X001923Y003187D01*
X001895Y003228D01*
X001870Y003272D01*
X001849Y003317D01*
X001832Y003364D01*
X001818Y003412D01*
X001808Y003461D01*
X001802Y003511D01*
X001800Y003561D01*
D16*
X001080Y003561D02*
X001082Y003634D01*
X001088Y003707D01*
X001098Y003779D01*
X001112Y003851D01*
X001129Y003922D01*
X001151Y003992D01*
X001176Y004061D01*
X001205Y004128D01*
X001237Y004193D01*
X001273Y004257D01*
X001313Y004319D01*
X001355Y004378D01*
X001401Y004435D01*
X001450Y004489D01*
X001502Y004541D01*
X001556Y004590D01*
X001613Y004636D01*
X001672Y004678D01*
X001734Y004718D01*
X001798Y004754D01*
X001863Y004786D01*
X001930Y004815D01*
X001999Y004840D01*
X002069Y004862D01*
X002140Y004879D01*
X002212Y004893D01*
X002284Y004903D01*
X002357Y004909D01*
X002430Y004911D01*
X002503Y004909D01*
X002576Y004903D01*
X002648Y004893D01*
X002720Y004879D01*
X002791Y004862D01*
X002861Y004840D01*
X002930Y004815D01*
X002997Y004786D01*
X003062Y004754D01*
X003126Y004718D01*
X003188Y004678D01*
X003247Y004636D01*
X003304Y004590D01*
X003358Y004541D01*
X003410Y004489D01*
X003459Y004435D01*
X003505Y004378D01*
X003547Y004319D01*
X003587Y004257D01*
X003623Y004193D01*
X003655Y004128D01*
X003684Y004061D01*
X003709Y003992D01*
X003731Y003922D01*
X003748Y003851D01*
X003762Y003779D01*
X003772Y003707D01*
X003778Y003634D01*
X003780Y003561D01*
X003778Y003488D01*
X003772Y003415D01*
X003762Y003343D01*
X003748Y003271D01*
X003731Y003200D01*
X003709Y003130D01*
X003684Y003061D01*
X003655Y002994D01*
X003623Y002929D01*
X003587Y002865D01*
X003547Y002803D01*
X003505Y002744D01*
X003459Y002687D01*
X003410Y002633D01*
X003358Y002581D01*
X003304Y002532D01*
X003247Y002486D01*
X003188Y002444D01*
X003126Y002404D01*
X003062Y002368D01*
X002997Y002336D01*
X002930Y002307D01*
X002861Y002282D01*
X002791Y002260D01*
X002720Y002243D01*
X002648Y002229D01*
X002576Y002219D01*
X002503Y002213D01*
X002430Y002211D01*
X002357Y002213D01*
X002284Y002219D01*
X002212Y002229D01*
X002140Y002243D01*
X002069Y002260D01*
X001999Y002282D01*
X001930Y002307D01*
X001863Y002336D01*
X001798Y002368D01*
X001734Y002404D01*
X001672Y002444D01*
X001613Y002486D01*
X001556Y002532D01*
X001502Y002581D01*
X001450Y002633D01*
X001401Y002687D01*
X001355Y002744D01*
X001313Y002803D01*
X001273Y002865D01*
X001237Y002929D01*
X001205Y002994D01*
X001176Y003061D01*
X001151Y003130D01*
X001129Y003200D01*
X001112Y003271D01*
X001098Y003343D01*
X001088Y003415D01*
X001082Y003488D01*
X001080Y003561D01*
X004430Y003461D02*
X009430Y003461D01*
X009430Y005661D01*
X004430Y005661D01*
X004430Y003461D01*
X003680Y007561D02*
X005430Y007561D01*
X005430Y007611D01*
X005930Y007611D01*
X005930Y007561D01*
X006880Y007561D01*
X006880Y007961D01*
X006880Y008061D01*
X004180Y008061D01*
X004180Y010561D01*
X011180Y010561D01*
X011180Y008061D01*
X009480Y008061D01*
X008880Y008061D01*
X008480Y008061D01*
X008480Y007961D01*
X008480Y007561D01*
X006880Y007561D01*
X006880Y008061D02*
X006880Y008361D01*
X008480Y008361D01*
X008480Y008061D01*
X008680Y007761D02*
X008880Y007761D01*
X009480Y007761D01*
X009480Y007961D01*
X009480Y008061D01*
X009480Y007761D02*
X009680Y007761D01*
X009830Y007561D01*
X011680Y007561D01*
X011680Y011061D01*
X011180Y011061D01*
X011180Y011161D01*
X010680Y011161D01*
X010680Y011061D01*
X007930Y011061D01*
X007930Y011161D01*
X007430Y011161D01*
X007430Y011061D01*
X004680Y011061D01*
X004680Y011161D01*
X004180Y011161D01*
X004180Y011061D01*
X003680Y011061D01*
X003680Y007561D01*
X008480Y007561D02*
X008530Y007561D01*
X008680Y007761D01*
X008880Y007761D02*
X008880Y007961D01*
X008880Y008061D01*
X010780Y007011D02*
X013080Y007011D01*
X013131Y007009D01*
X013182Y007004D01*
X013232Y006994D01*
X013282Y006981D01*
X013330Y006965D01*
X013377Y006945D01*
X013423Y006921D01*
X013466Y006895D01*
X013508Y006865D01*
X013547Y006832D01*
X013584Y006797D01*
X013618Y006759D01*
X013649Y006718D01*
X013678Y006676D01*
X013703Y006631D01*
X013724Y006585D01*
X013743Y006537D01*
X013757Y006488D01*
X013768Y006438D01*
X013776Y006388D01*
X013780Y006337D01*
X013780Y006285D01*
X013776Y006234D01*
X013768Y006184D01*
X013757Y006134D01*
X013743Y006085D01*
X013724Y006037D01*
X013703Y005991D01*
X013678Y005946D01*
X013649Y005904D01*
X013618Y005863D01*
X013584Y005825D01*
X013547Y005790D01*
X013508Y005757D01*
X013466Y005727D01*
X013423Y005701D01*
X013377Y005677D01*
X013330Y005657D01*
X013282Y005641D01*
X013232Y005628D01*
X013182Y005618D01*
X013131Y005613D01*
X013080Y005611D01*
X010780Y005611D01*
X010729Y005613D01*
X010678Y005618D01*
X010628Y005628D01*
X010578Y005641D01*
X010530Y005657D01*
X010483Y005677D01*
X010437Y005701D01*
X010394Y005727D01*
X010352Y005757D01*
X010313Y005790D01*
X010276Y005825D01*
X010242Y005863D01*
X010211Y005904D01*
X010182Y005946D01*
X010157Y005991D01*
X010136Y006037D01*
X010117Y006085D01*
X010103Y006134D01*
X010092Y006184D01*
X010084Y006234D01*
X010080Y006285D01*
X010080Y006337D01*
X010084Y006388D01*
X010092Y006438D01*
X010103Y006488D01*
X010117Y006537D01*
X010136Y006585D01*
X010157Y006631D01*
X010182Y006676D01*
X010211Y006718D01*
X010242Y006759D01*
X010276Y006797D01*
X010313Y006832D01*
X010352Y006865D01*
X010394Y006895D01*
X010437Y006921D01*
X010483Y006945D01*
X010530Y006965D01*
X010578Y006981D01*
X010628Y006994D01*
X010678Y007004D01*
X010729Y007009D01*
X010780Y007011D01*
X001780Y019961D02*
X022580Y019961D01*
X022580Y021811D01*
X022536Y021813D01*
X022493Y021819D01*
X022451Y021828D01*
X022409Y021841D01*
X022369Y021858D01*
X022330Y021878D01*
X022293Y021901D01*
X022259Y021928D01*
X022226Y021957D01*
X022197Y021990D01*
X022170Y022024D01*
X022147Y022061D01*
X022127Y022100D01*
X022110Y022140D01*
X022097Y022182D01*
X022088Y022224D01*
X022082Y022267D01*
X022080Y022311D01*
X022082Y022355D01*
X022088Y022398D01*
X022097Y022440D01*
X022110Y022482D01*
X022127Y022522D01*
X022147Y022561D01*
X022170Y022598D01*
X022197Y022632D01*
X022226Y022665D01*
X022259Y022694D01*
X022293Y022721D01*
X022330Y022744D01*
X022369Y022764D01*
X022409Y022781D01*
X022451Y022794D01*
X022493Y022803D01*
X022536Y022809D01*
X022580Y022811D01*
X022580Y024661D01*
X001780Y024661D01*
X001780Y019961D01*
X008530Y027361D02*
X010830Y027361D01*
X010881Y027363D01*
X010932Y027368D01*
X010982Y027378D01*
X011032Y027391D01*
X011080Y027407D01*
X011127Y027427D01*
X011173Y027451D01*
X011216Y027477D01*
X011258Y027507D01*
X011297Y027540D01*
X011334Y027575D01*
X011368Y027613D01*
X011399Y027654D01*
X011428Y027696D01*
X011453Y027741D01*
X011474Y027787D01*
X011493Y027835D01*
X011507Y027884D01*
X011518Y027934D01*
X011526Y027984D01*
X011530Y028035D01*
X011530Y028087D01*
X011526Y028138D01*
X011518Y028188D01*
X011507Y028238D01*
X011493Y028287D01*
X011474Y028335D01*
X011453Y028381D01*
X011428Y028426D01*
X011399Y028468D01*
X011368Y028509D01*
X011334Y028547D01*
X011297Y028582D01*
X011258Y028615D01*
X011216Y028645D01*
X011173Y028671D01*
X011127Y028695D01*
X011080Y028715D01*
X011032Y028731D01*
X010982Y028744D01*
X010932Y028754D01*
X010881Y028759D01*
X010830Y028761D01*
X008530Y028761D01*
X008479Y028759D01*
X008428Y028754D01*
X008378Y028744D01*
X008328Y028731D01*
X008280Y028715D01*
X008233Y028695D01*
X008187Y028671D01*
X008144Y028645D01*
X008102Y028615D01*
X008063Y028582D01*
X008026Y028547D01*
X007992Y028509D01*
X007961Y028468D01*
X007932Y028426D01*
X007907Y028381D01*
X007886Y028335D01*
X007867Y028287D01*
X007853Y028238D01*
X007842Y028188D01*
X007834Y028138D01*
X007830Y028087D01*
X007830Y028035D01*
X007834Y027984D01*
X007842Y027934D01*
X007853Y027884D01*
X007867Y027835D01*
X007886Y027787D01*
X007907Y027741D01*
X007932Y027696D01*
X007961Y027654D01*
X007992Y027613D01*
X008026Y027575D01*
X008063Y027540D01*
X008102Y027507D01*
X008144Y027477D01*
X008187Y027451D01*
X008233Y027427D01*
X008280Y027407D01*
X008328Y027391D01*
X008378Y027378D01*
X008428Y027368D01*
X008479Y027363D01*
X008530Y027361D01*
X001080Y031061D02*
X001082Y031134D01*
X001088Y031207D01*
X001098Y031279D01*
X001112Y031351D01*
X001129Y031422D01*
X001151Y031492D01*
X001176Y031561D01*
X001205Y031628D01*
X001237Y031693D01*
X001273Y031757D01*
X001313Y031819D01*
X001355Y031878D01*
X001401Y031935D01*
X001450Y031989D01*
X001502Y032041D01*
X001556Y032090D01*
X001613Y032136D01*
X001672Y032178D01*
X001734Y032218D01*
X001798Y032254D01*
X001863Y032286D01*
X001930Y032315D01*
X001999Y032340D01*
X002069Y032362D01*
X002140Y032379D01*
X002212Y032393D01*
X002284Y032403D01*
X002357Y032409D01*
X002430Y032411D01*
X002503Y032409D01*
X002576Y032403D01*
X002648Y032393D01*
X002720Y032379D01*
X002791Y032362D01*
X002861Y032340D01*
X002930Y032315D01*
X002997Y032286D01*
X003062Y032254D01*
X003126Y032218D01*
X003188Y032178D01*
X003247Y032136D01*
X003304Y032090D01*
X003358Y032041D01*
X003410Y031989D01*
X003459Y031935D01*
X003505Y031878D01*
X003547Y031819D01*
X003587Y031757D01*
X003623Y031693D01*
X003655Y031628D01*
X003684Y031561D01*
X003709Y031492D01*
X003731Y031422D01*
X003748Y031351D01*
X003762Y031279D01*
X003772Y031207D01*
X003778Y031134D01*
X003780Y031061D01*
X003778Y030988D01*
X003772Y030915D01*
X003762Y030843D01*
X003748Y030771D01*
X003731Y030700D01*
X003709Y030630D01*
X003684Y030561D01*
X003655Y030494D01*
X003623Y030429D01*
X003587Y030365D01*
X003547Y030303D01*
X003505Y030244D01*
X003459Y030187D01*
X003410Y030133D01*
X003358Y030081D01*
X003304Y030032D01*
X003247Y029986D01*
X003188Y029944D01*
X003126Y029904D01*
X003062Y029868D01*
X002997Y029836D01*
X002930Y029807D01*
X002861Y029782D01*
X002791Y029760D01*
X002720Y029743D01*
X002648Y029729D01*
X002576Y029719D01*
X002503Y029713D01*
X002430Y029711D01*
X002357Y029713D01*
X002284Y029719D01*
X002212Y029729D01*
X002140Y029743D01*
X002069Y029760D01*
X001999Y029782D01*
X001930Y029807D01*
X001863Y029836D01*
X001798Y029868D01*
X001734Y029904D01*
X001672Y029944D01*
X001613Y029986D01*
X001556Y030032D01*
X001502Y030081D01*
X001450Y030133D01*
X001401Y030187D01*
X001355Y030244D01*
X001313Y030303D01*
X001273Y030365D01*
X001237Y030429D01*
X001205Y030494D01*
X001176Y030561D01*
X001151Y030630D01*
X001129Y030700D01*
X001112Y030771D01*
X001098Y030843D01*
X001088Y030915D01*
X001082Y030988D01*
X001080Y031061D01*
X022510Y029086D02*
X022850Y029086D01*
X022850Y028973D02*
X022850Y029200D01*
X022623Y028973D02*
X022510Y029086D01*
X022510Y028831D02*
X022850Y028605D01*
X022850Y028831D02*
X022510Y028605D01*
X022510Y028463D02*
X022510Y028236D01*
X022510Y028350D02*
X022850Y028350D01*
X023510Y028406D02*
X023566Y028463D01*
X023680Y028463D01*
X023737Y028406D01*
X023737Y028236D01*
X023850Y028236D02*
X023510Y028236D01*
X023510Y028406D01*
X023510Y028605D02*
X023850Y028831D01*
X023850Y028973D02*
X023850Y029200D01*
X023850Y029086D02*
X023510Y029086D01*
X023623Y028973D01*
X023510Y028831D02*
X023850Y028605D01*
X023850Y028463D02*
X023737Y028350D01*
X024510Y028350D02*
X024850Y028350D01*
X024850Y028605D02*
X024510Y028831D01*
X024566Y028973D02*
X024510Y029030D01*
X024510Y029143D01*
X024566Y029200D01*
X024793Y028973D01*
X024850Y029030D01*
X024850Y029143D01*
X024793Y029200D01*
X024566Y029200D01*
X024566Y028973D02*
X024793Y028973D01*
X024850Y028831D02*
X024510Y028605D01*
X024510Y028463D02*
X024510Y028236D01*
X025510Y028236D02*
X025510Y028406D01*
X025566Y028463D01*
X025680Y028463D01*
X025737Y028406D01*
X025737Y028236D01*
X025850Y028236D02*
X025510Y028236D01*
X025737Y028350D02*
X025850Y028463D01*
X025850Y028605D02*
X025510Y028831D01*
X025566Y028973D02*
X025510Y029030D01*
X025510Y029143D01*
X025566Y029200D01*
X025793Y028973D01*
X025850Y029030D01*
X025850Y029143D01*
X025793Y029200D01*
X025566Y029200D01*
X025566Y028973D02*
X025793Y028973D01*
X025850Y028831D02*
X025510Y028605D01*
X031510Y028605D02*
X031850Y028831D01*
X031850Y028973D02*
X031850Y029200D01*
X031850Y029086D02*
X031510Y029086D01*
X031623Y028973D01*
X031510Y028831D02*
X031850Y028605D01*
X031850Y028350D02*
X031510Y028350D01*
X031510Y028463D02*
X031510Y028236D01*
X032510Y028236D02*
X032510Y028406D01*
X032566Y028463D01*
X032680Y028463D01*
X032737Y028406D01*
X032737Y028236D01*
X032850Y028236D02*
X032510Y028236D01*
X032737Y028350D02*
X032850Y028463D01*
X032850Y028605D02*
X032510Y028831D01*
X032623Y028973D02*
X032510Y029086D01*
X032850Y029086D01*
X032850Y028973D02*
X032850Y029200D01*
X032850Y028831D02*
X032510Y028605D01*
X033510Y028605D02*
X033510Y028775D01*
X033566Y028831D01*
X033793Y028831D01*
X033850Y028775D01*
X033850Y028605D01*
X033510Y028605D01*
X033566Y028463D02*
X033510Y028406D01*
X033510Y028293D01*
X033566Y028236D01*
X033623Y028236D01*
X033680Y028293D01*
X033680Y028406D01*
X033737Y028463D01*
X033793Y028463D01*
X033850Y028406D01*
X033850Y028293D01*
X033793Y028236D01*
X034510Y028293D02*
X034566Y028236D01*
X034623Y028236D01*
X034680Y028293D01*
X034680Y028406D01*
X034737Y028463D01*
X034793Y028463D01*
X034850Y028406D01*
X034850Y028293D01*
X034793Y028236D01*
X034510Y028293D02*
X034510Y028406D01*
X034566Y028463D01*
X034566Y028605D02*
X034793Y028605D01*
X034850Y028661D01*
X034850Y028775D01*
X034793Y028831D01*
X034850Y028973D02*
X034850Y029200D01*
X034850Y028973D02*
X034510Y028973D01*
X034566Y028831D02*
X034510Y028775D01*
X034510Y028661D01*
X034566Y028605D01*
X033850Y028973D02*
X033623Y028973D01*
X033510Y029086D01*
X033623Y029200D01*
X033850Y029200D01*
X033680Y029200D02*
X033680Y028973D01*
X036580Y031061D02*
X036582Y031134D01*
X036588Y031207D01*
X036598Y031279D01*
X036612Y031351D01*
X036629Y031422D01*
X036651Y031492D01*
X036676Y031561D01*
X036705Y031628D01*
X036737Y031693D01*
X036773Y031757D01*
X036813Y031819D01*
X036855Y031878D01*
X036901Y031935D01*
X036950Y031989D01*
X037002Y032041D01*
X037056Y032090D01*
X037113Y032136D01*
X037172Y032178D01*
X037234Y032218D01*
X037298Y032254D01*
X037363Y032286D01*
X037430Y032315D01*
X037499Y032340D01*
X037569Y032362D01*
X037640Y032379D01*
X037712Y032393D01*
X037784Y032403D01*
X037857Y032409D01*
X037930Y032411D01*
X038003Y032409D01*
X038076Y032403D01*
X038148Y032393D01*
X038220Y032379D01*
X038291Y032362D01*
X038361Y032340D01*
X038430Y032315D01*
X038497Y032286D01*
X038562Y032254D01*
X038626Y032218D01*
X038688Y032178D01*
X038747Y032136D01*
X038804Y032090D01*
X038858Y032041D01*
X038910Y031989D01*
X038959Y031935D01*
X039005Y031878D01*
X039047Y031819D01*
X039087Y031757D01*
X039123Y031693D01*
X039155Y031628D01*
X039184Y031561D01*
X039209Y031492D01*
X039231Y031422D01*
X039248Y031351D01*
X039262Y031279D01*
X039272Y031207D01*
X039278Y031134D01*
X039280Y031061D01*
X039278Y030988D01*
X039272Y030915D01*
X039262Y030843D01*
X039248Y030771D01*
X039231Y030700D01*
X039209Y030630D01*
X039184Y030561D01*
X039155Y030494D01*
X039123Y030429D01*
X039087Y030365D01*
X039047Y030303D01*
X039005Y030244D01*
X038959Y030187D01*
X038910Y030133D01*
X038858Y030081D01*
X038804Y030032D01*
X038747Y029986D01*
X038688Y029944D01*
X038626Y029904D01*
X038562Y029868D01*
X038497Y029836D01*
X038430Y029807D01*
X038361Y029782D01*
X038291Y029760D01*
X038220Y029743D01*
X038148Y029729D01*
X038076Y029719D01*
X038003Y029713D01*
X037930Y029711D01*
X037857Y029713D01*
X037784Y029719D01*
X037712Y029729D01*
X037640Y029743D01*
X037569Y029760D01*
X037499Y029782D01*
X037430Y029807D01*
X037363Y029836D01*
X037298Y029868D01*
X037234Y029904D01*
X037172Y029944D01*
X037113Y029986D01*
X037056Y030032D01*
X037002Y030081D01*
X036950Y030133D01*
X036901Y030187D01*
X036855Y030244D01*
X036813Y030303D01*
X036773Y030365D01*
X036737Y030429D01*
X036705Y030494D01*
X036676Y030561D01*
X036651Y030630D01*
X036629Y030700D01*
X036612Y030771D01*
X036598Y030843D01*
X036588Y030915D01*
X036582Y030988D01*
X036580Y031061D01*
X038180Y011811D02*
X034180Y011811D01*
X034180Y010811D01*
X038180Y010811D01*
X038180Y008811D01*
X038180Y007811D01*
X034180Y007811D01*
X034180Y008811D01*
X034180Y009411D01*
X034219Y009413D01*
X034258Y009419D01*
X034296Y009428D01*
X034333Y009441D01*
X034369Y009458D01*
X034402Y009478D01*
X034434Y009502D01*
X034463Y009528D01*
X034489Y009557D01*
X034513Y009589D01*
X034533Y009622D01*
X034550Y009658D01*
X034563Y009695D01*
X034572Y009733D01*
X034578Y009772D01*
X034580Y009811D01*
X034578Y009850D01*
X034572Y009889D01*
X034563Y009927D01*
X034550Y009964D01*
X034533Y010000D01*
X034513Y010033D01*
X034489Y010065D01*
X034463Y010094D01*
X034434Y010120D01*
X034402Y010144D01*
X034369Y010164D01*
X034333Y010181D01*
X034296Y010194D01*
X034258Y010203D01*
X034219Y010209D01*
X034180Y010211D01*
X034180Y008811D02*
X038180Y008811D01*
X037130Y009021D02*
X037130Y007601D01*
X035230Y007601D02*
X035230Y009021D01*
X038180Y010811D02*
X038180Y011811D01*
X035980Y005661D02*
X034880Y005661D01*
X034880Y005511D01*
X035980Y005511D01*
X036030Y005511D01*
X036030Y002511D01*
X036028Y002494D01*
X036024Y002477D01*
X036017Y002461D01*
X036007Y002447D01*
X035994Y002434D01*
X035980Y002424D01*
X035964Y002417D01*
X035947Y002413D01*
X035930Y002411D01*
X034930Y002411D01*
X034913Y002413D01*
X034896Y002417D01*
X034880Y002424D01*
X034866Y002434D01*
X034853Y002447D01*
X034843Y002461D01*
X034836Y002477D01*
X034832Y002494D01*
X034830Y002511D01*
X034830Y005511D01*
X034880Y005511D01*
X035430Y004611D02*
X035430Y004411D01*
X035130Y004411D01*
X035130Y004261D02*
X035130Y004111D01*
X035730Y004111D01*
X035730Y004261D01*
X035130Y004261D01*
X035130Y003961D02*
X035430Y003961D01*
X035430Y003761D01*
X035430Y003961D02*
X035730Y003961D01*
X035730Y004411D02*
X035430Y004411D01*
X035980Y005511D02*
X035980Y005661D01*
X036580Y003561D02*
X036582Y003634D01*
X036588Y003707D01*
X036598Y003779D01*
X036612Y003851D01*
X036629Y003922D01*
X036651Y003992D01*
X036676Y004061D01*
X036705Y004128D01*
X036737Y004193D01*
X036773Y004257D01*
X036813Y004319D01*
X036855Y004378D01*
X036901Y004435D01*
X036950Y004489D01*
X037002Y004541D01*
X037056Y004590D01*
X037113Y004636D01*
X037172Y004678D01*
X037234Y004718D01*
X037298Y004754D01*
X037363Y004786D01*
X037430Y004815D01*
X037499Y004840D01*
X037569Y004862D01*
X037640Y004879D01*
X037712Y004893D01*
X037784Y004903D01*
X037857Y004909D01*
X037930Y004911D01*
X038003Y004909D01*
X038076Y004903D01*
X038148Y004893D01*
X038220Y004879D01*
X038291Y004862D01*
X038361Y004840D01*
X038430Y004815D01*
X038497Y004786D01*
X038562Y004754D01*
X038626Y004718D01*
X038688Y004678D01*
X038747Y004636D01*
X038804Y004590D01*
X038858Y004541D01*
X038910Y004489D01*
X038959Y004435D01*
X039005Y004378D01*
X039047Y004319D01*
X039087Y004257D01*
X039123Y004193D01*
X039155Y004128D01*
X039184Y004061D01*
X039209Y003992D01*
X039231Y003922D01*
X039248Y003851D01*
X039262Y003779D01*
X039272Y003707D01*
X039278Y003634D01*
X039280Y003561D01*
X039278Y003488D01*
X039272Y003415D01*
X039262Y003343D01*
X039248Y003271D01*
X039231Y003200D01*
X039209Y003130D01*
X039184Y003061D01*
X039155Y002994D01*
X039123Y002929D01*
X039087Y002865D01*
X039047Y002803D01*
X039005Y002744D01*
X038959Y002687D01*
X038910Y002633D01*
X038858Y002581D01*
X038804Y002532D01*
X038747Y002486D01*
X038688Y002444D01*
X038626Y002404D01*
X038562Y002368D01*
X038497Y002336D01*
X038430Y002307D01*
X038361Y002282D01*
X038291Y002260D01*
X038220Y002243D01*
X038148Y002229D01*
X038076Y002219D01*
X038003Y002213D01*
X037930Y002211D01*
X037857Y002213D01*
X037784Y002219D01*
X037712Y002229D01*
X037640Y002243D01*
X037569Y002260D01*
X037499Y002282D01*
X037430Y002307D01*
X037363Y002336D01*
X037298Y002368D01*
X037234Y002404D01*
X037172Y002444D01*
X037113Y002486D01*
X037056Y002532D01*
X037002Y002581D01*
X036950Y002633D01*
X036901Y002687D01*
X036855Y002744D01*
X036813Y002803D01*
X036773Y002865D01*
X036737Y002929D01*
X036705Y002994D01*
X036676Y003061D01*
X036651Y003130D01*
X036629Y003200D01*
X036612Y003271D01*
X036598Y003343D01*
X036588Y003415D01*
X036582Y003488D01*
X036580Y003561D01*
D17*
X004430Y029061D03*
D18*
X003351Y027537D02*
X003201Y027537D01*
X003126Y027462D01*
X003126Y027161D01*
X003426Y027462D01*
X003426Y027161D01*
X003351Y027086D01*
X003201Y027086D01*
X003126Y027161D01*
X002966Y027086D02*
X002665Y027086D01*
X002816Y027086D02*
X002816Y027537D01*
X002665Y027387D01*
X002505Y027462D02*
X002430Y027537D01*
X002280Y027537D01*
X002205Y027462D01*
X002205Y027161D01*
X002280Y027086D01*
X002430Y027086D01*
X002505Y027161D01*
X003351Y027537D02*
X003426Y027462D01*
X005205Y026712D02*
X005205Y026411D01*
X005280Y026336D01*
X005430Y026336D01*
X005505Y026411D01*
X005665Y026336D02*
X005966Y026336D01*
X005816Y026336D02*
X005816Y026787D01*
X005665Y026637D01*
X005505Y026712D02*
X005430Y026787D01*
X005280Y026787D01*
X005205Y026712D01*
X006126Y026637D02*
X006276Y026787D01*
X006276Y026336D01*
X006126Y026336D02*
X006426Y026336D01*
X006605Y027836D02*
X006605Y028061D01*
X006755Y028212D01*
X006755Y028287D01*
X006915Y028212D02*
X006990Y028287D01*
X007141Y028287D01*
X007216Y028212D01*
X007216Y028137D01*
X006915Y027836D01*
X007216Y027836D01*
X006605Y028061D02*
X006455Y028212D01*
X006455Y028287D01*
X012705Y028212D02*
X012705Y027911D01*
X012780Y027836D01*
X012930Y027836D01*
X013005Y027911D01*
X013165Y027911D02*
X013466Y028212D01*
X013466Y028287D01*
X013165Y028287D01*
X013005Y028212D02*
X012930Y028287D01*
X012780Y028287D01*
X012705Y028212D01*
X013165Y027911D02*
X013165Y027836D01*
X022955Y021829D02*
X023180Y021604D01*
X023180Y021904D01*
X023405Y021829D02*
X022955Y021829D01*
X023030Y021443D02*
X022955Y021368D01*
X022955Y021218D01*
X023030Y021143D01*
X023330Y021143D01*
X023405Y021218D01*
X023405Y021368D01*
X023330Y021443D01*
X023405Y020986D02*
X023405Y020836D01*
X023405Y020911D02*
X022955Y020911D01*
X022955Y020836D02*
X022955Y020986D01*
X024955Y020328D02*
X025405Y020328D01*
X025405Y020178D02*
X025405Y020478D01*
X025105Y020178D02*
X024955Y020328D01*
X025030Y020018D02*
X024955Y019943D01*
X024955Y019793D01*
X025030Y019717D01*
X025105Y019717D01*
X025180Y019793D01*
X025180Y019943D01*
X025255Y020018D01*
X025330Y020018D01*
X025405Y019943D01*
X025405Y019793D01*
X025330Y019717D01*
X025405Y019557D02*
X024955Y019557D01*
X024955Y019257D02*
X025405Y019557D01*
X025405Y019257D02*
X024955Y019257D01*
X024955Y019097D02*
X024955Y018797D01*
X025405Y018797D01*
X025405Y019097D01*
X025180Y018947D02*
X025180Y018797D01*
X025255Y018637D02*
X025330Y018637D01*
X025405Y018561D01*
X025405Y018411D01*
X025330Y018336D01*
X025180Y018411D02*
X025180Y018561D01*
X025255Y018637D01*
X025030Y018637D02*
X024955Y018561D01*
X024955Y018411D01*
X025030Y018336D01*
X025105Y018336D01*
X025180Y018411D01*
X026205Y018836D02*
X026655Y018836D01*
X026655Y019137D01*
X026655Y019297D02*
X026205Y019297D01*
X026355Y019447D01*
X026205Y019597D01*
X026655Y019597D01*
X026580Y019757D02*
X026655Y019832D01*
X026655Y019982D01*
X026580Y020057D01*
X026505Y020057D01*
X026430Y019982D01*
X026430Y019757D01*
X026580Y019757D01*
X026430Y019757D02*
X026280Y019907D01*
X026205Y020057D01*
X026355Y020217D02*
X026205Y020368D01*
X026655Y020368D01*
X026655Y020518D02*
X026655Y020217D01*
X029455Y019787D02*
X029455Y019336D01*
X029455Y019486D02*
X029680Y019486D01*
X029755Y019561D01*
X029755Y019712D01*
X029680Y019787D01*
X029455Y019787D01*
X029605Y019486D02*
X029755Y019336D01*
X029915Y019411D02*
X029990Y019336D01*
X030141Y019336D01*
X030216Y019411D01*
X030216Y019486D01*
X030141Y019561D01*
X030066Y019561D01*
X030141Y019561D02*
X030216Y019637D01*
X030216Y019712D01*
X030141Y019787D01*
X029990Y019787D01*
X029915Y019712D01*
X032955Y018037D02*
X032955Y017586D01*
X032955Y017736D02*
X033180Y017736D01*
X033255Y017811D01*
X033255Y017962D01*
X033180Y018037D01*
X032955Y018037D01*
X033105Y017736D02*
X033255Y017586D01*
X033415Y017811D02*
X033716Y017811D01*
X033641Y017586D02*
X033641Y018037D01*
X033415Y017811D01*
X035245Y017861D02*
X035470Y017861D01*
X035545Y017936D01*
X035545Y018087D01*
X035470Y018162D01*
X035245Y018162D01*
X035245Y017711D01*
X035395Y017861D02*
X035545Y017711D01*
X035705Y017786D02*
X035780Y017711D01*
X035930Y017711D01*
X036005Y017786D01*
X036005Y017936D01*
X035930Y018012D01*
X035855Y018012D01*
X035705Y017936D01*
X035705Y018162D01*
X036005Y018162D01*
X034886Y021836D02*
X034586Y021836D01*
X034736Y021836D02*
X034736Y022287D01*
X034586Y022137D01*
X034426Y022287D02*
X034126Y022287D01*
X034276Y022287D02*
X034276Y021836D01*
X033966Y021836D02*
X033966Y022137D01*
X033816Y022287D01*
X033665Y022137D01*
X033665Y021836D01*
X033505Y021911D02*
X033430Y021836D01*
X033205Y021836D01*
X033205Y022287D01*
X033430Y022287D01*
X033505Y022212D01*
X033505Y022137D01*
X033430Y022061D01*
X033205Y022061D01*
X033430Y022061D02*
X033505Y021986D01*
X033505Y021911D01*
X033665Y022061D02*
X033966Y022061D01*
X030655Y024836D02*
X030205Y024836D01*
X030205Y025061D01*
X030280Y025137D01*
X030430Y025137D01*
X030505Y025061D01*
X030505Y024836D01*
X030505Y024986D02*
X030655Y025137D01*
X030580Y025297D02*
X030655Y025372D01*
X030655Y025522D01*
X030580Y025597D01*
X030505Y025597D01*
X030430Y025522D01*
X030430Y025297D01*
X030580Y025297D01*
X030430Y025297D02*
X030280Y025447D01*
X030205Y025597D01*
X030955Y026411D02*
X031030Y026336D01*
X031330Y026336D01*
X031405Y026411D01*
X031405Y026561D01*
X031330Y026637D01*
X031405Y026797D02*
X031405Y027097D01*
X031405Y026947D02*
X030955Y026947D01*
X031105Y026797D01*
X031030Y026637D02*
X030955Y026561D01*
X030955Y026411D01*
X031180Y027257D02*
X031180Y027557D01*
X031405Y027482D02*
X030955Y027482D01*
X031180Y027257D01*
X027405Y025597D02*
X027405Y025297D01*
X027405Y025447D02*
X026955Y025447D01*
X027105Y025297D01*
X027030Y025137D02*
X026955Y025061D01*
X026955Y024836D01*
X027405Y024836D01*
X027405Y025061D01*
X027330Y025137D01*
X027030Y025137D01*
X030055Y016557D02*
X030055Y016257D01*
X030055Y016407D02*
X029605Y016407D01*
X029755Y016257D01*
X029680Y016097D02*
X029830Y016097D01*
X029905Y016022D01*
X029905Y015797D01*
X030055Y015797D02*
X029605Y015797D01*
X029605Y016022D01*
X029680Y016097D01*
X029605Y015637D02*
X029605Y015486D01*
X029605Y015561D02*
X029980Y015561D01*
X030055Y015486D01*
X030055Y015411D01*
X029980Y015336D01*
X027955Y014982D02*
X027505Y014982D01*
X027730Y014757D01*
X027730Y015057D01*
X027730Y014597D02*
X027805Y014522D01*
X027805Y014297D01*
X027955Y014297D02*
X027505Y014297D01*
X027505Y014522D01*
X027580Y014597D01*
X027730Y014597D01*
X027505Y014137D02*
X027505Y013986D01*
X027505Y014061D02*
X027880Y014061D01*
X027955Y013986D01*
X027955Y013911D01*
X027880Y013836D01*
X026855Y013911D02*
X026855Y013986D01*
X026780Y014061D01*
X026405Y014061D01*
X026405Y013986D02*
X026405Y014137D01*
X026405Y014297D02*
X026405Y014522D01*
X026480Y014597D01*
X026630Y014597D01*
X026705Y014522D01*
X026705Y014297D01*
X026855Y014297D02*
X026405Y014297D01*
X026855Y013911D02*
X026780Y013836D01*
X026780Y014757D02*
X026855Y014832D01*
X026855Y014982D01*
X026780Y015057D01*
X026705Y015057D01*
X026630Y014982D01*
X026630Y014907D01*
X026630Y014982D02*
X026555Y015057D01*
X026480Y015057D01*
X026405Y014982D01*
X026405Y014832D01*
X026480Y014757D01*
X023955Y014757D02*
X023655Y015057D01*
X023580Y015057D01*
X023505Y014982D01*
X023505Y014832D01*
X023580Y014757D01*
X023580Y014597D02*
X023730Y014597D01*
X023805Y014522D01*
X023805Y014297D01*
X023955Y014297D02*
X023505Y014297D01*
X023505Y014522D01*
X023580Y014597D01*
X023955Y014757D02*
X023955Y015057D01*
X023505Y014137D02*
X023505Y013986D01*
X023505Y014061D02*
X023880Y014061D01*
X023955Y013986D01*
X023955Y013911D01*
X023880Y013836D01*
X021966Y011962D02*
X021966Y011887D01*
X021891Y011811D01*
X021740Y011811D01*
X021665Y011887D01*
X021665Y011962D01*
X021740Y012037D01*
X021891Y012037D01*
X021966Y011962D01*
X021891Y011811D02*
X021966Y011736D01*
X021966Y011661D01*
X021891Y011586D01*
X021740Y011586D01*
X021665Y011661D01*
X021665Y011736D01*
X021740Y011811D01*
X021505Y011661D02*
X021430Y011586D01*
X021280Y011586D01*
X021205Y011661D01*
X021205Y011962D01*
X021280Y012037D01*
X021430Y012037D01*
X021505Y011962D01*
X019855Y009347D02*
X019855Y009047D01*
X019855Y009197D02*
X019405Y009197D01*
X019555Y009047D01*
X019405Y008887D02*
X019855Y008586D01*
X019855Y008887D02*
X019405Y008586D01*
X017855Y007787D02*
X017855Y007336D01*
X017705Y007336D02*
X018005Y007336D01*
X017705Y007637D02*
X017855Y007787D01*
X017545Y007787D02*
X017245Y007787D01*
X017245Y007336D01*
X017245Y007561D02*
X017395Y007561D01*
X013935Y007675D02*
X013585Y007675D01*
X013585Y007850D01*
X013643Y007908D01*
X013760Y007908D01*
X013818Y007850D01*
X013818Y007675D01*
X013877Y007481D02*
X013585Y007481D01*
X013585Y007423D02*
X013585Y007540D01*
X013877Y007481D02*
X013935Y007423D01*
X013935Y007365D01*
X013877Y007306D01*
X013877Y008043D02*
X013935Y008101D01*
X013935Y008218D01*
X013877Y008276D01*
X013643Y008276D01*
X013585Y008218D01*
X013585Y008101D01*
X013643Y008043D01*
X013701Y008043D01*
X013760Y008101D01*
X013760Y008276D01*
X014530Y011736D02*
X014680Y011736D01*
X014755Y011811D01*
X014915Y011736D02*
X015216Y011736D01*
X015066Y011736D02*
X015066Y012187D01*
X014915Y012037D01*
X014755Y012112D02*
X014680Y012187D01*
X014530Y012187D01*
X014455Y012112D01*
X014455Y011811D01*
X014530Y011736D01*
X017205Y015836D02*
X017355Y015836D01*
X017280Y015836D02*
X017280Y016287D01*
X017205Y016287D02*
X017355Y016287D01*
X017512Y016212D02*
X017512Y015911D01*
X017587Y015836D01*
X017737Y015836D01*
X017812Y015911D01*
X017972Y015836D02*
X018273Y015836D01*
X018122Y015836D02*
X018122Y016287D01*
X017972Y016137D01*
X017812Y016212D02*
X017737Y016287D01*
X017587Y016287D01*
X017512Y016212D01*
X015466Y017961D02*
X015165Y017961D01*
X015466Y018262D01*
X015466Y018337D01*
X015391Y018412D01*
X015240Y018412D01*
X015165Y018337D01*
X015005Y018337D02*
X014930Y018412D01*
X014780Y018412D01*
X014705Y018337D01*
X014705Y018036D01*
X014780Y017961D01*
X014930Y017961D01*
X015005Y018036D01*
X009566Y017586D02*
X009265Y017586D01*
X009416Y017586D02*
X009416Y018037D01*
X009265Y017887D01*
X009105Y017586D02*
X008805Y017586D01*
X008805Y018037D01*
X008198Y015787D02*
X008047Y015787D01*
X007972Y015712D01*
X007812Y015712D02*
X007737Y015787D01*
X007587Y015787D01*
X007512Y015712D01*
X007512Y015411D01*
X007587Y015336D01*
X007737Y015336D01*
X007812Y015411D01*
X007972Y015411D02*
X008047Y015336D01*
X008198Y015336D01*
X008273Y015411D01*
X008273Y015486D01*
X008198Y015561D01*
X008122Y015561D01*
X008198Y015561D02*
X008273Y015637D01*
X008273Y015712D01*
X008198Y015787D01*
X007355Y015787D02*
X007205Y015787D01*
X007280Y015787D02*
X007280Y015336D01*
X007205Y015336D02*
X007355Y015336D01*
X007430Y015037D02*
X007205Y015037D01*
X007205Y014586D01*
X007205Y014736D02*
X007430Y014736D01*
X007505Y014811D01*
X007505Y014962D01*
X007430Y015037D01*
X007665Y014962D02*
X007740Y015037D01*
X007891Y015037D01*
X007966Y014962D01*
X007966Y014887D01*
X007665Y014586D01*
X007966Y014586D01*
X007505Y014586D02*
X007355Y014736D01*
X007430Y013787D02*
X007205Y013787D01*
X007205Y013336D01*
X007205Y013486D02*
X007430Y013486D01*
X007505Y013561D01*
X007505Y013712D01*
X007430Y013787D01*
X007665Y013637D02*
X007816Y013787D01*
X007816Y013336D01*
X007966Y013336D02*
X007665Y013336D01*
X007505Y013336D02*
X007355Y013486D01*
X008425Y013631D02*
X008500Y013556D01*
X008575Y013556D01*
X008650Y013631D01*
X008650Y014007D01*
X008575Y014007D02*
X008725Y014007D01*
X008885Y014007D02*
X009111Y014007D01*
X009186Y013932D01*
X009186Y013781D01*
X009111Y013706D01*
X008885Y013706D01*
X008885Y013556D02*
X008885Y014007D01*
X009346Y013781D02*
X009346Y013631D01*
X009421Y013556D01*
X009571Y013556D01*
X009646Y013631D01*
X009646Y013706D01*
X009571Y013781D01*
X009346Y013781D01*
X009496Y013932D01*
X009646Y014007D01*
X007966Y012462D02*
X007891Y012537D01*
X007740Y012537D01*
X007665Y012462D01*
X007665Y012387D01*
X007740Y012311D01*
X007966Y012311D01*
X007966Y012161D02*
X007966Y012462D01*
X007966Y012161D02*
X007891Y012086D01*
X007740Y012086D01*
X007665Y012161D01*
X007505Y012086D02*
X007355Y012236D01*
X007430Y012236D02*
X007205Y012236D01*
X007205Y012086D02*
X007205Y012537D01*
X007430Y012537D01*
X007505Y012462D01*
X007505Y012311D01*
X007430Y012236D01*
X005005Y009962D02*
X004930Y010037D01*
X004780Y010037D01*
X004705Y009962D01*
X005005Y009962D02*
X005005Y009887D01*
X004705Y009586D01*
X005005Y009586D01*
X004855Y009037D02*
X004855Y008586D01*
X004705Y008586D02*
X005005Y008586D01*
X004705Y008887D02*
X004855Y009037D01*
X007305Y008037D02*
X007455Y008187D01*
X007455Y007736D01*
X007305Y007736D02*
X007605Y007736D01*
X007765Y007811D02*
X008066Y008112D01*
X008066Y007811D01*
X007991Y007736D01*
X007840Y007736D01*
X007765Y007811D01*
X007765Y008112D01*
X007840Y008187D01*
X007991Y008187D01*
X008066Y008112D01*
X002005Y011755D02*
X001555Y011755D01*
X001555Y011905D02*
X001555Y011605D01*
X001855Y011905D02*
X002005Y011755D01*
X001930Y012065D02*
X001630Y012065D01*
X001555Y012140D01*
X001555Y012365D01*
X002005Y012365D01*
X002005Y012140D01*
X001930Y012065D01*
X002005Y012526D02*
X002005Y012826D01*
X001555Y012826D01*
X001555Y012526D01*
X001780Y012676D02*
X001780Y012826D01*
X001555Y012986D02*
X001555Y013286D01*
X002005Y013286D01*
X001355Y009786D02*
X000905Y009786D01*
X000905Y009486D01*
X000905Y009326D02*
X000905Y009026D01*
X000905Y008865D02*
X000905Y008640D01*
X000980Y008565D01*
X001280Y008565D01*
X001355Y008640D01*
X001355Y008865D01*
X000905Y008865D01*
X001130Y009176D02*
X001130Y009326D01*
X001355Y009326D02*
X000905Y009326D01*
X001355Y009326D02*
X001355Y009026D01*
X001280Y008405D02*
X001355Y008330D01*
X001355Y008180D01*
X001280Y008105D01*
X001205Y008105D01*
X000905Y008405D01*
X000905Y008105D01*
X000980Y005786D02*
X000905Y005711D01*
X000905Y005636D01*
X000980Y005561D01*
X001355Y005561D01*
X001355Y005636D02*
X001355Y005486D01*
X001355Y005326D02*
X000905Y005326D01*
X001055Y005326D02*
X001055Y005101D01*
X001130Y005026D01*
X001280Y005026D01*
X001355Y005101D01*
X001355Y005326D01*
X001355Y004865D02*
X001355Y004565D01*
X001280Y004565D01*
X000980Y004865D01*
X000905Y004865D01*
X012205Y002337D02*
X012205Y002262D01*
X012280Y002186D01*
X012430Y002186D01*
X012505Y002111D01*
X012505Y002036D01*
X012430Y001961D01*
X012280Y001961D01*
X012205Y002036D01*
X012205Y002337D02*
X012280Y002412D01*
X012430Y002412D01*
X012505Y002337D01*
X012665Y002262D02*
X012816Y002412D01*
X012816Y001961D01*
X012966Y001961D02*
X012665Y001961D01*
X017705Y003336D02*
X018005Y003787D01*
X018165Y003712D02*
X018240Y003787D01*
X018391Y003787D01*
X018466Y003712D01*
X018466Y003637D01*
X018391Y003561D01*
X018466Y003486D01*
X018466Y003411D01*
X018391Y003336D01*
X018240Y003336D01*
X018165Y003411D01*
X018005Y003336D02*
X017705Y003787D01*
X018316Y003561D02*
X018391Y003561D01*
X022430Y003511D02*
X022430Y004311D01*
X023280Y005161D02*
X024080Y005161D01*
X024141Y005436D02*
X024141Y005887D01*
X023915Y005661D01*
X024216Y005661D01*
X023755Y005436D02*
X023455Y005887D01*
X023755Y005887D02*
X023455Y005436D01*
X023455Y006836D02*
X023455Y007061D01*
X023530Y007137D01*
X023680Y007137D01*
X023755Y007061D01*
X023755Y006836D01*
X023905Y006836D02*
X023455Y006836D01*
X023755Y006986D02*
X023905Y007137D01*
X023905Y007297D02*
X023455Y007297D01*
X023455Y007597D01*
X023605Y007757D02*
X023455Y007907D01*
X023905Y007907D01*
X023905Y007757D02*
X023905Y008057D01*
X023680Y007447D02*
X023680Y007297D01*
X021905Y007411D02*
X021830Y007336D01*
X021905Y007411D02*
X021905Y007486D01*
X021830Y007561D01*
X021455Y007561D01*
X021455Y007486D02*
X021455Y007637D01*
X021455Y007797D02*
X021455Y008022D01*
X021530Y008097D01*
X021680Y008097D01*
X021755Y008022D01*
X021755Y007797D01*
X021905Y007797D02*
X021455Y007797D01*
X021455Y008257D02*
X021680Y008257D01*
X021605Y008407D01*
X021605Y008482D01*
X021680Y008557D01*
X021830Y008557D01*
X021905Y008482D01*
X021905Y008332D01*
X021830Y008257D01*
X021455Y008257D02*
X021455Y008557D01*
X025460Y010491D02*
X025960Y010491D01*
X025460Y010491D02*
X025460Y004131D01*
X025960Y004131D01*
X024930Y004311D02*
X024930Y003511D01*
X024080Y002661D02*
X023280Y002661D01*
X028705Y002911D02*
X028780Y002836D01*
X028930Y002836D01*
X029005Y002911D01*
X029165Y002836D02*
X029466Y002836D01*
X029316Y002836D02*
X029316Y003287D01*
X029165Y003137D01*
X029005Y003212D02*
X028930Y003287D01*
X028780Y003287D01*
X028705Y003212D01*
X028705Y002911D01*
X029626Y002911D02*
X029701Y002836D01*
X029851Y002836D01*
X029926Y002911D01*
X029926Y002986D01*
X029851Y003061D01*
X029776Y003061D01*
X029851Y003061D02*
X029926Y003137D01*
X029926Y003212D01*
X029851Y003287D01*
X029701Y003287D01*
X029626Y003212D01*
X031400Y004131D02*
X031900Y004131D01*
X031900Y010491D01*
X031400Y010491D01*
X031955Y010661D02*
X032030Y010586D01*
X032330Y010586D01*
X032405Y010661D01*
X032405Y010811D01*
X032330Y010887D01*
X032330Y011047D02*
X032405Y011122D01*
X032405Y011272D01*
X032330Y011347D01*
X032255Y011347D01*
X032180Y011272D01*
X032180Y011197D01*
X032180Y011272D02*
X032105Y011347D01*
X032030Y011347D01*
X031955Y011272D01*
X031955Y011122D01*
X032030Y011047D01*
X032030Y010887D02*
X031955Y010811D01*
X031955Y010661D01*
X030180Y009561D02*
X028180Y009561D01*
X028122Y009567D01*
X028064Y009570D01*
X028006Y009569D01*
X027948Y009563D01*
X027890Y009555D01*
X027833Y009542D01*
X027778Y009525D01*
X027723Y009505D01*
X027670Y009482D01*
X027618Y009455D01*
X027569Y009424D01*
X027521Y009390D01*
X027476Y009354D01*
X027433Y009314D01*
X027393Y009272D01*
X027356Y009227D01*
X027322Y009180D01*
X027291Y009131D01*
X027263Y009079D01*
X027239Y009026D01*
X027219Y008972D01*
X027202Y008916D01*
X027188Y008860D01*
X027179Y008802D01*
X027173Y008744D01*
X027171Y008686D01*
X027173Y008628D01*
X027179Y008570D01*
X027188Y008512D01*
X027202Y008456D01*
X027219Y008400D01*
X027239Y008346D01*
X027263Y008293D01*
X027291Y008241D01*
X027322Y008192D01*
X027356Y008145D01*
X027393Y008100D01*
X027433Y008058D01*
X027476Y008018D01*
X027521Y007982D01*
X027569Y007948D01*
X027618Y007917D01*
X027670Y007890D01*
X027723Y007867D01*
X027778Y007847D01*
X027833Y007830D01*
X027890Y007817D01*
X027948Y007809D01*
X028006Y007803D01*
X028064Y007802D01*
X028122Y007805D01*
X028180Y007811D01*
X030180Y007811D01*
X030238Y007813D01*
X030297Y007819D01*
X030354Y007829D01*
X030411Y007842D01*
X030467Y007859D01*
X030522Y007880D01*
X030575Y007905D01*
X030626Y007933D01*
X030675Y007965D01*
X030722Y007999D01*
X030767Y008037D01*
X030809Y008078D01*
X030848Y008121D01*
X030884Y008167D01*
X030918Y008215D01*
X030947Y008265D01*
X030974Y008318D01*
X030997Y008372D01*
X031016Y008427D01*
X031031Y008483D01*
X031043Y008540D01*
X031051Y008598D01*
X031055Y008657D01*
X031055Y008715D01*
X031051Y008774D01*
X031043Y008832D01*
X031031Y008889D01*
X031016Y008945D01*
X030997Y009000D01*
X030974Y009054D01*
X030947Y009107D01*
X030918Y009157D01*
X030884Y009205D01*
X030848Y009251D01*
X030809Y009294D01*
X030767Y009335D01*
X030722Y009373D01*
X030675Y009407D01*
X030626Y009439D01*
X030575Y009467D01*
X030522Y009492D01*
X030467Y009513D01*
X030411Y009530D01*
X030354Y009543D01*
X030297Y009553D01*
X030238Y009559D01*
X030180Y009561D01*
X032030Y006347D02*
X032105Y006347D01*
X032180Y006272D01*
X032180Y006122D01*
X032105Y006047D01*
X032030Y006047D01*
X031955Y006122D01*
X031955Y006272D01*
X032030Y006347D01*
X032180Y006272D02*
X032255Y006347D01*
X032330Y006347D01*
X032405Y006272D01*
X032405Y006122D01*
X032330Y006047D01*
X032255Y006047D01*
X032180Y006122D01*
X032180Y005887D02*
X032255Y005811D01*
X032255Y005586D01*
X032405Y005586D02*
X031955Y005586D01*
X031955Y005811D01*
X032030Y005887D01*
X032180Y005887D01*
X032255Y005736D02*
X032405Y005887D01*
X034205Y004787D02*
X034205Y004637D01*
X034280Y004561D01*
X034355Y004561D01*
X034430Y004637D01*
X034430Y004787D01*
X034505Y004862D01*
X034580Y004862D01*
X034655Y004787D01*
X034655Y004637D01*
X034580Y004561D01*
X034505Y004561D01*
X034430Y004637D01*
X034430Y004787D02*
X034355Y004862D01*
X034280Y004862D01*
X034205Y004787D01*
X034205Y004401D02*
X034280Y004251D01*
X034430Y004101D01*
X034430Y004326D01*
X034505Y004401D01*
X034580Y004401D01*
X034655Y004326D01*
X034655Y004176D01*
X034580Y004101D01*
X034430Y004101D01*
X034280Y003941D02*
X034580Y003641D01*
X034655Y003641D01*
X034655Y003482D02*
X034505Y003257D01*
X034355Y003482D01*
X034205Y003641D02*
X034205Y003941D01*
X034280Y003941D01*
X034205Y003257D02*
X034655Y003257D01*
X034655Y003097D02*
X034655Y002797D01*
X034355Y003097D01*
X034280Y003097D01*
X034205Y003022D01*
X034205Y002872D01*
X034280Y002797D01*
X034280Y002637D02*
X034355Y002637D01*
X034430Y002561D01*
X034505Y002637D01*
X034580Y002637D01*
X034655Y002561D01*
X034655Y002411D01*
X034580Y002336D01*
X034430Y002486D02*
X034430Y002561D01*
X034280Y002637D02*
X034205Y002561D01*
X034205Y002411D01*
X034280Y002336D01*
X033905Y002486D02*
X033680Y002486D01*
X033530Y002637D01*
X033455Y002637D01*
X033605Y002797D02*
X033455Y002947D01*
X033905Y002947D01*
X033905Y002797D02*
X033905Y003097D01*
X033680Y002486D02*
X033530Y002336D01*
X033455Y002336D01*
X038530Y007586D02*
X038680Y007586D01*
X038755Y007661D01*
X038915Y007811D02*
X039216Y007811D01*
X039141Y007586D02*
X039141Y008037D01*
X038915Y007811D01*
X038755Y007962D02*
X038680Y008037D01*
X038530Y008037D01*
X038455Y007962D01*
X038455Y007661D01*
X038530Y007586D01*
X038330Y008836D02*
X038330Y008986D01*
X038330Y008911D02*
X038780Y008911D01*
X038780Y008836D02*
X038780Y008986D01*
X038705Y009143D02*
X038780Y009218D01*
X038780Y009368D01*
X038705Y009443D01*
X038780Y009604D02*
X038480Y009904D01*
X038405Y009904D01*
X038330Y009829D01*
X038330Y009679D01*
X038405Y009604D01*
X038405Y009443D02*
X038330Y009368D01*
X038330Y009218D01*
X038405Y009143D01*
X038705Y009143D01*
X038955Y009061D02*
X038955Y008836D01*
X039405Y008836D01*
X039405Y009061D01*
X039330Y009137D01*
X039030Y009137D01*
X038955Y009061D01*
X039030Y009297D02*
X039105Y009297D01*
X039180Y009372D01*
X039180Y009522D01*
X039255Y009597D01*
X039330Y009597D01*
X039405Y009522D01*
X039405Y009372D01*
X039330Y009297D01*
X039030Y009297D02*
X038955Y009372D01*
X038955Y009522D01*
X039030Y009597D01*
X039105Y009757D02*
X038955Y009907D01*
X039405Y009907D01*
X039405Y009757D02*
X039405Y010057D01*
X039330Y010217D02*
X039405Y010293D01*
X039405Y010443D01*
X039330Y010518D01*
X039255Y010518D01*
X039180Y010443D01*
X039180Y010368D01*
X039180Y010443D02*
X039105Y010518D01*
X039030Y010518D01*
X038955Y010443D01*
X038955Y010293D01*
X039030Y010217D01*
X038780Y009904D02*
X038780Y009604D01*
X039030Y010678D02*
X038955Y010753D01*
X038955Y010903D01*
X039030Y010978D01*
X039330Y010678D01*
X039405Y010753D01*
X039405Y010903D01*
X039330Y010978D01*
X039030Y010978D01*
X038955Y011138D02*
X038955Y011438D01*
X039030Y011438D01*
X039330Y011138D01*
X039405Y011138D01*
X039330Y010678D02*
X039030Y010678D01*
X037905Y013086D02*
X037455Y013086D01*
X037455Y013311D01*
X037530Y013387D01*
X037680Y013387D01*
X037755Y013311D01*
X037755Y013086D01*
X037755Y013236D02*
X037905Y013387D01*
X037905Y013547D02*
X037830Y013547D01*
X037530Y013847D01*
X037455Y013847D01*
X037455Y013547D01*
X006216Y018161D02*
X006216Y018236D01*
X006141Y018311D01*
X005915Y018311D01*
X005915Y018161D01*
X005990Y018086D01*
X006141Y018086D01*
X006216Y018161D01*
X006066Y018462D02*
X005915Y018311D01*
X006066Y018462D02*
X006216Y018537D01*
X005755Y018462D02*
X005680Y018537D01*
X005530Y018537D01*
X005455Y018462D01*
X005455Y018161D01*
X005530Y018086D01*
X005680Y018086D01*
X005755Y018161D01*
X004807Y017962D02*
X004507Y017661D01*
X004582Y017586D01*
X004732Y017586D01*
X004807Y017661D01*
X004807Y017962D01*
X004732Y018037D01*
X004582Y018037D01*
X004507Y017962D01*
X004507Y017661D01*
X004347Y017661D02*
X004347Y017962D01*
X004047Y017661D01*
X004122Y017586D01*
X004272Y017586D01*
X004347Y017661D01*
X004047Y017661D02*
X004047Y017962D01*
X004122Y018037D01*
X004272Y018037D01*
X004347Y017962D01*
X003886Y017962D02*
X003886Y017661D01*
X003811Y017586D01*
X003661Y017586D01*
X003586Y017661D01*
X003886Y017962D01*
X003811Y018037D01*
X003661Y018037D01*
X003586Y017962D01*
X003586Y017661D01*
X003426Y017962D02*
X003126Y017661D01*
X003126Y017586D01*
X002966Y017586D02*
X002966Y018037D01*
X003126Y018037D02*
X003426Y018037D01*
X003426Y017962D01*
X002966Y018211D02*
X002665Y018211D01*
X002816Y018211D02*
X002816Y018662D01*
X002665Y018512D01*
X002505Y018587D02*
X002505Y018286D01*
X002430Y018211D01*
X002280Y018211D01*
X002205Y018286D01*
X002205Y018587D01*
X002280Y018662D01*
X002430Y018662D01*
X002505Y018587D01*
X002355Y018361D02*
X002505Y018211D01*
X002430Y018037D02*
X002280Y018037D01*
X002205Y017962D01*
X002430Y018037D02*
X002505Y017962D01*
X002505Y017887D01*
X002205Y017586D01*
X002505Y017586D01*
X002665Y017586D02*
X002665Y018037D01*
X002966Y017586D01*
D19*
X001757Y011542D02*
X001802Y011464D01*
X001801Y011464D02*
X001757Y011436D01*
X001715Y011405D01*
X001675Y011372D01*
X001637Y011336D01*
X001602Y011297D01*
X001570Y011256D01*
X001540Y011212D01*
X001514Y011167D01*
X001491Y011120D01*
X001471Y011072D01*
X001455Y011022D01*
X001442Y010972D01*
X001433Y010920D01*
X001427Y010868D01*
X001425Y010816D01*
X001336Y010815D01*
X001335Y010816D01*
X001337Y010871D01*
X001343Y010925D01*
X001352Y010980D01*
X001365Y011033D01*
X001381Y011085D01*
X001400Y011137D01*
X001423Y011187D01*
X001449Y011235D01*
X001478Y011282D01*
X001510Y011326D01*
X001545Y011369D01*
X001583Y011409D01*
X001623Y011446D01*
X001665Y011481D01*
X001710Y011513D01*
X001756Y011542D01*
X001761Y011534D01*
X001715Y011506D01*
X001671Y011474D01*
X001629Y011439D01*
X001589Y011402D01*
X001552Y011363D01*
X001517Y011321D01*
X001486Y011277D01*
X001457Y011231D01*
X001431Y011183D01*
X001409Y011133D01*
X001389Y011083D01*
X001373Y011031D01*
X001361Y010978D01*
X001352Y010924D01*
X001346Y010870D01*
X001344Y010816D01*
X001353Y010816D01*
X001355Y010870D01*
X001361Y010923D01*
X001370Y010976D01*
X001382Y011028D01*
X001398Y011080D01*
X001417Y011130D01*
X001439Y011179D01*
X001465Y011226D01*
X001493Y011272D01*
X001525Y011315D01*
X001559Y011357D01*
X001595Y011396D01*
X001635Y011433D01*
X001676Y011467D01*
X001720Y011498D01*
X001765Y011527D01*
X001770Y011519D01*
X001722Y011489D01*
X001676Y011455D01*
X001633Y011419D01*
X001592Y011379D01*
X001554Y011337D01*
X001519Y011293D01*
X001487Y011246D01*
X001459Y011197D01*
X001434Y011146D01*
X001412Y011093D01*
X001395Y011040D01*
X001381Y010985D01*
X001371Y010929D01*
X001364Y010873D01*
X001362Y010816D01*
X001371Y010816D01*
X001373Y010872D01*
X001379Y010928D01*
X001389Y010983D01*
X001403Y011037D01*
X001421Y011090D01*
X001442Y011142D01*
X001467Y011193D01*
X001495Y011241D01*
X001526Y011287D01*
X001561Y011332D01*
X001598Y011373D01*
X001639Y011412D01*
X001681Y011448D01*
X001727Y011481D01*
X001774Y011511D01*
X001779Y011503D01*
X001732Y011474D01*
X001687Y011441D01*
X001645Y011405D01*
X001605Y011367D01*
X001568Y011326D01*
X001533Y011282D01*
X001502Y011236D01*
X001475Y011188D01*
X001450Y011139D01*
X001429Y011087D01*
X001412Y011035D01*
X001398Y010981D01*
X001388Y010926D01*
X001382Y010871D01*
X001380Y010816D01*
X001389Y010816D01*
X001391Y010871D01*
X001397Y010925D01*
X001407Y010979D01*
X001421Y011032D01*
X001438Y011084D01*
X001458Y011135D01*
X001483Y011184D01*
X001510Y011231D01*
X001541Y011277D01*
X001574Y011320D01*
X001611Y011361D01*
X001651Y011399D01*
X001693Y011434D01*
X001737Y011466D01*
X001783Y011495D01*
X001788Y011487D01*
X001742Y011459D01*
X001698Y011427D01*
X001657Y011392D01*
X001618Y011354D01*
X001581Y011314D01*
X001548Y011272D01*
X001518Y011227D01*
X001490Y011180D01*
X001467Y011131D01*
X001446Y011081D01*
X001429Y011030D01*
X001416Y010977D01*
X001406Y010924D01*
X001400Y010870D01*
X001398Y010816D01*
X001407Y010816D01*
X001409Y010869D01*
X001415Y010923D01*
X001425Y010975D01*
X001438Y011027D01*
X001455Y011078D01*
X001475Y011128D01*
X001498Y011176D01*
X001525Y011222D01*
X001555Y011266D01*
X001588Y011308D01*
X001624Y011348D01*
X001663Y011385D01*
X001704Y011420D01*
X001747Y011451D01*
X001792Y011480D01*
X001797Y011472D01*
X001752Y011444D01*
X001709Y011413D01*
X001669Y011379D01*
X001631Y011342D01*
X001595Y011303D01*
X001563Y011261D01*
X001533Y011217D01*
X001506Y011171D01*
X001483Y011124D01*
X001463Y011075D01*
X001446Y011025D01*
X001433Y010973D01*
X001424Y010921D01*
X001418Y010869D01*
X001416Y010816D01*
X003024Y010816D02*
X002934Y010816D01*
X002935Y010816D02*
X002933Y010870D01*
X002927Y010923D01*
X002917Y010976D01*
X002903Y011028D01*
X002886Y011079D01*
X002865Y011128D01*
X002841Y011176D01*
X002813Y011222D01*
X002782Y011266D01*
X002748Y011308D01*
X002712Y011347D01*
X002672Y011384D01*
X002630Y011417D01*
X002586Y011448D01*
X002540Y011475D01*
X002582Y011554D01*
X002631Y011526D01*
X002677Y011494D01*
X002722Y011459D01*
X002764Y011422D01*
X002804Y011381D01*
X002840Y011338D01*
X002874Y011293D01*
X002905Y011246D01*
X002932Y011196D01*
X002956Y011145D01*
X002977Y011093D01*
X002994Y011039D01*
X003007Y010984D01*
X003017Y010929D01*
X003023Y010872D01*
X003025Y010816D01*
X003016Y010816D01*
X003014Y010872D01*
X003008Y010927D01*
X002998Y010982D01*
X002985Y011037D01*
X002968Y011090D01*
X002948Y011142D01*
X002924Y011192D01*
X002897Y011241D01*
X002867Y011288D01*
X002833Y011333D01*
X002797Y011375D01*
X002758Y011415D01*
X002716Y011452D01*
X002672Y011487D01*
X002626Y011518D01*
X002578Y011546D01*
X002574Y011538D01*
X002621Y011510D01*
X002667Y011479D01*
X002710Y011445D01*
X002752Y011409D01*
X002790Y011369D01*
X002826Y011327D01*
X002859Y011283D01*
X002889Y011237D01*
X002916Y011188D01*
X002939Y011138D01*
X002960Y011087D01*
X002976Y011034D01*
X002989Y010981D01*
X002999Y010926D01*
X003005Y010871D01*
X003007Y010816D01*
X002998Y010816D01*
X002996Y010871D01*
X002990Y010925D01*
X002981Y010979D01*
X002968Y011032D01*
X002951Y011084D01*
X002931Y011135D01*
X002908Y011184D01*
X002881Y011232D01*
X002852Y011278D01*
X002819Y011322D01*
X002784Y011363D01*
X002745Y011402D01*
X002705Y011439D01*
X002662Y011472D01*
X002616Y011503D01*
X002569Y011530D01*
X002565Y011522D01*
X002612Y011495D01*
X002656Y011465D01*
X002699Y011432D01*
X002739Y011396D01*
X002777Y011357D01*
X002812Y011316D01*
X002844Y011273D01*
X002874Y011227D01*
X002900Y011180D01*
X002923Y011131D01*
X002943Y011081D01*
X002959Y011029D01*
X002972Y010977D01*
X002981Y010924D01*
X002987Y010870D01*
X002989Y010816D01*
X002980Y010816D01*
X002978Y010869D01*
X002972Y010922D01*
X002963Y010975D01*
X002950Y011027D01*
X002934Y011078D01*
X002915Y011128D01*
X002892Y011176D01*
X002866Y011223D01*
X002837Y011267D01*
X002805Y011310D01*
X002770Y011351D01*
X002733Y011389D01*
X002693Y011425D01*
X002651Y011458D01*
X002607Y011488D01*
X002561Y011515D01*
X002557Y011507D01*
X002602Y011480D01*
X002646Y011450D01*
X002687Y011418D01*
X002727Y011383D01*
X002764Y011345D01*
X002798Y011305D01*
X002830Y011262D01*
X002858Y011218D01*
X002884Y011172D01*
X002906Y011124D01*
X002926Y011075D01*
X002942Y011025D01*
X002954Y010973D01*
X002963Y010921D01*
X002969Y010869D01*
X002971Y010816D01*
X002962Y010816D01*
X002960Y010872D01*
X002953Y010927D01*
X002943Y010982D01*
X002929Y011036D01*
X002911Y011088D01*
X002890Y011140D01*
X002864Y011189D01*
X002836Y011237D01*
X002804Y011283D01*
X002769Y011326D01*
X002731Y011366D01*
X002690Y011404D01*
X002646Y011439D01*
X002600Y011470D01*
X002552Y011499D01*
X002548Y011491D01*
X002596Y011463D01*
X002641Y011432D01*
X002684Y011397D01*
X002724Y011360D01*
X002762Y011320D01*
X002797Y011277D01*
X002828Y011232D01*
X002857Y011185D01*
X002881Y011136D01*
X002903Y011085D01*
X002920Y011033D01*
X002934Y010980D01*
X002944Y010926D01*
X002951Y010871D01*
X002953Y010816D01*
X002944Y010816D01*
X002942Y010870D01*
X002936Y010924D01*
X002926Y010978D01*
X002912Y011030D01*
X002894Y011082D01*
X002873Y011132D01*
X002849Y011181D01*
X002821Y011227D01*
X002789Y011272D01*
X002755Y011314D01*
X002718Y011353D01*
X002678Y011390D01*
X002636Y011424D01*
X002591Y011455D01*
X002544Y011483D01*
X002724Y010166D02*
X002667Y010235D01*
X002667Y010234D02*
X002707Y010271D01*
X002745Y010310D01*
X002779Y010352D01*
X002811Y010396D01*
X002839Y010442D01*
X002864Y010491D01*
X002885Y010541D01*
X002903Y010592D01*
X002916Y010645D01*
X002926Y010698D01*
X002933Y010752D01*
X002935Y010806D01*
X003024Y010807D01*
X003025Y010806D01*
X003023Y010750D01*
X003017Y010694D01*
X003007Y010639D01*
X002994Y010584D01*
X002977Y010531D01*
X002957Y010478D01*
X002933Y010427D01*
X002906Y010378D01*
X002875Y010331D01*
X002842Y010286D01*
X002806Y010243D01*
X002767Y010203D01*
X002725Y010165D01*
X002719Y010172D01*
X002760Y010209D01*
X002799Y010249D01*
X002835Y010291D01*
X002868Y010336D01*
X002898Y010383D01*
X002925Y010431D01*
X002948Y010482D01*
X002969Y010534D01*
X002985Y010587D01*
X002998Y010641D01*
X003008Y010695D01*
X003014Y010750D01*
X003016Y010806D01*
X003007Y010806D01*
X003005Y010751D01*
X002999Y010696D01*
X002990Y010642D01*
X002977Y010589D01*
X002960Y010537D01*
X002940Y010485D01*
X002917Y010436D01*
X002890Y010387D01*
X002861Y010341D01*
X002828Y010297D01*
X002792Y010255D01*
X002754Y010216D01*
X002713Y010179D01*
X002708Y010186D01*
X002748Y010222D01*
X002786Y010261D01*
X002821Y010303D01*
X002853Y010346D01*
X002883Y010392D01*
X002909Y010440D01*
X002932Y010489D01*
X002952Y010539D01*
X002968Y010591D01*
X002981Y010644D01*
X002990Y010698D01*
X002996Y010752D01*
X002998Y010806D01*
X002989Y010806D01*
X002987Y010752D01*
X002981Y010699D01*
X002972Y010646D01*
X002959Y010594D01*
X002943Y010542D01*
X002924Y010492D01*
X002901Y010444D01*
X002875Y010397D01*
X002846Y010351D01*
X002814Y010308D01*
X002779Y010267D01*
X002742Y010229D01*
X002702Y010193D01*
X002696Y010200D01*
X002735Y010235D01*
X002772Y010273D01*
X002807Y010314D01*
X002838Y010357D01*
X002867Y010401D01*
X002893Y010448D01*
X002915Y010496D01*
X002935Y010545D01*
X002951Y010596D01*
X002963Y010648D01*
X002972Y010700D01*
X002978Y010753D01*
X002980Y010806D01*
X002971Y010806D01*
X002969Y010754D01*
X002963Y010701D01*
X002954Y010650D01*
X002942Y010599D01*
X002926Y010548D01*
X002907Y010499D01*
X002885Y010452D01*
X002859Y010406D01*
X002831Y010362D01*
X002800Y010320D01*
X002766Y010279D01*
X002729Y010242D01*
X002690Y010207D01*
X002684Y010213D01*
X002723Y010248D01*
X002759Y010286D01*
X002793Y010325D01*
X002824Y010367D01*
X002852Y010411D01*
X002877Y010456D01*
X002899Y010503D01*
X002918Y010551D01*
X002933Y010601D01*
X002946Y010651D01*
X002954Y010703D01*
X002960Y010754D01*
X002962Y010806D01*
X002953Y010806D01*
X002951Y010755D01*
X002946Y010704D01*
X002937Y010653D01*
X002925Y010603D01*
X002909Y010554D01*
X002891Y010507D01*
X002869Y010460D01*
X002844Y010415D01*
X002816Y010372D01*
X002786Y010331D01*
X002753Y010292D01*
X002717Y010255D01*
X002679Y010220D01*
X002673Y010227D01*
X002714Y010264D01*
X002752Y010304D01*
X002786Y010346D01*
X002818Y010391D01*
X002847Y010438D01*
X002872Y010487D01*
X002893Y010538D01*
X002911Y010589D01*
X002925Y010643D01*
X002935Y010697D01*
X002942Y010751D01*
X002944Y010806D01*
X001336Y010807D02*
X001426Y010807D01*
X001425Y010806D02*
X001427Y010752D01*
X001433Y010699D01*
X001443Y010646D01*
X001457Y010594D01*
X001474Y010543D01*
X001495Y010493D01*
X001519Y010445D01*
X001547Y010399D01*
X001578Y010355D01*
X001612Y010314D01*
X001649Y010274D01*
X001688Y010238D01*
X001631Y010170D01*
X001630Y010169D01*
X001589Y010207D01*
X001551Y010247D01*
X001515Y010290D01*
X001482Y010335D01*
X001452Y010382D01*
X001426Y010430D01*
X001402Y010481D01*
X001382Y010533D01*
X001366Y010586D01*
X001352Y010640D01*
X001343Y010695D01*
X001337Y010750D01*
X001335Y010806D01*
X001344Y010806D01*
X001346Y010751D01*
X001352Y010696D01*
X001361Y010642D01*
X001374Y010588D01*
X001391Y010536D01*
X001410Y010484D01*
X001434Y010434D01*
X001460Y010386D01*
X001490Y010340D01*
X001522Y010295D01*
X001557Y010253D01*
X001596Y010213D01*
X001636Y010176D01*
X001642Y010183D01*
X001602Y010220D01*
X001564Y010259D01*
X001529Y010301D01*
X001497Y010345D01*
X001468Y010391D01*
X001442Y010439D01*
X001419Y010488D01*
X001399Y010539D01*
X001383Y010591D01*
X001370Y010644D01*
X001361Y010697D01*
X001355Y010752D01*
X001353Y010806D01*
X001362Y010806D01*
X001364Y010752D01*
X001370Y010699D01*
X001379Y010646D01*
X001392Y010593D01*
X001408Y010542D01*
X001427Y010491D01*
X001450Y010443D01*
X001475Y010395D01*
X001504Y010350D01*
X001536Y010306D01*
X001571Y010265D01*
X001608Y010226D01*
X001648Y010190D01*
X001654Y010197D01*
X001614Y010233D01*
X001577Y010271D01*
X001543Y010312D01*
X001512Y010355D01*
X001483Y010400D01*
X001458Y010447D01*
X001435Y010495D01*
X001416Y010545D01*
X001400Y010596D01*
X001388Y010647D01*
X001379Y010700D01*
X001373Y010753D01*
X001371Y010806D01*
X001380Y010806D01*
X001382Y010753D01*
X001388Y010701D01*
X001397Y010649D01*
X001409Y010598D01*
X001425Y010548D01*
X001444Y010498D01*
X001466Y010451D01*
X001491Y010404D01*
X001519Y010360D01*
X001550Y010318D01*
X001584Y010277D01*
X001621Y010239D01*
X001659Y010204D01*
X001665Y010210D01*
X001627Y010246D01*
X001591Y010283D01*
X001557Y010323D01*
X001527Y010365D01*
X001499Y010409D01*
X001474Y010455D01*
X001452Y010502D01*
X001433Y010551D01*
X001418Y010600D01*
X001405Y010651D01*
X001397Y010702D01*
X001391Y010754D01*
X001389Y010806D01*
X001398Y010806D01*
X001400Y010750D01*
X001407Y010695D01*
X001417Y010640D01*
X001431Y010586D01*
X001449Y010533D01*
X001471Y010482D01*
X001496Y010432D01*
X001525Y010384D01*
X001557Y010339D01*
X001592Y010296D01*
X001630Y010255D01*
X001671Y010217D01*
X001677Y010224D01*
X001636Y010261D01*
X001599Y010302D01*
X001564Y010344D01*
X001532Y010389D01*
X001504Y010437D01*
X001479Y010486D01*
X001457Y010537D01*
X001440Y010589D01*
X001426Y010642D01*
X001416Y010696D01*
X001409Y010751D01*
X001407Y010806D01*
X001416Y010806D01*
X001418Y010752D01*
X001424Y010698D01*
X001434Y010644D01*
X001448Y010591D01*
X001466Y010540D01*
X001487Y010490D01*
X001512Y010441D01*
X001540Y010394D01*
X001571Y010350D01*
X001605Y010308D01*
X001643Y010268D01*
X001683Y010231D01*
X001757Y009542D02*
X001802Y009464D01*
X001801Y009464D02*
X001757Y009436D01*
X001715Y009405D01*
X001675Y009372D01*
X001637Y009336D01*
X001602Y009297D01*
X001570Y009256D01*
X001540Y009212D01*
X001514Y009167D01*
X001491Y009120D01*
X001471Y009072D01*
X001455Y009022D01*
X001442Y008972D01*
X001433Y008920D01*
X001427Y008868D01*
X001425Y008816D01*
X001336Y008815D01*
X001335Y008816D01*
X001337Y008871D01*
X001343Y008925D01*
X001352Y008980D01*
X001365Y009033D01*
X001381Y009085D01*
X001400Y009137D01*
X001423Y009187D01*
X001449Y009235D01*
X001478Y009282D01*
X001510Y009326D01*
X001545Y009369D01*
X001583Y009409D01*
X001623Y009446D01*
X001665Y009481D01*
X001710Y009513D01*
X001756Y009542D01*
X001761Y009534D01*
X001715Y009506D01*
X001671Y009474D01*
X001629Y009439D01*
X001589Y009402D01*
X001552Y009363D01*
X001517Y009321D01*
X001486Y009277D01*
X001457Y009231D01*
X001431Y009183D01*
X001409Y009133D01*
X001389Y009083D01*
X001373Y009031D01*
X001361Y008978D01*
X001352Y008924D01*
X001346Y008870D01*
X001344Y008816D01*
X001353Y008816D01*
X001355Y008870D01*
X001361Y008923D01*
X001370Y008976D01*
X001382Y009028D01*
X001398Y009080D01*
X001417Y009130D01*
X001439Y009179D01*
X001465Y009226D01*
X001493Y009272D01*
X001525Y009315D01*
X001559Y009357D01*
X001595Y009396D01*
X001635Y009433D01*
X001676Y009467D01*
X001720Y009498D01*
X001765Y009527D01*
X001770Y009519D01*
X001722Y009489D01*
X001676Y009455D01*
X001633Y009419D01*
X001592Y009379D01*
X001554Y009337D01*
X001519Y009293D01*
X001487Y009246D01*
X001459Y009197D01*
X001434Y009146D01*
X001412Y009093D01*
X001395Y009040D01*
X001381Y008985D01*
X001371Y008929D01*
X001364Y008873D01*
X001362Y008816D01*
X001371Y008816D01*
X001373Y008872D01*
X001379Y008928D01*
X001389Y008983D01*
X001403Y009037D01*
X001421Y009090D01*
X001442Y009142D01*
X001467Y009193D01*
X001495Y009241D01*
X001526Y009287D01*
X001561Y009332D01*
X001598Y009373D01*
X001639Y009412D01*
X001681Y009448D01*
X001727Y009481D01*
X001774Y009511D01*
X001779Y009503D01*
X001732Y009474D01*
X001687Y009441D01*
X001645Y009405D01*
X001605Y009367D01*
X001568Y009326D01*
X001533Y009282D01*
X001502Y009236D01*
X001475Y009188D01*
X001450Y009139D01*
X001429Y009087D01*
X001412Y009035D01*
X001398Y008981D01*
X001388Y008926D01*
X001382Y008871D01*
X001380Y008816D01*
X001389Y008816D01*
X001391Y008871D01*
X001397Y008925D01*
X001407Y008979D01*
X001421Y009032D01*
X001438Y009084D01*
X001458Y009135D01*
X001483Y009184D01*
X001510Y009231D01*
X001541Y009277D01*
X001574Y009320D01*
X001611Y009361D01*
X001651Y009399D01*
X001693Y009434D01*
X001737Y009466D01*
X001783Y009495D01*
X001788Y009487D01*
X001742Y009459D01*
X001698Y009427D01*
X001657Y009392D01*
X001618Y009354D01*
X001581Y009314D01*
X001548Y009272D01*
X001518Y009227D01*
X001490Y009180D01*
X001467Y009131D01*
X001446Y009081D01*
X001429Y009030D01*
X001416Y008977D01*
X001406Y008924D01*
X001400Y008870D01*
X001398Y008816D01*
X001407Y008816D01*
X001409Y008869D01*
X001415Y008923D01*
X001425Y008975D01*
X001438Y009027D01*
X001455Y009078D01*
X001475Y009128D01*
X001498Y009176D01*
X001525Y009222D01*
X001555Y009266D01*
X001588Y009308D01*
X001624Y009348D01*
X001663Y009385D01*
X001704Y009420D01*
X001747Y009451D01*
X001792Y009480D01*
X001797Y009472D01*
X001752Y009444D01*
X001709Y009413D01*
X001669Y009379D01*
X001631Y009342D01*
X001595Y009303D01*
X001563Y009261D01*
X001533Y009217D01*
X001506Y009171D01*
X001483Y009124D01*
X001463Y009075D01*
X001446Y009025D01*
X001433Y008973D01*
X001424Y008921D01*
X001418Y008869D01*
X001416Y008816D01*
X003024Y008816D02*
X002934Y008816D01*
X002935Y008816D02*
X002933Y008870D01*
X002927Y008923D01*
X002917Y008976D01*
X002903Y009028D01*
X002886Y009079D01*
X002865Y009128D01*
X002841Y009176D01*
X002813Y009222D01*
X002782Y009266D01*
X002748Y009308D01*
X002712Y009347D01*
X002672Y009384D01*
X002630Y009417D01*
X002586Y009448D01*
X002540Y009475D01*
X002582Y009554D01*
X002631Y009526D01*
X002677Y009494D01*
X002722Y009459D01*
X002764Y009422D01*
X002804Y009381D01*
X002840Y009338D01*
X002874Y009293D01*
X002905Y009246D01*
X002932Y009196D01*
X002956Y009145D01*
X002977Y009093D01*
X002994Y009039D01*
X003007Y008984D01*
X003017Y008929D01*
X003023Y008872D01*
X003025Y008816D01*
X003016Y008816D01*
X003014Y008872D01*
X003008Y008927D01*
X002998Y008982D01*
X002985Y009037D01*
X002968Y009090D01*
X002948Y009142D01*
X002924Y009192D01*
X002897Y009241D01*
X002867Y009288D01*
X002833Y009333D01*
X002797Y009375D01*
X002758Y009415D01*
X002716Y009452D01*
X002672Y009487D01*
X002626Y009518D01*
X002578Y009546D01*
X002574Y009538D01*
X002621Y009510D01*
X002667Y009479D01*
X002710Y009445D01*
X002752Y009409D01*
X002790Y009369D01*
X002826Y009327D01*
X002859Y009283D01*
X002889Y009237D01*
X002916Y009188D01*
X002939Y009138D01*
X002960Y009087D01*
X002976Y009034D01*
X002989Y008981D01*
X002999Y008926D01*
X003005Y008871D01*
X003007Y008816D01*
X002998Y008816D01*
X002996Y008871D01*
X002990Y008925D01*
X002981Y008979D01*
X002968Y009032D01*
X002951Y009084D01*
X002931Y009135D01*
X002908Y009184D01*
X002881Y009232D01*
X002852Y009278D01*
X002819Y009322D01*
X002784Y009363D01*
X002745Y009402D01*
X002705Y009439D01*
X002662Y009472D01*
X002616Y009503D01*
X002569Y009530D01*
X002565Y009522D01*
X002612Y009495D01*
X002656Y009465D01*
X002699Y009432D01*
X002739Y009396D01*
X002777Y009357D01*
X002812Y009316D01*
X002844Y009273D01*
X002874Y009227D01*
X002900Y009180D01*
X002923Y009131D01*
X002943Y009081D01*
X002959Y009029D01*
X002972Y008977D01*
X002981Y008924D01*
X002987Y008870D01*
X002989Y008816D01*
X002980Y008816D01*
X002978Y008869D01*
X002972Y008922D01*
X002963Y008975D01*
X002950Y009027D01*
X002934Y009078D01*
X002915Y009128D01*
X002892Y009176D01*
X002866Y009223D01*
X002837Y009267D01*
X002805Y009310D01*
X002770Y009351D01*
X002733Y009389D01*
X002693Y009425D01*
X002651Y009458D01*
X002607Y009488D01*
X002561Y009515D01*
X002557Y009507D01*
X002602Y009480D01*
X002646Y009450D01*
X002687Y009418D01*
X002727Y009383D01*
X002764Y009345D01*
X002798Y009305D01*
X002830Y009262D01*
X002858Y009218D01*
X002884Y009172D01*
X002906Y009124D01*
X002926Y009075D01*
X002942Y009025D01*
X002954Y008973D01*
X002963Y008921D01*
X002969Y008869D01*
X002971Y008816D01*
X002962Y008816D01*
X002960Y008872D01*
X002953Y008927D01*
X002943Y008982D01*
X002929Y009036D01*
X002911Y009088D01*
X002890Y009140D01*
X002864Y009189D01*
X002836Y009237D01*
X002804Y009283D01*
X002769Y009326D01*
X002731Y009366D01*
X002690Y009404D01*
X002646Y009439D01*
X002600Y009470D01*
X002552Y009499D01*
X002548Y009491D01*
X002596Y009463D01*
X002641Y009432D01*
X002684Y009397D01*
X002724Y009360D01*
X002762Y009320D01*
X002797Y009277D01*
X002828Y009232D01*
X002857Y009185D01*
X002881Y009136D01*
X002903Y009085D01*
X002920Y009033D01*
X002934Y008980D01*
X002944Y008926D01*
X002951Y008871D01*
X002953Y008816D01*
X002944Y008816D01*
X002942Y008870D01*
X002936Y008924D01*
X002926Y008978D01*
X002912Y009030D01*
X002894Y009082D01*
X002873Y009132D01*
X002849Y009181D01*
X002821Y009227D01*
X002789Y009272D01*
X002755Y009314D01*
X002718Y009353D01*
X002678Y009390D01*
X002636Y009424D01*
X002591Y009455D01*
X002544Y009483D01*
X002724Y008166D02*
X002667Y008235D01*
X002667Y008234D02*
X002707Y008271D01*
X002745Y008310D01*
X002779Y008352D01*
X002811Y008396D01*
X002839Y008442D01*
X002864Y008491D01*
X002885Y008541D01*
X002903Y008592D01*
X002916Y008645D01*
X002926Y008698D01*
X002933Y008752D01*
X002935Y008806D01*
X003024Y008807D01*
X003025Y008806D01*
X003023Y008750D01*
X003017Y008694D01*
X003007Y008639D01*
X002994Y008584D01*
X002977Y008531D01*
X002957Y008478D01*
X002933Y008427D01*
X002906Y008378D01*
X002875Y008331D01*
X002842Y008286D01*
X002806Y008243D01*
X002767Y008203D01*
X002725Y008165D01*
X002719Y008172D01*
X002760Y008209D01*
X002799Y008249D01*
X002835Y008291D01*
X002868Y008336D01*
X002898Y008383D01*
X002925Y008431D01*
X002948Y008482D01*
X002969Y008534D01*
X002985Y008587D01*
X002998Y008641D01*
X003008Y008695D01*
X003014Y008750D01*
X003016Y008806D01*
X003007Y008806D01*
X003005Y008751D01*
X002999Y008696D01*
X002990Y008642D01*
X002977Y008589D01*
X002960Y008537D01*
X002940Y008485D01*
X002917Y008436D01*
X002890Y008387D01*
X002861Y008341D01*
X002828Y008297D01*
X002792Y008255D01*
X002754Y008216D01*
X002713Y008179D01*
X002708Y008186D01*
X002748Y008222D01*
X002786Y008261D01*
X002821Y008303D01*
X002853Y008346D01*
X002883Y008392D01*
X002909Y008440D01*
X002932Y008489D01*
X002952Y008539D01*
X002968Y008591D01*
X002981Y008644D01*
X002990Y008698D01*
X002996Y008752D01*
X002998Y008806D01*
X002989Y008806D01*
X002987Y008752D01*
X002981Y008699D01*
X002972Y008646D01*
X002959Y008594D01*
X002943Y008542D01*
X002924Y008492D01*
X002901Y008444D01*
X002875Y008397D01*
X002846Y008351D01*
X002814Y008308D01*
X002779Y008267D01*
X002742Y008229D01*
X002702Y008193D01*
X002696Y008200D01*
X002735Y008235D01*
X002772Y008273D01*
X002807Y008314D01*
X002838Y008357D01*
X002867Y008401D01*
X002893Y008448D01*
X002915Y008496D01*
X002935Y008545D01*
X002951Y008596D01*
X002963Y008648D01*
X002972Y008700D01*
X002978Y008753D01*
X002980Y008806D01*
X002971Y008806D01*
X002969Y008754D01*
X002963Y008701D01*
X002954Y008650D01*
X002942Y008599D01*
X002926Y008548D01*
X002907Y008499D01*
X002885Y008452D01*
X002859Y008406D01*
X002831Y008362D01*
X002800Y008320D01*
X002766Y008279D01*
X002729Y008242D01*
X002690Y008207D01*
X002684Y008213D01*
X002723Y008248D01*
X002759Y008286D01*
X002793Y008325D01*
X002824Y008367D01*
X002852Y008411D01*
X002877Y008456D01*
X002899Y008503D01*
X002918Y008551D01*
X002933Y008601D01*
X002946Y008651D01*
X002954Y008703D01*
X002960Y008754D01*
X002962Y008806D01*
X002953Y008806D01*
X002951Y008755D01*
X002946Y008704D01*
X002937Y008653D01*
X002925Y008603D01*
X002909Y008554D01*
X002891Y008507D01*
X002869Y008460D01*
X002844Y008415D01*
X002816Y008372D01*
X002786Y008331D01*
X002753Y008292D01*
X002717Y008255D01*
X002679Y008220D01*
X002673Y008227D01*
X002714Y008264D01*
X002752Y008304D01*
X002786Y008346D01*
X002818Y008391D01*
X002847Y008438D01*
X002872Y008487D01*
X002893Y008538D01*
X002911Y008589D01*
X002925Y008643D01*
X002935Y008697D01*
X002942Y008751D01*
X002944Y008806D01*
X001336Y008807D02*
X001426Y008807D01*
X001425Y008806D02*
X001427Y008752D01*
X001433Y008699D01*
X001443Y008646D01*
X001457Y008594D01*
X001474Y008543D01*
X001495Y008493D01*
X001519Y008445D01*
X001547Y008399D01*
X001578Y008355D01*
X001612Y008314D01*
X001649Y008274D01*
X001688Y008238D01*
X001631Y008170D01*
X001630Y008169D01*
X001589Y008207D01*
X001551Y008247D01*
X001515Y008290D01*
X001482Y008335D01*
X001452Y008382D01*
X001426Y008430D01*
X001402Y008481D01*
X001382Y008533D01*
X001366Y008586D01*
X001352Y008640D01*
X001343Y008695D01*
X001337Y008750D01*
X001335Y008806D01*
X001344Y008806D01*
X001346Y008751D01*
X001352Y008696D01*
X001361Y008642D01*
X001374Y008588D01*
X001391Y008536D01*
X001410Y008484D01*
X001434Y008434D01*
X001460Y008386D01*
X001490Y008340D01*
X001522Y008295D01*
X001557Y008253D01*
X001596Y008213D01*
X001636Y008176D01*
X001642Y008183D01*
X001602Y008220D01*
X001564Y008259D01*
X001529Y008301D01*
X001497Y008345D01*
X001468Y008391D01*
X001442Y008439D01*
X001419Y008488D01*
X001399Y008539D01*
X001383Y008591D01*
X001370Y008644D01*
X001361Y008697D01*
X001355Y008752D01*
X001353Y008806D01*
X001362Y008806D01*
X001364Y008752D01*
X001370Y008699D01*
X001379Y008646D01*
X001392Y008593D01*
X001408Y008542D01*
X001427Y008491D01*
X001450Y008443D01*
X001475Y008395D01*
X001504Y008350D01*
X001536Y008306D01*
X001571Y008265D01*
X001608Y008226D01*
X001648Y008190D01*
X001654Y008197D01*
X001614Y008233D01*
X001577Y008271D01*
X001543Y008312D01*
X001512Y008355D01*
X001483Y008400D01*
X001458Y008447D01*
X001435Y008495D01*
X001416Y008545D01*
X001400Y008596D01*
X001388Y008647D01*
X001379Y008700D01*
X001373Y008753D01*
X001371Y008806D01*
X001380Y008806D01*
X001382Y008753D01*
X001388Y008701D01*
X001397Y008649D01*
X001409Y008598D01*
X001425Y008548D01*
X001444Y008498D01*
X001466Y008451D01*
X001491Y008404D01*
X001519Y008360D01*
X001550Y008318D01*
X001584Y008277D01*
X001621Y008239D01*
X001659Y008204D01*
X001665Y008210D01*
X001627Y008246D01*
X001591Y008283D01*
X001557Y008323D01*
X001527Y008365D01*
X001499Y008409D01*
X001474Y008455D01*
X001452Y008502D01*
X001433Y008551D01*
X001418Y008600D01*
X001405Y008651D01*
X001397Y008702D01*
X001391Y008754D01*
X001389Y008806D01*
X001398Y008806D01*
X001400Y008750D01*
X001407Y008695D01*
X001417Y008640D01*
X001431Y008586D01*
X001449Y008533D01*
X001471Y008482D01*
X001496Y008432D01*
X001525Y008384D01*
X001557Y008339D01*
X001592Y008296D01*
X001630Y008255D01*
X001671Y008217D01*
X001677Y008224D01*
X001636Y008261D01*
X001599Y008302D01*
X001564Y008344D01*
X001532Y008389D01*
X001504Y008437D01*
X001479Y008486D01*
X001457Y008537D01*
X001440Y008589D01*
X001426Y008642D01*
X001416Y008696D01*
X001409Y008751D01*
X001407Y008806D01*
X001416Y008806D01*
X001418Y008752D01*
X001424Y008698D01*
X001434Y008644D01*
X001448Y008591D01*
X001466Y008540D01*
X001487Y008490D01*
X001512Y008441D01*
X001540Y008394D01*
X001571Y008350D01*
X001605Y008308D01*
X001643Y008268D01*
X001683Y008231D01*
D20*
X010780Y007211D02*
X013080Y007211D01*
X013139Y007209D01*
X013197Y007203D01*
X013256Y007194D01*
X013313Y007180D01*
X013369Y007163D01*
X013424Y007142D01*
X013478Y007118D01*
X013530Y007090D01*
X013580Y007059D01*
X013628Y007025D01*
X013673Y006988D01*
X013716Y006947D01*
X013757Y006904D01*
X013794Y006859D01*
X013828Y006811D01*
X013859Y006761D01*
X013887Y006709D01*
X013911Y006655D01*
X013932Y006600D01*
X013949Y006544D01*
X013963Y006487D01*
X013972Y006428D01*
X013978Y006370D01*
X013980Y006311D01*
X013978Y006252D01*
X013972Y006194D01*
X013963Y006135D01*
X013949Y006078D01*
X013932Y006022D01*
X013911Y005967D01*
X013887Y005913D01*
X013859Y005861D01*
X013828Y005811D01*
X013794Y005763D01*
X013757Y005718D01*
X013716Y005675D01*
X013673Y005634D01*
X013628Y005597D01*
X013580Y005563D01*
X013530Y005532D01*
X013478Y005504D01*
X013424Y005480D01*
X013369Y005459D01*
X013313Y005442D01*
X013256Y005428D01*
X013197Y005419D01*
X013139Y005413D01*
X013080Y005411D01*
X010780Y005411D01*
X010721Y005413D01*
X010663Y005419D01*
X010604Y005428D01*
X010547Y005442D01*
X010491Y005459D01*
X010436Y005480D01*
X010382Y005504D01*
X010330Y005532D01*
X010280Y005563D01*
X010232Y005597D01*
X010187Y005634D01*
X010144Y005675D01*
X010103Y005718D01*
X010066Y005763D01*
X010032Y005811D01*
X010001Y005861D01*
X009973Y005913D01*
X009949Y005967D01*
X009928Y006022D01*
X009911Y006078D01*
X009897Y006135D01*
X009888Y006194D01*
X009882Y006252D01*
X009880Y006311D01*
X009882Y006370D01*
X009888Y006428D01*
X009897Y006487D01*
X009911Y006544D01*
X009928Y006600D01*
X009949Y006655D01*
X009973Y006709D01*
X010001Y006761D01*
X010032Y006811D01*
X010066Y006859D01*
X010103Y006904D01*
X010144Y006947D01*
X010187Y006988D01*
X010232Y007025D01*
X010280Y007059D01*
X010330Y007090D01*
X010382Y007118D01*
X010436Y007142D01*
X010491Y007163D01*
X010547Y007180D01*
X010604Y007194D01*
X010663Y007203D01*
X010721Y007209D01*
X010780Y007211D01*
X010830Y027161D02*
X008530Y027161D01*
X008471Y027163D01*
X008413Y027169D01*
X008354Y027178D01*
X008297Y027192D01*
X008241Y027209D01*
X008186Y027230D01*
X008132Y027254D01*
X008080Y027282D01*
X008030Y027313D01*
X007982Y027347D01*
X007937Y027384D01*
X007894Y027425D01*
X007853Y027468D01*
X007816Y027513D01*
X007782Y027561D01*
X007751Y027611D01*
X007723Y027663D01*
X007699Y027717D01*
X007678Y027772D01*
X007661Y027828D01*
X007647Y027885D01*
X007638Y027944D01*
X007632Y028002D01*
X007630Y028061D01*
X007632Y028120D01*
X007638Y028178D01*
X007647Y028237D01*
X007661Y028294D01*
X007678Y028350D01*
X007699Y028405D01*
X007723Y028459D01*
X007751Y028511D01*
X007782Y028561D01*
X007816Y028609D01*
X007853Y028654D01*
X007894Y028697D01*
X007937Y028738D01*
X007982Y028775D01*
X008030Y028809D01*
X008080Y028840D01*
X008132Y028868D01*
X008186Y028892D01*
X008241Y028913D01*
X008297Y028930D01*
X008354Y028944D01*
X008413Y028953D01*
X008471Y028959D01*
X008530Y028961D01*
X010830Y028961D01*
X010889Y028959D01*
X010947Y028953D01*
X011006Y028944D01*
X011063Y028930D01*
X011119Y028913D01*
X011174Y028892D01*
X011228Y028868D01*
X011280Y028840D01*
X011330Y028809D01*
X011378Y028775D01*
X011423Y028738D01*
X011466Y028697D01*
X011507Y028654D01*
X011544Y028609D01*
X011578Y028561D01*
X011609Y028511D01*
X011637Y028459D01*
X011661Y028405D01*
X011682Y028350D01*
X011699Y028294D01*
X011713Y028237D01*
X011722Y028178D01*
X011728Y028120D01*
X011730Y028061D01*
X011728Y028002D01*
X011722Y027944D01*
X011713Y027885D01*
X011699Y027828D01*
X011682Y027772D01*
X011661Y027717D01*
X011637Y027663D01*
X011609Y027611D01*
X011578Y027561D01*
X011544Y027513D01*
X011507Y027468D01*
X011466Y027425D01*
X011423Y027384D01*
X011378Y027347D01*
X011330Y027313D01*
X011280Y027282D01*
X011228Y027254D01*
X011174Y027230D01*
X011119Y027209D01*
X011063Y027192D01*
X011006Y027178D01*
X010947Y027169D01*
X010889Y027163D01*
X010830Y027161D01*
X035230Y005911D02*
X035230Y005811D01*
X035630Y005811D02*
X035630Y005911D01*
D21*
X035630Y005796D03*
X035230Y005796D03*
D22*
X011280Y007961D02*
X011280Y010661D01*
X004080Y010661D01*
X004080Y007961D01*
X006880Y007961D01*
X008480Y007961D02*
X008880Y007961D01*
X009480Y007961D02*
X011280Y007961D01*
M02*
