%
M48
M72
T01C0.0200
T02C0.0276
T03C0.0315
T04C0.0320
T05C0.0354
T06C0.0360
T07C0.0394
T08C0.0400
T09C0.0512
T10C0.0730
T11C0.0900
T12C0.1181
%
T01
X4939Y10324
X10689Y11824
X13439Y13074
X10189Y16824
X8189Y17824
X10689Y20074
X11689Y21324
X13189Y20324
X14689Y21824
X15189Y23824
X16689Y24074
X19689Y22824
X20939Y23074
X22689Y23074
X27439Y25074
X28439Y23324
X30439Y20574
X27939Y17824
X24939Y17074
X21189Y15574
X18689Y13824
X16439Y7824
X16439Y5574
X27189Y2324
X27939Y11074
X27439Y13824
X31189Y14574
X24939Y28574
X26939Y29074
X11189Y22824
X10189Y23324
X3689Y26074
X6689Y30074
X10189Y30324
X10939Y30324
T02
X13189Y27824
X14189Y27824
X14189Y26574
X13189Y26574
X7189Y27824
X6189Y27824
X12689Y18324
X12689Y17324
X13689Y17324
X13689Y18324
X15205Y17324
X17174Y17324
X16205Y11699
X18174Y11699
X8189Y16324
X7189Y16324
X4189Y5574
X3189Y5574
T03
X17189Y7324
X19189Y7324
T04
X25189Y7324
X27189Y7324
X27189Y3324
X25189Y3324
X35189Y6824
X36189Y6824
X36189Y7824
X35189Y7824
X37189Y7824
X38189Y7824
X38189Y10824
X37189Y10824
X36189Y10824
X35189Y10824
X24689Y17824
X23939Y18324
X24689Y18824
X22189Y19324
X21189Y19324
X20189Y19324
X19189Y19324
X18189Y19324
X17189Y19324
X16189Y19324
X15189Y19324
X14189Y19324
X13189Y19324
X12189Y19324
X11189Y19324
X10189Y19324
X9189Y19324
X8189Y19324
X7189Y19324
X6189Y19324
X5189Y19324
X4189Y19324
X3189Y19324
X3189Y16824
X3689Y16074
X4189Y16824
X2689Y11074
X2689Y10074
X2689Y8824
X2689Y7824
X15689Y15824
X16189Y15074
X16689Y15824
X16189Y25324
X17189Y25324
X18189Y25324
X19189Y25324
X20189Y25324
X21189Y25324
X22189Y25324
X15189Y25324
X14189Y25324
X13189Y25324
X12189Y25324
X11189Y25324
X10189Y25324
X9189Y25324
X8189Y25324
X7189Y25324
X6189Y25324
X5189Y25324
X4189Y25324
X3189Y25324
X9239Y27824
X11139Y27824
T05
X12189Y14324
X8189Y14324
X7189Y14324
X7189Y12324
X3189Y12324
X3189Y14324
X22189Y8574
X23189Y7324
X26189Y8574
X28189Y8574
X28689Y7324
X32189Y8574
X33439Y9574
X33439Y5574
X28689Y3324
X23189Y3324
X32189Y15574
X32189Y17324
X36189Y17324
X36189Y15574
T06
X19681Y5854
X18697Y5854
X18697Y5074
X19681Y5074
X10189Y8824
X9189Y8824
X8189Y8824
X7189Y8824
X6189Y8824
X6189Y9824
X7189Y9824
X8189Y9824
X9189Y9824
X10189Y9824
T07
X13189Y9824
X14189Y9824
X15189Y9824
X16189Y9824
X17189Y9824
X18189Y9824
X19189Y9824
X12189Y12324
X8189Y12324
T08
X14189Y12824
X15189Y12824
X16189Y12824
X17189Y12824
X18189Y12824
X19189Y12824
X21189Y12824
X22189Y12824
X23189Y12824
X24189Y12824
X25189Y12824
X26189Y12824
X27189Y12824
X28189Y12824
X30189Y12824
X31189Y12824
X32189Y12824
X33189Y12824
X34189Y12824
X35189Y12824
X36189Y12824
X37189Y12824
X33189Y10824
X32189Y10824
X30689Y10824
X29689Y10824
X28689Y10824
X26689Y10824
X25689Y10824
X24689Y10824
X23189Y10824
X22189Y10824
X21189Y10824
X15189Y7324
X15189Y6324
X13939Y6324
X13939Y7324
X14969Y4714
X14969Y2934
X12409Y2934
X12409Y4714
X10689Y6024
X9689Y6124
X8689Y6024
X7689Y6124
X6689Y6024
X5689Y6124
X4189Y6574
X3189Y6574
X26189Y21824
X27189Y21824
X27189Y22824
X26189Y22824
X26189Y23824
X27189Y23824
X26189Y31824
X25189Y31824
X24189Y31824
X23189Y31824
X22189Y31824
X21189Y31824
X20189Y31824
X19189Y31824
X17589Y31824
X16589Y31824
X15589Y31824
X14589Y31824
X13589Y31824
X12589Y31824
X11589Y31824
X10589Y31824
X28189Y31824
X29189Y31824
X30189Y31824
X31189Y31824
X32189Y31824
X33189Y31824
X34189Y31824
X35189Y31824
X31939Y6324
X30939Y6324
X30159Y4714
X30159Y2934
X32719Y2934
X32719Y4714
T09
X31315Y22824
X39189Y22824
T10
X35689Y20224
X35689Y25424
T11
X21559Y4004
X16819Y4004
T12
X2939Y3574
X29939Y28074
X38439Y31074
X38439Y3574
X2939Y31074
M30
