G75*
G70*
%OFA0B0*%
%FSLAX24Y24*%
%IPPOS*%
%LPD*%
%AMOC8*
5,1,8,0,0,1.08239X$1,22.5*
%
%ADD10C,0.0000*%
%ADD11C,0.0640*%
%ADD12C,0.0820*%
%ADD13C,0.0730*%
%ADD14C,0.0740*%
%ADD15C,0.1380*%
%ADD16R,0.0820X0.0820*%
%ADD17OC8,0.0710*%
%ADD18R,0.0320X0.0950*%
%ADD19C,0.0848*%
%ADD20OC8,0.0680*%
%ADD21C,0.2380*%
%ADD22R,0.0730X0.0730*%
%ADD23C,0.0714*%
%ADD24C,0.0860*%
%ADD25C,0.1180*%
%ADD26R,0.0580X0.1080*%
D10*
X002430Y001811D02*
X037930Y001811D01*
X038013Y001813D01*
X038096Y001819D01*
X038179Y001829D01*
X038261Y001843D01*
X038343Y001860D01*
X038423Y001882D01*
X038502Y001907D01*
X038580Y001936D01*
X038657Y001969D01*
X038732Y002006D01*
X038805Y002045D01*
X038876Y002089D01*
X038945Y002135D01*
X039012Y002185D01*
X039076Y002238D01*
X039138Y002294D01*
X039197Y002353D01*
X039253Y002415D01*
X039306Y002479D01*
X039356Y002546D01*
X039402Y002615D01*
X039446Y002686D01*
X039485Y002759D01*
X039522Y002834D01*
X039555Y002911D01*
X039584Y002989D01*
X039609Y003068D01*
X039631Y003148D01*
X039648Y003230D01*
X039662Y003312D01*
X039672Y003395D01*
X039678Y003478D01*
X039680Y003561D01*
X039680Y031061D01*
X039678Y031144D01*
X039672Y031227D01*
X039662Y031310D01*
X039648Y031392D01*
X039631Y031474D01*
X039609Y031554D01*
X039584Y031633D01*
X039555Y031711D01*
X039522Y031788D01*
X039485Y031863D01*
X039446Y031936D01*
X039402Y032007D01*
X039356Y032076D01*
X039306Y032143D01*
X039253Y032207D01*
X039197Y032269D01*
X039138Y032328D01*
X039076Y032384D01*
X039012Y032437D01*
X038945Y032487D01*
X038876Y032533D01*
X038805Y032577D01*
X038732Y032616D01*
X038657Y032653D01*
X038580Y032686D01*
X038502Y032715D01*
X038423Y032740D01*
X038343Y032762D01*
X038261Y032779D01*
X038179Y032793D01*
X038096Y032803D01*
X038013Y032809D01*
X037930Y032811D01*
X002430Y032811D01*
X002347Y032809D01*
X002264Y032803D01*
X002181Y032793D01*
X002099Y032779D01*
X002017Y032762D01*
X001937Y032740D01*
X001858Y032715D01*
X001780Y032686D01*
X001703Y032653D01*
X001628Y032616D01*
X001555Y032577D01*
X001484Y032533D01*
X001415Y032487D01*
X001348Y032437D01*
X001284Y032384D01*
X001222Y032328D01*
X001163Y032269D01*
X001107Y032207D01*
X001054Y032143D01*
X001004Y032076D01*
X000958Y032007D01*
X000914Y031936D01*
X000875Y031863D01*
X000838Y031788D01*
X000805Y031711D01*
X000776Y031633D01*
X000751Y031554D01*
X000729Y031474D01*
X000712Y031392D01*
X000698Y031310D01*
X000688Y031227D01*
X000682Y031144D01*
X000680Y031061D01*
X000680Y003561D01*
X000682Y003478D01*
X000688Y003395D01*
X000698Y003312D01*
X000712Y003230D01*
X000729Y003148D01*
X000751Y003068D01*
X000776Y002989D01*
X000805Y002911D01*
X000838Y002834D01*
X000875Y002759D01*
X000914Y002686D01*
X000958Y002615D01*
X001004Y002546D01*
X001054Y002479D01*
X001107Y002415D01*
X001163Y002353D01*
X001222Y002294D01*
X001284Y002238D01*
X001348Y002185D01*
X001415Y002135D01*
X001484Y002089D01*
X001555Y002045D01*
X001628Y002006D01*
X001703Y001969D01*
X001780Y001936D01*
X001858Y001907D01*
X001937Y001882D01*
X002017Y001860D01*
X002099Y001843D01*
X002181Y001829D01*
X002264Y001819D01*
X002347Y001813D01*
X002430Y001811D01*
D11*
X002680Y019031D02*
X002680Y019591D01*
X003680Y019591D02*
X003680Y019031D01*
X004680Y019031D02*
X004680Y019591D01*
X005680Y019591D02*
X005680Y019031D01*
X006680Y019031D02*
X006680Y019591D01*
X007680Y019591D02*
X007680Y019031D01*
X008680Y019031D02*
X008680Y019591D01*
X009680Y019591D02*
X009680Y019031D01*
X010680Y019031D02*
X010680Y019591D01*
X011680Y019591D02*
X011680Y019031D01*
X012680Y019031D02*
X012680Y019591D01*
X013680Y019591D02*
X013680Y019031D01*
X014680Y019031D02*
X014680Y019591D01*
X015680Y019591D02*
X015680Y019031D01*
X016680Y019031D02*
X016680Y019591D01*
X017680Y019591D02*
X017680Y019031D01*
X018680Y019031D02*
X018680Y019591D01*
X019680Y019591D02*
X019680Y019031D01*
X020680Y019031D02*
X020680Y019591D01*
X021680Y019591D02*
X021680Y019031D01*
X021680Y025031D02*
X021680Y025591D01*
X020680Y025591D02*
X020680Y025031D01*
X019680Y025031D02*
X019680Y025591D01*
X018680Y025591D02*
X018680Y025031D01*
X017680Y025031D02*
X017680Y025591D01*
X016680Y025591D02*
X016680Y025031D01*
X015680Y025031D02*
X015680Y025591D01*
X014680Y025591D02*
X014680Y025031D01*
X013680Y025031D02*
X013680Y025591D01*
X012680Y025591D02*
X012680Y025031D01*
X011680Y025031D02*
X011680Y025591D01*
X010680Y025591D02*
X010680Y025031D01*
X009680Y025031D02*
X009680Y025591D01*
X008680Y025591D02*
X008680Y025031D01*
X007680Y025031D02*
X007680Y025591D01*
X006680Y025591D02*
X006680Y025031D01*
X005680Y025031D02*
X005680Y025591D01*
X004680Y025591D02*
X004680Y025031D01*
X003680Y025031D02*
X003680Y025591D01*
X002680Y025591D02*
X002680Y025031D01*
D12*
X008680Y028061D03*
X009680Y028061D03*
X010680Y028061D03*
X011080Y031811D03*
X012080Y031811D03*
X013080Y031811D03*
X014080Y031811D03*
X015080Y031811D03*
X016080Y031811D03*
X017080Y031811D03*
X018680Y031811D03*
X019680Y031811D03*
X020680Y031811D03*
X021680Y031811D03*
X022680Y031811D03*
X023680Y031811D03*
X024680Y031811D03*
X025680Y031811D03*
X027680Y031811D03*
X028680Y031811D03*
X029680Y031811D03*
X030680Y031811D03*
X031680Y031811D03*
X032680Y031811D03*
X033680Y031811D03*
X034680Y031811D03*
X029430Y027811D03*
X029430Y023811D03*
X026680Y023811D03*
X026680Y022811D03*
X026680Y021811D03*
X025680Y021811D03*
X025680Y022811D03*
X024180Y019811D03*
X023430Y019311D03*
X024180Y018811D03*
X024680Y016311D03*
X025680Y016311D03*
X025680Y015311D03*
X024680Y015311D03*
X024680Y014311D03*
X025680Y014311D03*
X025680Y012811D03*
X024680Y012811D03*
X023680Y012811D03*
X022680Y012811D03*
X021680Y012811D03*
X020680Y012811D03*
X018680Y012811D03*
X017680Y012811D03*
X016680Y012811D03*
X015680Y012811D03*
X014680Y012811D03*
X013680Y012811D03*
X012680Y012811D03*
X011680Y012811D03*
X009680Y012811D03*
X008680Y012811D03*
X009680Y014561D03*
X009180Y015311D03*
X010180Y015311D03*
X011680Y016811D03*
X015180Y015811D03*
X015680Y015061D03*
X016180Y015811D03*
X020680Y009811D03*
X020680Y008811D03*
X020680Y007811D03*
X017680Y007561D03*
X015680Y007561D03*
X012680Y006811D03*
X011680Y006811D03*
X011900Y004701D03*
X011900Y002921D03*
X014460Y002921D03*
X014460Y004701D03*
X009180Y006111D03*
X008180Y006011D03*
X007180Y006111D03*
X006180Y006011D03*
X005180Y006111D03*
X003680Y006561D03*
X002680Y006561D03*
X002180Y007811D03*
X002180Y008811D03*
X002180Y010061D03*
X002180Y011061D03*
X002680Y012311D03*
X002680Y014311D03*
X003180Y016061D03*
X002680Y016811D03*
X003680Y016811D03*
X006680Y014311D03*
X006680Y012311D03*
X007680Y016811D03*
X008080Y031811D03*
X009080Y031811D03*
X010080Y031811D03*
X028680Y018561D03*
X028680Y017311D03*
X028680Y016311D03*
X028680Y015311D03*
X030680Y015311D03*
X030680Y016311D03*
X032180Y016811D03*
X032180Y015561D03*
X031680Y012811D03*
X032680Y012811D03*
X033680Y012811D03*
X034680Y012811D03*
X035680Y012811D03*
X036680Y012811D03*
X037180Y014311D03*
X036180Y015561D03*
X036180Y016811D03*
X037180Y018311D03*
X032680Y018561D03*
X030680Y012811D03*
X029680Y012811D03*
X027680Y012811D03*
X026680Y012811D03*
X033180Y008811D03*
X033180Y004811D03*
D13*
X037680Y006311D03*
X038680Y006311D03*
X033680Y010311D03*
X033680Y011311D03*
X027930Y002811D03*
X026930Y002811D03*
X020664Y011686D03*
X018696Y011686D03*
X017664Y011686D03*
X015696Y011686D03*
X016664Y017311D03*
X014696Y017311D03*
X013680Y017311D03*
X012680Y017311D03*
X012680Y018311D03*
X011680Y018311D03*
X005680Y016811D03*
X008680Y026561D03*
X009680Y026561D03*
X010680Y026561D03*
X011680Y026561D03*
X012680Y026561D03*
X013680Y026561D03*
X031930Y026311D03*
X031930Y027311D03*
X003680Y005561D03*
X002680Y005561D03*
D14*
X018188Y005841D03*
X018188Y005061D03*
X019172Y005061D03*
X019172Y005841D03*
X034930Y006311D03*
X035930Y006311D03*
D15*
X021050Y003991D03*
X016310Y003991D03*
D16*
X010180Y006011D03*
X025680Y023811D03*
D17*
X034680Y011311D03*
X035680Y011311D03*
X036680Y011311D03*
X037680Y011311D03*
X037680Y008311D03*
X036680Y008311D03*
X035680Y008311D03*
X034680Y008311D03*
D18*
X035430Y007281D03*
X035930Y007281D03*
X036430Y007281D03*
X036930Y007281D03*
X036930Y009341D03*
X036430Y009341D03*
X035930Y009341D03*
X035430Y009341D03*
D19*
X038680Y022811D03*
X030806Y022811D03*
D20*
X009680Y009811D03*
X008680Y009811D03*
X007680Y009811D03*
X007680Y008811D03*
X008680Y008811D03*
X009680Y008811D03*
X006680Y008811D03*
X005680Y008811D03*
X005680Y009811D03*
X006680Y009811D03*
D21*
X002430Y003561D03*
X002430Y031061D03*
X037930Y031061D03*
X037930Y003561D03*
D22*
X006680Y016811D03*
D23*
X012680Y010128D02*
X012680Y009494D01*
X013680Y009494D02*
X013680Y010128D01*
X014680Y010128D02*
X014680Y009494D01*
X015680Y009494D02*
X015680Y010128D01*
X016680Y010128D02*
X016680Y009494D01*
X017680Y009494D02*
X017680Y010128D01*
X018680Y010128D02*
X018680Y009494D01*
D24*
X028180Y023811D03*
X028180Y027811D03*
X038430Y018311D03*
X038430Y014311D03*
D25*
X024680Y004911D03*
X023680Y003911D03*
X022680Y002911D03*
X024680Y002911D03*
X022680Y004911D03*
D26*
X026318Y004162D03*
X027105Y004162D03*
X027893Y004162D03*
X028680Y004162D03*
X029467Y004162D03*
X030255Y004162D03*
X031042Y004162D03*
X031042Y010461D03*
X030255Y010461D03*
X029467Y010461D03*
X028680Y010461D03*
X027893Y010461D03*
X027105Y010461D03*
X026318Y010461D03*
M02*
