%
M48
M72
T01C0.0200
T02C0.0236
T03C0.0276
T04C0.0315
T05C0.0320
T06C0.0354
T07C0.0360
T08C0.0394
T09C0.0400
T10C0.0512
T11C0.0610
T12C0.0900
T13C0.1181
%
T01
X10780Y9411
X11080Y11211
X9680Y11611
X12180Y13811
X14180Y14011
X17180Y14311
X19180Y15911
X20980Y16511
X22180Y17811
X24030Y17961
X25780Y19211
X27480Y20511
X29880Y21011
X32580Y23411
X38080Y26811
X38080Y27511
X32180Y30311
X27480Y29711
X26980Y26811
X24180Y29311
X23180Y27811
X16080Y30311
X5680Y27811
X9680Y21011
X11180Y20311
X8580Y18011
X9880Y16011
X14680Y8511
X20480Y10611
X25080Y9611
X25080Y7411
X29080Y12111
X31680Y11611
X32780Y14711
X32280Y7011
T02
X24180Y9811
X23180Y9811
X14680Y22111
X23180Y30311
X3180Y22111
T03
X8680Y26561
X9680Y26561
X10680Y26561
X11680Y26561
X12680Y26561
X13680Y26561
X12680Y18311
X12680Y17311
X13680Y17311
X14696Y17311
X16664Y17311
X11680Y18311
X6680Y16811
X5680Y16811
X15696Y11686
X17664Y11686
X18696Y11686
X20664Y11686
X26930Y2811
X27930Y2811
X33680Y10311
X33680Y11311
X37680Y6311
X38680Y6311
X31930Y26311
X31930Y27311
X3680Y5561
X2680Y5561
T04
X15680Y7561
X17680Y7561
T05
X9680Y14561
X9180Y15311
X10180Y15311
X9680Y19311
X8680Y19311
X7680Y19311
X6680Y19311
X5680Y19311
X4680Y19311
X3680Y19311
X2680Y19311
X2680Y16811
X3180Y16061
X3680Y16811
X2180Y11061
X2180Y10061
X2180Y8811
X2180Y7811
X15180Y15811
X15680Y15061
X16180Y15811
X15680Y19311
X14680Y19311
X13680Y19311
X12680Y19311
X11680Y19311
X10680Y19311
X16680Y19311
X17680Y19311
X18680Y19311
X19680Y19311
X20680Y19311
X21680Y19311
X23430Y19311
X24180Y18811
X24180Y19811
X21680Y25311
X20680Y25311
X19680Y25311
X18680Y25311
X17680Y25311
X16680Y25311
X15680Y25311
X14680Y25311
X13680Y25311
X12680Y25311
X11680Y25311
X10680Y25311
X9680Y25311
X8680Y25311
X7680Y25311
X6680Y25311
X5680Y25311
X4680Y25311
X3680Y25311
X2680Y25311
X8680Y28061
X9680Y28061
X10680Y28061
X34680Y11311
X35680Y11311
X36680Y11311
X37680Y11311
X37680Y8311
X36680Y8311
X35680Y8311
X34680Y8311
X34930Y6311
X35930Y6311
T06
X33180Y4811
X33180Y8811
X37180Y14311
X36180Y15561
X36180Y16811
X37180Y18311
X32680Y18561
X32180Y16811
X32180Y15561
X28680Y18561
X29430Y23811
X29430Y27811
X11680Y16811
X7680Y16811
X6680Y14311
X6680Y12311
X2680Y12311
X2680Y14311
T07
X5680Y9811
X6680Y9811
X6680Y8811
X5680Y8811
X7680Y8811
X8680Y8811
X9680Y8811
X9680Y9811
X8680Y9811
X7680Y9811
X18188Y5841
X18188Y5061
X19172Y5061
X19172Y5841
T08
X18680Y9811
X17680Y9811
X16680Y9811
X15680Y9811
X14680Y9811
X13680Y9811
X12680Y9811
X28180Y23811
X28180Y27811
X38430Y18311
X38430Y14311
T09
X36680Y12811
X35680Y12811
X34680Y12811
X33680Y12811
X32680Y12811
X31680Y12811
X30680Y12811
X29680Y12811
X27680Y12811
X26680Y12811
X25680Y12811
X24680Y12811
X23680Y12811
X22680Y12811
X21680Y12811
X20680Y12811
X18680Y12811
X17680Y12811
X16680Y12811
X15680Y12811
X14680Y12811
X13680Y12811
X12680Y12811
X11680Y12811
X9680Y12811
X8680Y12811
X11680Y6811
X12680Y6811
X11900Y4701
X10180Y6011
X9180Y6111
X8180Y6011
X7180Y6111
X6180Y6011
X5180Y6111
X3680Y6561
X2680Y6561
X11900Y2921
X14460Y2921
X14460Y4701
X20680Y7811
X20680Y8811
X20680Y9811
X24680Y14311
X25680Y14311
X25680Y15311
X24680Y15311
X24680Y16311
X25680Y16311
X28680Y16311
X28680Y15311
X30680Y15311
X30680Y16311
X28680Y17311
X26680Y21811
X25680Y21811
X25680Y22811
X26680Y22811
X26680Y23811
X25680Y23811
X25680Y31811
X24680Y31811
X23680Y31811
X22680Y31811
X21680Y31811
X20680Y31811
X19680Y31811
X18680Y31811
X17080Y31811
X16080Y31811
X15080Y31811
X14080Y31811
X13080Y31811
X12080Y31811
X11080Y31811
X10080Y31811
X9080Y31811
X8080Y31811
X27680Y31811
X28680Y31811
X29680Y31811
X30680Y31811
X31680Y31811
X32680Y31811
X33680Y31811
X34680Y31811
T10
X30806Y22811
X38680Y22811
T11
X24680Y4911
X23680Y3911
X22680Y2911
X24680Y2911
X22680Y4911
T12
X21050Y3991
X16310Y3991
T13
X2430Y3561
X2430Y31061
X37930Y31061
X37930Y3561
M30
